<svg width="43" height="36" viewBox="0 0 43 36" fill="none" xmlns="http://www.w3.org/2000/svg">
<path d="M19.6137 14.276L17.8757 12.0415L25.6965 0L27.6827 1.98623L19.6137 14.276Z" fill="url(#paint0_linear_102_2065)"/>
<path d="M13.7795 35.6282L12.0415 33.3937L14.5243 29.5454L16.1381 32.0282L13.7795 35.6282Z" fill="url(#paint1_linear_102_2065)"/>
<path d="M20.235 25.9451L18.4971 23.3382L34.2628 0L36.249 1.98623L20.235 25.9451Z" fill="url(#paint2_linear_102_2065)"/>
<path d="M18.2485 7.57219L16.5105 10.055L13.6553 5.58596H4.96558L21.1037 30.6621L40.7177 1.61349L42.8281 3.72386L21.1037 36.0001L0 3.10317H15.3933L18.2485 7.57219Z" fill="url(#paint3_linear_102_2065)"/>
<defs>
<linearGradient id="paint0_linear_102_2065" x1="22.7792" y1="0" x2="22.8413" y2="28.3038" gradientUnits="userSpaceOnUse">
<stop stop-color="#88D23A"/>
<stop offset="1" stop-color="#0079E0"/>
</linearGradient>
<linearGradient id="paint1_linear_102_2065" x1="14.0898" y1="29.5454" x2="14.0898" y2="35.6282" gradientUnits="userSpaceOnUse">
<stop stop-color="#0075D8"/>
<stop offset="0.739583" stop-color="#0079E0"/>
</linearGradient>
<linearGradient id="paint2_linear_102_2065" x1="27.373" y1="0" x2="27.373" y2="25.9451" gradientUnits="userSpaceOnUse">
<stop stop-color="#88D23A"/>
<stop offset="0.739583" stop-color="#0079E0"/>
</linearGradient>
<linearGradient id="paint3_linear_102_2065" x1="21.414" y1="1.61349" x2="21.414" y2="36.0001" gradientUnits="userSpaceOnUse">
<stop stop-color="#88D23A"/>
<stop offset="0.739583" stop-color="#0079E0"/>
</linearGradient>
</defs>
</svg>
