<svg width="18" height="24" viewBox="0 0 18 24" fill="none" xmlns="http://www.w3.org/2000/svg">
<path d="M12.0618 8.07653C13.0396 8.48652 13.9205 9.08633 14.6566 9.83263C16.1047 11.2997 17 13.3258 17 15.5642C16.9997 20.0377 13.4178 23.6667 9.00043 23.6667C4.58102 23.6667 1 20.0377 1 15.5639C1 13.3256 1.89646 11.2994 3.34343 9.83235C4.90572 8.2505 5.68687 6.17593 5.68687 4.10137C5.68687 3.00288 5.46813 1.95568 5.07714 1C8.2547 3.15135 9.11036 7.50618 6.98707 10.7254C6.78732 11.0286 6.69184 11.3714 6.69298 11.7111C6.69439 12.2809 6.96582 12.8391 7.4693 13.1805C8.27141 13.7231 9.35657 13.5041 9.89264 12.6912C10.1519 12.2985 10.2746 11.8554 10.2785 11.4162C10.2848 10.6546 9.9272 9.90403 9.25514 9.44928C11.2362 10.2806 12.3879 12.2778 12.2667 14.3303C13.821 12.5305 13.7559 9.79382 12.0618 8.07653Z" fill="white" stroke="white" stroke-opacity="0.4" stroke-width="0.5" stroke-miterlimit="10" stroke-linecap="round" stroke-linejoin="round"/>
</svg>
