<svg width="1441" height="120" viewBox="0 0 1441 120" fill="none" xmlns="http://www.w3.org/2000/svg">
<path fill-rule="evenodd" clip-rule="evenodd" d="M50.459 1.54862C50.879 2.57211 51.454 6.38974 51.737 10.0328C52.492 19.724 46.937 37.9572 40.704 46.2449C39.306 48.1043 39.178 48.0454 37.472 44.7555C35.534 41.0147 35.606 40.9598 32.99 48.1821C31.962 51.0221 31.924 51.0341 29.868 49.1797C25.772 45.4847 23.682 39.7787 23.699 32.339C23.708 28.4984 24.195 23.6683 24.78 21.6044C26.752 14.6564 24.289 18.7514 20.964 27.9488C17.716 36.9357 14.007 42.8133 11.585 42.8133C8.245 42.8133 4.423 35.3815 1.582 23.3611C0.299 17.9354 0.159 22.157 0.083 68.5012L0 119.626L720.25 119.376L1440.5 119.126L1440.8 71.2435C1440.96 44.9081 1440.81 20.526 1440.46 17.0605L1439.83 10.76L1436.66 15.7458C1431.96 23.1575 1415.05 41.7658 1412.41 42.4252C1409.27 43.2133 1405.25 40.5618 1400.73 34.7182C1398.66 32.0377 1396.53 29.8451 1395.98 29.8451C1395.44 29.8451 1395 31.3674 1395 33.2278C1395 37.4754 1390.82 53.5938 1387.94 60.4929L1385.76 65.7021L1381.22 60.6744C1377.32 56.3421 1368.05 49.834 1365.75 49.8051C1365.34 49.8001 1364.99 52.6022 1364.98 56.0308C1364.97 62.9 1363.41 67.0508 1360.65 67.5814C1357.73 68.1421 1355.17 64.91 1353.97 59.1482C1352.78 53.4073 1351.05 52.8058 1350.92 58.0848C1350.88 59.8355 1350.28 63.0635 1349.59 65.2582L1348.34 69.2484L1347.08 63.4177C1345.43 55.7715 1343.5 51.2805 1339.52 45.8059C1333.88 38.057 1332 33.4124 1332 27.2365C1332 21.6293 1331.97 21.5784 1330.01 23.3511C1327.11 25.9716 1322.3 33.7495 1320.43 38.866C1319.53 41.311 1318.5 46.9032 1318.14 51.2925C1317.5 59.1891 1317.47 59.2469 1315.79 56.777C1314.86 55.4044 1313.57 50.9154 1312.94 46.8015C1312.3 42.6876 1311.14 38.0879 1310.36 36.5796C1309.01 33.953 1296.45 22.8623 1294.83 22.8623C1294.4 22.8623 1293.2 21.2103 1292.16 19.1923L1290.27 15.5213L1287.19 19.7639C1282.43 26.3188 1281.36 32.8567 1283.48 42.3714C1285.34 50.7239 1285.08 56.2692 1282.52 62.3812L1280.99 66.0283L1277.6 61.6041C1274.02 56.9216 1269.49 53.111 1264.43 50.5104L1261.36 48.9332L1259.13 56.4967C1256.03 67.0059 1254.49 65.1674 1254.52 50.9932C1254.54 41.696 1254.89 39.4894 1257.24 33.8832C1258.72 30.3439 1259.77 27.2844 1259.57 27.0849C1258.79 26.3058 1250.22 29.1788 1244.83 32.0268C1237.49 35.9112 1229.97 43.5096 1226.44 50.6251L1223.63 56.2802L1221.09 50.5443C1219.69 47.39 1218.31 44.8154 1218.03 44.8233C1217.74 44.8323 1215.84 47.1008 1213.8 49.865L1210.11 54.8916L1208.4 51.5957C1205.57 46.1351 1200.92 40.9768 1195.99 37.8185C1193.42 36.1766 1191.03 34.8329 1190.66 34.8329C1190.3 34.8329 1190 36.1327 1190 37.7208C1190 41.285 1186.3 53.4821 1184.97 54.3021C1184.39 54.6642 1184 52.6182 1184 49.1348C1184 43.4028 1183.99 43.3799 1182.04 45.3351C1180.96 46.4174 1178.73 49.7692 1177.08 52.7838L1174.09 58.2653L1174.18 46.2997C1174.33 28.4346 1172.06 22.3964 1163.1 16.7283C1158.95 14.1018 1145.31 9.2517 1144.46 10.0996C1144.27 10.2911 1144.55 12.4099 1145.09 14.8091C1146.67 21.7839 1144.28 33.8553 1140.08 40.2067L1138.18 43.0866L1135.85 38.7104C1133.86 34.9715 1133.52 32.8797 1133.51 24.3586C1133.5 14.3572 1133.71 13.5312 1138.78 3.65944C1139.74 1.78703 1134.54 3.25742 1127.16 6.94237C1117.68 11.6728 1111.16 18.3653 1107.76 26.8525C1105.99 31.2736 1105.56 34.3989 1105.53 42.94L1105.5 53.5419L1102.29 49.9228L1099.08 46.3047L1099.01 49.2974C1098.96 50.9433 1098.33 53.3753 1097.59 54.7021C1096.3 57.0164 1096.21 57.0364 1095.21 55.1819C1092.65 50.3977 1092.75 43.6253 1095.56 32.4567C1096.25 29.7314 1096.19 29.6756 1093.89 30.8906C1091.1 32.361 1083.89 37.9353 1079.27 42.1858L1076.04 45.1575L1074.64 41.7409C1073.86 39.8615 1072.91 36.824 1072.51 34.9905L1071.8 31.6577L1068.98 34.3521C1067.43 35.8344 1064.7 39.7897 1062.9 43.1435L1059.65 49.2405L1058.55 43.7819C1057.95 40.7803 1055.78 35.3336 1053.73 31.6786C1049.19 23.5785 1048.89 18.5608 1052.45 9.82229L1054.9 3.80507L1052.7 4.44252C1048.82 5.56476 1040.57 11.7286 1038.14 15.3228C1032.67 23.4079 1031.78 31.0851 1035 42.3145C1036.1 46.1511 1037 50.7647 1037 52.5663V55.8413L1034.25 53.8951C1032.74 52.8247 1030.13 51.6725 1028.45 51.3354C1025.51 50.7438 1025.31 50.9274 1023.05 56.4937C1021.77 59.6679 1020.37 62.6456 1019.96 63.1094C1018.64 64.5918 1017.82 56.1066 1018.9 52.1883C1019.48 50.1114 1019.79 48.2569 1019.6 48.0674C1018.75 47.2195 1005.13 53.1689 1001.77 55.8573L998.034 58.8409L997.382 54.7699L996.729 50.6999L994.468 52.8187L992.206 54.9385L990.959 51.1698C988.882 44.8912 979.244 29.5858 974.862 25.6055C970.426 21.5764 968.372 20.8163 969.475 23.6104C971.157 27.868 971.186 35.6788 969.542 41.3209C968.305 45.5655 967.593 46.7716 966.935 45.7351C966.438 44.951 966.019 43.1874 966.006 41.8157C965.962 37.5323 961.399 29.2636 955.614 22.986C949.785 16.6605 948.491 13.8085 949.215 8.88361C949.456 7.24463 949.339 5.90392 948.954 5.90392C947.468 5.90392 939.755 15.2071 937.946 19.1813C935.295 25.007 935.53 28.9404 939 36.828C942.245 44.2029 942.585 47.1536 940.893 53.2327C939.667 57.6389 938.718 56.8468 937.566 50.4555C937.045 47.5656 935.089 44.7206 929.586 38.85C922.355 31.137 920.063 26.5692 919.968 19.6771C919.937 17.4027 919.918 17.3987 918.356 19.3709C917.486 20.4682 915.139 24.7327 913.138 28.8476C910.075 35.1511 909.502 37.3726 909.501 42.9559L909.5 49.5827L905.845 47.7222C903.834 46.6987 901.282 44.7106 900.173 43.3041L898.156 40.7474L895.653 44.0243C890.992 50.1283 886 59.1442 886 61.4585C886 64.2137 885.66 64.2636 881.92 62.06C878.622 60.1168 876.007 55.3066 875.985 51.1418C875.962 46.9142 874.294 50.0505 872.987 56.779C871.166 66.154 870.988 66.7545 870.028 66.7545C868.631 66.7545 867.012 59.9672 867.006 54.0846C866.991 40.8381 861.355 27.445 851.336 16.8501C844.568 9.69362 840.868 6.97728 832.774 3.2225L828.047 1.02989L830.948 6.21018C838.532 19.7559 838.66 28.8506 831.497 45.2613C826.28 57.2129 825.218 62.0839 826.826 66.6846C828.117 70.3796 827.069 70.6419 822.889 67.6732C819.125 64.9998 816.886 60.6884 815.56 53.5589L814.497 47.8459L809.443 50.1812C803.368 52.9893 797.55 59.4564 795.225 65.9864C794.291 68.6089 793.091 70.609 792.558 70.4315C792.025 70.2539 790.519 68.1201 789.212 65.6881C786.639 60.9039 786.668 62.4231 788.592 33.171C789.189 24.0923 789.039 22.576 787.159 18.7065C785.032 14.3272 771.482 -0.89438 770.544 0.0413218C770.264 0.320636 770.477 2.08829 771.017 3.96867C773.881 13.9302 768.54 35.8244 760.704 46.2449C759.306 48.1043 759.178 48.0454 757.472 44.7555C755.534 41.0147 755.606 40.9598 752.99 48.1821C751.962 51.0221 751.924 51.0341 749.868 49.1797C745.772 45.4847 743.682 39.7787 743.699 32.339C743.708 28.4984 744.195 23.6683 744.78 21.6044C746.752 14.6564 744.289 18.7514 740.964 27.9488C737.716 36.9357 734.007 42.8133 731.585 42.8133C727.737 42.8133 722.903 31.917 720.743 18.3753L719.588 11.1371L716.544 15.9343C711.936 23.1974 695.014 41.7738 692.413 42.4252C689.267 43.2133 685.25 40.5618 680.735 34.7182C678.664 32.0377 676.526 29.8451 675.985 29.8451C675.443 29.8451 675 31.3674 675 33.2278C675 37.4754 670.824 53.5938 667.937 60.4929L665.756 65.7021L661.225 60.6744C657.32 56.3421 648.054 49.834 645.75 49.8051C645.337 49.8001 644.993 52.6022 644.985 56.0308C644.969 62.9 643.411 67.0508 640.65 67.5814C637.732 68.1421 635.173 64.91 633.974 59.1482C632.779 53.4073 631.051 52.8058 630.923 58.0848C630.881 59.8355 630.282 63.0635 629.593 65.2582L628.339 69.2484L627.079 63.4177C625.426 55.7715 623.498 51.2805 619.516 45.8059C613.88 38.057 612 33.4124 612 27.2365C612 21.6293 611.974 21.5784 610.011 23.3511C607.108 25.9716 602.303 33.7495 600.427 38.866C599.53 41.311 598.503 46.9032 598.144 51.2925C597.499 59.1891 597.475 59.2469 595.794 56.777C594.86 55.4044 593.574 50.9154 592.937 46.8015C592.3 42.6876 591.143 38.0879 590.365 36.5796C589.009 33.953 576.449 22.8623 574.829 22.8623C574.399 22.8623 573.198 21.2103 572.16 19.1923L570.272 15.5213L567.191 19.7639C562.432 26.3188 561.359 32.8567 563.48 42.3714C565.343 50.7239 565.076 56.2692 562.516 62.3812L560.988 66.0283L557.601 61.6041C554.017 56.9216 549.493 53.111 544.43 50.5104L541.361 48.9332L539.13 56.4967C536.031 67.0059 534.492 65.1674 534.524 50.9932C534.544 41.696 534.894 39.4894 537.239 33.8832C538.719 30.3439 539.766 27.2844 539.566 27.0849C538.785 26.3058 530.22 29.1788 524.832 32.0268C517.485 35.9112 509.97 43.5096 506.438 50.6251L503.631 56.2802L501.09 50.5443C499.693 47.39 498.313 44.8154 498.025 44.8233C497.736 44.8323 495.837 47.1008 493.804 49.865L490.107 54.8916L488.399 51.5957C485.569 46.1351 480.923 40.9768 475.99 37.8185C473.424 36.1766 471.027 34.8329 470.662 34.8329C470.298 34.8329 470 36.1327 470 37.7208C470 41.285 466.302 53.4821 464.973 54.3021C464.385 54.6642 464 52.6182 464 49.1348C464 43.4028 463.988 43.3799 462.041 45.3351C460.963 46.4164 458.733 49.7692 457.085 52.7838L454.089 58.2653L454.184 46.2997C454.326 28.4346 452.063 22.3964 443.104 16.7283C438.952 14.1018 425.311 9.2517 424.46 10.0996C424.269 10.2911 424.555 12.4099 425.095 14.8091C426.666 21.7839 424.284 33.8553 420.085 40.2067L418.18 43.0866L415.849 38.7104C413.857 34.9715 413.516 32.8797 413.509 24.3586C413.5 14.3572 413.71 13.5312 418.782 3.65944C419.744 1.78703 414.539 3.25742 407.157 6.94237C397.684 11.6728 391.165 18.3653 387.763 26.8525C385.991 31.2736 385.557 34.3989 385.532 42.94L385.5 53.5419L382.292 49.9228L379.083 46.3047L379.006 49.2974C378.964 50.9433 378.326 53.3753 377.59 54.7021C376.304 57.0164 376.208 57.0364 375.214 55.1819C372.647 50.3977 372.75 43.6253 375.56 32.4567C376.245 29.7314 376.186 29.6756 373.885 30.8906C371.101 32.361 363.889 37.9353 359.272 42.1858L356.044 45.1575L354.636 41.7409C353.862 39.8615 352.907 36.824 352.514 34.9905L351.801 31.6577L348.981 34.3521C347.431 35.8344 344.696 39.7897 342.904 43.1435L339.647 49.2405L338.552 43.7819C337.95 40.7803 335.779 35.3336 333.729 31.6786C329.185 23.5785 328.891 18.5608 332.451 9.82229L334.902 3.80507L332.701 4.44252C328.821 5.56476 320.575 11.7286 318.143 15.3228C312.675 23.4079 311.781 31.0851 315 42.3145C316.1 46.1511 317 50.7647 317 52.5663V55.8413L314.25 53.8951C312.738 52.8247 310.127 51.6725 308.449 51.3354C305.506 50.7438 305.314 50.9274 303.055 56.4937C301.766 59.6679 300.373 62.6456 299.96 63.1094C298.639 64.5918 297.816 56.1066 298.901 52.1883C299.475 50.1114 299.79 48.2569 299.6 48.0674C298.751 47.2195 285.131 53.1689 281.767 55.8573L278.034 58.8409L277.382 54.7699L276.729 50.6999L274.468 52.8187L272.206 54.9385L270.959 51.1698C268.882 44.8912 259.244 29.5858 254.862 25.6055C250.426 21.5764 248.372 20.8163 249.475 23.6104C251.157 27.868 251.186 35.6788 249.542 41.3209C248.305 45.5655 247.593 46.7716 246.935 45.7351C246.438 44.951 246.019 43.1874 246.006 41.8157C245.962 37.5323 241.399 29.2636 235.614 22.986C229.785 16.6605 228.491 13.8085 229.215 8.88361C229.456 7.24463 229.339 5.90392 228.954 5.90392C227.468 5.90392 219.755 15.2071 217.946 19.1813C215.295 25.007 215.53 28.9404 219 36.828C222.245 44.2029 222.585 47.1536 220.893 53.2327C219.667 57.6389 218.718 56.8468 217.566 50.4555C217.045 47.5656 215.089 44.7206 209.586 38.85C202.355 31.137 200.063 26.5692 199.968 19.6771C199.937 17.4027 199.918 17.3987 198.356 19.3709C197.486 20.4682 195.139 24.7327 193.138 28.8476C190.075 35.1511 189.502 37.3726 189.501 42.9559L189.5 49.5827L185.845 47.7222C183.834 46.6987 181.282 44.7106 180.173 43.3041L178.156 40.7474L175.653 44.0243C170.992 50.1283 166 59.1442 166 61.4585C166 64.2137 165.66 64.2636 161.92 62.06C158.622 60.1168 156.007 55.3066 155.985 51.1418C155.962 46.9142 154.294 50.0505 152.987 56.779C151.166 66.154 150.988 66.7545 150.028 66.7545C148.631 66.7545 147.012 59.9672 147.006 54.0846C146.991 40.8381 141.355 27.445 131.336 16.8501C124.568 9.69362 120.868 6.97728 112.774 3.2225L108.047 1.02989L110.948 6.21018C118.532 19.7559 118.66 28.8506 111.497 45.2613C106.28 57.2129 105.218 62.0839 106.826 66.6846C108.117 70.3796 107.069 70.6419 102.889 67.6732C99.125 64.9998 96.886 60.6884 95.56 53.5589L94.497 47.8459L89.443 50.1812C83.368 52.9893 77.55 59.4564 75.225 65.9864C74.291 68.6089 73.091 70.609 72.558 70.4315C72.025 70.2539 70.519 68.1201 69.212 65.6881C67.057 61.6809 66.887 60.429 67.387 52.29C69.337 20.531 69.373 22.7126 66.839 18.1738C62.488 10.3819 48.092 -4.23118 50.459 1.54862ZM0.465 68.7496C0.465 97.0052 0.593 108.565 0.749 94.4365C0.906 80.3092 0.906 57.191 0.749 43.0627C0.593 28.9354 0.465 40.494 0.465 68.7496Z" fill="#F01313"/>
</svg>
