<svg width="146" height="45" viewBox="0 0 146 45" fill="none" xmlns="http://www.w3.org/2000/svg">
<mask id="mask0_203_254" style="mask-type:luminance" maskUnits="userSpaceOnUse" x="0" y="0" width="45" height="45">
<path d="M11.0978 3.64977C0.491846 9.79004 -3.15796 23.3587 2.9823 33.9217C9.12257 44.4847 22.6483 48.1345 33.2542 41.9942C43.8602 35.854 47.467 22.3282 41.3268 11.7223C37.3764 4.85206 30.0338 0.644043 22.1331 0.644043C18.2686 0.686982 14.447 1.71752 11.0978 3.64977Z" fill="white"/>
</mask>
<g mask="url(#mask0_203_254)">
<path d="M44.633 -4.50867H-5.17615V45.3864H44.633V-4.50867Z" fill="url(#paint0_radial_203_254)"/>
</g>
<mask id="mask1_203_254" style="mask-type:luminance" maskUnits="userSpaceOnUse" x="1" y="1" width="38" height="35">
<path d="M37.7628 18.2919C36.1741 27.6096 26.6846 35.124 16.551 35.124C6.41739 35.124 -0.281085 27.6096 1.35059 18.2919C2.98227 8.97415 12.3 1.45984 22.3907 1.45984C32.4813 1.45984 39.3945 9.01709 37.7628 18.2919Z" fill="white"/>
</mask>
<g mask="url(#mask1_203_254)">
<path d="M50.5585 1.11633H0.74939V51.0114H50.5585V1.11633Z" fill="url(#paint1_radial_203_254)"/>
</g>
<path d="M110.544 27.4379C106.594 27.4379 104.103 30.229 104.103 34.1364C104.103 38.4303 107.238 41.1784 111.446 41.1784C113.206 41.1784 115.396 40.706 115.396 38.4732C115.396 38.3444 115.396 38.2156 115.396 38.0868C115.396 38.0009 115.31 37.958 115.225 37.958C115.182 37.958 115.182 37.958 115.139 38.0009C114.28 38.5591 113.292 38.8167 112.262 38.7738C109.514 38.7738 107.882 37.1421 107.581 34.6946L115.826 33.5352C115.869 33.1917 115.912 32.8912 115.912 32.5477C115.869 29.4131 113.679 27.4379 110.544 27.4379ZM107.539 32.6765C107.667 30.916 108.311 29.499 110.244 29.499C111.747 29.499 112.434 30.6154 112.434 31.9036L107.539 32.6765ZM95.7303 21.2118C97.4908 21.2118 99.6807 20.7394 99.6807 18.5066C99.6807 18.3778 99.6807 18.249 99.6807 18.1202C99.6807 18.0343 99.6378 17.9914 99.5519 17.9914C99.509 17.9914 99.466 17.9914 99.466 18.0343C98.6072 18.5925 97.6196 18.8501 96.5891 18.8072C93.841 18.8072 92.2093 17.1755 91.9088 14.728L100.11 13.5686C100.153 13.2251 100.196 12.9246 100.196 12.581C100.196 9.44651 98.0061 7.47132 94.8716 7.47132C90.9212 7.47132 88.4307 10.2623 88.4307 14.1698C88.3878 18.4637 91.5223 21.2118 95.7303 21.2118ZM94.528 9.48945C96.0309 9.48945 96.7609 10.6059 96.7609 11.894L91.8658 12.6669C91.9517 10.9064 92.5958 9.48945 94.528 9.48945ZM104.275 38.3444C104.232 38.3015 104.146 38.3015 104.103 38.3444C103.631 38.6879 103.073 38.8167 102.515 38.8167C101.141 38.8167 100.325 38.0009 100.325 36.6698V30.229H103.846V27.8244H100.282V25.248H96.675V27.8244H95.1721V30.229H96.675V36.7557C96.675 39.5467 98.3925 41.1784 101.141 41.1784C102.515 41.1784 104.361 40.5772 104.361 38.9026C104.361 38.7309 104.361 38.5591 104.318 38.4303L104.275 38.3444ZM112.391 16.7461C112.391 19.5372 114.108 21.1688 116.856 21.1688C118.23 21.1688 120.077 20.5677 120.077 18.8931C120.077 18.7213 120.077 18.5496 120.034 18.4207L119.948 18.2919C119.905 18.249 119.819 18.249 119.776 18.2919C119.304 18.6354 118.746 18.7643 118.187 18.7643C116.813 18.7643 115.998 17.9484 115.998 16.6173V10.1765H119.519V7.77189H115.955V5.23849H112.348V7.77189H110.888V10.1765H112.391V16.7461ZM121.15 30.4866H121.064V30.0143C121.064 28.5114 120.077 27.6526 118.617 27.6526C117.414 27.6526 116.341 28.2967 116.169 29.5849L116.212 29.7137H116.341C116.513 29.6278 116.685 29.5849 116.856 29.5849C117.5 29.5849 117.672 30.186 117.672 30.7442V40.8349H121.279V32.8482C122.224 31.9036 123.254 30.8301 124.542 30.8301C124.929 30.8301 125.315 30.873 125.659 31.0019L125.873 27.4809C125.659 27.4379 125.444 27.395 125.229 27.395C123.297 27.4379 122.224 28.9408 121.15 30.4866ZM139.743 38.9456C139.571 39.0314 139.442 39.0744 139.27 39.0744C138.669 39.0744 138.497 38.5591 138.497 37.915V31.1307C138.497 30.0143 138.412 28.8978 137.51 28.1249C136.952 27.6526 136.222 27.395 135.535 27.4379C133.431 27.4379 131.885 28.7261 130.425 30.3148H130.339V27.8244H126.775V40.8349H130.382V32.7194C131.155 31.9465 132.271 30.6583 133.56 30.6583C134.247 30.6154 134.805 31.1736 134.848 31.8606C134.848 31.9465 134.848 31.9894 134.848 32.0753V38.1297C134.848 39.9332 135.749 41.0066 137.467 41.0066C138.927 41.0066 139.829 40.1478 139.914 39.0314C139.914 38.9885 139.914 38.9456 139.872 38.9026L139.743 38.9456ZM91.0929 33.02C89.8906 32.4188 88.946 31.9036 88.946 31.1307C88.946 30.4007 89.633 29.8854 90.9641 29.8854C91.78 29.8854 92.5958 30.0143 93.3687 30.229L93.7981 27.7385C92.8534 27.5667 91.9088 27.4809 90.9641 27.4809C87.1426 27.4809 85.4679 29.6278 85.4679 31.603C85.4679 33.8358 86.8849 34.7375 88.6025 35.5534C89.8477 36.1545 90.7065 36.5839 90.7065 37.4427C90.7065 38.4732 89.7618 38.8597 88.5595 38.8597C87.4861 38.8597 86.4555 38.602 85.5538 38.0868C85.5109 38.0438 85.425 38.0438 85.3821 38.0868C85.3391 38.1297 85.2962 38.1727 85.2962 38.2156C85.2962 38.3444 85.2962 38.4732 85.2962 38.602C85.2962 40.3196 86.6273 41.1784 88.9889 41.1784C93.0252 41.1784 94.3563 38.6879 94.3563 36.9274C94.2704 34.7375 92.7246 33.8358 91.0929 33.02ZM104.576 21.2118C108.612 21.2118 109.943 18.7213 109.943 16.9608C109.943 14.728 108.397 13.8263 106.766 13.0104C105.563 12.4093 104.619 11.937 104.619 11.1211C104.619 10.3912 105.306 9.83296 106.637 9.83296C107.453 9.83296 108.269 9.96178 109.041 10.2194L109.471 7.72895C108.526 7.5572 107.581 7.47132 106.637 7.47132C102.815 7.47132 101.141 9.61826 101.141 11.5935C101.141 13.8263 102.558 14.6851 104.275 15.5438C105.477 16.145 106.336 16.5744 106.336 17.4331C106.336 18.4637 105.392 18.8501 104.189 18.8501C103.116 18.8501 102.085 18.5925 101.184 18.0772C101.141 18.0343 101.055 18.0343 101.012 18.0772C100.969 18.1202 100.926 18.1631 100.926 18.2061C100.926 18.3349 100.926 18.4637 100.926 18.5925C100.926 20.3101 102.257 21.2118 104.576 21.2118ZM79.113 27.4379C75.1626 27.4379 72.6721 30.229 72.6721 34.1364C72.6721 38.4303 75.8067 41.1784 80.0147 41.1784C81.7752 41.1784 83.9651 40.706 83.9651 38.4732C83.9651 38.3444 83.9651 38.2156 83.9651 38.0868C83.9651 38.0438 83.9221 38.0009 83.9221 37.958C83.8792 37.915 83.7933 37.915 83.7504 37.958C82.8916 38.5162 81.904 38.7738 80.8735 38.7309C78.1254 38.7309 76.4937 37.0992 76.1931 34.6517L84.3945 33.4923C84.4374 33.1488 84.4803 32.8482 84.4803 32.5047C84.4374 29.4131 82.2475 27.4379 79.113 27.4379ZM76.1072 32.6765C76.2361 30.916 76.8801 29.499 78.8124 29.499C80.3153 29.499 81.0452 30.6154 81.0452 31.9036L76.1072 32.6765ZM78.6406 21.04C79.2418 21.04 79.8 21.04 80.3582 20.9971C81.6464 20.9112 82.9345 20.6106 84.1368 20.0954C85.8544 19.3225 87.0567 17.7337 87.3143 15.8873C87.4431 15.0286 87.3143 14.1698 86.9279 13.354C86.4985 12.5381 85.8544 11.894 85.0385 11.4646C84.5233 11.207 83.9651 10.9923 83.4069 10.8635C84.2227 10.477 84.9097 9.91884 85.3821 9.18888C85.7685 8.63067 85.9832 7.98659 85.9832 7.29956C85.9832 6.69842 85.8114 6.14021 85.5109 5.66788C85.1244 5.06674 84.5233 4.55147 83.8363 4.2509C82.591 3.64975 81.3029 3.43506 79.2418 3.43506C77.3525 3.478 75.5061 3.64975 73.6597 3.99326H73.5739V20.6106H73.6597C75.3343 20.8683 76.966 21.04 78.6406 21.04ZM77.5242 5.7967C77.9536 5.75376 78.4259 5.71082 78.8553 5.71082C79.3706 5.71082 79.8429 5.75376 80.3153 5.83964C80.9164 5.92552 81.4746 6.22609 81.904 6.69842C82.2046 7.04193 82.3334 7.47132 82.2904 7.90071C82.2046 8.75949 81.7322 9.53239 81.0023 9.96178C80.2294 10.477 79.3277 10.8206 77.4813 10.9923L77.5242 5.7967ZM77.5242 12.581C78.1683 12.4093 78.8124 12.3234 79.4565 12.3234C79.9288 12.3234 80.4441 12.3664 80.9164 12.4952C82.2046 12.8816 82.9775 13.7404 83.1063 14.8998C83.1492 15.5438 83.0634 16.1879 82.7628 16.7461C82.5051 17.3043 82.0758 17.7337 81.5605 18.0772C80.7876 18.5066 79.8859 18.7213 78.9842 18.6784C78.5118 18.6784 77.9966 18.6354 77.5242 18.5496V12.581ZM68.8935 23.4446C68.3353 23.4446 67.82 23.6593 67.3906 24.0457C66.8754 24.561 66.6177 25.2051 66.6177 25.9351L66.6607 26.0639H66.8324C67.0471 25.978 67.2618 25.9351 67.5195 25.978C68.4212 26.1068 68.8506 27.6526 68.7647 30.3148C68.6788 31.9465 68.3782 33.5782 67.863 35.1669C67.6483 35.854 67.3048 36.498 66.8754 37.0562C66.5748 37.4856 66.1025 37.7433 65.5872 37.8291H65.5443C65.4154 37.8291 65.3296 37.8291 65.2008 37.7862L63.1397 23.7881H59.0605L60.6063 33.0629C60.4775 34.0505 60.1769 35.0381 59.7905 35.9828C59.3181 37.0133 58.717 37.6144 58.03 37.7003C57.9011 37.7003 57.7294 37.7433 57.6006 37.7433H57.3859L55.3248 23.7881H51.2456L54.0796 40.8778H54.1655C54.6807 41.0066 55.2389 41.0925 55.7542 41.0925C56.1836 41.0925 56.613 41.0496 57.0424 40.9637C58.1158 40.7061 59.1034 40.1049 59.7905 39.2032C60.4345 38.4732 60.9069 37.6144 61.2074 36.6698L61.8945 40.9207H61.9803C62.5815 41.0496 63.1826 41.1354 63.7838 41.1354H64.2561C65.2866 41.1354 66.2742 40.8349 67.133 40.2767C67.9918 39.7185 68.7218 38.9885 69.28 38.1297C70.1817 36.6698 70.8687 35.0381 71.2551 33.3635C71.6416 31.6889 71.8563 29.9284 71.8563 28.2108C71.8992 27.0515 71.6845 25.8921 71.2122 24.8616C70.6969 23.9599 69.8382 23.4017 68.8935 23.4446ZM143.35 37.5286C142.405 37.5715 141.632 38.3873 141.675 39.3749C141.718 40.2767 142.448 41.0066 143.35 41.0496C144.294 41.0066 145.067 40.1908 145.024 39.2032C144.981 38.3015 144.251 37.5715 143.35 37.5286ZM143.35 40.7919C142.534 40.8778 141.761 40.2337 141.718 39.4179C141.632 38.602 142.276 37.8291 143.092 37.7862C143.908 37.7003 144.681 38.3444 144.724 39.1602C144.724 39.2032 144.724 39.2461 144.724 39.2891C144.767 40.062 144.165 40.749 143.35 40.7919ZM144.337 40.1049H144.251C144.08 40.1049 143.865 39.7614 143.607 39.2891C143.865 39.2032 144.08 38.9456 144.08 38.6879C144.08 38.2156 143.607 38.0868 143.221 38.0868C143.006 38.0868 142.834 38.0868 142.62 38.1297V40.3625H142.963V39.3749C143.049 39.3749 143.135 39.3749 143.221 39.3749C143.435 39.8902 143.65 40.3625 144.08 40.3625C144.208 40.3625 144.294 40.2767 144.337 40.1478V40.1049ZM143.178 39.1602H142.963V38.3873C143.006 38.3873 143.092 38.3873 143.135 38.3873C143.393 38.3873 143.65 38.4732 143.65 38.7738C143.65 39.0744 143.435 39.1602 143.178 39.1602Z" fill="white"/>
<path d="M40.0385 32.5477C39.4374 32.5477 38.9221 32.0754 38.8792 31.4742C38.8792 30.8731 39.3515 30.3578 39.9526 30.3149C40.5538 30.2719 41.069 30.7872 41.112 31.3884V31.4313C41.1549 32.0324 40.6826 32.5048 40.0814 32.5477C40.0814 32.5477 40.0814 32.5906 40.0385 32.5477ZM40.0385 30.4866C39.5232 30.4437 39.0509 30.8302 39.008 31.3454C38.965 31.8607 39.3515 32.333 39.8667 32.376C40.382 32.4189 40.8543 32.0324 40.8973 31.5172C40.8973 31.4742 40.8973 31.4742 40.8973 31.4313C40.9402 30.959 40.5538 30.5296 40.0385 30.4866ZM39.9956 31.5172C39.9526 31.5172 39.8667 31.5172 39.8238 31.5172V32.1613H39.6091V30.7443C39.7379 30.7443 39.8667 30.7443 39.9956 30.7443C40.2532 30.7443 40.5538 30.8302 40.5538 31.1307C40.5538 31.3025 40.425 31.4742 40.2532 31.5172C40.425 31.8177 40.5538 32.0324 40.6826 32.0324H40.7255C40.7255 32.1183 40.6396 32.1613 40.5967 32.1613C40.2532 32.1613 40.1244 31.8607 39.9956 31.5172ZM39.9097 30.8731H39.7809V31.3454H39.9097C40.0814 31.3454 40.2532 31.2595 40.2532 31.0878C40.2532 30.916 40.0814 30.8731 39.9097 30.8731Z" fill="#1E1E1E"/>
<path d="M9.89541 30.2719V24.2175C11.0118 23.874 12.2141 23.874 13.3735 24.1316C14.6187 24.4751 15.4775 25.3339 15.6063 26.6221C15.7351 27.9102 15.134 29.1555 14.0605 29.8425C13.2876 30.2719 12.3859 30.4866 11.4842 30.4436C10.9689 30.4007 10.4107 30.3578 9.89541 30.2719ZM9.89541 17.562C10.883 17.3902 11.8706 17.4331 12.8153 17.6049C14.404 17.9484 14.9193 18.8931 14.8763 19.7518C14.7905 20.6106 14.3181 21.4265 13.5452 21.8559C12.7723 22.3711 11.8277 22.7576 9.89541 22.8864V17.562ZM11.7418 15.415C9.89541 15.4579 8.04904 15.6297 6.24561 15.9732V32.1183C8.39255 32.5047 10.6254 32.6335 12.8153 32.5047C14.1034 32.4188 15.3487 32.1183 16.508 31.603C18.1397 30.873 19.299 29.3272 19.5567 27.5667C19.8572 25.8492 18.9555 24.1316 17.4097 23.3587C16.8086 23.0581 16.1645 22.8005 15.5204 22.6717C17.7103 21.727 18.3114 20.1383 18.3114 19.1507C18.2685 17.8625 17.4527 16.7032 16.2504 16.2308C14.9622 15.6297 13.674 15.415 11.7418 15.415ZM34.9717 17.6049C34.9717 17.6478 34.9717 17.6908 35.0147 17.7337H35.1435C35.3582 17.6908 35.5729 17.6478 35.7446 17.6908C36.7752 17.8625 37.1616 19.623 37.0758 22.0705C36.9899 24.9045 35.8735 29.5419 33.8124 29.5419C33.6406 29.5419 33.4689 29.5419 33.2971 29.499L31.2361 15.7156H27.4574L28.9603 24.7328C28.6597 26.5791 27.8868 29.1984 26.2981 29.456C26.0405 29.499 25.7828 29.499 25.5252 29.456L23.5071 15.7156H19.7284L22.4765 32.333C23.3782 32.5476 24.3658 32.5906 25.2675 32.3759C27.3286 31.9036 28.9174 29.8854 29.4326 27.7385L30.2055 32.333C30.9355 32.5047 31.6655 32.5476 32.4384 32.5047C34.5424 32.5047 36.174 31.3454 37.3334 29.6278C39.0939 26.9656 39.8238 23.1011 39.8238 19.9236C39.8238 17.3473 39.0509 15.3721 37.0758 15.3721C35.9164 15.4579 34.9717 16.4026 34.9717 17.6049Z" fill="#F01313"/>
<defs>
<radialGradient id="paint0_radial_203_254" cx="0" cy="0" r="1" gradientUnits="userSpaceOnUse" gradientTransform="translate(19.746 20.4174) scale(24.926)">
<stop offset="1" stop-color="white"/>
</radialGradient>
<radialGradient id="paint1_radial_203_254" cx="0" cy="0" r="1" gradientUnits="userSpaceOnUse" gradientTransform="translate(25.6415 26.0724) scale(24.926 24.9261)">
<stop offset="0.890625" stop-color="white"/>
<stop offset="1" stop-color="#AFAFAF"/>
</radialGradient>
</defs>
</svg>
