<svg width="339" height="64" viewBox="0 0 339 64" fill="none" xmlns="http://www.w3.org/2000/svg">
<g clip-path="url(#clip0_1_886)">
<path d="M232.789 17.6613V12.0153H244.449C244.478 12.2387 244.531 12.4824 244.531 12.7261C244.531 23.3399 244.539 33.9537 244.531 44.5675C244.531 46.9478 244.217 49.2874 243.545 51.5784C242.023 56.7492 238.668 60.1774 233.62 62.0215C230.627 63.1142 227.513 63.5773 224.357 63.7276C220.449 63.9144 216.545 63.7357 212.656 63.3579C207.995 62.903 203.378 62.1718 198.81 61.1279C198.244 60.9979 197.674 60.8923 196.986 60.7502C197.438 57.72 197.878 54.7588 198.326 51.7368C199.946 52.0373 201.464 52.3542 202.995 52.5938C205.918 53.0488 208.842 53.4834 211.773 53.8733C214.778 54.2755 217.803 54.3851 220.832 54.2876C223.046 54.2145 225.237 53.9586 227.329 53.1544C230.379 51.9845 232.044 49.7221 232.589 46.57C232.687 45.9973 232.769 45.4124 232.785 44.8315C232.813 43.6982 232.793 42.565 232.793 41.2895C232.573 41.4764 232.423 41.5698 232.313 41.6998C229.833 44.6812 226.625 46.4806 222.904 47.4311C218.588 48.5319 214.24 48.67 209.851 47.8536C206.672 47.2646 203.708 46.1841 201.09 44.2791C197.279 41.5089 195.195 37.6906 194.515 33.0926C194.083 30.1802 194.136 27.2678 194.82 24.3879C196.168 18.6809 199.673 14.822 205.043 12.588C207.738 11.4669 210.556 10.9267 213.475 10.7561C217.053 10.5489 220.551 10.8657 223.975 11.934C227.313 12.9779 230.183 14.7286 232.398 17.4664C232.476 17.5598 232.476 17.7182 232.512 17.8441C232.606 17.7832 232.703 17.7263 232.797 17.6654L232.789 17.6613ZM219.627 38.4949C221.858 38.4624 224.056 38.3284 226.202 37.715C227.912 37.2235 229.503 36.5046 230.745 35.1966C232.752 33.0804 233.09 30.4929 232.663 27.7593C232.296 25.3993 231.01 23.5958 228.909 22.4828C227.806 21.8979 226.597 21.4267 225.375 21.1505C221.617 20.2975 217.823 20.3016 214.061 21.1424C212.933 21.3942 211.806 21.7923 210.78 22.3203C207.38 24.071 206.22 27.2596 206.68 30.9194C207.042 33.8034 208.65 35.7856 211.26 37.0001C211.671 37.191 212.099 37.3494 212.526 37.4997C214.831 38.2918 217.224 38.4502 219.622 38.4949H219.627Z" fill="#F28520"/>
<path d="M44.715 47.9554H32.9693C32.9693 47.5329 32.9693 47.1511 32.9693 46.7734C32.9693 41.1557 32.9693 35.5421 32.9693 29.9245C32.9693 28.5881 32.892 27.268 32.5337 25.9723C31.8212 23.4051 30.1764 21.7641 27.5952 21.098C23.9148 20.1515 20.2954 20.31 16.8389 21.955C13.765 23.4173 12.1487 25.956 11.8108 29.3112C11.7497 29.9245 11.7579 30.5419 11.7538 31.1593C11.7538 36.3545 11.7538 41.5497 11.7538 46.7409C11.7538 47.1227 11.7538 47.5045 11.7538 47.9432H0V12.0074H11.7457V18.4252C12.2057 17.9378 12.4907 17.6453 12.7635 17.3407C15.2266 14.6476 18.162 12.6817 21.6755 11.6215C24.3463 10.8172 27.0741 10.5451 29.8711 10.7441C32.0003 10.8944 34.0604 11.2884 36.0187 12.1292C39.2717 13.5265 41.5964 15.8743 43.0539 19.0873C43.172 19.3513 43.29 19.6194 43.4122 19.8835C43.4244 19.9078 43.461 19.9241 43.5465 19.9972C43.7175 19.7941 43.9007 19.591 44.0636 19.3757C46.4086 16.2562 49.2545 13.75 52.9105 12.2511C55.0642 11.3656 57.3034 10.9025 59.6281 10.7441C61.9895 10.5857 64.306 10.7401 66.5941 11.325C71.9967 12.7142 75.3514 16.1749 76.8578 21.4798C77.4644 23.6164 77.6924 25.8057 77.6924 28.0235C77.6924 34.3845 77.6924 40.7495 77.6924 47.1105C77.6924 47.3664 77.6639 47.6182 77.6476 47.9351H65.9956C65.9875 47.5817 65.9671 47.208 65.9671 46.8302C65.9671 41.2126 65.963 35.599 65.9671 29.9814C65.9671 28.645 65.8897 27.3208 65.5396 26.0251C64.8312 23.4173 63.1783 21.756 60.5482 21.0817C56.8637 20.1394 53.2443 20.31 49.8 21.9713C46.8158 23.4092 45.1832 25.8707 44.8208 29.1527C44.7435 29.8595 44.7272 30.5785 44.7231 31.2934C44.715 36.4236 44.719 41.5538 44.719 46.6799C44.719 47.0658 44.719 47.4558 44.719 47.9472L44.715 47.9554Z" fill="white"/>
<path d="M281.464 9.56566C281.789 6.57609 281.232 3.68807 280.629 0.682247C282.176 0.454779 283.666 0.235436 285.258 0.00390625C285.466 3.35093 285.327 6.56797 284.627 9.72408C285.136 10.1262 285.425 9.85812 285.722 9.50473C286.504 8.57455 287.448 7.83529 288.519 7.25849C289.887 6.52329 291.353 6.14553 292.912 6.13334C296.385 6.10491 299.528 7.25037 302.74 8.78984C300.09 11.1579 297.293 13.0142 293.905 13.9932C294.028 14.1475 294.093 14.2572 294.182 14.3425C297.57 17.6854 299.243 21.8205 299.817 26.4551C300.35 30.777 299.3 34.6968 296.715 38.1981C294.793 40.8018 292.314 42.784 289.525 44.3844C285.034 46.9678 280.189 48.5926 275.121 49.5918C271.945 50.2173 268.757 50.4814 265.52 50.1808C258.029 49.4903 252.452 45.3634 250.001 37.8366C248.958 34.6358 248.584 31.37 249.268 28.0474C250.013 24.4242 251.926 21.459 254.618 18.969C257.398 16.4019 260.651 14.5943 264.132 13.1726C267.935 11.621 271.868 10.508 275.935 9.93936C277.506 9.72002 279.11 9.72002 280.698 9.61847C280.922 9.60222 281.15 9.59003 281.455 9.57379L281.464 9.56566ZM274.388 21.0243C271.798 21.0081 269.148 21.2031 266.595 22.0804C263.578 23.1243 261.368 24.9685 260.806 28.2789C260.651 29.1929 260.639 30.1596 260.724 31.0857C260.916 33.2182 261.864 34.9811 263.599 36.289C264.702 37.1217 265.94 37.6863 267.263 38.0519C270.5 38.9415 273.806 39.0227 277.128 38.7952C279.013 38.6652 280.873 38.3809 282.648 37.7066C285.779 36.5124 287.843 34.4287 288.173 30.9679C288.466 27.8849 287.615 25.2284 284.941 23.4209C284.094 22.8481 283.125 22.4135 282.156 22.0642C279.676 21.1746 277.083 21.0162 274.384 21.0243H274.388Z" fill="#F28520"/>
<path d="M132.142 48.1825H120.29V42.0815C120.189 42.0206 120.087 41.9637 119.989 41.9028C119.928 42.049 119.899 42.2196 119.806 42.3374C117.233 45.5788 113.78 47.3823 109.835 48.3856C106.81 49.1533 103.728 49.328 100.638 49.1493C97.1695 48.9462 93.8269 48.1582 90.745 46.4968C86.3806 44.1409 83.5917 40.5339 82.4111 35.749C81.4299 31.7764 81.4421 27.7755 82.5088 23.811C83.9581 18.429 87.3617 14.7408 92.4671 12.5839C95.0931 11.475 97.8494 10.9347 100.699 10.7601C104.306 10.5407 107.836 10.8576 111.293 11.934C114.733 13.0063 117.664 14.8261 119.912 17.6735C119.969 17.7425 120.05 17.7913 120.258 17.97C120.327 15.9959 120.246 14.1396 120.307 12.2224H132.04C132.26 12.9088 132.362 45.8835 132.142 48.1866V48.1825ZM107.12 39.2869C109.558 39.36 111.977 39.092 114.301 38.2755C117.05 37.3047 119.159 35.6109 119.924 32.6823C120.197 31.6302 120.286 30.501 120.258 29.4124C120.164 25.9273 118.43 23.482 115.266 22.036C113.41 21.187 111.435 20.8377 109.416 20.663C106.171 20.3787 102.983 20.5737 99.8932 21.6704C96.5547 22.8524 94.5272 25.1433 94.1445 28.7056C93.6682 33.1128 95.4107 36.6954 99.9909 38.2958C102.291 39.1001 104.673 39.356 107.12 39.2869Z" fill="white"/>
<path d="M149.974 47.9548H138.27V12.1165C138.937 11.9053 147.752 11.8159 149.95 12.019C149.958 13.2822 149.966 14.5658 149.97 15.8494C149.97 17.1451 149.97 18.4368 149.97 19.7935C150.414 19.761 150.536 19.4198 150.728 19.2005C153.549 15.9347 156.977 13.5503 161.085 12.1774C163.406 11.4016 165.791 10.971 168.238 10.7882C170.229 10.6379 172.204 10.6623 174.186 10.8288C177.431 11.101 180.542 11.8809 183.318 13.6397C186.49 15.6503 188.387 18.5993 189.393 22.1657C190.032 24.4322 190.264 26.7556 190.272 29.0953C190.292 35.0988 190.28 41.1064 190.276 47.1099C190.276 47.3658 190.244 47.6217 190.223 47.9385H178.522C178.522 47.5527 178.522 47.2033 178.522 46.854C178.522 42.3087 178.522 37.7634 178.522 33.2222C178.522 31.3334 178.4 29.4649 177.895 27.6289C176.935 24.1357 174.63 21.9788 171.157 21.1705C166.524 20.09 161.907 20.2728 157.449 22.0154C153.085 23.7214 150.695 27.0237 150.125 31.6381C149.999 32.6657 149.974 33.7096 149.97 34.7454C149.954 38.7708 149.962 42.7961 149.962 46.8215V47.9588L149.974 47.9548Z" fill="white"/>
<path d="M309.293 14.493C310.539 14.493 311.74 14.493 312.941 14.493C314.728 14.493 316.52 14.4605 318.307 14.5215C319.007 14.5458 319.744 14.6758 320.383 14.948C322.708 15.9431 323.046 19.1967 321.026 20.724C320.9 20.8174 320.778 20.9149 320.595 21.0571C321.906 21.4308 322.313 22.3203 322.256 23.5267C322.223 24.1685 322.252 24.8184 322.252 25.5699C321.177 25.6471 320.151 25.5983 318.991 25.6024C318.983 24.9606 318.983 24.3594 318.971 23.7583C318.946 22.7306 318.722 22.4828 317.708 22.4666C316.149 22.4463 314.586 22.4625 313.026 22.4666C312.9 22.4666 312.77 22.4909 312.53 22.5194V25.5415H309.342C309.163 24.8672 309.11 15.9391 309.297 14.4971L309.293 14.493ZM312.517 19.676C312.668 19.7329 312.725 19.7735 312.786 19.7735C314.056 19.7857 315.323 19.7938 316.593 19.7938C317.016 19.7938 317.444 19.802 317.859 19.7329C318.543 19.6192 318.865 19.2089 318.885 18.5225C318.909 17.7101 318.506 17.2186 317.68 17.2023C316.055 17.1698 314.427 17.1901 312.802 17.1983C312.717 17.1983 312.636 17.2714 312.522 17.3242V19.676H312.517Z" fill="#F28520"/>
<path d="M333.431 20.0494C335.328 21.8854 337.16 23.6564 338.997 25.4274C338.972 25.4842 338.948 25.5452 338.927 25.602C337.608 25.602 336.289 25.6183 334.97 25.5858C334.754 25.5817 334.506 25.3786 334.335 25.208C333.452 24.3469 332.588 23.4655 331.713 22.5922C331.558 22.4337 331.387 22.2916 331.155 22.0844C330.15 23.108 329.156 24.0869 328.204 25.1024C327.866 25.4639 327.524 25.6345 327.019 25.6224C325.85 25.5899 324.678 25.6102 323.277 25.6102C325.187 23.632 327.108 21.926 328.965 20.0453C327.1 18.2418 325.264 16.4668 323.33 14.5983C323.896 14.4277 324.377 14.5049 324.837 14.5008C325.777 14.5008 326.823 14.2734 327.634 14.6105C328.444 14.9436 329.022 15.8413 329.69 16.5033C330.174 16.9827 330.646 17.4741 331.184 18.0184C332.059 17.1492 332.967 16.3571 333.741 15.4513C334.396 14.6795 335.121 14.3993 336.114 14.4846C337.042 14.5658 337.979 14.5008 339.005 14.6836C337.177 16.4505 335.345 18.2175 333.435 20.0616L333.431 20.0494Z" fill="#F28520"/>
</g>
<defs>
<clipPath id="clip0_1_886">
<rect width="339" height="63.8006" fill="white"/>
</clipPath>
</defs>
</svg>
