<?xml version="1.0" encoding="utf-8"?>
<!-- Generator: Adobe Illustrator 24.1.3, SVG Export Plug-In . SVG Version: 6.00 Build 0)  -->
<svg version="1.1" id="Layer_1" xmlns="http://www.w3.org/2000/svg" xmlns:xlink="http://www.w3.org/1999/xlink" x="0px" y="0px"
	 viewBox="0 0 1441 94.5" style="enable-background:new 0 0 1441 94.5;" xml:space="preserve">
<style type="text/css">
	.st0{clip-path:url(#SVGID_2_);fill-rule:evenodd;clip-rule:evenodd;fill:#F01313;}
</style>
<g>
	<defs>
		<rect id="SVGID_1_" x="-0.1" y="0.9" width="1441.4" height="94.5"/>
	</defs>
	<clipPath id="SVGID_2_">
		<use xlink:href="#SVGID_1_"  style="overflow:visible;"/>
	</clipPath>
	<path class="st0" d="M45.4,8c0.4,1,1,4.9,1.3,8.5c0.8,9.7-4.8,28.1-11.1,36.4c-1.4,1.9-1.5,1.8-3.3-1.5c-1.9-3.8-1.9-3.8-4.5,3.4
		c-1,2.9-1.1,2.9-3.1,1c-4.1-3.7-6.2-9.5-6.2-16.9c0-3.9,0.5-8.7,1.1-10.8c2-7-0.5-2.9-3.8,6.4c-3.3,9-7,14.9-9.4,14.9
		C2.9,49.5-0.9,42-3.8,30c-1.3-5.5-1.4-1.2-1.5,45.4l-0.1,21.2l724.6-0.3l724.6-0.3l0.3-18c0.2-26.5,0-51-0.3-54.5l-0.6-6.3l-3.2,5
		c-4.7,7.5-21.7,26.2-24.4,26.8c-3.2,0.8-7.2-1.9-11.8-7.7c-2.1-2.7-4.2-4.9-4.8-4.9c-0.5,0-1,1.5-1,3.4c0,4.3-4.2,20.5-7.1,27.4
		l-2.2,5.2l-4.6-5.1c-3.9-4.4-13.2-10.9-15.6-10.9c-0.4,0-0.8,2.8-0.8,6.3c0,6.9-1.6,11.1-4.4,11.6c-2.9,0.6-5.5-2.7-6.7-8.5
		c-1.2-5.8-2.9-6.4-3.1-1.1c0,1.8-0.6,5-1.3,7.2l-1.3,4l-1.3-5.9c-1.7-7.7-3.6-12.2-7.6-17.7c-5.7-7.8-7.6-12.5-7.6-18.7
		c0-5.6,0-5.7-2-3.9c-2.9,2.6-7.8,10.5-9.6,15.6c-0.9,2.5-1.9,8.1-2.3,12.5c-0.6,7.9-0.7,8-2.4,5.5c-0.9-1.4-2.2-5.9-2.9-10
		c-0.6-4.1-1.8-8.8-2.6-10.3c-1.4-2.6-14-13.8-15.6-13.8c-0.4,0-1.6-1.7-2.7-3.7l-1.9-3.7l-3.1,4.3c-4.8,6.6-5.9,13.2-3.7,22.7
		c1.9,8.4,1.6,14-1,20.1l-1.5,3.7l-3.4-4.4c-3.6-4.7-8.2-8.5-13.2-11.2l-3.1-1.6l-2.2,7.6c-3.1,10.6-4.7,8.7-4.6-5.5
		c0-9.3,0.4-11.6,2.7-17.2c1.5-3.6,2.5-6.6,2.3-6.8c-0.8-0.8-9.4,2.1-14.8,5c-7.4,3.9-14.9,11.5-18.5,18.7l-2.8,5.7l-2.6-5.8
		c-1.4-3.2-2.8-5.8-3.1-5.8c-0.3,0-2.2,2.3-4.3,5.1l-3.7,5.1l-1.7-3.3c-2.8-5.5-7.5-10.7-12.5-13.9c-2.6-1.7-5-3-5.4-3
		c-0.4,0-0.7,1.3-0.7,2.9c0,3.6-3.7,15.8-5.1,16.7c-0.6,0.4-1-1.7-1-5.2c0-5.8,0-5.8-2-3.8c-1.1,1.1-3.3,4.5-5,7.5l-3,5.5l0.1-12
		c0.2-18-2.1-24-11.1-29.7c-4.2-2.6-17.9-7.5-18.8-6.7c-0.2,0.2,0.1,2.3,0.6,4.7c1.6,7-0.8,19.2-5,25.5l-1.9,2.9l-2.3-4.4
		c-2-3.8-2.3-5.9-2.4-14.4c0-10.1,0.2-10.9,5.3-20.8c1-1.9-4.3-0.4-11.7,3.3c-9.5,4.8-16.1,11.5-19.5,20c-1.8,4.4-2.2,7.6-2.2,16.2
		l0,10.7l-3.2-3.6l-3.2-3.6l-0.1,3c-0.1,1.7-0.7,4.1-1.4,5.4c-1.3,2.3-1.4,2.3-2.4,0.5c-2.6-4.8-2.5-11.6,0.4-22.9
		c0.7-2.7,0.6-2.8-1.7-1.6c-2.8,1.5-10.1,7.1-14.7,11.4l-3.2,3l-1.4-3.4c-0.8-1.9-1.7-4.9-2.1-6.8l-0.7-3.4l-2.8,2.7
		c-1.6,1.5-4.3,5.5-6.1,8.8l-3.3,6.1l-1.1-5.5c-0.6-3-2.8-8.5-4.8-12.2c-4.6-8.1-4.9-13.2-1.3-22l2.5-6.1l-2.2,0.6
		c-3.9,1.1-12.2,7.3-14.6,10.9c-5.5,8.1-6.4,15.9-3.2,27.1c1.1,3.9,2,8.5,2,10.3v3.3l-2.8-2c-1.5-1.1-4.1-2.2-5.8-2.6
		c-3-0.6-3.2-0.4-5.4,5.2c-1.3,3.2-2.7,6.2-3.1,6.7c-1.3,1.5-2.2-7-1.1-11c0.6-2.1,0.9-4,0.7-4.1c-0.9-0.9-14.6,5.1-17.9,7.8l-3.8,3
		l-0.7-4.1l-0.7-4.1l-2.3,2.1l-2.3,2.1l-1.3-3.8c-2.1-6.3-11.8-21.7-16.2-25.7c-4.5-4.1-6.5-4.8-5.4-2c1.7,4.3,1.7,12.1,0.1,17.8
		c-1.2,4.3-2,5.5-2.6,4.4c-0.5-0.8-0.9-2.6-0.9-3.9c0-4.3-4.6-12.6-10.5-18.9c-5.9-6.4-7.2-9.2-6.4-14.2c0.2-1.6,0.1-3-0.3-3
		c-1.5,0-9.3,9.4-11.1,13.4c-2.7,5.9-2.4,9.8,1.1,17.7c3.3,7.4,3.6,10.4,1.9,16.5c-1.2,4.4-2.2,3.6-3.3-2.8c-0.5-2.9-2.5-5.8-8-11.7
		c-7.3-7.8-9.6-12.3-9.7-19.3c0-2.3-0.1-2.3-1.6-0.3c-0.9,1.1-3.2,5.4-5.2,9.5c-3.1,6.3-3.7,8.6-3.7,14.2l0,6.7l-3.7-1.9
		c-2-1-4.6-3-5.7-4.4l-2-2.6l-2.5,3.3c-4.7,6.1-9.7,15.2-9.7,17.5c0,2.8-0.3,2.8-4.1,0.6c-3.3-2-5.9-6.8-6-11c0-4.3-1.7-1.1-3,5.7
		c-1.8,9.4-2,10-3,10c-1.4,0-3-6.8-3-12.7c0-13.3-5.7-26.8-15.8-37.4c-6.8-7.2-10.5-9.9-18.7-13.7l-4.8-2.2l2.9,5.2
		c7.6,13.6,7.8,22.8,0.6,39.3c-5.2,12-6.3,16.9-4.7,21.5c1.3,3.7,0.2,4-4,1c-3.8-2.7-6-7-7.4-14.2l-1.1-5.7l-5.1,2.3
		c-6.1,2.8-12,9.3-14.3,15.9c-0.9,2.6-2.1,4.6-2.7,4.5c-0.5-0.2-2.1-2.3-3.4-4.8c-2.6-4.8-2.6-3.3-0.6-32.7
		c0.6-9.1,0.4-10.7-1.4-14.5c-2.1-4.4-15.8-19.7-16.7-18.8c-0.3,0.3-0.1,2.1,0.5,3.9c2.9,10-2.5,32-10.4,42.5
		c-1.4,1.9-1.5,1.8-3.3-1.5c-1.9-3.8-1.9-3.8-4.5,3.4c-1,2.9-1.1,2.9-3.1,1c-4.1-3.7-6.2-9.5-6.2-16.9c0-3.9,0.5-8.7,1.1-10.8
		c2-7-0.5-2.9-3.8,6.4c-3.3,9-7,14.9-9.4,14.9c-3.9,0-8.7-11-10.9-24.6l-1.2-7.3l-3.1,4.8c-4.6,7.3-21.7,26-24.3,26.6
		c-3.2,0.8-7.2-1.9-11.7-7.7c-2.1-2.7-4.2-4.9-4.8-4.9c-0.5,0-1,1.5-1,3.4c0,4.3-4.2,20.5-7.1,27.4l-2.2,5.2l-4.6-5.1
		c-3.9-4.4-13.3-10.9-15.6-10.9c-0.4,0-0.8,2.8-0.8,6.3c0,6.9-1.6,11.1-4.4,11.6c-2.9,0.6-5.5-2.7-6.7-8.5c-1.2-5.8-2.9-6.4-3.1-1.1
		c0,1.8-0.6,5-1.3,7.2l-1.3,4l-1.3-5.9c-1.7-7.7-3.6-12.2-7.6-17.7c-5.7-7.8-7.6-12.5-7.6-18.7c0-5.6,0-5.7-2-3.9
		c-2.9,2.6-7.8,10.5-9.6,15.6c-0.9,2.5-1.9,8.1-2.3,12.5c-0.6,7.9-0.7,8-2.4,5.5c-0.9-1.4-2.2-5.9-2.9-10c-0.6-4.1-1.8-8.8-2.6-10.3
		c-1.4-2.6-14-13.8-15.6-13.8c-0.4,0-1.6-1.7-2.7-3.7l-1.9-3.7l-3.1,4.3c-4.8,6.6-5.9,13.2-3.7,22.7c1.9,8.4,1.6,14-1,20.1l-1.5,3.7
		l-3.4-4.4c-3.6-4.7-8.2-8.5-13.3-11.2l-3.1-1.6l-2.2,7.6c-3.1,10.6-4.7,8.7-4.6-5.5c0-9.3,0.4-11.6,2.7-17.2
		c1.5-3.6,2.5-6.6,2.3-6.8c-0.8-0.8-9.4,2.1-14.8,5c-7.4,3.9-15,11.5-18.5,18.7l-2.8,5.7l-2.6-5.8c-1.4-3.2-2.8-5.8-3.1-5.8
		c-0.3,0-2.2,2.3-4.2,5.1l-3.7,5.1l-1.7-3.3c-2.8-5.5-7.5-10.7-12.5-13.9c-2.6-1.7-5-3-5.4-3c-0.4,0-0.7,1.3-0.7,2.9
		c0,3.6-3.7,15.8-5.1,16.7c-0.6,0.4-1-1.7-1-5.2c0-5.8,0-5.8-2-3.8c-1.1,1.1-3.3,4.5-5,7.5l-3,5.5l0.1-12c0.1-18-2.1-24-11.1-29.7
		c-4.2-2.6-17.9-7.5-18.8-6.7c-0.2,0.2,0.1,2.3,0.6,4.7c1.6,7-0.8,19.2-5,25.5l-1.9,2.9l-2.3-4.4c-2-3.8-2.3-5.9-2.4-14.4
		c0-10.1,0.2-10.9,5.3-20.8c1-1.9-4.3-0.4-11.7,3.3c-9.5,4.8-16.1,11.5-19.5,20c-1.8,4.4-2.2,7.6-2.2,16.2l0,10.7l-3.2-3.6L376,53
		l-0.1,3c0,1.7-0.7,4.1-1.4,5.4c-1.3,2.3-1.4,2.3-2.4,0.5c-2.6-4.8-2.5-11.6,0.3-22.9c0.7-2.7,0.6-2.8-1.7-1.6
		c-2.8,1.5-10.1,7.1-14.7,11.4l-3.2,3l-1.4-3.4c-0.8-1.9-1.7-4.9-2.1-6.8l-0.7-3.4l-2.8,2.7c-1.6,1.5-4.3,5.5-6.1,8.8l-3.3,6.1
		l-1.1-5.5c-0.6-3-2.8-8.5-4.9-12.2c-4.6-8.1-4.9-13.2-1.3-22l2.5-6.1l-2.2,0.6c-3.9,1.1-12.2,7.3-14.6,10.9
		c-5.5,8.1-6.4,15.9-3.2,27.1c1.1,3.9,2,8.5,2,10.3v3.3l-2.8-2c-1.5-1.1-4.1-2.2-5.8-2.6c-3-0.6-3.2-0.4-5.4,5.2
		c-1.3,3.2-2.7,6.2-3.1,6.7c-1.3,1.5-2.2-7-1.1-11c0.6-2.1,0.9-4,0.7-4.1c-0.9-0.9-14.6,5.1-17.9,7.8l-3.8,3l-0.7-4.1l-0.7-4.1
		l-2.3,2.1l-2.3,2.1l-1.3-3.8c-2.1-6.3-11.8-21.7-16.2-25.7c-4.5-4.1-6.5-4.8-5.4-2c1.7,4.3,1.7,12.1,0.1,17.8
		c-1.2,4.3-2,5.5-2.6,4.4c-0.5-0.8-0.9-2.6-0.9-3.9c0-4.3-4.6-12.6-10.5-18.9c-5.9-6.4-7.2-9.2-6.4-14.2c0.2-1.6,0.1-3-0.3-3
		c-1.5,0-9.3,9.4-11.1,13.4c-2.7,5.9-2.4,9.8,1.1,17.7c3.3,7.4,3.6,10.4,1.9,16.5c-1.2,4.4-2.2,3.6-3.3-2.8c-0.5-2.9-2.5-5.8-8-11.7
		c-7.3-7.8-9.6-12.3-9.7-19.3c0-2.3-0.1-2.3-1.6-0.3c-0.9,1.1-3.2,5.4-5.2,9.5c-3.1,6.3-3.7,8.6-3.7,14.2l0,6.7l-3.7-1.9
		c-2-1-4.6-3-5.7-4.4l-2-2.6l-2.5,3.3c-4.7,6.1-9.7,15.2-9.7,17.5c0,2.8-0.3,2.8-4.1,0.6c-3.3-2-5.9-6.8-6-11c0-4.3-1.7-1.1-3,5.7
		c-1.8,9.4-2,10-3,10c-1.4,0-3-6.8-3-12.7c0-13.3-5.7-26.8-15.8-37.4c-6.8-7.2-10.5-9.9-18.7-13.7l-4.8-2.2l2.9,5.2
		c7.6,13.6,7.8,22.8,0.6,39.3c-5.2,12-6.3,16.9-4.7,21.5c1.3,3.7,0.2,4-4,1c-3.8-2.7-6-7-7.4-14.2l-1.1-5.7l-5.1,2.3
		c-6.1,2.8-12,9.3-14.3,15.9c-0.9,2.6-2.1,4.6-2.7,4.5c-0.5-0.2-2.1-2.3-3.4-4.8c-2.2-4-2.3-5.3-1.8-13.5c2-31.9,2-29.7-0.6-34.3
		C57.5,16.9,43,2.2,45.4,8z M-4.9,75.6c0-1.8,0.5,9.9,0.3,25.8c0.2-14.2,0.2-37.5,0-51.7C-4.8,35.6-4.9,47.2-4.9,75.6z"/>
</g>
</svg>
