<svg width="161" height="45" viewBox="0 0 161 45" fill="none" xmlns="http://www.w3.org/2000/svg">
<path d="M102.152 12.6383H99.7589V9.70703H102.152C101.793 4.32311 103.109 2.0499 108.912 3.06686L108.792 6.05793C105.502 5.22043 105.801 7.13471 105.861 9.64721H108.553V12.5785H105.861V21.4918H102.212V12.6383M79.7786 9.70703H83.308V11.3222H83.3678C84.7437 8.74989 89.35 8.74989 90.4866 11.5615C91.5035 9.40792 94.2553 8.98918 96.2893 9.82667C99.8187 11.5615 98.0839 18.5008 98.5026 21.5517H94.7937V14.6124C94.7937 13.5356 94.4348 12.5785 93.1785 12.5785C91.6232 12.4588 90.9053 13.8347 90.9652 15.2106V21.4918H87.2562V15.2106C87.3161 14.1338 87.1366 12.4588 85.6411 12.5785C83.9062 12.4588 83.3678 14.1338 83.4277 15.6293V21.5517H79.7786V9.70703ZM77.6848 13.057C74.0357 5.81864 62.3107 10.1258 65.5411 18.2017C69.1304 25.44 80.9152 21.1329 77.6848 13.057ZM73.7366 17.7829C70.6259 20.4151 66.9768 16.5865 69.4295 13.416C72.5402 10.7838 76.1893 14.6124 73.7366 17.7829Z" fill="white"/>
<path d="M59.9183 17.9623C55.3719 20.1757 51.6629 14.8516 53.3379 10.6641C54.2353 7.61322 58.4826 6.17751 60.8754 8.33108L64.1058 6.23734C61.8924 3.48555 57.6451 3.30609 54.5942 4.38287C51.0647 5.63912 48.9112 9.04894 48.971 12.8177C48.9112 16.5864 51.0049 19.9962 54.5942 21.2525C57.8844 22.5087 62.371 22.0302 64.5245 18.9195L61.1745 16.7659C60.8754 17.3043 60.4567 17.723 59.9183 17.9623ZM142.412 12.5784H139.182C139.182 13.2364 139.122 16.8257 139.241 17.4239C139.301 18.9195 141.395 18.9793 142.412 18.3811V21.4319C140.258 22.09 137.028 22.1498 135.832 19.8766C135.174 18.8596 135.592 13.7748 135.473 12.5784H133.14V9.64715H135.473V6.11769H139.122V9.64715H142.352L142.412 12.5784ZM124.047 9.70697H127.696V11.6213H127.756C128.474 9.94626 130.328 9.04894 132.123 9.52751V12.7579C126.021 11.5016 128.055 17.9025 127.696 21.5516H124.047V9.70697ZM121.774 13.057C118.124 5.81858 106.399 10.1257 109.63 18.2016C113.219 25.44 125.004 21.1328 121.774 13.057ZM117.825 17.7829C114.715 20.415 111.006 16.5864 113.518 13.4159C116.689 10.7838 120.338 14.6123 117.825 17.7829Z" fill="white"/>
<path d="M36.8235 8.26329C36.7637 8.32311 36.644 8.32311 36.5842 8.38294C36.5244 8.38294 36.4048 8.38294 36.3449 8.38294C36.2851 8.38294 36.1655 8.38294 36.1057 8.32312C36.0458 8.26329 35.986 8.26329 35.8664 8.20347C35.3878 7.78472 34.8494 7.36597 34.2512 7.00705C33.7128 6.64812 33.1146 6.28919 32.5164 5.99008C31.9182 5.69098 31.3199 5.39187 30.6619 5.15259C30.0637 4.9133 29.4057 4.73384 28.7476 4.55437C22.2271 2.75973 14.8093 6.64812 13.3137 13.4079C14.6896 13.3481 16.0057 13.4678 17.3217 13.8267C19.9539 14.3651 22.4066 15.9204 24.7396 17.7151C24.8592 17.7151 24.9191 17.7151 25.0387 17.7151C25.1583 17.7151 25.2182 17.6552 25.3378 17.5954L36.8235 8.26329Z" fill="white"/>
<path d="M24.6791 43.6177C12.9541 49.2409 -1.28334 36.6784 0.0925486 24.4748C0.272013 21.7829 1.28897 19.1507 2.90415 16.9972C4.63897 14.5445 14.1506 7.60522 16.4238 5.51147C2.60504 17.7748 19.8336 41.7034 36.0452 34.3454L24.6791 43.6177Z" fill="white"/>
<path d="M36.7638 7.00718C23.0647 -4.59816 5.77635 7.78486 13.1942 24.2955C16.9031 32.6107 27.312 38.3536 35.9263 34.4652C36.7638 34.0464 35.9861 32.6107 35.1486 33.0295C24.5004 37.875 11.8183 26.6286 13.0147 15.6215C13.4933 7.66521 21.2102 2.46076 28.8076 4.49468C29.4656 4.67415 30.1236 4.85361 30.7218 5.0929C31.3799 5.33218 31.9781 5.57147 32.5763 5.9304C33.1745 6.2295 33.7727 6.58843 34.3709 6.94736C34.9093 7.30629 35.4477 7.72504 35.9861 8.14379C36.2852 8.44289 36.7638 8.44289 37.0031 8.14379C37.3022 7.84468 37.3022 7.36611 37.0031 7.12682C36.8834 7.067 36.8236 7.00718 36.7638 7.00718Z" fill="white"/>
<path d="M146.42 10.9632V6.77573H144.925V5.93823H148.933V6.77573H147.437V10.9632H146.42Z" fill="white"/>
<path d="M149.59 10.9634V5.87854H151.145L152.043 9.34818L152.94 5.87854H154.495V10.9634H153.538V6.95533L152.521 10.9634H151.564L150.547 6.95533V10.9634H149.59Z" fill="white"/>
<path d="M66.6776 41.6516C65.7204 41.6516 64.8231 41.532 63.9856 41.2927C63.1481 41.0534 62.4302 40.7543 61.8918 40.3954L62.9686 38.0025C63.507 38.3016 64.0454 38.6007 64.7633 38.84C65.4811 39.0793 66.0793 39.1391 66.7374 39.1391C67.1561 39.1391 67.5151 39.0793 67.8142 39.0195C68.1133 38.9597 68.2927 38.84 68.4124 38.7204C68.532 38.6007 68.5918 38.4213 68.5918 38.2418C68.5918 38.0025 68.4722 37.7632 68.2329 37.6436C67.9936 37.4641 67.6945 37.3445 67.2758 37.2847C66.9168 37.165 66.4981 37.1052 66.0195 36.9856C65.5409 36.8659 65.1222 36.7463 64.6436 36.6266C64.1651 36.4472 63.7463 36.2677 63.3874 36.0284C63.0285 35.7891 62.6695 35.49 62.4302 35.0713C62.191 34.6525 62.0713 34.174 62.0713 33.5757C62.0713 32.9177 62.2508 32.2597 62.6097 31.7213C62.9686 31.1829 63.5668 30.7043 64.2847 30.4052C65.0624 30.0463 65.9597 29.9266 67.0963 29.9266C67.874 29.9266 68.5918 29.9865 69.3097 30.1659C70.0275 30.3454 70.6856 30.5847 71.224 30.8838L70.207 33.2766C69.6686 32.9775 69.1302 32.7382 68.5918 32.6186C68.0534 32.499 67.5151 32.3793 67.0365 32.3793C66.6177 32.3793 66.2588 32.4391 65.9597 32.499C65.6606 32.6186 65.4811 32.7382 65.3615 32.8579C65.2418 33.0374 65.182 33.157 65.182 33.3963C65.182 33.6356 65.3017 33.8748 65.5409 33.9945C65.7802 34.1141 66.0793 34.2338 66.4981 34.3534C66.857 34.4731 67.3356 34.5329 67.7543 34.6525C68.2329 34.7722 68.6517 34.8918 69.1302 35.0114C69.6088 35.1311 70.0275 35.3704 70.3865 35.6097C70.7454 35.8489 71.1043 36.1481 71.2838 36.5668C71.5231 36.9856 71.6427 37.4641 71.6427 38.0623C71.6427 38.7204 71.4633 39.3186 71.1043 39.9168C70.7454 40.4552 70.1472 40.9338 69.4293 41.2927C68.7115 41.6516 67.8142 41.6516 66.6776 41.6516Z" fill="white"/>
<path d="M79.7783 41.6515C78.1033 41.6515 76.7873 41.1729 75.8301 40.2756C74.873 39.3783 74.3944 38.0622 74.3944 36.3274V29.9863H77.6248V36.2077C77.6248 37.1649 77.8042 37.8827 78.223 38.3015C78.5819 38.7202 79.1203 38.9595 79.8382 38.9595C80.4962 38.9595 81.0346 38.7202 81.4533 38.3015C81.8721 37.8827 82.0515 37.1649 82.0515 36.2077V29.9863H85.2221V36.3274C85.2221 38.0024 84.7435 39.3185 83.7864 40.2756C82.7694 41.2327 81.4533 41.6515 79.7783 41.6515Z" fill="white"/>
<path d="M88.5724 41.472V29.9863H91.8027V41.4122H88.5724V41.472Z" fill="white"/>
<path d="M97.7851 41.472V32.6185H94.2556V29.9863H104.485V32.5586H100.956V41.4122H97.7851V41.472Z" fill="white"/>
<path d="M110.167 38.9595H116.15V41.472H106.937V29.9863H115.91V32.4988H110.108V38.9595H110.167ZM109.928 34.4131H115.252V36.806H109.928V34.4131Z" fill="white"/>
<path d="M123.209 41.6516C122.251 41.6516 121.354 41.532 120.517 41.2927C119.679 41.0534 118.961 40.7543 118.423 40.3954L119.5 38.0025C120.038 38.3016 120.576 38.6007 121.294 38.84C122.012 39.0793 122.61 39.1391 123.268 39.1391C123.687 39.1391 124.046 39.0793 124.345 39.0195C124.644 38.9597 124.824 38.84 124.943 38.7204C125.063 38.6007 125.123 38.4213 125.123 38.2418C125.123 38.0025 125.003 37.7632 124.764 37.6436C124.525 37.4641 124.226 37.3445 123.807 37.2847C123.448 37.165 123.029 37.1052 122.551 36.9856C122.072 36.8659 121.653 36.7463 121.175 36.6266C120.696 36.4472 120.277 36.2677 119.918 36.0284C119.559 35.7891 119.201 35.49 118.961 35.0713C118.722 34.6525 118.602 34.174 118.602 33.5757C118.602 32.9177 118.782 32.2597 119.141 31.7213C119.5 31.1829 120.098 30.7043 120.816 30.4052C121.593 30.0463 122.491 29.9266 123.627 29.9266C124.405 29.9266 125.123 29.9865 125.841 30.1659C126.559 30.3454 127.217 30.5847 127.755 30.8838L126.738 33.2766C126.2 32.9775 125.661 32.7382 125.123 32.6186C124.584 32.499 124.046 32.3793 123.567 32.3793C123.149 32.3793 122.79 32.4391 122.491 32.499C122.192 32.6186 122.012 32.7382 121.892 32.8579C121.773 33.0374 121.713 33.157 121.713 33.3963C121.713 33.6356 121.833 33.8748 122.072 33.9945C122.311 34.1141 122.61 34.2338 123.029 34.3534C123.388 34.4731 123.867 34.5329 124.285 34.6525C124.764 34.7722 125.183 34.8918 125.661 35.0114C126.14 35.1311 126.559 35.3704 126.917 35.6097C127.276 35.8489 127.635 36.1481 127.815 36.5668C128.054 36.9856 128.174 37.4641 128.174 38.0623C128.174 38.7204 127.994 39.3186 127.635 39.9168C127.276 40.4552 126.678 40.9338 125.96 41.2927C125.302 41.532 124.345 41.6516 123.209 41.6516Z" fill="white"/>
</svg>
