<svg width="59" height="45" viewBox="0 0 59 45" fill="none" xmlns="http://www.w3.org/2000/svg">
<g clip-path="url(#clip0_203_211)">
<path d="M6.18332 44.9166V43.2833H4.48332V44.9166H3.81665V41.2H4.48332V42.6833H6.18332V41.2H6.84998V44.9166" fill="white"/>
<path d="M9.34998 41.6834C8.64998 41.6834 8.23332 42.2667 8.23332 43.05C8.23332 43.8 8.66665 44.4167 9.34998 44.4167C10.05 44.4167 10.45 43.8167 10.45 43.05C10.4667 42.3 10.0333 41.6834 9.34998 41.6834ZM9.34998 44.9834C8.38332 44.9834 7.56665 44.25 7.56665 43.05C7.56665 41.85 8.39998 41.1167 9.34998 41.1167C10.3 41.1167 11.1333 41.8334 11.1333 43.05C11.1333 44.25 10.3 44.9834 9.34998 44.9834Z" fill="white"/>
<path d="M13.2667 41.7833V44.9166H12.6V41.7833H11.4333V41.2H14.4L14.4833 41.7833" fill="white"/>
<path d="M15.2167 44.9166V41.2H17.5167V41.7833H15.8667V42.6833H17.1833L17.2833 43.2666H15.8667V44.3333H17.5667V44.9166" fill="white"/>
<path d="M18.4667 44.9166V41.2H19.1167V44.35H20.5333L20.6167 44.9166" fill="white"/>
<path d="M22.3667 44.95C21.9167 44.95 21.4667 44.8334 21.0834 44.6667L21.1834 44.0834C21.5334 44.2667 22.0167 44.4 22.4 44.4C22.8167 44.4 23.1167 44.2167 23.1167 43.9C23.1167 43.5834 22.9167 43.4667 22.3834 43.3C21.6 43.0334 21.2167 42.7834 21.2167 42.2167C21.2167 41.5834 21.75 41.15 22.4667 41.15C22.8834 41.15 23.2667 41.2334 23.5334 41.3667L23.4334 41.9834C23.1 41.8 22.7667 41.7 22.4334 41.7C22.0667 41.7 21.8167 41.9 21.8167 42.1334C21.8167 42.4167 22.0167 42.5167 22.6 42.7167C23.3834 42.9834 23.7167 43.25 23.7167 43.8334C23.7167 44.5167 23.1667 44.95 22.3667 44.95Z" fill="white"/>
<path d="M27.2 43.2C26.8833 43.3666 26.7 43.6 26.7 43.9C26.7 44.25 26.95 44.4833 27.35 44.4833C27.6333 44.4833 27.9 44.3666 28.1167 44.1333M28.95 44.95L28.45 44.4666C28.15 44.8 27.75 45 27.3 45C26.5 45 26.0667 44.6166 26.0667 43.9833C26.0667 43.4666 26.4 43.1166 26.8833 42.8666C26.65 42.6 26.5333 42.3833 26.5333 42.05C26.5333 41.55 26.9 41.1333 27.5667 41.1333C27.9333 41.1333 28.2667 41.2333 28.5333 41.3666L28.4333 41.95C28.15 41.7666 27.8666 41.6666 27.6 41.6666C27.3 41.6666 27.1667 41.8333 27.1667 42.0666L27.4833 42.65L28.4333 43.6333C28.55 43.3833 28.6167 43.1 28.65 42.75L29.1833 42.8666C29.1166 43.3 29 43.6833 28.8167 44.0166L29.6167 44.8166L28.95 44.95Z" fill="white"/>
<path d="M33.1333 41.7667H32.6499V42.9667H33.1333C33.6166 42.9667 33.8833 42.75 33.8833 42.35C33.8833 41.9667 33.6166 41.7667 33.1333 41.7667ZM34.1333 44.95L33.0499 43.4667H32.6499V44.9H31.9833V41.1833H33.1333C33.9833 41.1833 34.5333 41.5833 34.5333 42.3167C34.5333 42.8667 34.2333 43.2167 33.7499 43.3667L34.7999 44.7834L34.1333 44.95Z" fill="white"/>
<path d="M35.5667 44.9166V41.2H37.8833V41.7833H36.2333V42.6833H37.55L37.65 43.2666H36.2333V44.3333H37.9333V44.9166" fill="white"/>
<path d="M39.9334 44.95C39.4834 44.95 39.0334 44.8334 38.65 44.6667L38.75 44.0834C39.1 44.2667 39.5834 44.4 39.9667 44.4C40.3834 44.4 40.6834 44.2167 40.6834 43.9C40.6834 43.5834 40.4834 43.4667 39.95 43.3C39.1667 43.0334 38.7834 42.7834 38.7834 42.2167C38.7834 41.5834 39.3167 41.15 40.0334 41.15C40.4667 41.15 40.8334 41.2334 41.1167 41.3667L41.0167 41.9834C40.6834 41.8 40.35 41.7 40.0167 41.7C39.65 41.7 39.4 41.9 39.4 42.1334C39.4 42.4167 39.6 42.5167 40.1834 42.7167C40.9667 42.9834 41.3 43.25 41.3 43.8334C41.3 44.5167 40.75 44.95 39.9334 44.95Z" fill="white"/>
<path d="M43.6333 41.6834C42.9333 41.6834 42.5166 42.2667 42.5166 43.05C42.5166 43.8 42.95 44.4167 43.6333 44.4167C44.3333 44.4167 44.7333 43.8167 44.7333 43.05C44.75 42.3 44.3166 41.6834 43.6333 41.6834ZM43.6666 44.9834C42.7166 44.9834 41.8833 44.25 41.8833 43.05C41.8833 41.85 42.7166 41.1167 43.6666 41.1167C44.6333 41.1167 45.45 41.8334 45.45 43.05C45.45 44.25 44.6166 44.9834 43.6666 44.9834Z" fill="white"/>
<path d="M47.3667 41.7667H46.8834V42.9667H47.3667C47.8334 42.9667 48.1167 42.75 48.1167 42.35C48.1167 41.9667 47.8501 41.7667 47.3667 41.7667ZM48.3667 44.95L47.2834 43.4667H46.8834V44.9H46.2334V41.1833H47.3834C48.2334 41.1833 48.7834 41.5833 48.7834 42.3167C48.7834 42.8667 48.4834 43.2167 48.0001 43.3667L49.0501 44.7834L48.3667 44.95Z" fill="white"/>
<path d="M51.1667 41.7833V44.9166H50.5V41.7833H49.3334V41.2H52.3L52.3834 41.7833" fill="white"/>
<path d="M54.0167 44.95C53.5667 44.95 53.1333 44.8334 52.75 44.6667L52.85 44.0834C53.2 44.2667 53.6833 44.4 54.0667 44.4C54.4833 44.4 54.7833 44.2167 54.7833 43.9C54.7833 43.5834 54.5833 43.4667 54.05 43.3C53.2667 43.0334 52.8667 42.7834 52.8667 42.2167C52.8667 41.5834 53.4 41.15 54.1167 41.15C54.5333 41.15 54.9167 41.2334 55.1833 41.3667L55.0833 41.9834C54.75 41.8 54.4167 41.7 54.0833 41.7C53.7167 41.7 53.4667 41.9 53.4667 42.1334C53.4667 42.4167 53.6667 42.5167 54.25 42.7167C55.0333 42.9834 55.3667 43.25 55.3667 43.8334C55.3833 44.5167 54.8333 44.95 54.0167 44.95Z" fill="white"/>
<path d="M28.7834 0C22.2 0 17.3334 4.2 17.3334 8.7C17.3334 11.0167 18.65 12.9833 20.2834 14.3333L20.4167 14.25C19.1167 13.1667 17.9334 11.4833 17.9334 9.16667C18.2834 4.25 24.35 1.48333 29.7 1.48333C33.5167 1.48333 40.3667 2.36667 40.3667 8.73333C40.3667 12.0667 36.8167 16.3833 29.35 16.3833C25.55 16.3833 22.5834 14.3333 22.5834 11.4C22.5834 8.86667 24.5667 7.05 27.5167 7.05C28.3334 7.05 29.1 7.25 29.6834 7.4C28.45 7.16667 26.55 7.5 25.55 8.28333V12.5833H29.1834V7.68333C29.8667 7.8 30.4167 8.06666 30.7834 8.3V12.5833H31.7334C30.9834 13.4333 29.6 13.9333 28.3834 13.75V13.9333C31.85 14.2 33.3334 12.5667 33.3334 10.7C33.3334 8.51667 31.2834 7.25 29.2 6.98333V3.73333H25.5667V7C23.2 7.48333 20.8834 8.88333 20.8834 11.2C20.8834 14.7833 25.8834 17 30.2167 17C36.8334 17 41.9334 13.8 41.9334 9.31667C41.9334 3.88333 34.5667 0 28.7834 0ZM33.8334 10.8167C33.8334 9.23333 32.75 7.96667 30.7834 7.35V3.73333H34.4334V12.5667H33.2834C33.6834 12 33.8334 11.3667 33.8334 10.8167Z" fill="white"/>
<path d="M12.9 22.3V34.9833L13.8833 35.1167V35.8667H9V35.1167L10.05 34.9833V29.2167H3.81667V34.9833L4.78333 35.1167V35.8667H0V35.1167L0.95 34.9833V22.3L0 22.1667V21.4333H4.78333V22.1667L3.81667 22.3V27.7167H10.05V22.3L9 22.1667V21.4333H13.8833V22.1667" fill="white"/>
<path d="M19.7 22.3666C19.7 23.3333 19.05 24.05 18.15 24.05C17.2334 24.05 16.6 23.4 16.6 22.4333C16.6 21.5166 17.2334 20.8 18.15 20.8C19.05 20.7833 19.7 21.5 19.7 22.3666ZM19.3667 35.0666L20.2834 35.2V35.85H15.8V35.2L16.7167 35.0666V26.3833L15.8 26.25V25.6H19.3667V35.0666Z" fill="white"/>
<path d="M22.2333 35.2L23.1333 35.0667V21.8L22.2333 21.6667V21H25.7999V35.0667L26.7166 35.2V35.8667H22.2333" fill="white"/>
<path d="M32.1333 25.6H34.55V26.5666H32.1333V32.6666C32.1333 34.25 32.4666 34.75 33.8833 34.75C34.4166 34.75 34.8666 34.75 35.3 34.65V35.35C34 35.8166 32.9166 36 32 36C29.95 36 29.4666 35.0666 29.4666 33.2666V26.5666H27.6V25.6H29.55V23.45L32.15 22.6666" fill="white"/>
<path d="M43.6166 30.7667C43.6166 27.5166 42.65 26.1 41.1 26.1C39.5833 26.1 38.6333 27.45 38.6333 30.7667C38.6333 34.0167 39.6 35.3667 41.1 35.3667C42.7166 35.3833 43.6166 34.0833 43.6166 30.7667ZM46.55 30.8333C46.55 34.0333 44.4 36.1666 41.0333 36.1666C37.7666 36.1666 35.7 34.7666 35.7 30.8333C35.7 27.5333 37.85 25.3167 41.2166 25.3167C44.5333 25.3167 46.55 27.3 46.55 30.8333Z" fill="white"/>
<path d="M58.9833 35.2V35.85H54.5V35.2L55.4 35.0667V29.2334C55.4 27.6167 54.8166 26.8834 53.5833 26.8834C53.0166 26.8834 52.1166 27.2834 51.4666 27.7334V35.05L52.3833 35.1834V35.8334H47.8833V35.1834L48.8 35.05V26.4334L47.8833 26.3V25.6H51.4666V27.0167C52.5833 26.1167 53.65 25.4 55.1666 25.4C57.1833 25.4 58.0833 26.5834 58.0833 28.9167V35.0834" fill="white"/>
<path d="M41.1167 15.5833H40.7833V15.4667H41.5833V15.5833H41.2833V16.7667H41.1167M42.5167 16.5333L42.9333 15.4667H43.1333V16.7667H42.9833V15.7833L42.6 16.7667H42.45L42.05 15.7833V16.7667H41.9V15.4667H42.1167L42.5167 16.5333Z" fill="white"/>
</g>
<defs>
<clipPath id="clip0_203_211">
<rect width="58.9833" height="45" fill="white"/>
</clipPath>
</defs>
</svg>
