<svg width="46" height="37" viewBox="0 0 46 37" fill="none" xmlns="http://www.w3.org/2000/svg">
<path d="M29.5545 34.4053C29.0793 34.4053 28.6934 34.7839 28.6934 35.2513C28.6934 35.7182 29.0793 36.0974 29.5545 36.0974C30.0298 36.0974 30.4151 35.7182 30.4151 35.2514C30.4151 34.7839 30.0298 34.4053 29.5545 34.4053ZM29.5545 35.9159C29.4657 35.916 29.3777 35.8989 29.2957 35.8655C29.2136 35.8321 29.139 35.7832 29.0762 35.7214C29.0134 35.6597 28.9636 35.5864 28.9296 35.5057C28.8957 35.4251 28.8782 35.3386 28.8783 35.2513C28.8783 34.8841 29.1804 34.5872 29.5545 34.5872C29.9281 34.5872 30.2306 34.8841 30.2306 35.2513C30.2306 35.6187 29.9281 35.9159 29.5545 35.9159ZM29.9083 35.0552C29.9083 35.0175 29.9007 34.9802 29.886 34.9454C29.8713 34.9106 29.8498 34.879 29.8226 34.8524C29.7955 34.8258 29.7633 34.8047 29.7279 34.7903C29.6925 34.7759 29.6545 34.7685 29.6162 34.7686H29.2013V35.7344H29.3857V35.3421H29.5181L29.7044 35.7344H29.9083L29.7138 35.3254C29.8302 35.2848 29.908 35.1766 29.9083 35.0552ZM29.6162 35.1608H29.3857V34.9495H29.6162C29.6754 34.9495 29.7239 34.9968 29.7239 35.0553C29.7237 35.1136 29.6755 35.1608 29.6162 35.1608Z" fill="#010101"/>
<path d="M30.4914 22.6398C30.6875 22.3088 30.8661 21.9737 31.0227 21.6395L45.1362 14.2111H30.2857C29.1723 13.0643 27.5623 12.3659 25.5829 12.1688L24.4063 0.700684L17.3954 12.1102H13.6217L12.344 14.2111H0.433105L8.47409 20.5776L3.48199 28.789H7.1453L2.22212 36.7992L17.4416 28.7881C17.8926 28.7849 18.3435 28.7721 18.7939 28.7499L28.0322 36.0657L27.0411 26.3926C28.4219 25.451 29.5534 24.2191 30.4914 22.6398H30.4914Z" fill="#006341"/>
<path d="M30.4275 21.0949L42.066 14.9688H29.942C28.8511 13.6901 27.1103 12.9721 24.8817 12.8784L23.8716 3.03613L17.8307 12.8672H14.0586L12.7818 14.9688H2.61768L9.47961 20.4012L4.84017 28.031H8.51078L4.33369 34.829L17.2479 28.031C17.848 28.0309 18.448 28.0134 19.0471 27.9787L27.0815 34.3396L26.2284 26.0138C27.685 25.1091 28.8637 23.8786 29.8256 22.2588C30.0553 21.8719 30.2578 21.4814 30.4275 21.0949Z" fill="#010101"/>
<path d="M29.4252 17.1859C29.4252 17.1859 29.3082 16.811 29.1381 16.4823L26.7728 17.6179C26.9266 18.0128 27.147 18.9566 26.5597 20.3593C25.8896 21.9569 23.8947 24.7825 18.4538 24.7825H11.1535L7.55709 26.5156H14.001L13.1755 26.735L8.55559 30.8878L16.8616 26.5156H17.2081C18.0442 26.5156 18.8199 26.4843 19.5415 26.4234L21.003 26.2501C21.2859 26.205 21.5587 26.1542 21.8232 26.0988C24.5385 25.5289 26.2895 24.3952 27.5659 22.8324C27.9055 22.416 28.2128 21.9697 28.4945 21.4946C28.891 20.8257 29.1707 20.1862 29.3444 19.5824C29.5989 18.6949 29.6207 17.8856 29.4251 17.1859H29.4252ZM12.6097 18.2035L6.98771 16.4827L6.9873 16.4823L11.4895 20.047L12.6097 18.2035ZM21.1926 14.3814H23.4869L22.8018 7.70654L21.1926 14.3814ZM29.9417 17.951C29.9969 18.057 30.0473 18.1653 30.0927 18.2757C30.1021 18.2984 30.1098 18.3219 30.1187 18.3447C30.1526 18.4307 30.1836 18.5178 30.2117 18.6059C30.2214 18.6386 30.2303 18.671 30.2405 18.7037C30.265 18.7912 30.2872 18.8794 30.3071 18.9681C30.3131 18.9976 30.3204 19.0264 30.3266 19.0563C30.3509 19.1763 30.3704 19.2988 30.3866 19.426L30.387 19.4256L33.985 17.5134L35.9238 16.4823L29.9417 17.951ZM24.6875 26.236C24.5231 26.2533 24.3596 26.2665 24.1971 26.2772C24.1854 26.2779 24.1732 26.2788 24.1614 26.2792C24.004 26.2899 23.8469 26.2972 23.6927 26.3026C23.6792 26.3035 23.6663 26.3039 23.6529 26.3042C23.4966 26.3095 23.3433 26.3126 23.1931 26.3137H23.1732C23.0189 26.3147 22.8676 26.3142 22.7215 26.3122V26.3126L25.1789 30.8878L24.6875 26.236Z" fill="#A2AAAD"/>
<path d="M23.1859 16.0064H16.4957L16.4827 16L11.1533 24.7821L14.7598 23.0509L16.8176 19.7487L17.4475 18.738L16.9815 18.3694L16.0505 17.6319L16.0501 17.6315H21.632C21.7379 17.6315 21.8397 17.6327 21.94 17.6355C21.9481 17.6355 21.9558 17.6359 21.9631 17.6362C22.052 17.6386 22.1393 17.6422 22.2241 17.647C22.2513 17.6486 22.2769 17.6506 22.3048 17.6526C22.3677 17.6566 22.4299 17.6606 22.4908 17.6662C22.5256 17.6694 22.5593 17.6737 22.5938 17.6769C22.6429 17.6825 22.6928 17.6881 22.7411 17.6937C22.7793 17.6989 22.8162 17.7049 22.8536 17.7104C22.8949 17.7164 22.9356 17.7228 22.9745 17.73C23.0143 17.7367 23.0517 17.7443 23.0894 17.7523C23.1247 17.7595 23.1588 17.7667 23.1921 17.7743C23.2315 17.7834 23.2692 17.7938 23.3057 17.8038C23.335 17.8117 23.365 17.8197 23.3926 17.8281C23.4311 17.8401 23.4676 17.852 23.5033 17.8648C23.5281 17.8736 23.5529 17.8824 23.5764 17.8915C23.613 17.9059 23.6483 17.9199 23.6827 17.9354L23.7441 17.9637C23.7953 17.9895 23.8455 18.0172 23.8946 18.0467C23.9263 18.0666 23.9571 18.0866 23.9872 18.1081C24.0014 18.1181 24.0147 18.1285 24.0282 18.1388C24.0582 18.162 24.0862 18.1855 24.1134 18.2106C24.1243 18.2206 24.1341 18.231 24.1447 18.2414C24.1718 18.2685 24.1982 18.2956 24.2217 18.3247C24.2299 18.3339 24.2367 18.3435 24.2441 18.353C24.2688 18.3842 24.2923 18.4161 24.3135 18.4504C24.3176 18.4571 24.322 18.4651 24.3261 18.4723C24.3484 18.5098 24.3694 18.5477 24.3873 18.5876C24.389 18.5908 24.3894 18.5944 24.3914 18.5976C24.4109 18.6418 24.428 18.6877 24.4425 18.736L24.4429 18.7356L26.7726 17.6175C26.1342 16.1672 24.3204 16.0064 23.186 16.0064H23.1859Z" fill="#A2AAAD"/>
<path d="M19.5406 26.4237L25.178 30.8875L22.7205 26.3125C21.9925 26.3024 21.3783 26.2604 21.0021 26.2499L19.5406 26.4232M10.7054 27.3894L8.55469 30.8876L13.1746 26.7347M14.7591 23.0511L11.1526 24.7823H18.4529C23.8938 24.7823 25.8888 21.9567 26.5588 20.3591C27.1461 18.9564 26.9257 18.0126 26.7719 17.6177L24.4421 18.7358C24.4555 18.7804 24.4678 18.8251 24.4775 18.8734C24.6837 19.938 23.7981 21.4597 22.2988 22.3216C21.1141 23.0025 19.6887 23.0511 18.4573 23.0511H14.759" fill="white"/>
<path d="M16.4829 16.0003L16.4959 16.0067H23.1862C24.3206 16.0067 26.1344 16.1675 26.7728 17.6178L29.1381 16.4822C29.3083 16.8109 29.4252 17.1858 29.4252 17.1858C29.6329 17.4355 29.8026 17.6888 29.9418 17.9509L35.9239 16.4822H29.1381C28.4108 15.1695 26.7594 14.3813 24.3815 14.3813H21.1926L22.8018 7.70645V7.70605L18.6997 14.3813H14.9338L13.6561 16.4822H6.98779V16.4826L12.6098 18.2034L11.4896 20.0469L7.55718 26.5155L11.1536 24.7824L16.483 16.0003H16.4829Z" fill="white"/>
</svg>
