<svg width="37" height="37" viewBox="0 0 37 37" fill="none" xmlns="http://www.w3.org/2000/svg">
<path fill-rule="evenodd" clip-rule="evenodd" d="M36.4692 3.23394C36.4692 3.23394 30.2315 0.700684 18.6647 0.700684C7.09789 0.700684 0.860649 3.23394 0.860649 3.23394C-0.615396 21.4656 8.40933 31.634 18.6647 36.2284C28.92 31.634 37.9418 21.4656 36.4692 3.23394Z" fill="#E81F3E"/>
<path fill-rule="evenodd" clip-rule="evenodd" d="M18.6652 1.11523C28.771 1.11523 34.8304 3.0836 36.069 3.52796C36.1603 4.73565 36.2078 5.91977 36.2078 7.07798C36.2078 13.8163 34.6658 19.7064 31.607 24.628C28.626 29.4244 24.1525 33.2721 18.6653 35.7689C13.1774 33.2718 8.70366 29.4243 5.72249 24.628C2.66423 19.7077 1.12256 13.8197 1.12256 7.08443C1.12256 5.92425 1.17018 4.73775 1.26181 3.52796C2.50017 3.08374 8.55934 1.11523 18.6653 1.11523H18.6652Z" fill="white"/>
<path fill-rule="evenodd" clip-rule="evenodd" d="M26.1106 21.7563C26.1106 21.7563 25.7433 21.8102 25.5455 22.3383L24.4784 22.3204C24.4784 22.3204 24.0977 21.7956 23.3647 21.7906C23.3647 21.7906 22.6799 22.1629 22.7397 22.6942C22.7397 22.6942 22.9142 22.4007 23.3249 22.3974C23.5958 22.4958 23.7171 22.7909 23.7171 22.7909C23.7171 22.7909 23.5676 23.4386 22.763 23.6945C22.763 23.6945 21.7924 23.1419 21.0478 23.1091C20.3031 23.0748 19.2627 23.9913 18.2853 23.1779C17.308 22.363 17.4011 21.1072 17.8115 20.2578C17.8115 20.2578 15.4978 21.8531 17.4043 24.0356C17.4043 24.0356 14.213 26.1344 12.8301 30.9131C14.5837 32.1954 16.5317 33.3464 18.6641 34.4188C20.4509 33.5202 22.108 32.5692 23.6288 31.5296C21.7025 30.1916 20.5406 27.814 22.1513 24.7062L22.5818 24.9046L24.6112 24.7488L24.9304 24.2422L25.6734 24.1978C25.6734 24.1978 26.368 23.4797 26.4613 22.9534C26.4613 22.9534 25.7582 22.4992 26.1106 21.7564V21.7563Z" fill="#2A4076"/>
<path fill-rule="evenodd" clip-rule="evenodd" d="M35.4663 4.09156C35.4663 4.09156 29.171 1.70752 18.6646 1.70752C8.15837 1.70752 1.86378 4.09156 1.86378 4.09156C1.76401 7.83 1.98343 11.1225 2.50696 14.0445C7.17252 12.5031 8.28456 16.1957 12.0742 16.3335L16.2944 16.3729C16.9974 15.6694 18.0097 15.3039 18.0097 15.3039L21.6215 15.3302C22.3729 15.7007 23.1341 16.2714 23.1341 16.2714C23.1341 16.2714 24.2776 16.2861 25.6224 16.178C28.2369 15.9697 29.2706 13.2461 34.8113 14.1005C35.3432 11.1638 35.5659 7.8533 35.4663 4.09183V4.09156Z" fill="#2A4076"/>
<path fill-rule="evenodd" clip-rule="evenodd" d="M4.34229 11.8091L5.50914 11.5862V8.45274L6.53314 8.25931V7.14927L5.50914 7.34599V5.92435L6.53314 5.71447V4.57324L4.34242 5.06839V11.8091H4.34229Z" fill="white"/>
<path fill-rule="evenodd" clip-rule="evenodd" d="M8.69802 4.1762C7.4614 4.37463 7.3767 4.57464 7.3667 5.75363V10.0496C7.3767 11.1548 7.45807 11.2777 8.69802 11.1564C9.95131 11.0054 10.1307 10.8759 10.1409 9.77577V8.42466L8.97399 8.53125V9.84143C8.97399 10.0234 8.85755 10.0809 8.75618 10.0989C8.66134 10.1022 8.53516 10.0875 8.53516 9.87261V5.62257C8.53516 5.45204 8.63146 5.36848 8.7395 5.35533C8.86249 5.3373 8.97399 5.40941 8.97399 5.57665V6.41616L10.1409 6.29642V5.42743C10.1307 4.19436 9.95465 4.01711 8.69802 4.1762Z" fill="white"/>
<path fill-rule="evenodd" clip-rule="evenodd" d="M14.9915 3.59738L13.3926 3.71212V10.7349L15.0282 10.6415C16.0453 10.5841 16.2082 10.4415 16.2249 9.46091V5.05678C16.2049 3.71226 16.0088 3.55817 14.9916 3.59751M15.0582 9.40196C15.0548 9.55934 15.0366 9.61671 14.8804 9.62658L14.5596 9.65447V4.91086L14.8804 4.88296C14.99 4.88138 15.0532 4.93375 15.0582 5.18468V9.40196Z" fill="white"/>
<path fill-rule="evenodd" clip-rule="evenodd" d="M17.7202 3.51983L17.0205 10.6L18.0992 10.5868L18.189 9.35389L18.8272 9.34573L18.927 10.5639L20.0057 10.5738L19.2994 3.49707L17.7202 3.51983ZM18.2471 8.27832L18.5131 5.49741L18.7691 8.27187L18.2471 8.27832Z" fill="white"/>
<path fill-rule="evenodd" clip-rule="evenodd" d="M22.0405 3.58437L20.8721 3.53516V10.594L22.8482 10.6579V9.63804L22.0404 9.61343V3.58437H22.0405Z" fill="white"/>
<path fill-rule="evenodd" clip-rule="evenodd" d="M24.8746 9.75628V3.78788L23.7061 3.68945V10.7122L25.6592 10.8647L25.6575 9.8301L24.8748 9.75628H24.8746Z" fill="white"/>
<path fill-rule="evenodd" clip-rule="evenodd" d="M27.1315 4.04932L26.4316 10.9229L27.5105 11.0229L27.5985 9.76363L28.2301 9.81942L28.3182 11.1033L29.3969 11.2213L28.6905 4.24788L27.1315 4.04932ZM27.6583 8.68648L27.916 6.00716L28.1702 8.73069L27.6583 8.68648Z" fill="white"/>
<path fill-rule="evenodd" clip-rule="evenodd" d="M32.9866 6.96454V6.2857C32.9766 5.1625 32.7805 4.89525 31.5372 4.65419C30.288 4.4476 30.2167 4.60997 30.2051 5.79371V6.74309C30.2151 7.33337 30.3265 7.66457 30.7095 7.99906L31.5539 8.66646C31.7167 8.80751 31.8164 8.96647 31.8198 9.17963V10.2798C31.8198 10.4455 31.6835 10.4684 31.5838 10.4618C31.4874 10.4422 31.371 10.3602 31.371 10.206L31.3743 9.22214L30.2051 9.08279V10.083C30.2167 11.1881 30.3463 11.3537 31.5838 11.5407C32.8404 11.7013 32.9767 11.6424 32.9867 10.511V9.10568C32.9767 8.65159 32.8337 8.27433 32.4748 7.96616L31.5872 7.25956C31.441 7.12837 31.3778 7.01349 31.3745 6.77572V5.98214C31.3745 5.81647 31.4874 5.77555 31.5839 5.78542C31.6837 5.80831 31.82 5.94279 31.82 6.11819V6.79533L32.9868 6.96415L32.9866 6.96454Z" fill="white"/>
<path fill-rule="evenodd" clip-rule="evenodd" d="M20.7473 28.6697H18.9074L18.8126 27.1055L17.7106 28.6697H15.8789L17.084 29.7093L16.1433 31.3293L17.9002 30.3259L19.0936 31.313L18.9756 29.6962L20.7475 28.6697H20.7473Z" fill="white"/>
<path fill-rule="evenodd" clip-rule="evenodd" d="M26.7375 18.3092L24.8393 18.729C24.5102 18.9521 23.9435 19.4324 24.2627 19.8293L26.1109 21.7559C25.7585 22.4986 26.4615 22.953 26.4615 22.953C26.3684 23.4793 25.6736 24.1974 25.6736 24.1974L24.9307 24.2417L24.6115 24.7483L22.582 24.9041L22.1516 24.7057C20.5408 27.8137 21.7029 30.1912 23.6291 31.5291C29.4865 27.525 33.3352 22.2592 34.8111 14.1001C29.4051 14.3985 29.3601 17.691 26.7372 18.3091L26.7375 18.3092Z" fill="#E81F3E"/>
<path fill-rule="evenodd" clip-rule="evenodd" d="M11.3416 18.8028C6.94519 18.2551 6.74912 14.1117 2.50732 14.0444C3.27189 18.3125 4.68471 21.7903 6.69256 24.7107C9.05442 21.8707 11.5891 19.9932 13.1267 19.0013C12.4818 18.9357 11.8567 18.8684 11.3416 18.8028Z" fill="#E81F3E"/>
<path fill-rule="evenodd" clip-rule="evenodd" d="M22.7283 16.8463C22.3394 16.2576 21.3886 16.1757 21.5483 15.7231C21.1128 15.9396 21.1726 16.3216 21.4453 16.5627C21.7827 16.8627 21.1893 17.1087 21.0681 16.7578C20.9184 16.9283 20.9184 17.2087 21.2457 17.4858C21.5715 17.7647 22.2863 17.7695 22.5605 18.5467C22.5189 18.0105 23.2221 17.5957 22.7283 16.8463Z" fill="#E81F3E"/>
<path fill-rule="evenodd" clip-rule="evenodd" d="M26.3934 17.1283C25.3896 17.225 24.0233 17.2906 24.0233 17.2906C24.2627 17.5726 24.3525 17.8941 24.3525 17.8941C24.3525 17.8941 23.2637 18.7369 24.2627 19.8289C23.9435 19.432 24.5103 18.9518 24.8393 18.7286L26.7375 18.3088C29.3604 17.6907 29.4054 14.3981 34.8114 14.0998C29.0479 13.8342 28.8352 16.8905 26.3935 17.1283H26.3934Z" fill="#2A4076"/>
<path fill-rule="evenodd" clip-rule="evenodd" d="M17.42 16.7989C17.6608 17.4957 17.2255 17.7236 17.2255 17.7236L11.9965 17.4514C7.21783 17.0169 7.36749 13.3145 2.50732 14.0441C6.74912 14.1114 6.94519 18.2548 11.3416 18.8025C11.8568 18.8682 12.4818 18.9354 13.1267 19.0011C13.5188 19.0404 13.9195 19.0797 14.3067 19.1174C13.3294 19.8421 12.9821 20.8703 12.9821 20.8703C16.0337 20.2899 17.1557 19.4045 17.5047 19.0372C18.5319 18.0501 17.6775 16.8777 17.4198 16.799L17.42 16.7989Z" fill="#2A4076"/>
<path fill-rule="evenodd" clip-rule="evenodd" d="M19.9512 18.1519C19.9512 18.1519 19.3063 18.5059 18.9106 19.2586C18.9106 19.2586 20.8138 19.0979 22.2398 19.8605C21.5982 18.67 20.9784 18.4224 19.9512 18.1519Z" fill="#2A4076"/>
<path fill-rule="evenodd" clip-rule="evenodd" d="M29.0972 29.7712H29.4329V30.7747H29.5559V29.7712H29.9116V29.6499H29.0972V29.7712Z" fill="#2A4076"/>
<path fill-rule="evenodd" clip-rule="evenodd" d="M30.8548 29.6499L30.5615 30.5648L30.2688 29.6499H30.0728V30.7747H30.1957V29.8204L30.5016 30.7747H30.622L30.9279 29.8204V30.7747H31.0509V29.6499H30.8548Z" fill="#2A4076"/>
<path fill-rule="evenodd" clip-rule="evenodd" d="M17.6011 12.6046H16.6188C16.0853 12.6046 15.8144 12.6505 15.8144 13.0096V13.1374C15.8144 13.3998 15.9323 13.544 16.5972 13.544H17.2405C17.5115 13.544 17.6411 13.5064 17.7541 13.4326V13.6064C17.7541 13.7212 17.6543 13.7818 17.4168 13.7818H15.7979V14.0967H17.4201C18.1581 14.0967 18.4057 13.9672 18.4057 13.5244V13.1161C18.4057 12.7373 18.1397 12.6045 17.6012 12.6045M17.4001 13.2423H16.7984C16.5208 13.2423 16.4493 13.2045 16.4493 13.0816C16.4493 12.957 16.5241 12.9192 16.7866 12.9192H17.415C17.6793 12.9192 17.7541 12.9569 17.7541 13.0816C17.7541 13.2045 17.6826 13.2423 17.4001 13.2423Z" fill="#CCCBCC"/>
<path fill-rule="evenodd" clip-rule="evenodd" d="M20.749 13.1571H20.1057C19.8349 13.1571 19.7051 13.1949 19.5923 13.267V13.0948C19.5923 12.98 19.6921 12.9194 19.928 12.9194H21.4721V12.6045H19.9247C19.1883 12.6045 18.939 12.734 18.939 13.1768V13.5833C18.939 13.9638 19.2083 14.0965 19.7451 14.0965H20.7258C21.2611 14.0965 21.5318 14.049 21.5318 13.6899V13.5636C21.5318 13.2997 21.4139 13.157 20.749 13.157M20.5579 13.7818H19.9314C19.667 13.7818 19.5923 13.7424 19.5923 13.6178C19.5923 13.4949 19.6654 13.4589 19.943 13.4589H20.5463C20.8254 13.4589 20.8969 13.4949 20.8969 13.6178C20.8969 13.7424 20.8222 13.7818 20.5579 13.7818Z" fill="#CCCBCC"/>
</svg>
