<svg width="56" height="39" viewBox="0 0 56 39" fill="none" xmlns="http://www.w3.org/2000/svg">
<path d="M53.5973 5.28211H43.5282V0.151855H13.2748L13.2825 5.28211H0.901211L0.885742 6.72618L1.7519 7.48621C1.97616 7.68383 2.20817 7.88144 2.43245 8.07905L2.54071 8.17025L2.52524 18.3472L4.09513 17.9975C5.32477 17.7239 6.56985 17.4655 7.79948 17.2299L8.13203 17.1691L8.20935 17.1463L9.50857 16.9259C10.0886 16.8271 10.6841 16.7283 11.295 16.6371L12.2076 16.5003C12.7798 16.4167 13.3676 16.333 13.994 16.2495L14.953 16.1279C15.8268 16.0214 16.7858 15.9226 17.8685 15.8162L18.1778 15.7934L18.4485 17.6479C18.5877 18.6132 18.9821 19.5252 19.5853 20.2776L19.7632 20.498L13.0351 27.1103L16.1749 26.3275L15.8114 32.8942L17.7602 31.207L18.0541 36.056L20.0416 33.601L23.1505 37.6446L23.6455 36.0333L27.3421 38.0854L27.3652 36.6717H27.659L28.1927 36.6261C28.5794 36.5957 29.0588 36.5501 29.0975 36.5501L29.9792 36.4208C31.7037 36.1624 33.3355 35.5392 34.6888 34.6043C36.4597 33.3883 37.6661 31.8075 38.2618 29.8997L38.3004 29.778L38.7643 29.5196L39.1046 28.4937L40.6126 27.6121L40.5664 26.9963L42.1826 26.206L37.6661 21.6305L37.2641 21.5545C36.8696 21.4785 36.4135 21.3721 36.0112 21.2505L35.9416 21.2278L34.0005 19.434L26.9554 16.8119L26.9011 16.7891L26.592 16.8195C26.4139 16.8347 25.4705 16.9259 24.2949 16.9259C23.2432 16.9259 21.3176 16.8499 20.3045 16.333L19.0672 15.7098L20.4205 15.5958C21.9208 15.4894 23.4444 15.4134 24.9446 15.3678L25.9114 15.345C26.5146 15.3298 27.1178 15.3222 27.7132 15.3222H28.6412C29.2368 15.3222 29.84 15.3298 30.4432 15.345L31.9588 15.3754H31.9821C32.0439 15.383 32.1059 15.3906 32.1908 15.3906C33.4515 15.4362 34.7043 15.5046 35.9339 15.5882L36.8929 15.6566C37.4961 15.7022 38.1071 15.7554 38.687 15.8162L39.6073 15.9074C40.2028 15.9682 40.806 16.0366 41.4014 16.1127L42.5925 16.2571L43.7293 16.4167C44.3325 16.5003 44.9357 16.5915 45.5156 16.6827L46.6835 16.8727L47.8048 17.0779C49.0421 17.2983 50.2872 17.5491 51.5169 17.8151L52.0737 17.9367L52.5378 17.6099C53.4504 16.9715 53.8293 16.7055 53.8293 16.0214L53.8215 12.3353L53.4966 11.978C53.2646 11.7272 53.0325 11.4688 52.7929 11.218L52.4913 10.8988L53.8138 10.306L53.806 7.82063L54.1076 7.69143L55.3913 7.23541V5.29731L53.5973 5.28211Z" fill="#231F20"/>
<path d="M40.0482 25.8486L37.0399 22.7934C37.0399 22.7934 35.2457 22.4664 34.5575 22.0179L34.6736 21.7825L33.3125 20.5132L26.739 18.0734C26.739 18.0734 21.9365 18.5751 19.7246 17.4502C19.9102 18.7119 20.6063 19.7759 21.6502 20.4144L17.2422 24.7466L21.5962 23.6673L20.2196 24.2754L17.5283 25.2101L17.2654 29.9603L20.3975 27.2546L22.3154 26.0233L20.5289 27.4143L18.9126 28.8583L19.1446 32.689L22.3772 28.6912L20.5057 32.0809L22.6635 34.8931L23.6301 31.7464L23.9703 30.8345L23.3749 34.4067L26.1202 35.9344L26.1434 34.6802C27.0559 35.2883 27.9454 35.4176 27.9454 35.4176C27.9454 35.4176 25.7722 34.0799 26.7234 30.8572C26.7234 30.8572 27.2493 30.7812 27.5122 30.5532C27.2958 30.4393 27.0482 30.2417 27.0173 29.9603C27.0173 29.9603 27.5742 29.8996 27.9607 29.5425C27.6978 29.3751 27.5509 29.1547 27.52 28.8583C27.52 28.8583 28.8115 26.5783 31.3944 25.7575L32.2452 26.2059C32.2452 26.2059 32.1834 26.6314 31.99 27.0039C31.99 27.0039 32.4539 26.9278 32.9953 26.6011C32.9953 26.6011 33.1344 26.8367 32.9722 27.3536C32.9722 27.3536 33.3587 27.3079 33.5676 27.0646L34.5729 27.8324C34.5729 27.8324 35.4081 31.45 30.7758 35.0222C30.7758 35.0222 36.0809 33.8442 37.2255 28.942L37.7283 28.6609L38.0608 27.65L39.3058 26.9202L39.2594 26.2363L40.0482 25.8486ZM31.3791 22.2156C31.3095 22.0409 31.1779 21.6228 31.0079 21.2884C30.2576 20.4524 28.9353 19.9051 28.9353 19.9051L31.3171 20.9007L33.0571 22.3296L31.3791 22.2156ZM31.8507 28.3339C31.4795 28.6456 31.1392 28.9876 30.8454 29.3524C30.7063 29.5272 30.5669 29.7096 30.4433 29.8996L30.745 30.1049L30.5129 30.386L30.2653 30.196L30.0333 30.5761C29.9871 30.6597 29.9406 30.7357 29.9019 30.8192L30.1571 30.9485L29.956 31.2526L29.7472 31.1233C29.7395 31.1385 29.7395 31.146 29.7317 31.1613C29.6235 31.374 29.5385 31.5944 29.4456 31.8074C29.2678 32.2482 29.1054 32.6966 28.9429 33.1525C28.9738 32.6737 29.0745 32.1949 29.2136 31.7237C29.2832 31.488 29.3683 31.26 29.4612 31.0322C29.4688 31.0092 29.4843 30.9865 29.4921 30.9561L29.2523 30.8118H29.2136L29.4301 30.4924L29.6468 30.6368L29.693 30.5532C29.7241 30.4924 29.755 30.4317 29.7859 30.3708C29.8324 30.2873 29.8786 30.2113 29.9328 30.1276L30.0102 29.9833L29.7781 29.8236L29.9793 29.5652L30.2035 29.7172C30.3427 29.5272 30.4974 29.3448 30.6676 29.1777C31.0001 28.8431 31.4022 28.5392 31.8507 28.3339Z" fill="url(#paint0_linear_1098_1690)"/>
<path d="M16.8786 1.41406V5.15345H16.0434V3.55738H15.3938V5.16105H14.5586V1.80929L14.2261 1.57367V1.41406H15.3938V2.75934H16.0434V1.41406H16.8786Z" fill="url(#paint1_linear_1098_1690)"/>
<path d="M20.4439 1.41406L20.8615 1.83208V4.73542L20.4362 5.15345H19.0673L18.6343 4.73542V1.83208L19.0673 1.41406H20.4439ZM19.4386 4.46941H20.0495V2.0905H18.8276L19.4386 2.37171V4.46941Z" fill="url(#paint2_linear_1098_1690)"/>
<path d="M25.1691 1.41434V4.72809L24.7515 5.16133H23.3595L22.9341 4.72809V1.80197L22.6094 1.56635V1.40674H23.7307V4.46209H24.3648V1.41434H25.1691Z" fill="url(#paint3_linear_1098_1690)"/>
<path d="M28.7266 1.41406L29.2602 1.83968V2.43252H28.4328V2.1133H27.1104L27.7522 2.3185V2.88094L28.7497 2.88854L29.2602 3.28375V4.73542L28.7344 5.14585H27.466L26.917 4.71264V4.0514H27.7445V4.4086H28.4328V3.60296H27.412L26.9323 3.20775V1.83208L27.3886 1.41406H28.7266Z" fill="url(#paint4_linear_1098_1690)"/>
<path d="M33.39 1.41406V2.53892H33.2584L33.0186 2.16649H32.6243V4.84184L32.833 4.99384V5.15345H31.5802V4.99384L31.7891 4.84184V2.17409H31.387L31.1472 2.54652H31.0156V1.41406H33.39Z" fill="url(#paint5_linear_1098_1690)"/>
<path d="M36.9546 1.41406L37.3723 1.83208V4.73542L36.9469 5.15345H35.5782L35.145 4.73542V1.83208L35.5782 1.41406H36.9546ZM35.9571 4.46941H36.5679V2.0905H35.3462L35.9571 2.37171V4.46941Z" fill="url(#paint6_linear_1098_1690)"/>
<path d="M42.2447 1.40674V5.16133H41.1852L40.4506 3.15482L40.1952 2.21998L40.3268 3.16242V5.16133H39.476V1.80957L39.1357 1.56635V1.41434H40.5511L41.2856 3.39044L41.5023 4.20368L41.3941 3.36764V1.78676L41.0769 1.55874V1.40674H42.2447Z" fill="url(#paint7_linear_1098_1690)"/>
<path d="M43.2424 6.54443H41.7266C41.9199 6.69644 42.1133 6.85605 42.3066 7.01566L43.2424 6.54443Z" fill="url(#paint8_linear_1098_1690)"/>
<path d="M52.5379 8.3457L50.7358 8.93093V9.04494C51.0065 9.31855 51.3004 9.60736 51.6098 9.92658L52.5455 9.50857C52.5379 9.12094 52.5379 8.73333 52.5379 8.3457Z" fill="url(#paint9_linear_1098_1690)"/>
<path d="M45.7012 12.5717C45.6934 11.9028 45.6934 11.234 45.6856 10.5728L43.8838 11.158C43.8916 11.9028 43.8991 12.6401 43.8991 13.3849L45.7012 12.5717Z" fill="url(#paint10_linear_1098_1690)"/>
<path d="M47.9985 8.97635L49.3596 8.38352C49.2358 8.30751 49.1198 8.22391 48.996 8.1479C49.2589 8.1555 49.5221 8.1631 49.7772 8.1707H49.8312L53.5898 6.53662H51.5326L47.9907 7.80588C47.9907 8.20111 47.9985 8.58872 47.9985 8.97635Z" fill="url(#paint11_linear_1098_1690)"/>
<path d="M49.8082 9.97999V9.22754L48.0063 9.81278V10.1244C48.3388 10.436 48.6713 10.7552 49.0038 11.082L50.3263 10.4892C50.1562 10.322 49.986 10.1548 49.8082 9.97999Z" fill="url(#paint12_linear_1098_1690)"/>
<path d="M47.0157 7.19807C46.7605 6.97765 46.5052 6.75725 46.25 6.54443H45.7706L42.4761 7.62368V7.9733C42.9401 7.9809 43.3964 7.99611 43.8603 8.00371C43.8603 8.22413 43.8603 8.43692 43.8681 8.65734L47.0234 7.22847C47.0157 7.22087 47.0157 7.20567 47.0157 7.19807Z" fill="url(#paint13_linear_1098_1690)"/>
<path d="M45.6856 9.98764C45.6856 9.53922 45.6778 9.08318 45.6778 8.63477L43.876 9.2808C43.8838 9.78243 43.8838 10.2765 43.8915 10.7781L45.6856 9.98764Z" fill="url(#paint14_linear_1098_1690)"/>
<path d="M47.6805 6.93206L48.5391 6.54443H47.2397C47.3867 6.67364 47.5336 6.80286 47.6805 6.93206Z" fill="url(#paint15_linear_1098_1690)"/>
<path d="M2.60254 6.54443C3.0124 6.90166 3.42229 7.25128 3.82442 7.5933C3.82442 8.55854 3.82442 9.52379 3.81668 10.4814C4.72151 11.2795 5.62632 12.0395 6.53115 12.754C6.53115 13.3544 6.52342 13.9548 6.52342 14.5552C6.21406 14.6084 5.91246 14.654 5.60312 14.7072V13.8712C5.07724 13.4456 4.48177 12.9667 3.80895 12.4271C3.80895 13.8712 3.80122 15.3153 3.80122 16.7593C5.04632 16.4781 6.29914 16.2197 7.55196 15.9841C8.06237 15.4597 8.31758 15.1937 8.31758 15.1785C8.32532 14.2056 8.32532 13.2328 8.33305 12.2599C7.42822 11.5607 6.52342 10.8235 5.61859 10.0482C5.61859 9.59978 5.61859 9.15137 5.62632 8.70295C5.36339 8.55094 5.10817 8.39133 4.84524 8.23933C5.10817 8.23173 5.36339 8.22413 5.62632 8.20892C5.78872 8.20132 5.95886 8.20132 6.12127 8.19372C6.2682 8.18612 6.4074 8.18612 6.55433 8.17852C6.55433 8.45213 6.55433 8.72575 6.5466 8.99936C7.07248 9.47058 7.66797 9.96461 8.3485 10.489C8.35624 9.39457 8.36397 8.30012 8.37171 7.21327C8.11651 6.99285 7.86903 6.77245 7.61383 6.54443H2.60254Z" fill="url(#paint16_linear_1098_1690)"/>
<path d="M29.0357 10.1544C29.5074 9.81999 29.987 9.48557 30.4586 9.14355C30.4586 8.45191 30.4586 7.76789 30.4508 7.07625C29.9559 6.71903 29.7007 6.53662 29.6854 6.53662H25.1611C25.4087 6.71903 25.6561 6.89384 25.9037 7.07625C25.8959 9.40956 25.8959 11.7505 25.8881 14.0838C26.4991 14.0686 27.1023 14.061 27.7133 14.061V10.7244C28.3318 11.1425 28.6412 11.3629 28.6412 11.3781V14.061C29.2522 14.061 29.8554 14.0686 30.4664 14.0838C30.4664 13.1109 30.4586 12.1457 30.4586 11.1728C29.987 10.8384 29.5151 10.4964 29.0357 10.1544ZM27.9685 9.40196C27.806 9.29556 27.7211 9.24235 27.7211 9.22715V8.19351C27.4581 8.07191 27.2028 7.94269 26.9399 7.82108H28.649V8.92314C28.2083 9.24235 27.984 9.40196 27.9685 9.40196Z" fill="url(#paint17_linear_1098_1690)"/>
<path d="M40.4355 12.2747L41.5414 11.7959C41.5336 11.2335 41.5336 10.671 41.5259 10.1162L38.8501 11.0663C39.4302 11.5223 39.724 11.7579 39.724 11.7731C39.7318 12.7383 39.7396 13.7036 39.7471 14.6688C40.3503 14.7296 40.9535 14.798 41.5645 14.874C41.5567 13.886 41.5492 12.9056 41.5414 11.9175L40.4355 12.2747Z" fill="url(#paint18_linear_1098_1690)"/>
<path d="M43.8994 13.4753C43.9072 14.0453 43.9072 14.6077 43.915 15.1777C44.5182 15.2614 45.1214 15.3525 45.7246 15.4514C45.7168 14.6229 45.709 13.8021 45.709 12.9736L43.8994 13.4753Z" fill="url(#paint19_linear_1098_1690)"/>
<path d="M51.2537 11.4385L49.7688 11.8489C50.0935 12.1833 50.426 12.5177 50.751 12.8673C50.751 13.483 50.7587 14.091 50.7587 14.7066C50.4494 14.6534 50.1478 14.6002 49.8384 14.5546C49.8384 14.281 49.8384 14.0074 49.8306 13.7338C49.3976 13.2626 48.9027 12.7609 48.369 12.2365L48.021 12.3353C48.0288 13.5058 48.0365 14.6762 48.0443 15.8467C49.297 16.0747 50.5498 16.3255 51.8027 16.5915C52.3054 16.2419 52.5606 16.0443 52.5606 16.0291C52.5606 14.9574 52.5606 13.8934 52.5528 12.8217C52.1121 12.3505 51.6867 11.8869 51.2537 11.4385Z" fill="url(#paint20_linear_1098_1690)"/>
<path d="M37.5271 11.5378L41.5252 9.72892C41.5175 9.1361 41.5175 8.54327 41.5099 7.95043L39.7001 8.54328C39.7078 9.07529 39.7078 9.61492 39.7156 10.147C39.0893 9.66813 38.7799 9.42491 38.7799 9.40971C38.7799 9.21969 38.7799 9.0297 38.7721 8.84729L38.5634 8.91568L38.7721 8.80928V8.30765C38.5092 8.17085 38.2541 8.03405 37.9911 7.89724C38.2463 7.89724 38.5092 7.90484 38.7721 7.91245H38.7799C38.9422 7.91245 39.1124 7.92005 39.2749 7.92005C39.414 7.92005 39.5609 7.92765 39.7001 7.92765V8.34566L41.5021 7.43362V7.15239C41.0072 6.74958 40.752 6.55957 40.7364 6.55957H36.2124C36.4598 6.74198 36.7074 6.932 36.9547 7.12201C36.9703 9.56171 36.9856 11.9938 37.009 14.4336C37.6122 14.4792 38.2232 14.5324 38.8264 14.5932C38.8186 13.4303 38.8108 12.2675 38.803 11.1046L37.5271 11.5378Z" fill="url(#paint21_linear_1098_1690)"/>
<path d="M34.1865 10.717C34.1941 11.4543 34.1941 12.1915 34.1941 12.9211C33.8847 12.906 33.5755 12.8908 33.2584 12.8832C33.2506 11.3251 33.2428 9.76699 33.2353 8.20892C32.9799 8.07972 32.7248 7.9505 32.4696 7.8289C32.7248 7.8289 32.9799 7.8365 33.2353 7.8365H33.2506C33.4131 7.8365 33.5831 7.8365 33.7456 7.8441H34.1554C34.1554 8.14811 34.1554 8.44452 34.1632 8.74854C34.6968 9.15137 35.3 9.59978 35.9884 10.1014C35.9806 9.09816 35.9728 8.0949 35.9728 7.09927C35.7177 6.90926 35.4625 6.72685 35.2071 6.54443H30.6831C30.9307 6.72685 31.1781 6.90166 31.4257 7.08407C31.4332 9.25016 31.441 11.4087 31.441 13.5748C31.936 13.9472 32.1911 14.1372 32.2144 14.1448C33.4827 14.1904 34.7511 14.2588 36.0193 14.35C36.0115 13.6052 36.0115 12.8604 36.0037 12.1079C35.4779 11.6747 34.8669 11.2111 34.1865 10.717Z" fill="url(#paint22_linear_1098_1690)"/>
<path d="M8.61133 6.54443C8.85879 6.76485 9.09854 6.98525 9.346 7.19807C9.33053 10.0254 9.30735 12.8527 9.29188 15.6801C9.89508 15.5737 10.4983 15.4825 11.0938 15.3837C11.1015 14.0764 11.117 12.7691 11.1247 11.4695C11.7357 11.9103 12.045 12.1307 12.045 12.1459C12.0373 13.1796 12.0295 14.2132 12.0218 15.2469C12.625 15.1557 13.2282 15.0721 13.8314 14.9961C13.8546 12.3815 13.8778 9.76699 13.8933 7.15246C13.4061 6.74965 13.1509 6.54443 13.1354 6.54443H8.61133ZM12.0605 10.3978C11.4418 9.94941 11.1402 9.70618 11.1402 9.6986C11.1402 9.29577 11.1479 8.89296 11.1479 8.49013C10.885 8.35333 10.6298 8.20892 10.3668 8.06452C10.6298 8.05692 10.8927 8.04932 11.1479 8.04171C11.3103 8.03411 11.4804 8.03411 11.6428 8.02651C11.7898 8.02651 11.929 8.01891 12.0759 8.01891C12.0682 8.80935 12.0682 9.60739 12.0605 10.3978Z" fill="url(#paint23_linear_1098_1690)"/>
<path d="M14.1333 6.54443C14.3808 6.74205 14.6205 6.94726 14.868 7.13726C14.8448 9.71378 14.8293 12.2903 14.8061 14.8668C16.0667 14.7148 17.335 14.5856 18.6033 14.4716C19.1137 14.0612 19.3766 13.856 19.3766 13.8484C19.3843 13.0276 19.3843 12.1991 19.3921 11.3783C18.9203 11.0439 18.4486 10.717 17.9769 10.375C18.4563 9.99501 18.9281 9.62259 19.4075 9.25776C19.4153 8.54334 19.4153 7.8213 19.423 7.10687C18.9358 6.73445 18.6806 6.54443 18.6651 6.54443H14.1333ZM17.5592 13.21C17.2499 13.2328 16.9406 13.2632 16.6312 13.286C16.639 12.5411 16.639 11.8039 16.6467 11.0667C17.2654 11.4847 17.5747 11.6975 17.5747 11.7127C17.567 12.2143 17.5592 12.7159 17.5592 13.21ZM17.5902 9.08295C17.1494 9.44018 16.9251 9.62259 16.9019 9.62259C16.7395 9.51619 16.6544 9.45538 16.6544 9.44778C16.6544 9.07535 16.6622 8.70295 16.6622 8.33052C16.4069 8.20132 16.144 8.07212 15.8888 7.9353C16.1517 7.92771 16.4069 7.92771 16.6699 7.92011C16.8323 7.92011 17.0024 7.91251 17.1648 7.91251C17.304 7.91251 17.451 7.90491 17.5902 7.90491C17.5979 8.30012 17.5902 8.68775 17.5902 9.08295Z" fill="url(#paint24_linear_1098_1690)"/>
<path d="M19.6475 6.54422C19.8949 6.73424 20.1424 6.91665 20.3822 7.09906C20.3667 9.51598 20.3512 11.9253 20.3357 14.3422C21.8593 14.2358 23.3827 14.1598 24.914 14.1142C24.914 13.0426 24.9218 11.9785 24.9218 10.9068C24.3726 11.2945 23.7616 11.7353 23.0966 12.2445V12.8905C22.7872 12.9057 22.4778 12.9133 22.1609 12.9285C22.1609 12.2977 22.1687 11.6669 22.1687 11.036C22.5785 11.0208 22.9806 11.0132 23.3904 10.998C23.692 10.7776 24.0014 10.5648 24.303 10.3444C23.7154 9.92639 23.4138 9.71357 23.3982 9.71357C22.9884 9.72117 22.5863 9.72878 22.1762 9.73638C22.1762 9.23475 22.184 8.73314 22.184 8.22391C21.9211 8.10229 21.6659 7.97309 21.403 7.84389C21.6659 7.84389 21.9211 7.83629 22.184 7.83629C22.3465 7.83629 22.5165 7.83629 22.679 7.82869H23.1044V8.47472C23.6302 8.86234 24.2334 9.28036 24.914 9.74398C24.914 8.85474 24.9218 7.96549 24.9218 7.07625C24.6664 6.89384 24.4113 6.71903 24.1561 6.53662C22.6636 6.54422 21.1555 6.54422 19.6475 6.54422Z" fill="url(#paint25_linear_1098_1690)"/>
<defs>
<linearGradient id="paint0_linear_1098_1690" x1="17.2378" y1="26.7026" x2="40.0489" y2="26.7026" gradientUnits="userSpaceOnUse">
<stop stop-color="#FAE300"/>
<stop offset="1" stop-color="#D7B828"/>
</linearGradient>
<linearGradient id="paint1_linear_1098_1690" x1="15.5544" y1="2.63412" x2="15.5544" y2="6.28858" gradientUnits="userSpaceOnUse">
<stop stop-color="white"/>
<stop offset="1" stop-color="#C4C4C4"/>
</linearGradient>
<linearGradient id="paint2_linear_1098_1690" x1="19.7481" y1="2.63412" x2="19.7481" y2="6.28858" gradientUnits="userSpaceOnUse">
<stop stop-color="white"/>
<stop offset="1" stop-color="#C4C4C4"/>
</linearGradient>
<linearGradient id="paint3_linear_1098_1690" x1="23.8935" y1="2.63439" x2="23.8935" y2="6.28886" gradientUnits="userSpaceOnUse">
<stop stop-color="white"/>
<stop offset="1" stop-color="#C4C4C4"/>
</linearGradient>
<linearGradient id="paint4_linear_1098_1690" x1="28.096" y1="2.63412" x2="28.096" y2="6.28858" gradientUnits="userSpaceOnUse">
<stop stop-color="white"/>
<stop offset="1" stop-color="#C4C4C4"/>
</linearGradient>
<linearGradient id="paint5_linear_1098_1690" x1="32.2071" y1="2.63412" x2="32.2071" y2="6.28858" gradientUnits="userSpaceOnUse">
<stop stop-color="white"/>
<stop offset="1" stop-color="#C4C4C4"/>
</linearGradient>
<linearGradient id="paint6_linear_1098_1690" x1="36.2596" y1="2.63412" x2="36.2596" y2="6.28858" gradientUnits="userSpaceOnUse">
<stop stop-color="white"/>
<stop offset="1" stop-color="#C4C4C4"/>
</linearGradient>
<linearGradient id="paint7_linear_1098_1690" x1="40.6855" y1="2.63439" x2="40.6855" y2="6.28886" gradientUnits="userSpaceOnUse">
<stop stop-color="white"/>
<stop offset="1" stop-color="#C4C4C4"/>
</linearGradient>
<linearGradient id="paint8_linear_1098_1690" x1="42.4824" y1="6.47916" x2="42.4824" y2="14.1694" gradientUnits="userSpaceOnUse">
<stop stop-color="#FAE300"/>
<stop offset="1" stop-color="#D7B828"/>
</linearGradient>
<linearGradient id="paint9_linear_1098_1690" x1="51.6355" y1="6.47913" x2="51.6355" y2="14.1693" gradientUnits="userSpaceOnUse">
<stop stop-color="#FAE300"/>
<stop offset="1" stop-color="#D7B828"/>
</linearGradient>
<linearGradient id="paint10_linear_1098_1690" x1="44.7921" y1="6.47928" x2="44.7921" y2="14.1695" gradientUnits="userSpaceOnUse">
<stop stop-color="#FAE300"/>
<stop offset="1" stop-color="#D7B828"/>
</linearGradient>
<linearGradient id="paint11_linear_1098_1690" x1="50.7929" y1="6.47895" x2="50.7929" y2="14.1692" gradientUnits="userSpaceOnUse">
<stop stop-color="#FAE300"/>
<stop offset="1" stop-color="#D7B828"/>
</linearGradient>
<linearGradient id="paint12_linear_1098_1690" x1="49.1661" y1="6.47934" x2="49.1661" y2="14.1695" gradientUnits="userSpaceOnUse">
<stop stop-color="#FAE300"/>
<stop offset="1" stop-color="#D7B828"/>
</linearGradient>
<linearGradient id="paint13_linear_1098_1690" x1="44.7467" y1="6.47916" x2="44.7467" y2="14.1694" gradientUnits="userSpaceOnUse">
<stop stop-color="#FAE300"/>
<stop offset="1" stop-color="#D7B828"/>
</linearGradient>
<linearGradient id="paint14_linear_1098_1690" x1="44.7751" y1="6.47939" x2="44.7751" y2="14.1696" gradientUnits="userSpaceOnUse">
<stop stop-color="#FAE300"/>
<stop offset="1" stop-color="#D7B828"/>
</linearGradient>
<linearGradient id="paint15_linear_1098_1690" x1="47.891" y1="6.47916" x2="47.891" y2="14.1694" gradientUnits="userSpaceOnUse">
<stop stop-color="#FAE300"/>
<stop offset="1" stop-color="#D7B828"/>
</linearGradient>
<linearGradient id="paint16_linear_1098_1690" x1="5.49177" y1="6.47916" x2="5.49177" y2="14.1694" gradientUnits="userSpaceOnUse">
<stop stop-color="#FAE300"/>
<stop offset="1" stop-color="#D7B828"/>
</linearGradient>
<linearGradient id="paint17_linear_1098_1690" x1="27.8203" y1="6.47895" x2="27.8203" y2="14.1692" gradientUnits="userSpaceOnUse">
<stop stop-color="#FAE300"/>
<stop offset="1" stop-color="#D7B828"/>
</linearGradient>
<linearGradient id="paint18_linear_1098_1690" x1="40.2083" y1="6.47875" x2="40.2083" y2="14.169" gradientUnits="userSpaceOnUse">
<stop stop-color="#FAE300"/>
<stop offset="1" stop-color="#D7B828"/>
</linearGradient>
<linearGradient id="paint19_linear_1098_1690" x1="44.812" y1="6.47844" x2="44.812" y2="14.1686" gradientUnits="userSpaceOnUse">
<stop stop-color="#FAE300"/>
<stop offset="1" stop-color="#D7B828"/>
</linearGradient>
<linearGradient id="paint20_linear_1098_1690" x1="50.2838" y1="6.47855" x2="50.2838" y2="14.1688" gradientUnits="userSpaceOnUse">
<stop stop-color="#FAE300"/>
<stop offset="1" stop-color="#D7B828"/>
</linearGradient>
<linearGradient id="paint21_linear_1098_1690" x1="38.8638" y1="6.47909" x2="38.8638" y2="14.1693" gradientUnits="userSpaceOnUse">
<stop stop-color="#FAE300"/>
<stop offset="1" stop-color="#D7B828"/>
</linearGradient>
<linearGradient id="paint22_linear_1098_1690" x1="33.3568" y1="6.47916" x2="33.3568" y2="14.1694" gradientUnits="userSpaceOnUse">
<stop stop-color="#FAE300"/>
<stop offset="1" stop-color="#D7B828"/>
</linearGradient>
<linearGradient id="paint23_linear_1098_1690" x1="11.2525" y1="6.47916" x2="11.2525" y2="14.1694" gradientUnits="userSpaceOnUse">
<stop stop-color="#FAE300"/>
<stop offset="1" stop-color="#D7B828"/>
</linearGradient>
<linearGradient id="paint24_linear_1098_1690" x1="16.7726" y1="6.47916" x2="16.7726" y2="14.1694" gradientUnits="userSpaceOnUse">
<stop stop-color="#FAE300"/>
<stop offset="1" stop-color="#D7B828"/>
</linearGradient>
<linearGradient id="paint25_linear_1098_1690" x1="22.2931" y1="6.47895" x2="22.2931" y2="14.1692" gradientUnits="userSpaceOnUse">
<stop stop-color="#FAE300"/>
<stop offset="1" stop-color="#D7B828"/>
</linearGradient>
</defs>
</svg>
