<svg width="59" height="43" viewBox="0 0 59 43" fill="none" xmlns="http://www.w3.org/2000/svg">
<path d="M24.1812 31.7385C24.1812 31.4532 24.1696 31.1679 24.1812 30.8826C24.2045 30.643 24.0999 30.506 23.8909 30.4033C22.0679 29.5018 20.2333 29.4447 18.4567 30.4604C16.7962 31.4075 16.3201 32.9824 16.4478 34.7626C16.5407 36.0978 17.04 37.2504 18.2012 38.0378C19.7107 39.0649 22.2421 39.0763 23.7748 38.0835C24.4831 37.6156 24.4947 37.5928 24.2741 36.7939C24.2509 36.7026 24.2277 36.6113 24.2045 36.52C24.0187 35.8467 23.9838 35.8353 23.4845 36.2918C23.1478 36.5885 22.7994 36.851 22.3814 37.0336C20.7674 37.7297 19.1185 36.9651 18.6773 35.2876C18.4799 34.5572 18.5031 33.8154 18.7237 33.0965C19.1418 31.7043 20.3029 30.9967 21.7544 31.2364C22.1376 31.2934 22.4046 31.419 22.4743 31.8526C22.5324 32.1721 22.6833 32.4803 22.7646 32.7998C22.8227 33.0508 22.9504 33.1079 23.2058 33.1079C24.1812 33.1079 24.1812 33.1193 24.1812 32.1607C24.1812 32.0238 24.1812 31.8868 24.1812 31.7385Z" fill="#FDFDFD"/>
<path d="M7.93673 29.9131C6.7175 29.9131 5.53311 29.9131 4.34871 29.9131C3.50106 29.9131 3.52428 29.9131 3.74491 30.7005C3.86102 31.1113 4.02359 31.3624 4.49967 31.2825C4.68545 31.2483 4.75512 31.351 4.75512 31.5336C4.72029 33.0742 4.82479 34.6262 4.70868 36.1668C4.65062 36.9199 4.30227 37.2851 3.65201 37.365C2.9437 37.4563 2.52568 37.1938 2.247 36.4635C1.96832 35.7217 1.96832 35.7445 1.16711 35.7559C0.818761 35.7674 0.714256 35.9157 0.714256 36.2238C0.714256 36.6689 0.725867 37.1025 0.714256 37.5476C0.702644 37.7872 0.807149 37.9242 0.981325 38.0497C2.14249 38.8714 3.41978 38.9512 4.75512 38.6774C5.78856 38.472 6.40398 37.8215 6.61299 36.8058C6.68266 36.4749 6.70589 36.1554 6.70589 35.813C6.70589 34.4208 6.70589 33.0399 6.70589 31.6477C6.70589 31.4194 6.69428 31.2254 7.0194 31.2711C7.4142 31.3396 7.59999 31.1456 7.68127 30.769C7.73933 30.4951 7.84383 30.2326 7.93673 29.9131Z" fill="#FDFDFD"/>
<path d="M58.6098 36.9197C58.575 36.9425 58.5053 36.9539 58.4937 36.9882C58.0641 38.1408 57.1003 38.5972 55.9624 38.757C54.6038 38.951 53.3033 38.7684 52.0841 38.1408C51.8286 38.0038 51.7241 37.8327 51.7357 37.5474C51.7589 37.1251 51.7473 36.6915 51.7357 36.2692C51.7241 35.9155 51.8518 35.7215 52.235 35.7671C52.2699 35.7671 52.3047 35.7671 52.3279 35.7671C53.0827 35.7671 53.1175 35.7557 53.3033 36.4975C53.4659 37.1822 53.9884 37.3876 54.569 37.4675C55.2308 37.5702 55.9043 37.5359 56.3804 36.9654C56.6939 36.5888 56.6126 36.0752 56.2178 35.7443C55.9043 35.4818 55.5327 35.3449 55.1496 35.2193C54.4993 35.0025 53.8258 34.8428 53.1988 34.5461C52.1189 34.0439 51.608 33.2451 51.6777 32.1952C51.7589 31.0997 52.3976 30.2894 53.5355 29.9813C54.9986 29.5819 56.4268 29.7188 57.7738 30.472C58.0757 30.6432 58.2615 30.8372 58.215 31.2138C58.1802 31.5219 58.1918 31.8415 58.215 32.161C58.2383 32.5718 58.0989 32.7658 57.6345 32.7544C56.8681 32.7316 56.8332 32.7658 56.6358 32.0355C56.4849 31.4763 56.1017 31.2366 55.5792 31.1453C54.9638 31.0312 54.3483 31.0312 53.8607 31.5105C53.5007 31.8643 53.5471 32.4235 53.9419 32.7772C54.2438 33.0511 54.6154 33.1995 54.9986 33.325C55.2308 33.4049 55.4631 33.4619 55.6953 33.519C56.9145 33.8271 58.0293 34.2836 58.5982 35.5161C58.6098 35.9725 58.6098 36.4404 58.6098 36.9197Z" fill="#262223"/>
<path d="M44.1067 38.3463C44.2693 38.2436 44.246 38.1066 44.2693 37.9925C44.3505 37.4904 44.5712 37.1709 45.1634 37.285C45.3491 37.3192 45.4188 37.2279 45.4188 37.0454C45.4188 35.1966 45.4188 33.3479 45.4188 31.4992C45.4188 31.3052 45.3259 31.2367 45.1518 31.271C44.5712 31.3851 44.3854 31.0541 44.2925 30.5748C44.2577 30.358 44.1299 30.164 44.1415 29.9015C45.5582 29.9015 46.9748 29.9015 48.3798 29.9015C48.5656 29.9015 48.612 29.9586 48.554 30.1298C48.4727 30.3808 48.3798 30.6433 48.3101 30.8944C48.2405 31.1683 48.0779 31.3052 47.7876 31.2596C47.4857 31.2253 47.3696 31.3166 47.3812 31.6361C47.4044 33.3936 47.3928 35.1396 47.3812 36.897C47.3812 37.1595 47.416 37.2964 47.7412 37.285C48.2405 37.2508 48.7398 37.2622 49.2391 37.285C49.4713 37.2964 49.5874 37.2279 49.6455 36.9997C49.7268 36.7144 49.8661 36.4405 49.9474 36.1552C50.0403 35.8357 50.2261 35.7444 50.5512 35.7444C51.3756 35.7558 51.3756 35.733 51.3756 36.5661C51.3756 37.1366 51.364 37.7072 51.3872 38.2664C51.3988 38.5403 51.3408 38.643 51.0273 38.643C47.3928 38.6316 43.7584 38.6316 40.1239 38.643C39.822 38.643 39.7523 38.5631 39.8684 38.3007C39.9033 38.2208 39.9381 38.1181 39.9497 38.0268C40.0426 37.5018 40.24 37.1138 40.9599 37.3192C40.809 36.8628 40.6696 36.4748 40.5535 36.0868C40.4955 35.8813 40.3677 35.8699 40.1936 35.8699C39.2878 35.8699 38.3937 35.8699 37.488 35.8699C37.3371 35.8699 37.2094 35.8585 37.1397 36.0411C37.012 36.4405 36.861 36.8399 36.7217 37.2508C37.5925 37.3306 37.5925 37.3306 37.8712 38.5745C37.7783 38.6887 37.639 38.6316 37.5229 38.6316C35.6882 38.6316 33.8536 38.6202 32.0189 38.643C31.6009 38.643 31.3803 38.4947 31.2177 38.1295C30.9042 37.4334 30.5559 36.7601 30.2191 36.0868C29.7663 35.1966 28.9418 34.8429 27.9781 35.0939C27.7807 35.1396 27.8271 35.2651 27.8271 35.3792C27.8271 35.9156 27.8271 36.4519 27.8271 36.9883C27.8271 37.1709 27.8387 37.3192 28.0826 37.2736C28.5935 37.1709 28.7444 37.4904 28.8606 37.8898C29.0812 38.6316 29.0928 38.6316 28.3032 38.6316C27.0956 38.6316 25.8996 38.6316 24.6455 38.6316C24.7268 38.3349 24.8197 38.0838 24.8661 37.8328C24.9474 37.4448 25.1216 37.1823 25.5861 37.2736C25.7951 37.3078 25.8647 37.2051 25.8647 37.0111C25.8647 35.1738 25.8647 33.3479 25.8647 31.5106C25.8647 31.3394 25.8183 31.2253 25.6209 31.2596C25.0984 31.3623 24.9706 31.0313 24.8545 30.6319C24.6455 29.8901 24.6339 29.8901 25.4235 29.8901C26.6311 29.8901 27.8387 29.8901 29.0928 29.8901C28.9999 30.1868 28.8954 30.4493 28.8257 30.7232C28.7444 31.0998 28.5703 31.328 28.129 31.2481C27.8852 31.2025 27.8271 31.328 27.8387 31.5449C27.8503 32.1953 27.8503 32.8344 27.8387 33.4849C27.8387 33.6789 27.8852 33.7473 28.1058 33.7702C28.6515 33.8158 29.0696 33.7131 29.4063 33.211C29.8475 32.5605 30.3933 31.9671 30.9274 31.3052C29.9869 31.2025 30.2888 30.3923 29.9288 29.9015C31.3919 29.9015 32.7737 29.9015 34.2019 29.9015C34.0742 30.2781 33.9581 30.6433 33.842 30.9971C33.7723 31.2253 33.5865 31.271 33.3775 31.2481C33.064 31.2025 32.8782 31.3509 32.6924 31.5791C32.135 32.2752 31.5777 32.9599 30.9971 33.6446C30.8462 33.8158 30.8345 33.8957 31.0552 34.0212C31.3687 34.2038 31.5429 34.5233 31.7054 34.8315C32.0886 35.5276 32.4602 36.2237 32.8201 36.9312C32.9363 37.1595 33.064 37.2964 33.3659 37.2736C33.8652 37.2394 34.4806 37.4219 34.8173 37.1937C35.1541 36.9655 35.2121 36.3378 35.3747 35.8699C35.8856 34.4777 36.3849 33.074 36.8958 31.6818C36.9887 31.4193 37.0816 31.1911 36.6404 31.2481C36.2456 31.3052 36.1643 31.0199 36.0714 30.746C35.8043 29.8901 35.8043 29.8901 36.7217 29.8901C37.5693 29.8901 38.4286 29.8901 39.2762 29.8901C40.1587 29.8901 40.5303 30.1526 40.809 30.9629C41.4825 32.9371 42.1675 34.8999 42.8294 36.8856C42.9223 37.1595 43.0384 37.3192 43.3636 37.2622C43.6771 37.2051 43.8396 37.3649 43.9093 37.6616C43.9325 37.9012 44.0254 38.1181 44.1067 38.3463ZM37.6506 34.5804C38.3937 34.5804 39.0905 34.5804 39.7755 34.5804C39.9846 34.5804 40.0194 34.5119 39.9613 34.3293C39.6594 33.4164 39.3691 32.5034 39.0672 31.5905C39.0324 31.4878 38.9859 31.3509 38.8582 31.3623C38.7189 31.3623 38.7189 31.5106 38.684 31.6133C38.3473 32.5719 38.0106 33.5419 37.6506 34.5804Z" fill="#262223"/>
<path d="M8.91194 29.9127C10.1892 29.9127 11.4085 29.8899 12.6277 29.9241C13.2431 29.9355 13.6611 30.2551 13.8701 30.8599C14.5552 32.8798 15.2519 34.8883 15.937 36.9082C16.0183 37.1592 16.0996 37.3418 16.4247 37.2848C16.7847 37.2163 16.9472 37.3989 17.0285 37.7298C17.0982 38.0151 17.2143 38.3004 17.3188 38.6314C15.9022 38.6314 14.532 38.6314 13.1502 38.6314C12.9876 38.6314 12.9064 38.5971 12.9644 38.4145C13.0573 38.1178 13.1502 37.8097 13.2431 37.513C13.3128 37.2848 13.5102 37.2619 13.7076 37.2734C13.963 37.2962 14.0791 37.2619 13.9862 36.9538C13.6379 35.8697 13.6611 35.8697 12.4767 35.8697C11.8613 35.8697 11.2575 35.8811 10.6421 35.8697C10.4447 35.8697 10.317 35.8925 10.2473 36.1093C10.1312 36.4859 9.99183 36.8511 9.8641 37.2277C10.5956 37.3418 10.9092 37.6956 11.0137 38.4374C11.0369 38.5971 10.9904 38.6314 10.8511 38.6314C9.50414 38.6314 8.15718 38.6314 6.77539 38.6314C6.86828 38.3118 6.96118 38.0494 7.01924 37.7755C7.08891 37.3989 7.2863 37.2163 7.6811 37.2848C7.92495 37.3304 8.00623 37.1935 8.08751 36.9881C8.72615 35.185 9.37641 33.3933 10.0383 31.5903C10.1196 31.362 10.1196 31.2137 9.81765 31.2593C9.43447 31.3164 9.2719 31.1224 9.19062 30.78C9.12095 30.5176 9.01645 30.2551 8.91194 29.9127ZM11.8961 34.5802C12.2909 34.5802 12.6161 34.5802 12.9296 34.5802C13.0805 34.5802 13.185 34.5688 13.1154 34.3748C12.8019 33.4504 12.5116 32.526 12.198 31.5903C12.1632 31.4876 12.1284 31.362 11.989 31.362C11.8497 31.362 11.8497 31.5104 11.8149 31.6131C11.5942 32.2407 11.3736 32.857 11.1646 33.4846C11.0485 33.827 10.7582 34.3063 10.8859 34.4889C11.0833 34.7513 11.5942 34.5231 11.8961 34.5802Z" fill="#262223"/>
<path d="M24.1814 31.7381C24.1814 31.8751 24.1814 32.0234 24.1814 32.1604C24.1814 33.119 24.1814 33.1075 23.206 33.1075C22.9505 33.1075 22.8344 33.0391 22.7648 32.7994C22.6835 32.4799 22.5325 32.1718 22.4745 31.8522C22.4048 31.4186 22.1261 31.3045 21.7545 31.236C20.3031 30.9964 19.1419 31.7039 18.7239 33.0961C18.5033 33.8265 18.4917 34.5568 18.6774 35.2872C19.1187 36.9647 20.7675 37.7293 22.3816 37.0332C22.7996 36.8506 23.1596 36.5881 23.4847 36.2914C23.9956 35.835 24.0188 35.8464 24.2046 36.5197C24.2278 36.611 24.2511 36.7023 24.2743 36.7936C24.4949 37.5924 24.4833 37.6266 23.775 38.0831C22.2422 39.0759 19.6993 39.0645 18.2014 38.0375C17.0402 37.25 16.5409 36.0974 16.448 34.7623C16.3319 32.982 16.7963 31.4072 18.4568 30.46C20.2334 29.4443 22.0681 29.5128 23.8911 30.4029C24.1001 30.5056 24.193 30.6426 24.1814 30.8822C24.1582 31.1675 24.1814 31.4528 24.1814 31.7381Z" fill="#262223"/>
<path d="M7.93682 29.9131C7.84393 30.2326 7.73942 30.4951 7.68136 30.769C7.61169 31.1456 7.42591 31.3396 7.0195 31.2711C6.69437 31.214 6.70598 31.4194 6.70598 31.6477C6.70598 33.0399 6.70598 34.4208 6.70598 35.813C6.70598 36.1439 6.68276 36.4749 6.61309 36.8058C6.40408 37.8215 5.78866 38.472 4.75522 38.6774C3.41987 38.9513 2.13097 38.86 0.981417 38.0497C0.79563 37.9242 0.702737 37.7872 0.714349 37.5476C0.737572 37.1025 0.72596 36.6689 0.714349 36.2238C0.714349 35.9271 0.818854 35.7674 1.1672 35.7559C1.96841 35.7445 1.96841 35.7217 2.24709 36.4635C2.52577 37.1938 2.94379 37.4563 3.65211 37.365C4.30236 37.2737 4.65071 36.9199 4.70877 36.1668C4.82489 34.6262 4.72038 33.0742 4.75522 31.5336C4.75522 31.3624 4.69716 31.2483 4.49976 31.2825C4.02368 31.3624 3.86112 31.1113 3.745 30.7005C3.52438 29.9131 3.51277 29.9131 4.34881 29.9131C5.5332 29.9131 6.70598 29.9131 7.93682 29.9131Z" fill="#262223"/>
<path d="M32.066 0.576353C32.3215 0.987179 32.5421 1.40942 31.9963 1.84307C32.0428 1.85448 32.0892 1.8773 32.1241 1.88871C32.3563 1.77459 32.5885 1.64906 32.8208 1.53495C33.0995 1.398 33.3897 1.34095 33.6336 1.55777C33.889 1.78601 33.8078 2.05989 33.68 2.33377C33.2272 3.36084 33.2156 4.44496 33.262 5.52908C33.3085 6.68168 33.3665 7.82286 33.2388 8.97546C33.204 9.28358 33.2272 9.43193 33.6104 9.51181C35.1083 9.83134 36.5713 10.2878 37.7557 11.3035C38.3131 11.7828 38.9517 12.011 39.6136 12.2164C41.5412 12.8212 43.4687 13.4147 45.3846 14.0195C46.1974 14.282 46.4993 14.6928 46.4413 15.3889C46.4181 15.6856 46.2323 15.8796 46.0813 16.0964C45.7678 16.5529 45.4195 16.9866 45.1176 17.4544C44.7808 17.968 44.3512 18.2989 43.6545 18.2989C44.0028 18.6755 43.9796 19.0293 43.7474 19.3944C43.3177 20.0563 42.9229 20.741 42.4817 21.4029C42.0637 22.042 41.4599 22.3729 40.6587 22.3615C38.9401 22.3501 37.2216 22.4072 35.5031 22.3387C34.5625 22.3045 33.8542 22.6811 33.2272 23.2631C31.8222 24.5412 31.1487 26.1845 30.812 27.9876C30.7655 28.25 30.7539 28.5467 30.452 28.6723C30.1385 28.8092 29.9179 28.638 29.6856 28.4326C28.2574 27.086 26.6898 25.922 24.9829 24.9292C22.0916 23.2516 19.0261 21.9735 15.8213 21.0378C15.0665 20.8209 14.3117 20.6269 13.557 20.4215C13.2667 20.3416 13.0112 20.2275 12.9648 19.8852C12.9183 19.5314 13.1506 19.3716 13.4292 19.2461C13.7892 19.0749 14.1492 18.9037 14.5324 18.7212C14.2653 18.5272 13.9402 18.55 13.6499 18.4929C12.8138 18.3217 12.6513 18.0022 13.1854 17.3403C13.8937 16.473 14.7065 15.7084 15.5542 14.9895C17.1334 13.6543 18.7938 12.4104 20.6169 11.3948C21.1859 11.0752 21.7664 10.7671 22.3819 10.5275C22.765 10.3791 22.9857 10.2079 23.0553 9.75146C23.2179 8.6331 23.7404 7.61745 24.3326 6.65886C25.6331 4.53626 27.3052 2.7446 29.5347 1.52353C30.0456 1.24965 30.5797 1.03283 31.1139 0.838825C31.2532 0.781766 31.497 0.827413 31.5087 0.564941C31.6015 0.564941 31.7061 0.564941 31.7989 0.564941C31.8338 0.644824 31.8686 0.644824 31.8918 0.564941C31.9383 0.576353 31.9963 0.576353 32.066 0.576353ZM31.8802 1.13553C31.5203 1.24965 31.2996 1.2953 31.0906 1.37518C27.4562 2.83589 25.1571 5.52908 23.752 9.04393C23.5779 9.46616 23.4734 9.92264 23.4501 10.3791C23.4385 10.5845 23.3572 10.6758 23.1598 10.7557C19.5718 12.205 16.5992 14.5102 13.9286 17.2262C13.7312 17.4316 13.5221 17.6256 13.3944 17.9223C14.3698 18.1506 15.3568 18.2647 16.3554 18.6184C15.2987 18.9608 14.3466 19.3032 13.3944 19.8281C19.6531 21.4828 25.4706 23.788 30.1965 28.2158C30.3359 27.6452 30.4404 27.0974 30.6145 26.5839C31.2184 24.7124 32.2054 23.1033 34.0284 22.1105C34.3187 21.9507 34.609 21.8822 34.9457 21.8822C36.8384 21.8936 38.7427 21.8822 40.6354 21.8936C41.2044 21.8936 41.6921 21.6996 42.0056 21.2318C42.4585 20.547 42.8765 19.8281 43.3177 19.132C43.4919 18.8467 43.4106 18.7212 43.0855 18.7326C42.621 18.7326 42.1566 18.7212 41.6921 18.744C41.367 18.7554 41.2044 18.6869 41.3205 18.3332C41.3554 18.2419 41.367 18.1391 41.2857 18.0707C41.1696 17.9794 41.0767 18.0821 40.9954 18.1506C40.7399 18.3332 40.4613 18.5043 40.229 18.7212C40.0316 18.9037 39.7994 18.8695 39.602 18.8239C39.3698 18.7668 39.5091 18.5386 39.5091 18.3788C39.5091 18.2875 39.5556 18.1848 39.4394 18.1277C39.3349 18.0821 39.2537 18.1506 39.184 18.2076C38.9401 18.3902 38.6847 18.55 38.4524 18.744C38.2434 18.9152 38.0228 18.8353 37.8138 18.8239C37.6628 18.8124 37.6628 18.6527 37.6745 18.5157C37.6861 18.4016 37.7674 18.2533 37.6048 18.1848C37.4654 18.1277 37.3609 18.2533 37.2797 18.3332C36.6875 18.9494 35.9327 18.7212 35.236 18.7212C34.9805 18.7212 34.8296 18.5157 34.8296 18.2647C34.8296 18.0136 34.9805 17.8539 35.236 17.7968C35.3637 17.774 35.4915 17.774 35.6192 17.774C37.57 17.774 39.5091 17.7854 41.4599 17.7626C41.7734 17.7626 41.936 17.7968 41.8547 18.1506C41.8198 18.2989 41.8082 18.4815 42.0056 18.55C42.1914 18.6184 42.2727 18.4473 42.3307 18.3446C42.6094 17.8995 43.0042 17.774 43.5151 17.8196C44.0144 17.8653 44.3976 17.6827 44.6879 17.249C45.0014 16.7697 45.3498 16.3133 45.6749 15.8454C46.1858 15.1264 46.0581 14.7612 45.2104 14.4988C42.9462 13.7798 40.6819 13.0723 38.4176 12.3534C38.2202 12.2849 38.0344 12.2164 37.8835 12.0681C37.4074 11.5659 36.8152 11.2008 36.1882 10.9041C35.027 10.3563 33.8194 9.94546 32.4608 9.91123C32.7163 9.44334 32.7859 8.98687 32.8092 8.50757C32.9137 6.3165 32.4376 4.10261 33.2969 1.91154C32.3215 2.28813 31.6828 2.96142 31.021 3.8059C31.079 2.79025 31.2996 1.98001 31.8802 1.13553Z" fill="#CECECC"/>
<path d="M31.8683 0.575684C31.8335 0.654949 31.7986 0.654949 31.7754 0.575684C31.8102 0.575684 31.8451 0.575684 31.8683 0.575684Z" fill="#FDFDFD"/>
<path d="M31.8809 1.13574C31.3003 1.98022 31.0681 2.79046 30.9752 3.7947C31.637 2.96163 32.2873 2.28834 33.2511 1.90033C32.4034 4.0914 32.8679 6.31671 32.7634 8.49637C32.7402 8.97566 32.6705 9.43214 32.415 9.90002C33.7852 9.93426 34.9812 10.3451 36.1424 10.8929C36.7694 11.1896 37.35 11.5547 37.8377 12.0569C37.9886 12.2166 38.1744 12.2851 38.3718 12.3422C40.6361 13.0611 42.9004 13.7686 45.1647 14.4876C46.0123 14.75 46.14 15.1152 45.6291 15.8342C45.2924 16.3021 44.944 16.7585 44.6421 17.2378C44.3635 17.6715 43.9687 17.8541 43.4694 17.8084C42.9584 17.7628 42.5636 17.8883 42.285 18.3334C42.2153 18.4361 42.1456 18.6072 41.9598 18.5388C41.7624 18.4703 41.774 18.2877 41.8089 18.1394C41.8902 17.7856 41.7276 17.7399 41.4141 17.7514C39.4633 17.7628 37.5242 17.7628 35.5734 17.7628C35.4457 17.7628 35.3179 17.7514 35.1902 17.7856C34.9464 17.8427 34.7838 18.0024 34.7838 18.2535C34.7838 18.4931 34.9348 18.71 35.1902 18.71C35.8869 18.71 36.6417 18.9382 37.2339 18.3219C37.3152 18.2421 37.4197 18.1165 37.559 18.1736C37.7216 18.2421 37.6403 18.3904 37.6287 18.5045C37.6171 18.6415 37.6171 18.8012 37.768 18.8127C37.977 18.8241 38.1976 18.9154 38.4067 18.7328C38.6389 18.5388 38.8943 18.3676 39.1382 18.1964C39.2195 18.1394 39.2891 18.0709 39.3937 18.1165C39.5098 18.1736 39.4633 18.2763 39.4633 18.3676C39.4633 18.5274 39.324 18.7556 39.5562 18.8127C39.7536 18.8697 39.9858 18.8925 40.1832 18.71C40.4155 18.4931 40.6942 18.3219 40.9496 18.1394C41.0309 18.0823 41.1238 17.9682 41.2399 18.0595C41.3328 18.1279 41.3096 18.2421 41.2747 18.3219C41.1586 18.6757 41.3212 18.7556 41.6463 18.7328C42.1108 18.71 42.5753 18.7328 43.0397 18.7214C43.3648 18.7214 43.4461 18.8469 43.272 19.1208C42.8307 19.8169 42.4243 20.5358 41.9598 21.2206C41.6463 21.6884 41.1586 21.8824 40.5897 21.8824C38.697 21.8824 36.7926 21.8824 34.8999 21.871C34.5632 21.871 34.2729 21.9395 33.9826 22.0993C32.1596 23.0921 31.1842 24.7012 30.5688 26.5727C30.3946 27.0976 30.2901 27.6454 30.1507 28.2046C25.4248 23.7768 19.6073 21.483 13.3486 19.8169C14.3008 19.292 15.2646 18.9496 16.3096 18.6072C15.2994 18.2535 14.3124 18.1394 13.3486 17.9111C13.4764 17.6144 13.6854 17.409 13.8828 17.215C16.5535 14.499 19.5261 12.1938 23.1141 10.7445C23.3115 10.6646 23.3927 10.5847 23.4044 10.3679C23.416 9.91144 23.5321 9.45496 23.7063 9.03272C25.1113 5.51788 27.4104 2.82469 31.0448 1.36398C31.3003 1.29551 31.5209 1.24986 31.8809 1.13574ZM32.6008 17.2949C32.9259 17.3063 33.1466 17.1465 33.3207 16.8955C33.6226 16.7585 33.9478 16.7699 34.2613 16.7699C36.9552 16.7699 39.6491 16.7357 42.343 16.7928C43.0629 16.8042 43.4229 16.5303 43.69 15.9483C42.7843 15.9026 42.7843 15.9026 43.0513 15.2636C43.2487 14.9669 42.9236 15.0353 42.8423 15.0125C41.3444 14.5446 39.8465 14.0768 38.3486 13.6203C37.7448 13.4377 37.1642 13.2437 36.7578 12.7187C36.6417 12.5704 36.4675 12.4791 36.3049 12.3764C34.8419 11.5091 33.2395 11.0983 31.5558 11.0298C30.7546 10.9956 29.9533 11.0298 29.1754 11.0298C29.1521 10.9727 29.1405 10.9613 29.1405 10.9499C29.1754 10.8244 29.1986 10.7103 29.2334 10.5847C29.3844 10.2994 29.454 9.99132 29.4773 9.67179C29.6631 7.69754 29.4773 5.71188 29.6166 3.62352C29.3495 3.82893 29.1521 3.9887 28.9547 4.13705C27.1201 5.51788 25.9009 7.32095 25.2854 9.50061C25.0648 10.2652 25.2971 10.9727 25.7499 11.6004C25.8428 11.7373 25.9473 11.8743 26.075 12.0226C24.3101 12.7073 22.7193 13.6203 21.233 14.7158C20.3853 15.3435 19.5957 16.0396 18.9455 16.8726C18.7829 17.0781 18.7365 17.1922 19.0732 17.2721C19.5725 17.3976 20.0602 17.5688 20.5363 17.7399C21.6278 18.1394 22.7309 18.5388 23.8688 19.1778C22.7193 19.3376 21.6974 19.5316 20.6524 19.9767C20.8266 20.0565 20.9195 20.0908 21.0007 20.125C22.7657 20.8211 24.4842 21.5971 26.1331 22.5329C26.8995 22.9666 27.6542 23.423 28.409 23.8567C28.5135 23.9252 28.5832 24.1077 28.7341 23.8681C29.2102 23.0807 29.8605 22.4416 30.6849 21.8939C29.6514 21.6086 29.1289 20.9124 28.9083 19.9767C28.8851 19.8625 28.8386 19.7256 28.9896 19.6343C29.1289 19.5544 29.187 19.6914 29.2566 19.7598C29.965 20.3989 30.8126 20.6728 31.7648 20.6614C34.4122 20.65 37.0713 20.6386 39.7188 20.6728C40.3458 20.6842 40.6361 20.4103 40.9032 19.874C40.6942 19.874 40.5432 19.874 40.3923 19.874C38.5112 19.874 36.6301 19.874 34.749 19.874C34.5051 19.874 34.2729 19.8511 34.0291 19.8055C33.4136 19.6914 32.7169 18.8925 32.9375 18.0481C32.8679 17.5574 32.5544 18.1279 32.415 17.9339C32.3454 17.6829 32.7285 17.5688 32.6008 17.2949Z" fill="#242021"/>
<path d="M28.3972 23.8568C27.6425 23.4118 26.8877 22.9553 26.1214 22.5331C24.4725 21.5973 22.754 20.8213 20.989 20.1252C20.9077 20.0909 20.8148 20.0567 20.6406 19.9768C21.6857 19.5318 22.6959 19.3378 23.8571 19.178C22.7191 18.5389 21.6276 18.1395 20.5245 17.7401C20.0368 17.5689 19.5607 17.3977 19.0614 17.2722C18.7247 17.1923 18.7712 17.0782 18.9337 16.8728C19.584 16.0397 20.3736 15.3436 21.2212 14.716C22.7075 13.6204 24.2983 12.7189 26.0633 12.0228C25.9472 11.863 25.8427 11.7375 25.7382 11.6005C25.2853 10.9615 25.0531 10.2539 25.2737 9.50076C25.8891 7.32111 27.0967 5.51804 28.943 4.13721C28.8733 4.71921 28.8849 5.30121 28.8849 5.88322C28.8849 7.34393 28.8965 8.81605 28.8501 10.2768C28.8385 10.6419 28.9314 10.6762 29.2217 10.5735C29.1868 10.699 29.152 10.8131 29.1288 10.9387C29.1288 10.9501 29.1404 10.9615 29.1636 11.0185C29.9416 11.0185 30.7428 10.9957 31.544 11.0185C33.2393 11.087 34.8417 11.4978 36.2932 12.3651C36.4558 12.4678 36.6415 12.5591 36.746 12.7075C37.1525 13.221 37.733 13.4264 38.3368 13.609C39.8348 14.0655 41.3443 14.522 42.8306 15.0013C42.9235 15.0241 43.237 14.967 43.0396 15.2523C42.9002 15.298 42.7493 15.3094 42.6332 15.3893C42.1223 15.6974 41.5649 15.7659 40.9727 15.7544C37.1757 15.743 33.3787 15.743 29.5932 15.7544C29.4655 15.7544 29.3146 15.686 29.1404 15.8571C29.4771 16.1881 29.8023 16.519 30.1622 16.8842C29.4423 16.8842 28.7572 16.85 28.0721 16.8956C27.0619 16.9641 26.1794 17.3293 25.7149 18.2879C25.2621 19.235 25.3898 20.1594 25.9588 21.0381C26.0052 21.118 26.0401 21.2549 26.2142 21.2093C26.2491 20.7985 26.2375 20.3762 26.4929 20.0111C26.5278 20.0339 26.5394 20.0453 26.551 20.0567C26.5974 20.2393 26.6439 20.4219 26.6787 20.6045C26.9922 21.8255 27.6425 22.864 28.3972 23.8568ZM28.0953 6.16851C27.9676 6.14569 27.9328 6.20275 27.8979 6.24839C27.12 7.22981 26.551 8.31393 26.191 9.50076C25.9588 10.2768 26.191 10.9272 26.6787 11.5207C26.7716 11.6348 26.8529 11.7375 27.0387 11.6348C27.5264 11.3381 27.9676 10.9957 28.0141 10.3795C28.1534 8.97582 28.0373 7.57217 28.0953 6.16851ZM36.6996 14.0883C36.27 13.6661 36.119 12.9471 35.2714 13.0727C35.0507 13.1069 34.8069 12.97 34.5747 12.9243C33.9825 12.7988 33.3787 12.6618 32.682 12.5135C32.9606 12.97 33.1232 13.3808 33.6341 13.4264C33.7386 13.4378 33.8083 13.4721 33.8547 13.5748C34.145 14.2481 34.7372 14.3622 35.3643 14.2823C35.8055 14.2367 36.2351 14.1226 36.6996 14.0883Z" fill="#02AB92"/>
<path d="M28.3968 23.8567C27.642 22.8638 26.9918 21.8253 26.7015 20.5929C26.655 20.4103 26.6086 20.2277 26.5737 20.0451C26.5737 20.0337 26.5505 20.0223 26.5157 19.9995C26.2602 20.3646 26.2602 20.7869 26.237 21.1977C26.0628 21.2548 26.0396 21.1064 25.9815 21.0265C25.4126 20.1592 25.2848 19.2235 25.7377 18.2763C26.2022 17.3177 27.0847 16.9525 28.0949 16.884C28.78 16.8384 29.465 16.8726 30.185 16.8726C29.8134 16.5074 29.4883 16.1765 29.1631 15.8455C29.3257 15.6744 29.4767 15.7428 29.616 15.7428C33.413 15.7428 37.21 15.7314 40.9955 15.7428C41.5877 15.7428 42.145 15.6858 42.6559 15.3777C42.772 15.3092 42.923 15.2864 43.0623 15.2407C42.7953 15.8798 42.7953 15.8798 43.701 15.9254C43.4339 16.5074 43.0623 16.7813 42.354 16.7699C39.6601 16.7243 36.9662 16.7471 34.2723 16.7471C33.9472 16.7471 33.6336 16.7357 33.3317 16.8726C33.0414 16.9297 32.8092 17.0666 32.6118 17.272L32.6002 17.2834C32.2519 17.6144 32.1009 18.0138 32.1473 18.5159C32.4609 18.379 32.5189 17.9339 32.9253 18.0366C32.6931 18.8811 33.3898 19.6799 34.0168 19.794C34.2491 19.8397 34.4929 19.8625 34.7368 19.8625C36.6178 19.8625 38.4989 19.8625 40.38 19.8625C40.531 19.8625 40.6935 19.8625 40.8909 19.8625C40.6355 20.3989 40.3452 20.6728 39.7066 20.6613C37.0591 20.6271 34.4 20.6385 31.7525 20.6499C30.8004 20.6499 29.9527 20.3875 29.2444 19.7484C29.1631 19.6799 29.1167 19.543 28.9774 19.6229C28.8264 19.7027 28.8729 19.8397 28.8961 19.9652C29.1283 20.901 29.6392 21.5857 30.6727 21.8824C29.8482 22.4188 29.2096 23.0692 28.7219 23.8567C28.5709 24.1077 28.5013 23.9251 28.3968 23.8567Z" fill="#FAFBFB"/>
<path d="M29.2324 10.5631C28.9421 10.6658 28.8492 10.6316 28.8608 10.2664C28.9073 8.80566 28.884 7.33354 28.8957 5.87282C28.8957 5.29082 28.884 4.70882 28.9537 4.12681C29.1511 3.97846 29.3485 3.81869 29.6156 3.61328C29.4762 5.69023 29.662 7.67589 29.4762 9.66155C29.453 9.96967 29.3833 10.2778 29.2324 10.5631Z" fill="#FAFBFB"/>
<path d="M32.9248 18.0598C32.5184 17.9571 32.4604 18.4022 32.1469 18.5391C32.0888 18.0484 32.2398 17.649 32.5997 17.3066C32.7274 17.5691 32.3443 17.6946 32.4139 17.9457C32.5417 18.1397 32.8552 17.5691 32.9248 18.0598Z" fill="#262223"/>
<path d="M32.6001 17.2949C32.7975 17.0895 33.0297 16.9412 33.32 16.8955C33.1575 17.1466 32.9252 17.3063 32.6001 17.2949Z" fill="#262223"/>
<path d="M28.0951 6.16828C28.037 7.56052 28.1415 8.97559 28.0138 10.3792C27.9557 10.9955 27.5261 11.3378 27.0384 11.6345C26.8526 11.7487 26.7713 11.6345 26.6785 11.5204C26.1908 10.927 25.9585 10.2765 26.1908 9.50053C26.5507 8.3137 27.1197 7.22958 27.8977 6.24816C27.9325 6.20252 27.9674 6.14546 28.0951 6.16828Z" fill="#242021"/>
<path d="M36.6989 14.0883C36.2344 14.1226 35.8048 14.2367 35.3752 14.2937C34.7481 14.3736 34.1443 14.2595 33.8656 13.5862C33.8192 13.4835 33.7495 13.4493 33.645 13.4378C33.1341 13.3808 32.9716 12.9814 32.6929 12.5249C33.3896 12.6733 33.9934 12.7988 34.5856 12.9357C34.8178 12.9814 35.0617 13.1183 35.2823 13.0841C36.1067 12.9471 36.2693 13.6775 36.6989 14.0883Z" fill="#242021"/>
<path d="M43.3986 41.3276C43.2824 41.3276 43.1547 41.3276 43.0154 41.3276C43.0154 41.1564 43.0154 41.0081 43.0154 40.8483C43.3173 40.8483 43.6192 40.8483 43.9327 40.8483C43.9327 41.2363 43.9327 41.6243 43.9327 42.0009C43.9327 42.0351 43.8862 42.1036 43.8514 42.115C43.3521 42.3204 42.8412 42.4003 42.3303 42.1835C41.8194 41.9667 41.5523 41.4303 41.6452 40.8483C41.7497 40.2549 42.1561 39.8783 42.7715 39.8327C43.1663 39.7984 43.5495 39.8555 43.8746 40.1294C43.7469 40.2663 43.6308 40.3918 43.5031 40.5288C43.3173 40.3462 43.0967 40.3005 42.8528 40.312C42.4696 40.3348 42.2026 40.6201 42.1793 41.0309C42.1677 41.4417 42.4232 41.7613 42.8064 41.8069C42.8876 41.8183 42.9689 41.8183 43.0386 41.8069C43.4102 41.7727 43.4566 41.7042 43.3986 41.3276Z" fill="#00A997"/>
<path d="M46.0815 42.2288C46.0815 41.43 46.0815 40.6768 46.0815 39.9122C46.5228 39.9122 46.9524 39.8894 47.3821 39.9236C47.6259 39.9351 47.8001 40.1062 47.8465 40.3573C47.893 40.6198 47.8001 40.8138 47.5678 40.9507C47.5562 40.9621 47.5446 40.9735 47.5098 40.9964C47.7188 41.0762 47.893 41.1904 47.9394 41.4072C48.0323 41.761 47.8581 42.0691 47.4749 42.1718C47.2659 42.2288 47.0337 42.2174 46.8131 42.2288C46.5692 42.2402 46.337 42.2288 46.0815 42.2288ZM46.6157 41.2474C46.6157 41.4528 46.6157 41.6126 46.6157 41.7724C46.8131 41.7724 46.9989 41.7838 47.173 41.7724C47.3124 41.761 47.4053 41.6811 47.4169 41.5327C47.4169 41.3844 47.324 41.3045 47.1847 41.2931C46.9989 41.2588 46.8247 41.2588 46.6157 41.2474ZM46.6157 40.8252C46.7899 40.8138 46.9524 40.8252 47.1034 40.7795C47.1847 40.7567 47.2892 40.6312 47.2892 40.5627C47.2892 40.4828 47.173 40.3687 47.0918 40.3459C46.9408 40.3116 46.7782 40.3345 46.6157 40.3345C46.6157 40.4942 46.6157 40.6426 46.6157 40.8252Z" fill="#00A997"/>
<path d="M7.43701 42.2176C7.43701 41.4302 7.43701 40.6656 7.43701 39.8668C7.9247 39.901 8.41239 39.7983 8.88847 39.958C9.34133 40.1064 9.59679 40.4259 9.64323 40.8938C9.68968 41.3845 9.52712 41.7954 9.06265 42.035C8.87686 42.1263 8.66785 42.1948 8.45884 42.2062C8.1221 42.2404 7.78536 42.2176 7.43701 42.2176ZM7.98276 40.3689C7.98276 40.8368 7.98276 41.2818 7.98276 41.7497C8.35434 41.7497 8.73752 41.7954 8.98137 41.4416C9.14393 41.2019 9.15554 40.9395 8.99298 40.6884C8.74913 40.3232 8.36595 40.3461 7.98276 40.3689Z" fill="#00A997"/>
<path d="M34.3066 42.2186C34.1092 42.2186 33.9466 42.2186 33.7725 42.2186C33.7725 41.4426 33.7725 40.6666 33.7725 39.902C34.1905 39.902 34.6085 39.8677 35.0149 39.9134C35.3633 39.9476 35.5607 40.1759 35.6071 40.4726C35.6536 40.8263 35.5142 41.066 35.1775 41.2143C35.1659 41.2257 35.1426 41.2372 35.1194 41.26C35.3052 41.5681 35.491 41.8762 35.7 42.23C35.491 42.23 35.3052 42.2414 35.1194 42.23C35.073 42.23 35.0265 42.1615 35.0033 42.1159C34.8872 41.9105 34.7711 41.6936 34.6666 41.4768C34.5969 41.3285 34.5156 41.2372 34.3182 41.3056C34.3066 41.6023 34.3066 41.899 34.3066 42.2186ZM34.3066 40.3128C34.3066 40.5068 34.3066 40.6666 34.3066 40.8377C34.4692 40.8377 34.6201 40.8492 34.7711 40.8377C34.9104 40.8263 35.0381 40.7693 35.0497 40.6095C35.0614 40.4383 34.9452 40.3584 34.7943 40.3356C34.6433 40.3242 34.4808 40.3242 34.3066 40.3128Z" fill="#00A997"/>
<path d="M37.627 39.8898C37.685 39.8898 37.7315 39.8784 37.7779 39.8784C37.894 39.8784 37.9985 39.8784 38.1379 39.8784C38.1379 39.9925 38.1379 40.1067 38.1379 40.2094C38.1379 40.5745 38.1379 40.9397 38.1379 41.3049C38.1379 41.6016 38.3237 41.807 38.6023 41.807C38.881 41.807 39.09 41.613 39.09 41.3049C39.09 40.837 39.09 40.3691 39.09 39.8898C39.2642 39.8898 39.4268 39.8898 39.6009 39.8898C39.6126 39.9127 39.6242 39.9355 39.6242 39.9583C39.6242 40.449 39.6358 40.9283 39.6242 41.419C39.6009 41.9325 39.2758 42.2293 38.7417 42.2863C38.2191 42.3434 37.7895 42.0923 37.6502 41.6473C37.6386 41.613 37.627 41.5788 37.627 41.556C37.627 41.0082 37.627 40.449 37.627 39.8898Z" fill="#00A997"/>
<path d="M11.2808 42.2295C11.6291 41.4535 11.9542 40.7117 12.2794 39.9699C12.3374 39.8558 12.7438 39.833 12.7903 39.9471C13.127 40.7003 13.4638 41.4535 13.8005 42.2295C13.6147 42.2295 13.4405 42.2409 13.278 42.2181C13.2199 42.2066 13.1386 42.1382 13.127 42.0811C13.069 41.7844 12.8832 41.6817 12.5929 41.7388C12.558 41.7502 12.5116 41.7388 12.4768 41.7388C12.0704 41.7388 12.0704 41.7388 11.9194 42.1039C11.873 42.2066 11.8265 42.2409 11.7104 42.2409C11.5943 42.2181 11.4549 42.2295 11.2808 42.2295ZM12.5348 40.5747C12.4303 40.8372 12.349 41.054 12.2561 41.2709C12.4535 41.2709 12.6277 41.2709 12.8135 41.2709C12.7206 41.054 12.6393 40.8486 12.5348 40.5747Z" fill="#00A997"/>
<path d="M24.9825 42.2296C24.9128 42.2296 24.8547 42.2182 24.8083 42.2296C24.5064 42.2752 24.2974 42.1953 24.2509 41.8758C24.2277 41.7731 24.158 41.7275 24.0535 41.7389C23.9606 41.7503 23.8561 41.7503 23.7516 41.7389C23.4265 41.6932 23.171 41.7503 23.113 42.1383C23.1014 42.1725 23.0201 42.2296 22.9736 42.2296C22.8227 42.241 22.6717 42.2296 22.4976 42.2296C22.5208 42.1611 22.5324 42.1155 22.5556 42.0584C22.8575 41.3737 23.1594 40.689 23.4497 40.0043C23.4962 39.8902 23.5658 39.8559 23.682 39.8787C23.7981 39.9016 23.949 39.8103 24.0187 39.9929C24.3322 40.7118 24.6573 41.4308 24.9708 42.1497C24.9708 42.1611 24.9708 42.1839 24.9825 42.2296ZM23.7168 40.5749C23.6123 40.8373 23.531 41.0542 23.4381 41.271C23.6355 41.271 23.7981 41.271 23.9955 41.271C23.9026 41.0542 23.8213 40.8487 23.7168 40.5749Z" fill="#00A997"/>
<path d="M28.1992 40.3921C27.967 40.3579 27.7928 40.3237 27.6186 40.3351C27.549 40.3351 27.4329 40.4492 27.4213 40.5291C27.4096 40.5861 27.5025 40.7002 27.5722 40.7459C27.7115 40.8144 27.8625 40.86 28.0134 40.9057C28.2921 40.997 28.4895 41.1681 28.5011 41.4763C28.5128 41.7958 28.385 42.0468 28.0947 42.1952C27.6767 42.412 27.1426 42.3321 26.771 42.0012C26.8987 41.8757 27.0148 41.7387 27.1426 41.6018C27.3051 41.7615 27.4909 41.8643 27.6999 41.8072C27.7928 41.7844 27.9206 41.6817 27.9438 41.6018C27.9554 41.5447 27.8509 41.4078 27.7696 41.3621C27.6187 41.2823 27.4445 41.248 27.2935 41.191C27.0613 41.0997 26.8755 40.9627 26.8523 40.6888C26.8291 40.3921 26.9336 40.1525 27.189 39.9927C27.5722 39.7531 28.1296 39.7873 28.5011 40.0954C28.3734 40.1867 28.2573 40.3237 28.1992 40.3921Z" fill="#00A997"/>
<path d="M50.7256 40.7453C50.8766 40.4942 51.0275 40.2774 51.1553 40.0492C51.2249 39.9236 51.3062 39.878 51.4572 39.8894C51.5849 39.9008 51.7242 39.8894 51.8752 39.8894C51.8403 39.9464 51.8287 39.9921 51.7939 40.0377C51.6778 40.2089 51.5849 40.3915 51.4572 40.5399C51.0856 40.9849 50.8998 41.4756 50.9927 42.0576C51.0043 42.1033 50.9927 42.1603 50.9811 42.2288C50.8185 42.2288 50.656 42.2288 50.4586 42.2288C50.4586 41.9663 50.4702 41.7039 50.4586 41.4414C50.4469 41.3159 50.4121 41.1903 50.354 41.0876C50.1102 40.6996 49.8431 40.3116 49.5645 39.9008C49.7967 39.9008 49.9825 39.8894 50.1799 39.9008C50.2263 39.9008 50.2728 39.9693 50.296 40.0149C50.4469 40.2317 50.5747 40.4828 50.7256 40.7453Z" fill="#00A997"/>
<path d="M15.728 42.2182C15.728 41.4421 15.728 40.6661 15.728 39.8901C15.9022 39.8901 16.0648 39.8901 16.2506 39.8901C16.2506 40.5064 16.2506 41.1112 16.2506 41.7503C16.5873 41.7503 16.8892 41.7503 17.2143 41.7503C17.2143 41.9214 17.2143 42.0698 17.2143 42.2182C16.715 42.2182 16.2273 42.2182 15.728 42.2182Z" fill="#00A997"/>
<path d="M19.1772 42.2182C19.1772 41.4421 19.1772 40.6661 19.1772 39.8901C19.3514 39.8901 19.514 39.8901 19.6998 39.8901C19.6998 40.5064 19.6998 41.1112 19.6998 41.7503C20.0365 41.7503 20.3384 41.7503 20.6635 41.7503C20.6635 41.9214 20.6635 42.0584 20.6635 42.2182C20.1642 42.2182 19.6765 42.2182 19.1772 42.2182Z" fill="#00A997"/>
<path d="M30.6489 41.0544C30.6489 40.8261 30.8231 40.6435 31.0553 40.6435C31.2876 40.6321 31.485 40.8261 31.485 41.0544C31.485 41.2826 31.2876 41.4766 31.0553 41.4652C30.8231 41.4538 30.6489 41.2826 30.6489 41.0544Z" fill="#262223"/>
</svg>
