<svg width="77" height="55" viewBox="0 0 77 55" fill="none" xmlns="http://www.w3.org/2000/svg">
<path fill-rule="evenodd" clip-rule="evenodd" d="M38.4938 45.3517C33.1056 43.1466 29.0078 40.0081 26.3133 36.0222C24.1498 32.8218 22.8793 29.0685 22.5369 24.8663C21.9847 18.0877 24.0591 12.2914 24.3084 11.6253C24.9411 11.3226 30.4588 8.79932 38.4938 8.79932C46.5286 8.79932 52.0464 11.3225 52.6792 11.6253C52.9284 12.2914 55.0029 18.0877 54.4506 24.8662C54.1082 29.0684 52.8377 32.8218 50.6742 36.0222C47.9796 40.0081 43.882 43.1466 38.4938 45.3517Z" fill="#633492"/>
<path fill-rule="evenodd" clip-rule="evenodd" d="M38.4941 44.5058C33.3974 42.3675 29.5184 39.3672 26.9615 35.5847C24.8741 32.4971 23.6478 28.8696 23.3164 24.8031C22.8269 18.7961 24.4536 13.5797 24.9334 12.1991C26.2584 11.6111 31.3513 9.58154 38.4941 9.58154C45.6367 9.58154 50.7297 11.6111 52.0549 12.1991C52.5347 13.5796 54.1611 18.796 53.6717 24.8031C53.3404 28.8696 52.114 32.497 50.0268 35.5847C47.4697 39.3672 43.5906 42.3676 38.4941 44.5058ZM38.4941 43.6564C33.6893 41.5873 30.0283 38.7256 27.6091 35.147C25.5981 32.1721 24.4161 28.6705 24.0958 24.7398C23.6524 19.2977 24.9863 14.5307 25.5627 12.7793C27.2573 12.0674 31.9965 10.3634 38.4943 10.3634C44.9919 10.3634 49.731 12.0671 51.4258 12.7792C52.0022 14.5306 53.3361 19.2977 52.8927 24.7396C52.5723 28.6705 51.3903 32.1721 49.3793 35.1469C46.96 38.7256 43.299 41.5874 38.4944 43.6564" fill="white"/>
<path fill-rule="evenodd" clip-rule="evenodd" d="M31.6766 34.4656C31.5599 34.3516 31.422 34.2609 31.2667 34.1962C31.1109 34.1309 30.9418 34.0981 30.7639 34.0981C30.5862 34.0981 30.4169 34.1309 30.261 34.1962C30.1058 34.2609 29.9679 34.3516 29.8512 34.4656C29.7345 34.5796 29.6416 34.7144 29.5754 34.866C29.5088 35.0182 29.4751 35.1835 29.4751 35.3574C29.4751 35.5314 29.5089 35.6966 29.5754 35.8487C29.6416 36.0002 29.7342 36.1349 29.8512 36.2492C29.9679 36.3632 30.1058 36.4539 30.261 36.5187C30.4167 36.5838 30.5859 36.6167 30.7639 36.6167C30.9418 36.6167 31.111 36.5838 31.2667 36.5187C31.422 36.4539 31.5598 36.3632 31.6766 36.2492C31.7932 36.1353 31.8859 36.0005 31.9524 35.8487C32.019 35.6964 32.0527 35.5311 32.0527 35.3574C32.0527 35.1837 32.019 35.0184 31.9524 34.866C31.8858 34.7143 31.7931 34.5794 31.6766 34.4656ZM31.6294 35.3574C31.6294 35.4783 31.6069 35.5929 31.5626 35.6971C31.5185 35.8015 31.4564 35.893 31.3783 35.9691C31.2999 36.0456 31.2067 36.1068 31.1014 36.1508C30.8922 36.2388 30.6354 36.2388 30.4264 36.1508C30.3211 36.1066 30.2279 36.0456 30.1496 35.9689C30.0714 35.893 30.0094 35.8015 29.9653 35.6971C29.9212 35.5929 29.8987 35.4786 29.8987 35.3574C29.8987 35.2363 29.9212 35.1217 29.9653 35.0176C30.0094 34.9135 30.0714 34.8219 30.1497 34.7457C30.2282 34.6693 30.3212 34.6081 30.4265 34.564C30.5312 34.52 30.6449 34.4976 30.764 34.4976C30.8832 34.4976 30.9968 34.52 31.1014 34.564C31.2066 34.6081 31.2996 34.6692 31.3783 34.7457C31.4564 34.8217 31.5185 34.9133 31.5626 35.0175C31.6068 35.122 31.6292 35.2363 31.6292 35.3574H31.6294Z" fill="white"/>
<path fill-rule="evenodd" clip-rule="evenodd" d="M34.0314 35.6482C34.2942 35.4997 34.4228 35.2461 34.4228 34.959C34.4228 34.4988 34.1229 34.126 33.5652 34.126H32.6714V36.5887H33.0947V34.5358H33.5413C33.775 34.5358 33.9644 34.7252 33.9644 34.9588C33.9644 35.1924 33.775 35.3819 33.5413 35.3819H33.2168L34.215 36.5885H34.7847L34.0314 35.648" fill="white"/>
<path fill-rule="evenodd" clip-rule="evenodd" d="M36.9736 36.1937H35.7206V34.1143H35.2974V36.5759H36.7678L36.9736 36.1937Z" fill="white"/>
<path fill-rule="evenodd" clip-rule="evenodd" d="M38.6061 33.9453L37.354 36.5756H37.8204L38.6061 34.9035L38.8604 35.4422H38.6061L38.4289 35.8244H39.0412L39.3917 36.5757H39.8581L38.6061 33.9453Z" fill="white"/>
<path fill-rule="evenodd" clip-rule="evenodd" d="M40.3258 35.0716L41.9534 36.6473V34.2033H41.4874V35.61L39.9282 34.0342V35.7272L40.3258 36.4783V35.0715" fill="white"/>
<path fill-rule="evenodd" clip-rule="evenodd" d="M44.1786 34.4792C44.0653 34.3698 43.9298 34.2827 43.7753 34.2202C43.6211 34.1577 43.4527 34.126 43.2751 34.126H42.4409V36.5888H43.2751C43.4529 36.5888 43.6211 36.557 43.7753 36.4944C43.9298 36.4319 44.0653 36.3448 44.1786 36.2354C44.2917 36.1259 44.3821 35.9947 44.4474 35.8453C44.5129 35.6954 44.5461 35.5312 44.5461 35.3574C44.5461 35.1834 44.5129 35.0195 44.4474 34.8695C44.3821 34.7199 44.2917 34.5887 44.1786 34.4792ZM42.8644 34.5082H43.2333C43.3553 34.5082 43.4713 34.5301 43.5784 34.5733C43.6859 34.6166 43.7814 34.677 43.8621 34.7528C43.9424 34.8281 44.0066 34.9189 44.0531 35.0226C44.0992 35.1256 44.1227 35.2382 44.1227 35.3572C44.1227 35.4784 44.0993 35.5915 44.0533 35.6935C44.007 35.7961 43.9427 35.8863 43.8621 35.9618C43.7814 36.0375 43.6859 36.0979 43.5784 36.1414C43.4714 36.1844 43.3553 36.2063 43.2333 36.2063H42.8644V34.5082Z" fill="white"/>
<path fill-rule="evenodd" clip-rule="evenodd" d="M47.4128 34.866C47.3462 34.7143 47.2535 34.5794 47.1371 34.4656C47.0202 34.3516 46.8824 34.2609 46.7271 34.1962C46.5713 34.131 46.4022 34.0981 46.2244 34.0981C46.0465 34.0981 45.8774 34.131 45.7214 34.1962C45.5663 34.2609 45.4283 34.3516 45.3116 34.4656C45.1949 34.5796 45.1021 34.7144 45.0359 34.866C44.9693 35.0182 44.9355 35.1835 44.9355 35.3574C44.9355 35.5314 44.9694 35.6966 45.0359 35.8487C45.1022 36.0002 45.1949 36.1349 45.3116 36.2492C45.4283 36.3632 45.5663 36.4539 45.7214 36.5187C45.8771 36.5838 46.0463 36.6167 46.2242 36.6167C46.4021 36.6167 46.5715 36.5838 46.7271 36.5187C46.8824 36.4539 47.0202 36.3632 47.1371 36.2492C47.2536 36.1353 47.3464 36.0005 47.4128 35.8487C47.4793 35.6964 47.5132 35.5311 47.5132 35.3574C47.5133 35.1837 47.4794 35.0184 47.4128 34.866ZM47.0897 35.3574C47.0897 35.4783 47.0674 35.5929 47.0231 35.6971C46.979 35.8015 46.9168 35.893 46.8387 35.9691C46.76 36.0456 46.6672 36.1068 46.5619 36.1508C46.3526 36.2388 46.0957 36.2388 45.8867 36.1508C45.7813 36.1066 45.6883 36.0456 45.6099 35.9689C45.5318 35.893 45.4698 35.8015 45.4256 35.6971C45.3815 35.5929 45.3589 35.4786 45.3589 35.3574C45.3589 35.2363 45.3813 35.1217 45.4256 35.0176C45.4698 34.9135 45.5319 34.8219 45.61 34.7457C45.6884 34.6693 45.7815 34.6081 45.8869 34.564C45.9915 34.52 46.1052 34.4976 46.2244 34.4976C46.3436 34.4976 46.4572 34.52 46.562 34.564C46.667 34.6081 46.7602 34.6692 46.8388 34.7457C46.9171 34.8217 46.979 34.9133 47.0232 35.0175C47.0675 35.122 47.0898 35.2363 47.0898 35.3574H47.0897Z" fill="white"/>
<path fill-rule="evenodd" clip-rule="evenodd" d="M36.7146 39.0595C36.6824 39.1085 36.6455 39.1537 36.6038 39.1943C36.5253 39.2707 36.4323 39.3319 36.327 39.376C36.1178 39.464 35.861 39.464 35.652 39.376C35.5465 39.3317 35.4534 39.2705 35.3751 39.1943C35.2969 39.1182 35.2349 39.0269 35.1908 38.9223C35.1466 38.8181 35.1241 38.7037 35.1241 38.5825C35.1241 38.4615 35.1466 38.3471 35.1908 38.2429C35.2349 38.1388 35.297 38.0471 35.3751 37.9709C35.4537 37.8945 35.5468 37.8334 35.652 37.7892C35.7566 37.7452 35.8702 37.723 35.9895 37.723C36.1086 37.723 36.2223 37.7452 36.327 37.7892C36.4322 37.8334 36.525 37.8944 36.6038 37.9709C36.6455 38.0114 36.6824 38.0567 36.7146 38.1059V37.5397C36.6453 37.494 36.5709 37.4543 36.4923 37.4214C36.3365 37.3563 36.1674 37.3232 35.9895 37.3232C35.8117 37.3232 35.6425 37.3563 35.4867 37.4214C35.3314 37.4862 35.1936 37.5769 35.0768 37.6909C34.9601 37.8048 34.8672 37.9396 34.801 38.0911C34.7344 38.2434 34.7007 38.4086 34.7007 38.5825C34.7007 38.7565 34.7345 38.9219 34.801 39.0741C34.8673 39.2255 34.9601 39.3603 35.0768 39.4744C35.1933 39.5884 35.3314 39.6791 35.4866 39.744C35.6421 39.8091 35.8115 39.842 35.9895 39.842C36.1672 39.842 36.3366 39.8091 36.4923 39.744C36.5711 39.7112 36.6451 39.6714 36.7144 39.6255L36.7146 39.0595Z" fill="white"/>
<path fill-rule="evenodd" clip-rule="evenodd" d="M37.3267 37.3232H37.7501V39.7861H37.3267V37.3232Z" fill="white"/>
<path fill-rule="evenodd" clip-rule="evenodd" d="M39.9191 37.3096H38.2739V37.6916H38.9572V39.7712H39.3802V37.6916H40.1719L39.9192 37.3096" fill="white"/>
<path fill-rule="evenodd" clip-rule="evenodd" d="M42.1533 37.3232L41.4952 38.2614L40.8371 37.3232H40.3369C40.3506 37.3513 41.2836 38.7045 41.2836 38.7045V39.7861H41.7069V38.7045L42.6622 37.3232H42.1533Z" fill="white"/>
<path fill-rule="evenodd" clip-rule="evenodd" d="M46.4772 23.0104C49.1992 22.8635 49.1094 21.2632 49.1094 21.2632C47.5149 21.9615 46.9776 20.7715 46.3249 20.6388C48.5741 19.8659 48.2403 18.1713 48.2403 18.1713C47.3653 19.3022 46.044 18.3003 45.4008 18.3978C47.2106 17.1951 46.5147 15.497 46.5147 15.497C46.1755 16.771 43.949 16.3933 43.949 16.3933C45.1809 14.5753 44.0836 13.3397 44.0836 13.3397C44.1758 14.6809 41.8373 15.0274 41.8373 15.0274C42.4439 12.6512 41.0836 12.0517 41.0836 12.0517C41.3529 13.1819 39.7798 14.0762 39.7798 14.0762L38.4942 11.5688L37.2084 14.0762C37.2084 14.0762 35.6353 13.1819 35.9046 12.0517C35.9046 12.0517 34.5444 12.6512 35.151 15.0274C35.151 15.0274 32.8125 14.6811 32.9046 13.3397C32.9046 13.3397 31.8073 14.5755 33.0391 16.3933C33.0391 16.3933 30.8128 16.7709 30.4734 15.497C30.4734 15.497 29.7776 17.1949 31.5873 18.3978C30.9441 18.3003 29.6227 19.3022 28.7479 18.1713C28.7479 18.1713 28.414 19.8659 30.6632 20.6388C30.0107 20.7715 29.4735 21.9616 27.8788 21.2632C27.8788 21.2632 27.7891 22.8635 30.5109 23.0104C29.5358 23.5834 29.7451 24.7093 27.9569 24.5188C27.9569 24.5188 28.5432 25.9862 30.954 25.3535C30.2143 26.1314 30.5977 27.1404 28.9309 27.4553C28.9309 27.4553 30.0179 28.7797 32.1065 27.4254C31.7166 28.154 32.2642 29.2535 30.8001 29.9806C30.8001 29.9806 32.3149 30.864 33.9077 28.9734C33.8371 30.1133 34.5341 30.9697 33.4228 31.9467C33.4228 31.9467 35.0969 32.4027 36.0782 30.0578C36.2513 31.0457 37.2009 31.451 36.4454 33.0116C36.4454 33.0116 37.6967 33.108 38.4942 31.0638C39.2917 33.108 40.5429 33.0116 40.5429 33.0116C39.7874 31.4511 40.7369 31.0458 40.9101 30.0578C41.8916 32.4028 43.5655 31.9467 43.5655 31.9467C42.4542 30.9697 43.1513 30.1133 43.0807 28.9734C44.6736 30.8639 46.1882 29.9806 46.1882 29.9806C44.7241 29.2534 45.2718 28.154 44.8818 27.4254C46.9704 28.7797 48.0572 27.4553 48.0572 27.4553C46.3907 27.1405 46.7741 26.1314 46.0343 25.3535C48.4451 25.986 49.0314 24.5188 49.0314 24.5188C47.2432 24.7091 47.4525 23.5834 46.4774 23.0104M34.8282 16.4C35.914 16.4 35.8205 15.5601 35.7038 15.3645C35.7038 15.3645 36.6087 15.4048 37.3676 15.9628C37.3676 15.9628 38.2726 14.9273 38.4944 14.0988C38.7162 14.9272 39.621 15.9628 39.621 15.9628C40.3798 15.4048 41.2847 15.3645 41.2847 15.3645C41.168 15.5601 41.0745 16.4 42.1604 16.4C43.2463 16.4 43.4737 16.7567 43.4737 16.7567C43.1587 16.6936 42.7151 16.6301 41.5416 17.0272C40.3681 17.4241 40.6252 16.4 40.6252 16.4C38.9613 16.5209 38.4945 17.4496 38.4945 17.4496C38.4945 17.4496 38.0276 16.5207 36.3638 16.4C36.3638 16.4 36.6206 17.4241 35.4474 17.0272C34.2739 16.6301 33.8303 16.6936 33.5151 16.7567C33.5151 16.7566 33.7427 16.4 34.8286 16.4H34.8282ZM39.1888 24.1881C38.7334 24.4644 38.4942 24.857 38.4942 24.857C38.4942 24.857 38.2547 24.4644 37.7996 24.1881C37.7996 24.1881 37.8521 23.8645 37.7381 23.8431C37.6244 23.8216 37.2915 23.8344 37.2915 23.8344C37.2915 23.8344 36.7618 23.6188 36.6699 23.1872C36.6699 23.1872 36.9588 23.2692 37.344 23.1485C37.7293 23.0276 37.8869 23.1658 38.0094 23.2175C38.1319 23.2694 38.2606 23.2866 38.4941 23.2866C38.7276 23.2866 38.8561 23.2692 38.9787 23.2175C39.1013 23.1658 39.2588 23.0277 39.6441 23.1485C40.0296 23.2692 40.3185 23.1872 40.3185 23.1872C40.2264 23.6188 39.6967 23.8344 39.6967 23.8344C39.6967 23.8344 39.3639 23.8216 39.2503 23.8431C39.1365 23.8645 39.1888 24.1881 39.1888 24.1881ZM36.7079 20.7953C36.1416 20.7837 34.6998 20.6802 34.6473 19.5756V19.5469C34.6473 19.5469 35.446 19.4205 35.7506 19.5469C36.3051 19.777 36.7837 20.8298 37.6828 20.0415C37.6828 20.0415 37.0815 21.3707 36.7079 22.0321C36.7079 22.0321 37.2742 20.8067 36.7079 20.7953ZM40.2805 20.7953C39.7143 20.8068 40.2805 22.0321 40.2805 22.0321C39.9069 21.3705 39.3057 20.0415 39.3057 20.0415C40.2047 20.8298 40.6834 19.7771 41.2381 19.5469C41.5425 19.4205 42.3414 19.5469 42.3414 19.5469V19.5756C42.2886 20.6802 40.8468 20.7837 40.2805 20.7953ZM44.5654 24.2874C42.9367 23.9681 42.2886 24.7103 42.2886 24.7103C43.3482 24.857 43.802 26.1041 43.802 26.1041C43.0256 25.6294 42.166 25.7375 42.166 25.7375C43.2168 28.3824 39.7185 28.9949 38.4941 30.4491C37.2696 28.9949 33.7715 28.3822 34.8222 25.7375C34.8222 25.7375 33.9626 25.6296 33.1862 26.1041C33.1862 26.1041 33.6401 24.8571 34.6996 24.7103C34.6996 24.7103 34.0515 23.9682 32.4229 24.2874C32.4229 24.2874 33.2723 23.2864 34.3317 23.4761C34.3317 23.4761 33.7887 22.5356 32.2214 22.4406C32.2214 22.4406 32.4754 22.104 33.4036 22.035C33.4036 22.035 32.6972 21.2323 33.0181 19.7595C33.0181 19.7595 32.4695 19.3282 32.6679 18.0396C32.6679 18.0396 32.8749 19.0847 33.316 18.9543C33.6225 18.8636 33.4824 18.481 33.2415 18.5099C33.2415 18.5099 33.3115 18.2252 33.7623 18.0396C34.2134 17.8541 34.3316 17.8369 34.314 17.4787C34.314 17.4787 34.6336 17.3449 34.7475 17.6513C34.8613 17.9576 34.5505 18.1044 34.3928 18.1344C34.2352 18.1648 34.0163 18.2295 33.92 18.4108C33.92 18.4108 34.2528 18.523 33.99 18.8164C33.7274 19.1097 32.773 21.3103 35.0147 22.8378C35.0147 22.8378 34.9622 23.5453 35.759 24.2098C35.759 24.2098 35.4175 24.1782 35.3578 24.1925C35.2979 24.2069 35.2775 24.8513 35.3578 24.8743C35.438 24.8973 36.6872 24.8743 36.6872 24.8743C36.6872 24.8743 35.4291 25.254 35.38 25.2986C35.3308 25.3431 35.3943 25.6798 35.4351 25.6853C35.4759 25.691 36.4945 25.3834 37.0201 25.3489C37.0201 25.3489 35.8292 25.8925 35.6277 26.0564C35.6277 26.0564 35.8202 26.4793 36.083 26.626C36.083 26.626 37.8051 26.0046 38.4939 25.4437C39.1828 26.0046 40.905 26.626 40.905 26.626C41.1677 26.4792 41.3603 26.0564 41.3603 26.0564C41.1587 25.8925 39.9681 25.3489 39.9681 25.3489C40.4935 25.3834 41.5122 25.6912 41.553 25.6853C41.5939 25.6797 41.6572 25.3431 41.6079 25.2986C41.5588 25.254 40.3009 24.8743 40.3009 24.8743C40.3009 24.8743 41.5501 24.8973 41.6303 24.8743C41.7105 24.8513 41.6901 24.2069 41.6303 24.1925C41.5704 24.1782 41.229 24.2098 41.229 24.2098C42.0258 23.5453 41.9733 22.8378 41.9733 22.8378C44.2151 21.3104 43.2605 19.1097 42.9979 18.8164C42.7352 18.5229 43.068 18.4108 43.068 18.4108C42.9717 18.2295 42.7528 18.1648 42.5953 18.1344C42.4375 18.1044 42.1267 17.9576 42.2406 17.6513C42.3544 17.3449 42.6739 17.4787 42.6739 17.4787C42.6564 17.8369 42.7746 17.8541 43.2256 18.0396C43.6767 18.2252 43.7467 18.5099 43.7467 18.5099C43.5058 18.481 43.3658 18.8636 43.6722 18.9543C44.113 19.0845 44.3203 18.0396 44.3203 18.0396C44.5187 19.3284 43.97 19.7595 43.97 19.7595C44.2911 21.2323 43.5847 22.035 43.5847 22.035C44.5129 22.104 44.7669 22.4406 44.7669 22.4406C43.1994 22.5356 42.6566 23.4761 42.6566 23.4761C43.7162 23.2863 44.5656 24.2874 44.5656 24.2874H44.5654Z" fill="#FDE192"/>
<path fill-rule="evenodd" clip-rule="evenodd" d="M38.4939 26.3667C38.4939 26.3667 36.5537 26.4449 36.2756 27.075C36.2246 27.1905 36.2756 28.0157 36.2756 28.0157C36.2756 28.0157 36.439 28.0503 36.5675 27.9611C36.5675 27.9611 36.547 28.3263 36.8127 28.5104C37.0781 28.6945 37.4956 28.9534 37.5044 28.9534C37.5132 28.9534 37.7584 28.7693 37.8985 28.7578C38.0385 28.7463 38.3422 29.2754 38.4941 29.425C38.6458 29.2754 38.9493 28.7463 39.0893 28.7578C39.2297 28.7693 39.4747 28.9534 39.4835 28.9534C39.4923 28.9534 39.9097 28.6944 40.1752 28.5104C40.4409 28.3263 40.4205 27.9611 40.4205 27.9611C40.549 28.0503 40.7124 28.0157 40.7124 28.0157C40.7124 28.0157 40.7634 27.1906 40.7124 27.075C40.4344 26.4448 38.4942 26.3667 38.4942 26.3667" fill="#FDE192"/>
</svg>
