<svg width="46" height="19" viewBox="0 0 46 19" fill="none" xmlns="http://www.w3.org/2000/svg">
<path d="M29.4903 18.7402C25.5108 18.7402 21.5192 18.7402 17.5398 18.7402C16.8503 18.5025 16.6084 18.0151 16.6084 17.3018C16.6326 12.2378 16.6326 7.18558 16.6084 2.12151C16.6084 1.43204 16.8382 0.956536 17.443 0.647461C21.6644 0.647461 25.8979 0.647461 30.1193 0.647461C30.4338 0.861436 30.4701 1.20617 30.3249 1.4677C30.2402 1.62223 29.9136 1.71733 29.6838 1.72922C27.6759 1.753 25.6681 1.753 23.6602 1.74111C22.1845 1.72922 22.3176 1.71733 22.3176 3.07251C22.3176 6.94783 22.3176 10.8232 22.3176 14.7104C22.3176 15.2928 22.4143 15.3761 22.9949 15.3761C23.7086 15.3761 24.4101 15.3642 25.1238 15.3761C25.5229 15.3879 25.7164 15.2334 25.7164 14.8292C25.7164 13.7118 25.7164 12.6063 25.7164 11.4889C25.7164 11.0966 25.535 10.9183 25.148 10.9183C24.9786 10.9183 24.8093 10.9183 24.652 10.8826C24.1198 10.7875 23.8537 10.4784 23.8416 9.93159C23.8416 9.56308 23.8416 9.19456 23.8416 8.81417C23.8416 7.85128 24.0593 7.6373 25.027 7.62542C26.3454 7.61353 27.6518 7.61353 28.9702 7.61353C29.9016 7.61353 30.3733 8.08903 30.3733 9.01625C30.3733 11.7623 30.3612 14.5083 30.3854 17.2662C30.3975 17.9794 30.1677 18.4787 29.4903 18.7402Z" fill="#DC1A21"/>
<path d="M45.517 18.7402C41.5375 18.7402 37.5459 18.7402 33.5665 18.7402C32.8649 18.4549 32.6714 17.92 32.6714 17.2186C32.6835 12.1902 32.6835 7.1618 32.6714 2.1334C32.6714 1.43204 32.9012 0.932761 33.5544 0.647461C34.8849 0.647461 36.2154 0.647461 37.5339 0.647461C38.2112 0.992198 38.4289 1.53902 38.4289 2.28793C38.4047 5.93739 38.4168 9.58685 38.4168 13.2363C38.4168 14.1516 38.6346 14.3656 39.5538 14.3775C41.3198 14.3775 43.0858 14.3775 44.8396 14.3894C45.5049 14.4013 45.7589 14.6747 45.7589 15.3285C45.7589 16.2676 45.771 17.1948 45.7468 18.134C45.7468 18.3242 45.6017 18.5262 45.517 18.7402Z" fill="#DC1A21"/>
<path d="M14.2863 2.14496C14.2863 1.41983 14.0443 0.920554 13.367 0.635254C9.38751 0.635254 5.39593 0.635254 1.41645 0.635254C0.968913 0.789791 0.714904 1.13453 0.509277 1.52682C0.509277 6.97128 0.509277 12.4039 0.509277 17.8483C0.690713 18.2644 0.968913 18.5854 1.41645 18.7399C2.74698 18.7399 4.0775 18.7399 5.39593 18.7399C6.07329 18.4546 6.27892 17.9434 6.24263 17.2421C6.20634 16.4456 6.23054 15.6373 6.24263 14.8408C6.25473 14.3059 6.37568 14.187 6.91999 14.187C8.95206 14.187 10.9841 14.187 13.0283 14.187C13.8629 14.187 14.2742 13.7828 14.2742 12.9626C14.2742 9.34878 14.2621 5.74687 14.2863 2.14496ZM8.5771 12.4158C8.5771 12.9626 8.43195 13.1052 7.88764 13.1052C7.51268 13.1052 7.13771 13.1052 6.76275 13.1052C6.43616 13.1052 6.26682 12.9269 6.24263 12.606C6.24263 12.5227 6.24263 12.4276 6.24263 12.3444C6.24263 9.06348 6.24263 5.78254 6.24263 2.51348C6.24263 1.83589 6.35149 1.74079 7.01675 1.7289C7.28286 1.7289 7.56106 1.7289 7.82717 1.7289C8.44405 1.7289 8.565 1.84778 8.5771 2.45404C8.5771 4.11829 8.5771 5.78254 8.5771 7.4349C8.5771 9.09914 8.5771 10.7515 8.5771 12.4158Z" fill="#DC1A21"/>
</svg>
