<?xml version="1.0" encoding="UTF-8" standalone="no"?>
<!-- Created with Inkscape (http://www.inkscape.org/) -->

<svg
   xmlns:dc="http://purl.org/dc/elements/1.1/"
   xmlns:cc="http://creativecommons.org/ns#"
   xmlns:rdf="http://www.w3.org/1999/02/22-rdf-syntax-ns#"
   xmlns:svg="http://www.w3.org/2000/svg"
   xmlns="http://www.w3.org/2000/svg"
   xmlns:sodipodi="http://sodipodi.sourceforge.net/DTD/sodipodi-0.dtd"
   xmlns:inkscape="http://www.inkscape.org/namespaces/inkscape"
   width="1000"
   height="462.3096"
   viewBox="0 0 100 46.230962"
   version="1.1"
   id="svg8"
   inkscape:version="0.92.4 (5da689c313, 2019-01-14)"
   sodipodi:docname="A.svg">
  <defs
     id="defs2" />
  <sodipodi:namedview
     id="base"
     pagecolor="#ffffff"
     bordercolor="#666666"
     borderopacity="1.0"
     inkscape:pageopacity="0.0"
     inkscape:pageshadow="2"
     inkscape:zoom="0.15328467"
     inkscape:cx="813.75975"
     inkscape:cy="-72.258975"
     inkscape:document-units="px"
     inkscape:current-layer="layer1"
     showgrid="false"
     units="px"
     fit-margin-top="0"
     fit-margin-left="0"
     fit-margin-right="0"
     fit-margin-bottom="0"
     inkscape:window-width="853"
     inkscape:window-height="847"
     inkscape:window-x="947"
     inkscape:window-y="73"
     inkscape:window-maximized="0" />
  <metadata
     id="metadata5">
    <rdf:RDF>
      <cc:Work
         rdf:about="">
        <dc:format>image/svg+xml</dc:format>
        <dc:type
           rdf:resource="http://purl.org/dc/dcmitype/StillImage" />
        <dc:title></dc:title>
      </cc:Work>
    </rdf:RDF>
  </metadata>
  <g
     inkscape:label="Layer 1"
     inkscape:groupmode="layer"
     id="layer1"
     transform="translate(87.741378,53.785451)">
    <g
       aria-label=""
       transform="matrix(1.1868336,0,0,1.1868336,953.60311,82.104743)"
       style="font-style:normal;font-weight:normal;font-size:40px;line-height:1.25;font-family:sans-serif;letter-spacing:0px;word-spacing:0px;fill:#6e6260;fill-opacity:1;stroke:none"
       id="flowRoot3710">
      <path
         d="m -839.48437,-105.46678 q 0,-1.13281 0.9375,-1.5625 0.97656,-0.42969 2.10937,-0.46875 2.03125,-0.0781 3.20313,0.89844 1.21093,0.97656 1.21093,0.97656 h 0.0391 v -1.09375 q 0,0 -1.40625,-0.46875 -1.36719,-0.50781 -3.04688,-0.50781 -1.01562,0 -2.42187,0.54687 -1.36719,0.54688 -1.36719,2.26563 0,1.71875 1.21094,2.1875 1.21093,0.42969 2.65625,0.54687 1.48437,0.0781 2.73437,0.23438 1.21094,0.15625 1.21094,1.32812 0,1.289065 -1.28906,1.640628 -1.25,0.3125 -1.75782,0.351562 -2.34375,0 -3.39843,-1.015625 -1.01563,-1.015625 -1.01563,-1.015625 -0.0391,0 -0.0781,0 0,0 -0.0391,0 l 0.0781,1.40625 q 0,0 1.52344,0.429688 1.52343,0.390625 2.8125,0.390625 2.53906,0 3.35937,-1.210938 0.82031,-1.210935 0.82031,-1.679685 -0.0391,-1.79688 -1.28906,-2.26563 -1.25,-0.46875 -2.77344,-0.54687 -1.52343,-0.0781 -2.77343,-0.19531 -1.25,-0.11719 -1.25,-1.17188 z m -2.69532,-3.63281 -2.22656,-0.78125 q -0.35156,-0.15625 -0.74219,-0.0391 -0.35156,0.11718 -0.54687,0.46875 v 0 l 2.96875,1.01562 q 0.11719,-0.19531 0.23437,-0.35156 0.15625,-0.15625 0.3125,-0.3125 z m -2.8125,6.09375 -1.25,-0.42969 -1.40625,-0.50781 q 0,0.23437 0.35157,0.58594 0.39062,0.35156 0.39062,0.35156 0,0 -0.39062,0.35156 -0.35157,0.35156 -0.35157,0.58594 l 1.40625,-0.50781 z m 5.03907,-7.69531 -2.69532,-0.9375 q -0.39062,-0.11719 -0.82031,-0.0391 -0.39062,0.0781 -0.70312,0.35157 v 0 l 3.28125,1.13281 q 0.23437,-0.11719 0.46875,-0.23438 0.23437,-0.15625 0.46875,-0.27343 z m -3.59375,3.47656 -2.10938,-0.74219 q -0.35156,-0.11719 -0.66406,0.0391 -0.3125,0.11719 -0.46875,0.42969 v 0 l 2.85156,1.01563 q 0.0781,-0.19532 0.15625,-0.39063 0.11719,-0.19531 0.23438,-0.35156 z m -0.85938,2.07031 -2.07031,-0.70312 q -0.35156,-0.11719 -0.625,0.0781 -0.27344,0.15625 -0.35156,0.46875 v 0 l 2.85156,0.97656 q 0.0781,-0.19531 0.0781,-0.39062 0.0391,-0.23438 0.11719,-0.42969 z m 8.39844,-6.52344 q 0.46875,0 0.89844,0.0781 0.46875,0.0391 0.89843,0.11719 l 4.29688,-1.52344 q 0,0 0,0 0,0 0,0 -0.42969,-0.27344 -0.9375,-0.3125 -0.50781,-0.0391 -0.97656,0.15625 l -4.17969,1.44531 -4.14063,-1.40625 q -0.46875,-0.19531 -0.97656,-0.11719 -0.50781,0.0391 -0.9375,0.3125 v 0 l 4.25781,1.48438 q 0.42969,-0.11719 0.85938,-0.15625 0.46875,-0.0781 0.9375,-0.0781 z m 7.92969,5.15625 2.89062,-1.01562 q 0,0 0,0 0,0 0,0 -0.15625,-0.3125 -0.50781,-0.42969 -0.3125,-0.15625 -0.625,-0.0391 l -2.10938,0.74219 q 0.0781,0.19531 0.15625,0.39062 0.11719,0.15625 0.19532,0.35156 z m -1.21094,-1.95312 2.96875,-1.01563 q 0,0 0,0 0,0 0,0 -0.19531,-0.3125 -0.58594,-0.42968 -0.35156,-0.11719 -0.70312,0 l -2.26563,0.78125 q 0.15625,0.15625 0.3125,0.35156 0.15625,0.15625 0.27344,0.3125 z m -1.83594,-1.71875 3.32031,-1.13281 q 0,0 0,0 0,0 0,0 -0.3125,-0.27344 -0.74218,-0.35157 -0.39063,-0.0781 -0.78125,0.0391 l -2.73438,0.9375 q 0.23438,0.0781 0.46875,0.23437 0.23438,0.11719 0.46875,0.27344 z M -833,-114.2949 q -0.0781,0 -0.19531,-0.0391 -0.11719,-0.0391 -0.19531,-0.0391 -0.54688,-0.15625 -1.13282,-0.11719 -0.58593,0.0391 -1.09375,0.23438 l -0.39062,0.15625 -0.39063,-0.11719 q -0.58593,-0.19531 -1.21093,-0.23437 -0.58594,-0.0391 -1.21094,0.11718 -0.0391,0.0391 -0.11719,0.0781 -0.0391,0 -0.11719,0 l 3.00782,1.05469 L -833,-114.295 Z m 5.58594,9.92187 2.85156,-1.01562 q 0,0 0,0 0,0 0,0 -0.0781,-0.3125 -0.35156,-0.46875 -0.27344,-0.19532 -0.625,-0.0781 l -2.07031,0.74219 q 0.0781,0.19531 0.11718,0.42969 0.0391,0.19531 0.0781,0.39062 z m -15.35156,6.835938 -2.96875,1.054687 q 0,0 0,0 0,0 0,0 0.19531,0.3125 0.54687,0.429688 0.39063,0.07813 0.74219,0 l 2.22656,-0.820313 q -0.15625,-0.15625 -0.3125,-0.3125 -0.11719,-0.15625 -0.23437,-0.351562 z m 14.33593,-1.171875 2.10938,0.742187 q 0.3125,0.117188 0.625,0 0.35156,-0.15625 0.50781,-0.46875 v 0 l -2.85156,-0.976562 q -0.0781,0.15625 -0.19531,0.351562 -0.0781,0.195313 -0.19532,0.351563 z m -3.59375,3.515625 2.69532,0.898437 q 0.39062,0.15625 0.78125,0.07813 0.42968,-0.07813 0.74218,-0.390625 v 0 l -3.28125,-1.132812 q -0.23437,0.117187 -0.46875,0.273437 -0.23437,0.117188 -0.46875,0.273438 z m 2.22657,-1.640625 2.22656,0.78125 q 0.35156,0.15625 0.70312,0.03906 0.39063,-0.117187 0.58594,-0.429687 v 0 L -829.25,-97.49803 q -0.11719,0.195313 -0.27344,0.351563 -0.15625,0.15625 -0.27343,0.3125 z m 4.60937,-6.171873 q 0,0 0.42969,-0.35156 0.42969,-0.39063 0.42969,-0.58594 l -1.5625,0.50781 -1.25,0.42969 1.25,0.42969 1.5625,0.54687 q 0,-0.23437 -0.42969,-0.58594 -0.42969,-0.39062 -0.42969,-0.39062 z m -2.38281,2.22656 2.07031,0.70313 q 0.35156,0.117183 0.625,-0.0391 0.27344,-0.15625 0.35156,-0.50781 v 0 l -2.85156,-0.97656 q -0.0781,0.19531 -0.11719,0.42969 0,0.19531 -0.0781,0.39062 z m -17.03125,-0.85937 -2.85156,1.01562 q 0,0 0,0 0,0 0,0 0.0391,0.3125 0.3125,0.46875 0.3125,0.15625 0.66406,0.0391 l 2.07031,-0.70312 q -0.0781,-0.19531 -0.11719,-0.39063 -0.0391,-0.23437 -0.0781,-0.42968 z m 3.63281,5.820308 -3.28125,1.171875 q 0,0 0,0 0,0 0,0 0.3125,0.3125 0.70313,0.390625 0.42968,0.07813 0.85937,-0.07813 l 2.65625,-0.898438 q -0.23437,-0.15625 -0.46875,-0.273437 -0.19531,-0.15625 -0.46875,-0.3125 z m -2.96875,-3.671875 -2.85156,0.976562 q 0,0 0,0 0,0 0,0 0.15625,0.351563 0.46875,0.507813 0.3125,0.117187 0.66406,0 l 2.10938,-0.703125 q -0.15625,-0.195313 -0.23438,-0.390625 -0.0781,-0.195313 -0.15625,-0.390625 z m 7.92969,5.234375 q -0.50781,0 -0.97656,-0.03906 -0.46875,-0.07813 -0.9375,-0.15625 l -4.21875,1.445313 q 0.42968,0.273437 0.89843,0.351562 0.50782,0.03906 1.01563,-0.117187 l 4.17969,-1.484375 4.21875,1.484375 q 0.46875,0.15625 0.97656,0.117187 0.50781,-0.03906 0.9375,-0.3125 v 0 l -4.21875,-1.484375 q -0.46875,0.07813 -0.9375,0.15625 -0.42969,0.03906 -0.9375,0.03906 z m -3.125,2.539062 v 0 q 0.70312,0.195313 1.36719,0.195313 0.70312,-0.03906 1.36718,-0.273438 l 0.35157,-0.07813 0.3125,0.07813 q 0.66406,0.234375 1.36718,0.273438 0.74219,0.03906 1.44532,-0.15625 v 0 l -3.125,-1.09375 z m 45.97656,6.25 v 9.921875 l -7.57812,-7.8125 v 7.578125 h -1.05469 v -9.882812 l 7.57812,7.8125 v -7.617188 z m -16.95312,-0.15625 q -2.22657,0 -3.71094,1.445313 -1.44531,1.445312 -1.44531,3.554687 0,2.148438 1.44531,3.59375 1.48437,1.445313 3.71094,1.445313 2.22656,0 3.71093,-1.445313 1.48438,-1.445312 1.48438,-3.59375 0,-2.109375 -1.48438,-3.554687 -1.48437,-1.445313 -3.71093,-1.445313 z m 0,9.179688 q -1.79688,0 -3.00782,-1.210938 -1.21093,-1.171875 -1.21093,-2.96875 0,-1.757812 1.21093,-2.96875 1.21094,-1.210937 3.00782,-1.210937 1.79687,0 3.00781,1.210937 1.21094,1.210938 1.21094,2.96875 0,1.796875 -1.21094,2.96875 -1.21094,1.210938 -3.00781,1.210938 z m -14.21875,-9.023438 h 6.95312 v 0.859375 h -2.92969 v 8.867188 h -1.05468 v -8.867188 h -2.92969 v -0.859375 z m -46.21094,7.304688 q 0,1.171875 -0.89844,1.875 -0.85937,0.703125 -2.38281,0.703125 -1.28906,0 -2.22656,-0.585938 -0.9375,-0.585937 -1.36719,-1.640625 l 0.89844,-0.351562 q 0.35156,0.820312 1.05468,1.25 0.74219,0.46875 1.67969,0.46875 1.05469,0 1.64063,-0.46875 0.625,-0.46875 0.625,-1.25 0,-0.9375 -0.66407,-1.367188 -0.625,-0.429687 -1.75781,-0.898437 -1.25,-0.507813 -2.03125,-1.054688 -0.78125,-0.585937 -0.78125,-1.71875 0,-1.09375 0.82031,-1.757812 0.85938,-0.664063 2.14844,-0.664063 0.9375,0 1.64063,0.390625 0.70312,0.351563 1.17187,1.09375 l -0.85937,0.429688 q -0.3125,-0.546875 -0.82032,-0.820313 -0.46875,-0.273437 -1.17187,-0.273437 -0.78125,0 -1.36719,0.46875 -0.54687,0.429687 -0.54687,1.09375 0,0.78125 0.66406,1.210937 0.66406,0.390625 1.5625,0.742188 1.52344,0.664062 2.22656,1.289062 0.74219,0.625 0.74219,1.835938 z m 10.85937,-7.304688 h 1.05469 v 9.726563 h -1.05469 v -3.90625 h -6.17187 v 3.90625 h -1.01563 v -9.726563 h 1.01563 v 4.921875 h 6.13281 z m 6.36719,8.867188 h 5 v 0.859375 h -6.01562 v -9.726563 h 5.9375 v 0.859375 h -4.92188 v 4.0625 h 4.375 v 0.859375 h -4.375 z m 13.4375,-3.203125 2.57813,4.0625 h -1.21094 l -2.38281,-3.867188 -0.0391,-0.03906 h -1.71875 l 0.3125,-0.859375 h 1.32813 q 0.9375,0 1.5625,-0.585938 0.66406,-0.585937 0.66406,-1.484375 0,-0.859375 -0.625,-1.40625 -0.58594,-0.585937 -1.52344,-0.585937 h -2.5 v 8.867187 h -1.01562 v -9.765625 h 3.59375 q 1.32812,0 2.22656,0.820313 0.9375,0.820312 0.9375,2.03125 0,0.9375 -0.54687,1.679687 -0.54688,0.742188 -1.48438,1.054688 l -0.15625,0.07813 z m 9.60938,-5.859375 -4.76563,9.921875 h 1.09375 l 1.36719,-2.929688 h 4.53125 l 1.32812,2.773438 0.0781,0.117187 H -825.5 Z m -1.875,6.132812 1.875,-3.984375 1.83593,3.984375 z"
         style="font-style:normal;font-variant:normal;font-weight:normal;font-stretch:normal;font-family:brand-logo-icons;-inkscape-font-specification:brand-logo-icons;fill:#6e6260;fill-opacity:1"
         id="path3718"
         inkscape:connector-curvature="0" />
    </g>
  </g>
</svg>
