<?xml version="1.0" encoding="UTF-8" standalone="no"?>
<svg
   xmlns:dc="http://purl.org/dc/elements/1.1/"
   xmlns:cc="http://creativecommons.org/ns#"
   xmlns:rdf="http://www.w3.org/1999/02/22-rdf-syntax-ns#"
   xmlns:svg="http://www.w3.org/2000/svg"
   xmlns="http://www.w3.org/2000/svg"
   xmlns:sodipodi="http://sodipodi.sourceforge.net/DTD/sodipodi-0.dtd"
   xmlns:inkscape="http://www.inkscape.org/namespaces/inkscape"
   viewBox="0 0 299.97 299.97302"
   version="1.1"
   id="svg98"
   sodipodi:docname="Texas_Rangers_logo.svg"
   width="299.97"
   height="299.97302"
   style="clip-rule:evenodd;fill-rule:evenodd"
   inkscape:version="0.92.4 (5da689c313, 2019-01-14)">
  <metadata
     id="metadata104">
    <rdf:RDF>
      <cc:Work
         rdf:about="">
        <dc:format>image/svg+xml</dc:format>
        <dc:type
           rdf:resource="http://purl.org/dc/dcmitype/StillImage" />
      </cc:Work>
    </rdf:RDF>
  </metadata>
  <defs
     id="defs102" />
  <sodipodi:namedview
     pagecolor="#ffffff"
     bordercolor="#666666"
     borderopacity="1"
     objecttolerance="10"
     gridtolerance="10"
     guidetolerance="10"
     inkscape:pageopacity="0"
     inkscape:pageshadow="2"
     inkscape:window-width="640"
     inkscape:window-height="480"
     id="namedview100"
     showgrid="false"
     inkscape:zoom="0.53571429"
     inkscape:cx="117.3123"
     inkscape:cy="149.90597"
     inkscape:window-x="0"
     inkscape:window-y="0"
     inkscape:window-maximized="0"
     inkscape:current-layer="svg98" />
  <g
     transform="matrix(1.515,0,0,1.515,207.29897,-655.43294)"
     id="g96">
    <ellipse
       cx="-37.831001"
       cy="531.63"
       rx="99"
       ry="99.000999"
       id="ellipse86"
       style="fill:#003278" />
    <path
       d="m -38.11,465.542 c -35.408,0.001 -64.543,29.466 -64.543,65.273 -10e-4,35.808 29.135,65.274 64.543,65.275 34.778,-0.03 63.6,-28.481 64.47,-63.64 h 29.53 v -2.908 h -29.5 c -0.681,-35.308 -29.579,-63.982 -64.5,-64 z m -64.543,65.273 v -1.273 h -29.819 v 2.908 h 29.819 z"
       id="path88"
       inkscape:connector-curvature="0"
       style="fill:#ffffff" />
    <path
       d="m -38.192,436.77 c -51.556,0 -93.566,41.507 -94.457,92.852 v 0.004 l 30.056,0.026 c 0.428,-15.985 6.687,-31.845 18.889,-44.05 5.272,-5.273 11.249,-9.378 17.601,-12.449 l -0.212,0.014 2.286,-1.039 h 0.126 c 1.037,-0.452 2.081,-0.884 3.139,-1.279 l -0.089,-0.021 c 0.663,-0.248 1.319,-0.485 1.984,-0.707 l 0.101,0.026 c 1.029,-0.347 2.053,-0.714 3.099,-1.013 l -0.045,-0.004 c 0.772,-0.22 1.534,-0.427 2.307,-0.618 l 0.123,0.04 c 1.228,-0.301 2.458,-0.607 3.698,-0.833 l -0.03,-0.01 c 0.571,-0.105 1.137,-0.219 1.712,-0.307 l 0.101,0.058 c 0.784,-0.115 1.57,-0.247 2.359,-0.339 l -0.076,-0.029 c 0.399,-0.044 0.811,-0.097 1.211,-0.133 18.642,-1.844 37.931,4.365 52.208,18.646 6.792,6.788 11.675,14.739 14.803,23.189 l 0.196,0.232 c 0.385,1.068 0.756,2.143 1.089,3.237 L 23.856,512 c 0.212,0.685 0.358,1.384 0.546,2.072 l 0.147,0.168 c 0.19,0.683 0.365,1.374 0.526,2.062 l -0.131,-0.176 c 1.058,4.4 1.702,8.879 1.835,13.379 h 29.472 c 0.013,0.586 0.037,1.172 0.045,1.761 l 0.006,0.006 c 0,-52.106 -42.388,-94.501 -94.493,-94.501 z m -34.478,58.042 v 23.941 h 7.438 l 0.085,-0.976 -0.146,0.481 c 0,-10.212 5.258,-14.762 17.053,-14.762 h 1.874 v 19.362 c 0,3.319 -2.404,5.207 -4.13,6.196 1.742,0.895 4.13,2.647 4.13,5.962 v 20.736 c 0,2.689 -1.848,4.3 -4.961,4.3 h -3.817 v 9.32 h 30.827 v -9.32 h -3.613 c -3.434,0 -5.169,-1.382 -5.169,-4.108 v -20.928 c 0,-3.285 2.79,-5.088 4.731,-5.994 -1.916,-1.072 -4.731,-3.107 -4.731,-6.164 v -19.321 l 0.914,0.006 h 0.784 c 11.432,0 17.987,5.167 17.987,14.186 l -0.008,1.025 h 5.551 V 494.813 H -72.67 Z"
       id="path90"
       inkscape:connector-curvature="0"
       style="fill:#c0111f" />
    <path
       d="m -41.194,443.43 -5.628,0.016 1.795,2.052 c 0,0.002 3.128,4.762 3.665,5.576 l -0.768,1.247 1.17,1.131 c -0.306,0.411 -4.354,5.761 -4.354,5.761 -0.008,0 -1.553,1.46 -1.553,1.46 l -0.586,0.558 5.388,-0.061 -0.372,-1.631 c 0.161,-0.206 3.083,-3.988 3.532,-4.569 0.422,0.622 3.139,4.672 3.149,4.688 l -0.002,0.028 c 0,0.202 0.122,1.282 0.122,1.282 l 0.034,0.279 6.023,-0.006 -2.196,-2.157 c 0,-0.008 -3.359,-4.987 -3.918,-5.822 l 0.766,-1.213 -1.017,-1.135 c 0.283,-0.387 4.064,-5.45 4.064,-5.45 l 1.749,-2.018 -5.426,-0.016 0.188,0.439 0.543,1.265 c -0.191,0.257 -2.851,3.784 -3.297,4.377 l -2.923,-4.48 0.004,-0.03 c 0,-0.206 -0.118,-1.288 -0.118,-1.288 z m -30.604,6.235 -0.281,0.153 -10.765,5.661 1.939,1.203 c 0,0.087 2.072,4.091 2.391,4.715 l -0.804,2.096 2.222,0.641 c 0.121,0.24 2.426,4.915 2.436,4.933 -0.031,0.002 -0.043,1.545 -0.043,1.545 l -0.002,0.527 10.907,-5.731 -1.65,-3.31 c 0,0 -1.813,2.432 -1.813,2.44 -0.018,-0.026 -3.494,1.814 -4.225,2.2 -0.253,-0.493 -2.404,-4.699 -2.647,-5.175 l 2.984,-1.561 c 0,0.018 1.555,-0.188 1.555,-0.188 l 0.437,-0.057 -1.608,-3.24 -1.455,1.544 c -0.008,-0.012 -2.288,1.177 -2.952,1.518 l -2.153,-4.144 c 0.493,-0.26 4.409,-2.293 4.415,-2.297 0.004,0.031 2.386,-0.016 2.386,-0.016 l 0.505,-0.01 z m 70.716,1.589 -0.158,0.147 c 0,0 -5.499,5.081 -5.517,5.095 -0.008,-0.042 -2.086,0.277 -2.086,0.277 l -0.269,0.042 c 0,0 0.01,1.871 0.014,2.115 -0.202,0.18 -4.338,3.9 -4.338,3.9 0.042,-0.034 -1.486,0.918 -1.486,0.918 l -0.488,0.307 4.339,2.038 c 0,0 0.05,-1.751 0.061,-1.967 l 2.009,-2.01 c 0.36,0.168 4.897,2.311 5.267,2.485 -0.043,0.365 -0.289,2.555 -0.312,2.773 l -1.5,1.274 5.722,2.679 -0.449,-2.39 c 0.014,0 0.772,-5.481 0.784,-5.565 0.049,0.044 1.599,-1.349 1.599,-1.349 l 0.221,-0.194 c 0,0 -1.575,-2.005 -1.583,-2.01 0.072,-0.006 0.404,-7.276 0.404,-7.276 l 0.014,-0.21 z m -1.813,5.084 c -0.142,1.22 -0.579,5.021 -0.653,5.689 l -3.605,-1.7 c 0.519,-0.486 3.365,-3.149 4.258,-3.989 z m -97.376,13.088 -0.19,0.235 -9.161,10.929 2.903,2.394 c 0,0 0.704,-2.792 0.708,-2.8 0.016,0.014 1.345,-1.566 1.799,-2.105 0.41,0.341 3.302,2.719 3.474,2.857 l 0.242,2.12 2.123,-0.095 4.211,3.538 c 0,0.065 0.694,1.561 0.694,1.561 l 0.21,0.457 3.91,-4.678 -2.258,-0.348 c 0,-0.061 -4.141,-3.546 -4.204,-3.605 l 0.007,-0.036 c 0,-0.275 -0.277,-1.818 -0.277,-1.818 l -0.051,-0.289 c 0,0 -1.862,0.198 -2.086,0.217 -0.186,-0.154 -3.064,-2.572 -3.466,-2.912 0.313,-0.389 1.711,-2.072 1.715,-2.082 0.014,0.022 2.234,-0.968 2.234,-0.968 l 0.477,-0.215 z m 125.84,3.091 c -0.529,0.01 -1.067,0.119 -1.602,0.348 -0.442,0.186 -1.051,0.522 -1.425,1.064 -0.452,0.664 -0.752,1.555 -0.843,2.51 l -0.04,0.668 -0.039,0.341 c -0.052,-0.03 -0.966,0.845 -0.966,0.845 l -0.18,0.17 c 0,0 1.13,2.05 1.13,2.062 v 0.065 c 0,0.39 0.099,2.329 0.099,2.329 -0.024,0.876 -0.423,1.765 -0.932,2.088 -0.654,0.422 -1.495,0.542 -2.313,0.334 -0.775,-0.192 -1.885,-0.768 -2.771,-2.394 -0.996,-2.15 -0.38,-3.741 0.307,-4.692 l 0.234,-0.32 -1.666,-0.727 -0.153,0.186 c -0.953,1.169 -1.248,3.844 0.101,6.509 1.187,2.341 2.754,3.871 4.531,4.422 1.375,0.432 2.815,0.278 4.17,-0.455 0.648,-0.339 1.216,-0.977 1.464,-1.419 0.495,-0.838 0.627,-1.848 0.629,-2.165 l 0.026,-1.539 -0.069,-0.847 1.082,-1.104 -1.066,-1.823 0.011,-0.114 -0.004,-0.355 c 0,-1.369 0.367,-2.285 1.047,-2.578 0.822,-0.363 2.696,-0.317 3.504,1.425 0.684,1.484 0.82,2.458 0.503,3.603 l -0.073,0.273 1.581,0.618 0.109,-0.319 c 0.535,-1.684 -0.332,-3.875 -0.893,-5.034 -1.067,-2.174 -3.201,-4.016 -5.493,-3.975 z m -140.3,27.236 -2.315,7.135 h -7.501 l 6.069,4.407 -2.316,7.137 6.063,-4.414 6.077,4.414 -2.323,-7.137 6.065,-4.407 h -7.5 z m 152.45,0 -2.317,7.133 h -7.507 l 6.069,4.413 -2.317,7.133 6.072,-4.412 6.069,4.412 -2.323,-7.133 6.077,-4.413 h -7.509 z m -144.55,46.389 -0.35,0.336 -1.264,1.217 c -0.022,-0.014 -1.526,0.53 -1.526,0.53 l -3.049,1.095 c 0,-0.072 -1.821,-0.839 -1.821,-0.839 l -0.283,-0.115 -1.003,2.216 c -0.226,0.085 -5.054,1.85 -5.064,1.852 -0.008,-0.018 -1.65,-0.111 -1.65,-0.111 l -0.477,-0.031 2.044,5.708 1.605,-1.685 c 0.022,0.021 4.089,-1.494 5.214,-1.912 l 0.376,1.071 -5.802,6.403 1.623,4.626 c 0,0 1.439,-2.2 1.48,-2.255 0.095,-0.103 4.709,-4.935 5.048,-5.292 1.431,1.649 3.433,2.401 5.127,1.795 1.127,-0.42 1.903,-1.211 2.353,-2.368 0.614,-1.595 0.496,-3.856 -0.309,-6.054 l -2.273,-6.187 z m 139.03,2.821 -0.415,0.214 c -1.191,0.624 -2.239,2.144 -2.951,4.276 -0.955,2.871 -0.387,6.541 2.553,7.7 0.46,0.176 1.151,0.392 1.817,0.259 0.812,-0.161 1.661,-0.601 2.402,-1.211 l 0.49,-0.447 0.214,-0.17 c 0.016,0.055 1.34,0.077 1.34,0.077 l 0.243,0.002 c 0,0 0.651,-2.309 0.651,-2.317 0.026,0.008 1.583,-1.746 1.583,-1.746 0.595,-0.564 1.434,-0.894 1.971,-0.766 0.902,0.258 1.529,0.801 1.9,1.524 0.467,0.91 0.521,2.053 0.158,3.309 -0.761,2.116 -2.244,2.784 -3.356,2.964 l -0.39,0.065 -0.037,0.398 0.627,1.593 0.328,-0.03 c 1.314,-0.131 3.61,-1.694 4.583,-4.777 0.753,-2.344 0.767,-4.452 0.044,-6.077 -0.648,-1.456 -1.882,-2.52 -3.483,-2.993 -0.707,-0.218 -1.559,-0.171 -2.095,-0.036 h -0.004 c -0.894,0.246 -1.688,0.823 -2.017,1.128 -0.012,0.006 -1.09,1.07 -1.09,1.07 l -0.503,0.602 -1.583,0.022 -0.534,2.121 -0.194,0.184 c -1.222,1.29 -2.034,1.296 -2.406,1.183 -0.789,-0.307 -2.134,-1.521 -1.486,-3.31 0.529,-1.484 1.091,-2.243 2.066,-2.79 l 0.247,-0.137 0.014,-0.336 z m -139.37,2.842 c 0.145,0.384 0.456,1.272 0.456,1.272 0.15,0.404 0.221,0.783 0.221,1.13 0,0.287 -0.049,0.552 -0.144,0.798 -0.236,0.624 -0.761,1.101 -1.512,1.381 -0.82,0.293 -1.689,0.244 -2.363,-0.127 -0.519,-0.275 -0.902,-0.721 -1.116,-1.296 l -0.542,-1.472 z m 128.08,23.11 c -0.287,-0.014 -0.586,0.002 -0.892,0.049 -1.69,0.246 -3.603,1.457 -5.111,3.242 l -4.265,5.02 c 0,0 2.191,0.651 2.201,0.651 v 0.002 c 0,0.047 3.573,3.164 3.611,3.198 l -0.016,0.108 c 0,0.412 0.17,1.892 0.17,1.892 l 0.036,0.303 c 0,0 2.186,-0.188 2.418,-0.212 0.2,0.167 4.106,3.524 4.106,3.524 0,0.056 0.703,1.496 0.703,1.496 l 0.209,0.424 3.956,-4.583 -2.23,-0.574 c 0,-0.026 -3.323,-2.85 -4.243,-3.623 l 0.752,-0.859 c 0.349,0.083 8.404,1.939 8.404,1.939 l 3.22,-3.694 -2.666,-0.186 c -0.049,-0.01 -6.565,-1.678 -7.088,-1.811 0.246,-0.691 0.43,-1.388 0.43,-2.044 0,-1.331 -0.476,-2.53 -1.387,-3.32 -0.686,-0.587 -1.458,-0.9 -2.318,-0.942 z m -112.34,1.7 -0.292,0.099 c 0,0 -6.689,2.335 -6.714,2.341 -0.002,-0.042 -1.999,-0.531 -1.999,-0.531 l -0.255,-0.063 c 0,0 -0.794,1.689 -0.895,1.894 l -5.6,1.883 0.04,0.018 c -0.252,0.012 -0.715,0.079 -1.722,0.232 l -0.799,0.132 3.421,3.926 c 0,0 0.798,-1.689 0.887,-1.884 l 2.467,-0.983 c 0.25,0.285 3.394,3.852 3.639,4.134 -0.174,0.299 -1.191,2.083 -1.282,2.251 l -2.014,0.61 4.458,5.097 0.576,-2.614 c 0.008,0.046 1.155,-1.872 1.155,-1.872 l 1.825,-3.031 c 0.021,0.055 1.781,-0.637 1.781,-0.637 l 0.239,-0.089 c 0,0 -0.36,-2.428 -0.364,-2.436 0.055,0.008 3.107,-6.279 3.107,-6.279 l 0.091,-0.188 z m 110.18,2.081 c 0.497,0.044 0.985,0.266 1.441,0.659 0.664,0.571 1.045,1.355 1.061,2.126 v 0.047 c 0,0.569 -0.202,1.108 -0.588,1.559 l -1.003,1.209 c -0.414,-0.378 -3.532,-3.207 -3.916,-3.556 l 0.878,-1.023 c 0.501,-0.586 1.054,-0.931 1.627,-1.007 0.167,-0.025 0.334,-0.029 0.5,-0.014 z m -114.19,2.262 c -0.586,1.015 -2.18,3.787 -2.499,4.344 -0.416,-0.47 -1.877,-2.133 -2.311,-2.632 0.646,-0.226 3.703,-1.316 4.81,-1.712 z m 33.62,9.742 c -0.612,0.128 -1.168,0.168 -1.749,0.134 1.221,0.529 2.46,0.993 3.703,1.443 -0.652,-0.377 -1.252,-0.809 -1.955,-1.577 z m -12.557,0.746 0.034,0.54 0.137,2.046 c -0.028,-0.04 -1.194,2.343 -1.194,2.343 l -0.833,1.705 c -0.218,0.08 -2.097,0.798 -2.097,0.798 0,0 0.605,2.291 0.613,2.311 -0.073,-0.012 -1.595,3.067 -1.595,3.067 l -0.896,1.805 c -0.022,-0.026 -1.389,0.979 -1.389,0.979 l -0.416,0.307 4.981,2.471 c 0,0 -0.297,-2.515 -0.303,-2.521 0.042,0 3.159,-6.273 4.29,-8.54 l 2.472,14.289 2.046,1.033 c 0,0 3.322,-6.789 3.334,-6.823 0.032,0.06 1.716,-0.722 1.716,-0.722 l 0.237,-0.111 -0.52,-2.115 c 0.073,0 1.333,-2.588 1.333,-2.588 l 0.837,-1.714 c 0.034,0.006 1.336,-1.021 1.336,-1.021 l 0.388,-0.307 -4.818,-2.44 0.219,2.472 c -0.037,-0.026 -2.287,4.557 -2.287,4.557 0,0 -0.649,1.335 -1.091,2.236 -0.293,-1.617 -2.166,-11.916 -2.166,-11.916 z m 72.552,1.207 -0.425,0.186 -11.241,4.883 1.975,1.447 c 0,0.083 1.826,4.341 1.986,4.719 -0.099,0.222 -0.971,2.084 -0.971,2.084 l 2.214,0.815 2.011,4.937 c -0.026,0.004 -0.161,1.71 -0.161,1.71 l -0.043,0.524 11.503,-5.012 -1.482,-3.475 -2.106,2.43 c -0.012,-0.029 -2.673,1.136 -2.673,1.136 l -1.441,0.635 c -0.126,-0.303 -1.986,-4.74 -2.196,-5.251 0.468,-0.203 2.867,-1.235 2.873,-1.237 0.004,0.011 1.743,-0.089 1.743,-0.089 l 0.444,-0.02 -1.53,-3.687 -1.672,1.55 c -0.004,-0.012 -2.78,1.189 -2.78,1.189 l -0.05,0.02 c -0.208,-0.48 -1.628,-3.773 -1.832,-4.255 0.436,-0.186 4.108,-1.763 4.246,-1.828 0.169,0.014 3.117,0.176 3.117,0.176 l -1.51,-3.59 z m -33.572,8.974 c -4.384,-0.042 -8.376,2.648 -9.711,6.539 l -0.224,0.824 c -0.012,-0.032 -1.266,1.27 -1.266,1.27 l -0.181,0.196 1.388,1.826 c 0.75,4.389 4.976,7.717 9.791,7.759 3.384,0.034 4.371,-0.456 5.526,-1.031 l 0.671,-0.336 0.028,-6.188 c 0.045,0 0.884,-1.492 0.884,-1.492 l 0.262,-0.463 -6.394,-0.047 1.096,2.109 c -0.035,0 -0.043,1.569 -0.043,1.569 l -0.008,3.065 c -0.351,0.103 -0.76,0.432 -1.999,0.42 -3.045,-0.022 -4.837,-2.753 -5.263,-5.442 0.026,-0.02 1.369,-1.357 1.369,-1.357 l 0.202,-0.204 -1.409,-1.672 0.093,-0.533 c 0.622,-2.153 2.318,-4.466 5.2,-4.398 2.073,0.045 3.619,0.552 4.352,1.426 l 0.255,0.317 0.538,0.661 0.101,-3.297 -0.21,-0.14 c -1.486,-1.009 -2.767,-1.358 -5.048,-1.38 z"
       id="path92"
       inkscape:connector-curvature="0"
       style="fill:#ffffff" />
    <path
       d="m -44.091,466.93 -0.218,0.026 c -0.4,0.037 -0.812,0.089 -1.211,0.134 l 0.076,0.028 c 0.499,0.192 1.97,0.777 2.18,1.132 l 0.75,-0.113 c 0,0 -0.921,-0.745 -1.577,-1.207 z m -3.813,0.471 c -0.577,0.089 -1.141,0.2 -1.71,0.305 l 0.03,0.011 c 1.05,0.282 2.027,0.898 3.085,1.415 l 1.021,-0.091 c 0,0 -0.952,-0.814 -2.325,-1.583 z m -5.503,1.108 c -0.775,0.192 -1.535,0.401 -2.307,0.619 l 0.045,0.004 c 0.509,0.084 1.496,0.291 1.868,0.715 1.151,-0.206 1.948,0.373 2.679,0.748 l 1.722,-0.552 c 0,0 -2.235,-1.101 -3.055,-1.12 -0.349,-0.167 -0.57,-0.301 -0.829,-0.374 z m -5.463,1.609 c -0.664,0.224 -1.321,0.459 -1.983,0.708 l 0.089,0.02 c 0.319,0.075 1.392,0.342 1.941,0.815 1.203,-0.204 2.389,0.391 3.251,0.94 l 1.738,-0.613 c -0.191,-0.319 -2.435,-1.294 -3.691,-1.318 -0.418,-0.329 -0.854,-0.441 -1.243,-0.526 z m -4.049,1.979 c -0.333,-0.017 -0.689,0.041 -0.984,0.029 h -0.126 l -2.286,1.039 0.212,-0.016 c 0.636,-0.067 2.305,-0.287 2.517,0.196 1.294,-0.128 2.688,0.661 3.53,1.196 l 1.848,-0.477 c -0.998,-0.898 -2.818,-1.605 -3.864,-1.548 -0.204,-0.309 -0.514,-0.402 -0.847,-0.419 z m -5.266,2.663 -2.224,1.205 c 0.284,0.018 2.163,0.055 2.41,0.606 1.284,-0.109 2.702,0.339 3.521,0.851 l 1.616,-1.229 c -1.268,-0.682 -3.251,-1.063 -4.282,-1.013 -0.521,-0.179 -0.446,-0.345 -1.041,-0.42 z m -5.588,3.463 -1.543,1.306 c 0.735,0.23 0.983,0.848 1.434,1.482 1.506,-0.283 3.72,-0.879 5.881,-0.394 l 1.623,-1.44 c -2.439,-0.43 -5.025,-0.309 -6.34,0.037 -0.315,-0.489 -1.055,-0.991 -1.055,-0.991 z m -4.606,4.789 -1.281,1.179 c 0.741,0.226 0.975,1.066 1.437,1.684 1.246,-0.618 3.996,-1.059 6.771,-0.681 l 1.433,-1.848 c -4.208,-0.299 -5.941,0.233 -7.25,0.871 -0.45,-0.761 -1.11,-1.205 -1.11,-1.205 z m -3.944,4.893 -1.013,1.599 c 0.927,0.509 0.84,1.111 1.286,1.741 1.258,-0.63 3.818,-1.829 6.605,-1.444 l 1.425,-1.841 c -4.359,0.094 -6.759,0.474 -7.076,1.485 -0.438,-0.763 -1.227,-1.54 -1.227,-1.54 z m -3.459,4.769 -0.76,1.809 c 0.674,0.507 1.088,1.75 1.554,2.382 1.248,-0.646 2.861,-1.874 5.635,-1.47 l 1.314,-2.145 c -3.535,0 -5.813,0.721 -6.132,1.741 -0.44,-1.056 -1.611,-2.317 -1.611,-2.317 z m 79.65,0.505 v 27.313 h -8.92 l 5.162,4.885 h 8.432 v -27.828 l -4.674,-4.369 z m -82.448,4.567 -0.752,2.014 c 0.937,0.509 1.088,1.75 1.542,2.363 1.248,-0.622 3.127,-1.778 5.93,-1.405 l 1.152,-2.125 c -3.4,0 -5.754,0.734 -6.057,1.751 -0.559,-1.397 -1.815,-2.598 -1.815,-2.598 z m -2.762,6.221 -0.62,2.087 c 0.926,0.522 1.361,1.761 1.811,2.399 1.254,-0.638 2.79,-1.673 5.576,-1.29 l 0.893,-2.013 c -4.236,0.26 -5.337,0.618 -5.65,1.623 -0.634,-1.25 -2.01,-2.806 -2.01,-2.806 z m 43.102,1.272 c -10.877,0 -15.316,3.77 -15.326,13.123 l -0.012,2.131 h -10.747 l 4.901,4.593 h 10.22 l 0.01,-1.717 c 0,-9.576 0.935,-15.613 11.093,-16.624 v -1.506 z m 16.879,0.05 v 17.568 c 0,3.297 5.301,5.412 5.36,5.435 l 2.181,0.853 c -1.361,-1.058 -2.634,-2.505 -2.634,-4.327 v -17.781 l 0.841,0.051 c 3.263,0.28 5.612,1.144 7.284,2.406 -2.707,-2.706 -7.075,-4.187 -13.032,-4.205 z m 53.18,2.566 -0.258,0.881 c 0.829,0.903 1.63,1.864 2.294,3.263 l 0.132,0.263 c -0.334,-1.094 -0.705,-2.171 -1.088,-3.239 l -0.2,-0.23 c -0.226,-0.265 -0.494,-0.557 -0.88,-0.938 z m -115.71,2.015 -0.416,2.089 c 0.941,0.517 1.359,1.755 1.821,2.391 1.242,-0.636 3.328,-1.778 6.108,-1.407 l 0.697,-2.076 c -4.086,0.246 -5.875,0.646 -6.198,1.668 -0.452,-0.759 -2.012,-2.665 -2.012,-2.665 z m 114.64,0.524 -0.317,0.942 c 1.179,1.014 1.972,1.854 2.717,3.647 l 0.445,-0.922 c -0.759,-1.546 -1.157,-1.959 -2.845,-3.667 z m -1.267,2.751 -0.583,0.939 c 1.589,1.417 2.29,2.2 3.029,4.271 l 0.372,-0.79 -0.045,0.121 c 0.893,0.739 1.904,1.919 2.511,5.176 l 0.461,-1.848 c -0.179,-2.346 -2.361,-4.95 -2.674,-4.143 l -0.134,0.368 c -0.749,-1.506 -1.241,-2.543 -2.937,-4.094 z m 4.437,0.383 -0.438,0.994 c 0.482,0.345 0.965,0.856 1.461,1.603 l 0.132,0.172 c -0.16,-0.686 -0.336,-1.377 -0.526,-2.06 l -0.147,-0.168 z m -6.188,2.5 -0.791,1.052 c 1.196,0.739 2.438,2.525 3.197,4.33 l 0.388,-0.639 c 0.658,0.57 1.837,1.431 2.608,5.891 l 0.596,-1.552 c -0.656,-4.242 -2.634,-5.84 -2.794,-4.891 l -0.277,0.342 0.213,-0.342 c -0.761,-1.526 -1.684,-3.183 -3.14,-4.19 z m -113.49,0.029 -0.437,2.228 c 0.925,0.858 1.616,2.451 2.068,3.095 1.252,-0.638 3.212,-2.383 5.977,-1.988 l 0.434,-1.864 c -4.044,0.307 -4.689,0.756 -5.675,1.961 -0.442,-0.767 -2.367,-3.432 -2.367,-3.432 z m 111.1,3.135 -0.995,1.054 c 1.196,0.732 3.003,2.697 3.759,4.506 l 0.713,-1.072 c -0.753,-1.534 -2.017,-3.476 -3.477,-4.488 z m -3.111,3.308 -1.141,0.924 c 0.832,0.549 3.717,2.978 4.466,4.789 l 0.872,-1.203 c -0.756,-1.536 -2.681,-3.485 -4.197,-4.51 z m -109.791,0.465 -0.323,2.157 c 1.644,1.413 2.324,2.768 2.802,3.358 0.539,-1.076 2.583,-2.084 5.38,-1.852 l 0.347,-2.032 c -3.317,0.194 -4.81,0.739 -5.248,1.692 -0.484,-0.759 -2.958,-3.323 -2.958,-3.323 z m 116.89,0.107 -0.147,0.073 -0.508,0.879 c 1.424,1.823 1.97,3.875 2.133,6.625 l 1.009,-1.546 c -0.03,-2.69 -1.693,-6.147 -2.487,-6.031 z m -1.896,2.758 -1.011,1.316 c 0.661,2.204 1.069,5.956 0.708,8.129 l 1.308,-1.721 c 0.22,-2.463 -0.551,-5.53 -1.005,-7.724 z m -8.837,0.131 -1.205,1.069 c 1.204,0.717 3.687,3.019 4.43,4.824 l 0.991,-1.049 c -0.758,-1.529 -2.752,-3.839 -4.216,-4.844 z m -32.274,3.301 -2.405,0.678 c -0.053,0.014 -5.273,1.526 -5.273,5.072 v 20.93 c 0,1.419 0.58,2.365 3.429,2.365 h 1.474 l 0.002,-0.416 v -6.336 c 1.478,1.298 3.03,2.361 4.207,2.495 l 0.513,-0.303 c 0.021,2.55 -0.195,4.059 0.413,5.84 l -1.256,-1.168 v 12.692 h -34.203 l 5.374,5.082 h 2.327 c 0.347,0.561 0.747,0.997 1.237,1.134 l 1.112,-1.134 h 28.295 v -13.917 l -2.046,-1.9 1.632,-0.684 c -1.218,-1.276 -1.167,-5.032 -1.041,-7.065 l -0.567,0.333 c -2.267,-0.375 -4.722,-2.64 -5.856,-4.179 l -0.142,0.059 v -11.863 c 0,-4.276 5.926,-5.917 5.926,-5.917 0,0 -1.612,-0.639 -3.152,-1.798 z m 28.859,0.071 -1.209,1.07 c 1.208,0.72 3.687,3.024 4.434,4.825 l 0.8,-0.855 c 0.241,2.875 0.224,6.105 -0.105,7.614 l 1.486,-1.187 c 0.243,-2.592 0.083,-5.591 -0.382,-7.783 l -1.047,0.766 c -0.866,-1.506 -2.634,-3.521 -3.977,-4.45 z m 8.829,0.427 -1.126,1.118 c 0.374,0.965 0.663,2.14 0.37,7.963 l 1.421,-1.324 c 0.041,-4.367 -0.195,-5.561 -0.665,-7.757 z m -112.68,0.527 -0.143,2.074 c 0.819,0.37 2.333,2.906 2.787,3.528 0.107,-0.115 0.241,-0.496 0.52,-0.837 0.497,-0.597 1.929,-1.449 5.006,-1.32 l 0.176,-1.902 c -3.55,0.042 -4.685,0.908 -4.986,1.257 -0.283,0.249 -0.392,0.72 -0.469,0.985 -0.547,-1.448 -2.891,-3.785 -2.891,-3.785 z m 99.853,2.303 -1.251,0.936 c 0.527,0.147 1.939,1.559 3.944,4.541 l 1.199,-0.989 c 0.165,3.311 0.428,6.449 0.069,7.963 l 1.443,-1.124 c 0.291,-2.418 0.216,-5.231 -0.131,-7.801 l -1.343,0.869 c -1.75,-2.57 -2.918,-3.72 -3.931,-4.41 z m -5.301,4.055 -1.706,1.04 c 0.771,0.579 4.254,4.602 5.881,3.994 0,0 -0.736,4.975 -0.604,7.549 l 1.868,-1.196 c -0.061,-1.353 0.028,-7.062 0.366,-8.392 0.068,-0.073 -1.05,1.081 -1.511,0.758 -0.733,-0.511 -1.986,-1.221 -4.294,-3.753 z m -95.039,0.158 0.045,2.289 c 0.918,0.551 2.352,1.998 2.773,2.646 0.576,-0.969 1.229,-1.471 5.378,-0.594 l 0.022,-1.982 c -4.894,-0.238 -4.823,0.205 -4.979,0.831 -0.42,-0.777 -3.239,-3.19 -3.239,-3.19 z m 88.687,3.202 -2.323,1.268 c 1.345,1.389 5.751,4.888 6.654,4.917 l 0.123,-0.095 c 0.016,2.948 -0.354,4.479 0.774,6.738 l 2.107,-0.879 c -1.214,-1.262 -1.158,-5.031 -1.039,-7.062 l -0.073,-0.128 c -0.751,0.263 -1.705,0.036 -2.557,-0.691 -0.848,-0.725 -3.666,-4.068 -3.666,-4.068 z m -88.689,3.579 0.124,2.05 c 1.086,0.256 2.416,0.927 2.879,1.555 1.245,-0.638 3.017,-0.581 5.224,0.598 l -0.059,-2.034 c -2.673,-1.199 -4.051,-0.986 -5.032,-0.404 -0.45,-0.782 -3.136,-1.765 -3.136,-1.765 z m 80.62,1.381 -2.116,0.875 c 1.918,2.001 4.46,4.195 6.182,4.391 l 0.517,-0.297 c 0.027,3.006 -0.362,4.529 0.771,6.817 l 2.116,-0.881 c -1.219,-1.266 -1.166,-5.037 -1.045,-7.062 l -0.558,0.329 c -2.277,-0.365 -4.726,-2.628 -5.867,-4.172 z m -80.149,4.085 0.528,2.279 c 1.215,0.313 2.008,0.888 2.464,1.524 0.241,-0.638 1.017,-0.286 2.032,0.164 0.895,0.414 1.562,0.888 2.596,1.454 l -0.053,-2.05 c -2.257,-1.45 -4.462,-2.554 -4.781,-1.547 -0.44,-0.761 -2.786,-1.824 -2.786,-1.824 z m 1.047,5.247 0.284,2.064 c 0.983,0.404 1.739,0.963 2.201,1.651 1.064,-0.133 2.007,0.28 4.292,1.917 l -0.17,-1.939 c -2.334,-1.954 -3.472,-1.842 -4.304,-1.842 -0.454,-0.831 -2.303,-1.851 -2.303,-1.851 z m 40.755,15.543 -0.665,0.715 0.665,0.304 z m -3.056,3.98 -0.926,1.391 c 2.263,1.189 4.474,1.278 6.463,1.278 l 0.117,-0.168 c 0.828,1.829 1.628,3.727 3.635,4.484 l 1.139,-1.32 c -1.474,-0.594 -3.409,-3.117 -3.769,-4.634 l -0.125,0.184 c -2.256,0.428 -4.925,-0.74 -6.534,-1.215 z m -2.697,4.036 -0.831,1.469 c 2.261,0.699 4.228,0.813 6.746,0.53 l 0.13,-0.23 c 0.91,1.675 1.145,2.672 3.503,4.057 l 1.142,-1.318 c -1.484,-0.598 -3.285,-2.99 -3.643,-4.508 l -0.246,0.392 c -2.34,0.602 -5.184,0.08 -6.801,-0.392 z m -2.046,4.207 -0.677,1.542 c 2.451,0.84 4.726,1.015 6.384,0.669 0.844,1.394 1.762,2.71 3.785,3.466 l 0.74,-1.318 c -1.672,-0.689 -3.234,-1.574 -3.781,-3.621 -2.354,0.595 -4.828,-0.266 -6.451,-0.738 z m -1.312,3.554 -0.447,1.371 c 2.267,1.173 4.45,0.994 6.103,0.638 0.911,1.295 1.677,2.021 3.69,2.772 l 0.722,-1.043 c -2.146,-0.261 -2.988,-1.359 -3.957,-2.808 -2.338,0.595 -4.502,-0.454 -6.111,-0.93 z"
       id="path94"
       inkscape:connector-curvature="0"
       style="fill:#003278" />
  </g>
</svg>
