<svg width="262" height="121" viewBox="0 0 262 121" fill="none" xmlns="http://www.w3.org/2000/svg">
<g clip-path="url(#clip0_1_21)">
<path d="M99.4511 82.5149V106.903H96.2292V88.7177L88.0859 106.903H85.82L77.6413 88.6824V106.903H74.4194V82.5149H77.8892L86.953 102.674L96.0167 82.5149H99.4511ZM115.041 84.9467V93.1583H124.033V95.8015H115.041V104.26H125.096V106.903H111.819V82.3035H125.096V84.9467H115.041ZM144.558 82.3387C147.249 82.3387 149.574 82.8439 151.533 83.8542C153.515 84.841 155.026 86.2624 156.065 88.1185C157.127 89.9747 157.658 92.1597 157.658 94.6737C157.658 97.1877 157.127 99.3727 156.065 101.229C155.026 103.061 153.515 104.471 151.533 105.458C149.574 106.421 147.249 106.903 144.558 106.903H136.875V82.3387H144.558ZM144.558 104.26C147.744 104.26 150.176 103.426 151.851 101.757C153.527 100.066 154.365 97.7046 154.365 94.6737C154.365 91.6193 153.515 89.2346 151.816 87.5194C150.14 85.8043 147.721 84.9467 144.558 84.9467H140.097V104.26H144.558ZM172.034 82.3387V106.903H168.812V82.3387H172.034ZM183.225 94.6032C183.225 92.2067 183.768 90.0569 184.854 88.1538C185.94 86.2272 187.415 84.7235 189.28 83.6427C191.168 82.5619 193.257 82.0216 195.546 82.0216C198.237 82.0216 200.586 82.6677 202.592 83.9599C204.598 85.2521 206.062 87.0848 206.982 89.4578H203.123C202.439 87.9776 201.447 86.8381 200.149 86.0392C198.875 85.2404 197.34 84.841 195.546 84.841C193.823 84.841 192.277 85.2404 190.908 86.0392C189.539 86.8381 188.465 87.9776 187.686 89.4578C186.907 90.9145 186.518 92.6296 186.518 94.6032C186.518 96.5533 186.907 98.2684 187.686 99.7486C188.465 101.205 189.539 102.333 190.908 103.132C192.277 103.931 193.823 104.33 195.546 104.33C197.34 104.33 198.875 103.943 200.149 103.167C201.447 102.368 202.439 101.229 203.123 99.7486H206.982C206.062 102.098 204.598 103.919 202.592 105.211C200.586 106.48 198.237 107.114 195.546 107.114C193.257 107.114 191.168 106.586 189.28 105.528C187.415 104.448 185.94 102.956 184.854 101.053C183.768 99.1495 183.225 96.9997 183.225 94.6032ZM233.27 101.44H222.506L220.524 106.903H217.125L226.047 82.4797H229.765L238.651 106.903H235.252L233.27 101.44ZM232.349 98.8323L227.888 86.4269L223.427 98.8323H232.349ZM252.666 104.295H261.305V106.903H249.444V82.3387H252.666V104.295Z" fill="#444444"/>
<path d="M86.4889 52.8031H107.047V64.862H70.7951V0.73084H86.4889V52.8031Z" fill="#444444"/>
<path fill-rule="evenodd" clip-rule="evenodd" d="M174.53 16.1698C176.732 17.2661 178.415 18.88 179.577 21.0116H196.924C195.21 14.4341 191.692 9.28775 186.369 5.57265C181.107 1.85755 174.622 0 166.913 0C160.549 0 154.889 1.40077 149.934 4.20232C144.978 6.94297 141.093 10.8103 138.278 15.8044C135.525 20.7375 134.149 26.3711 134.149 32.705C134.149 39.0389 135.525 44.6725 138.278 49.6057C141.093 54.5388 144.978 58.4062 149.934 61.2078C154.951 63.9484 160.641 65.3187 167.004 65.3187C172.389 65.3187 177.222 64.2834 181.505 62.2127C185.788 60.1419 189.306 57.4318 192.059 54.0821C194.874 50.7324 196.862 47.1087 198.025 43.2109V28.6855H163.883V40.1961H183.799C182.575 43.8503 180.618 46.6518 177.925 48.6008C175.295 50.5497 172.051 51.5242 168.197 51.5242C162.569 51.5242 158.132 49.8797 154.889 46.591C151.709 43.2413 150.118 38.6126 150.118 32.705C150.118 27.1629 151.647 22.7474 154.706 19.4586C157.765 16.1089 161.835 14.4341 166.913 14.4341C169.849 14.4341 172.389 15.0127 174.53 16.1698ZM246.306 64.862H262V0.73084H246.306V40.4701L220.058 0.73084H204.365V64.862H220.058V25.3053L246.306 64.862Z" fill="#444444"/>
<path d="M112.372 25.3776V64.889H128.066V20.3557L112.372 25.3776Z" fill="#F47521"/>
<path d="M127.79 5.30188L112.096 10.3237V0.730831H127.79V5.30188Z" fill="#429FDD"/>
<path d="M27.5492 53.5339H44.328L48.1826 64.862H64.7943L57.2249 44.0381L27.5492 53.5339Z" fill="#444444"/>
<path d="M1.03354 62.0186L19.3947 56.1433L16.428 64.862H0L1.03354 62.0186Z" fill="#444444"/>
<path d="M23.3113 0.73084L7.21461 45.0139L25.1525 39.274L32.3053 17.9969L38.1291 35.1217L52.3319 30.5771L41.483 0.73084H23.3113Z" fill="#444444"/>
<path d="M0 96.3301L64.9099 93.9806V98.6796L0 96.3301Z" fill="#429FDD"/>
</g>
<defs>
<clipPath id="clip0_1_21">
<rect width="262" height="121" fill="white"/>
</clipPath>
</defs>
</svg>
