<?xml version="1.0" encoding="utf-8"?>
<!-- Generator: Adobe Illustrator 21.1.0, SVG Export Plug-In . SVG Version: 6.00 Build 0)  -->
<svg version="1.1" id="Layer_1" xmlns="http://www.w3.org/2000/svg" xmlns:xlink="http://www.w3.org/1999/xlink" x="0px" y="0px"
	 viewBox="0 0 98 32" style="enable-background:new 0 0 98 32;" xml:space="preserve">
<style type="text/css">
	.st0{fill:#FFFFFF;}
</style>
<g>
	<g>
		<g>
			<path class="st0" d="M43.3,28.1c0.1-0.3,0.1-0.6,0.1-0.9v-8.2h-1.2v1.5c-0.1-0.1-0.2-0.2-0.3-0.3c-0.4-0.4-0.9-0.7-1.5-0.9
				c-0.2-0.1-0.4-0.2-0.6-0.2c-0.2-0.1-0.5-0.1-0.7-0.1h-1.1l-0.1,0c-0.4,0.1-0.9,0.2-1.2,0.3c-0.4,0.2-0.8,0.4-1.1,0.6
				c-0.3,0.3-0.6,0.6-0.9,0.9c-0.3,0.4-0.5,0.7-0.6,1.1l0,0c-0.1,0.2-0.1,0.3-0.2,0.5c-0.1,0.2-0.1,0.4-0.1,0.6v1.1l0,0
				c0,0.4,0.1,0.8,0.3,1.2c0.2,0.4,0.3,0.7,0.6,1.1c0.2,0.3,0.5,0.6,0.8,0.9c0.3,0.3,0.7,0.5,1,0.6c0.6,0.3,1.2,0.4,1.8,0.4
				c0.6,0,1.2-0.1,1.8-0.3c0.6-0.2,1.1-0.5,1.5-0.9c0.2-0.1,0.3-0.3,0.4-0.4v0.7c0,0.2,0,0.3-0.1,0.5c-0.1,0.2-0.1,0.4-0.2,0.6l0,0
				c-0.2,0.5-0.4,0.9-0.7,1.2c-0.3,0.3-0.7,0.6-1.1,0.7c-0.4,0.2-0.9,0.3-1.4,0.3c-0.5,0-0.9-0.1-1.4-0.2c-0.3-0.1-0.6-0.3-0.8-0.5
				c-0.3-0.2-0.4-0.4-0.6-0.7c-0.1-0.2-0.2-0.5-0.3-0.7c-0.1-0.2-0.1-0.5-0.1-0.8c0,0,0-0.1,0-0.1v-0.1l0,0v-0.3h-1.1l0,0.4
				c0,0.5,0,0.9,0.2,1.4c0.1,0.4,0.4,0.8,0.6,1.2c0.3,0.4,0.6,0.7,1,0.9c0.4,0.3,0.8,0.4,1.3,0.5c0.4,0.1,0.8,0.1,1.1,0.1
				c0.2,0,0.4,0,0.6,0c0.6-0.1,1.1-0.2,1.6-0.5c0.5-0.2,1-0.6,1.4-1c0.4-0.4,0.7-0.9,0.9-1.5C43.1,28.7,43.2,28.4,43.3,28.1
				 M40.4,26.8c-0.4,0.2-0.7,0.3-1.2,0.4c-0.4,0.1-0.8,0.1-1.2,0c-0.6-0.1-1.1-0.3-1.6-0.7c-0.5-0.4-0.8-0.8-1.1-1.4
				c-0.1-0.3-0.2-0.6-0.3-1c0-0.3,0-0.7,0-1l0,0c0.1-0.5,0.3-0.9,0.5-1.3c0.2-0.4,0.5-0.7,0.9-1c0.3-0.3,0.7-0.4,1.1-0.6
				c0.3-0.1,0.6-0.1,1-0.1c0.1,0,0.2,0,0.3,0c0.4,0,0.9,0.2,1.3,0.4c0.4,0.2,0.8,0.5,1.1,0.9l0,0c0.2,0.2,0.4,0.5,0.5,0.7
				c0.1,0.3,0.2,0.6,0.3,0.9v0c0,0.1,0,0.1,0,0.1c0,0,0,0,0,0.1v0.9c0,0.1,0,0.2-0.1,0.4C42.1,24.7,42,24.9,42,25
				c-0.1,0.4-0.4,0.7-0.6,1C41.1,26.3,40.7,26.6,40.4,26.8"/>
			<path class="st0" d="M46.8,27c-0.2,0-0.3-0.1-0.5-0.1c-0.1,0-0.3-0.1-0.4-0.2c-0.1-0.1-0.2-0.2-0.3-0.3c0-0.1-0.1-0.1-0.1-0.2
				c0-0.1,0-0.1,0-0.1V14.6h-1.2v11.5c0,0.1,0,0.2,0.1,0.3c0,0.1,0.1,0.2,0.1,0.3c0.2,0.4,0.5,0.8,0.9,1c0.4,0.2,0.8,0.4,1.3,0.4
				l0,0c0,0,0.1,0,0.2,0c0.1,0,0.2,0,0.3,0h0.5v-1.1l-0.4,0C47.1,27.1,46.9,27,46.8,27"/>
			<path class="st0" d="M56.9,21.8c-0.2-0.4-0.4-0.8-0.7-1.1c-0.3-0.3-0.6-0.6-1-0.9l0,0c-0.3-0.2-0.7-0.4-1.1-0.6
				c-0.4-0.2-0.8-0.3-1.2-0.3c-0.6,0-1.1,0-1.7,0.2c-0.5,0.2-1,0.4-1.4,0.7c-0.4,0.3-0.8,0.6-1.1,1.1c-0.3,0.4-0.5,0.9-0.7,1.4
				c-0.2,0.5-0.2,1-0.2,1.6c0,0.5,0.1,1.1,0.3,1.7c0.1,0.4,0.3,0.7,0.6,1c0.2,0.3,0.5,0.6,0.8,0.9c0.3,0.3,0.6,0.5,1,0.7
				c0.4,0.2,0.7,0.3,1.1,0.4c0.3,0.1,0.6,0.1,1,0.1c0.2,0,0.5,0,0.7-0.1c0.6-0.1,1.1-0.3,1.6-0.5c0.5-0.2,0.9-0.6,1.3-1
				c0.4-0.4,0.7-0.9,0.9-1.4c0.1-0.2,0.1-0.4,0.2-0.6c0.1-0.2,0.1-0.5,0.1-0.7c0-0.4,0-0.8,0-1.2C57.1,22.6,57,22.2,56.9,21.8
				 M51.9,27.2L51.9,27.2c-0.5-0.1-0.9-0.2-1.4-0.5c-0.4-0.3-0.8-0.6-1-1c-0.4-0.5-0.6-1.1-0.6-1.7c0-0.6,0.1-1.2,0.3-1.7
				c0.2-0.5,0.6-1,1.1-1.4c0.5-0.4,1-0.6,1.7-0.7c0.2,0,0.3,0,0.5,0c0.1,0,0.3,0,0.5,0c0.3,0,0.6,0.1,0.9,0.2
				c0.5,0.2,0.8,0.5,1.2,0.8c0.3,0.3,0.6,0.7,0.7,1.1c0.2,0.4,0.3,0.8,0.3,1.2c0,0.4,0,0.9-0.1,1.3c-0.1,0.4-0.3,0.8-0.6,1.2
				c-0.3,0.4-0.6,0.7-1.1,0.9c-0.3,0.2-0.7,0.3-1.1,0.4c-0.2,0-0.4,0.1-0.6,0.1C52.3,27.3,52.1,27.2,51.9,27.2"/>
			<path class="st0" d="M67.4,25c0.2-0.6,0.2-1.3,0.1-1.9c-0.1-0.6-0.3-1.2-0.6-1.8c-0.3-0.6-0.8-1-1.3-1.5c-0.6-0.4-1.2-0.7-2-0.8
				c-0.6-0.1-1.2-0.1-1.8,0c-0.6,0.1-1.2,0.4-1.6,0.7c-0.4,0.2-0.7,0.5-0.9,0.8v-6.1h-1.2v13.8h1.2v-1.4c0.2,0.3,0.5,0.5,0.7,0.7
				c0.6,0.4,1.3,0.7,2.1,0.9c0.2,0,0.5,0.1,0.7,0.1c0.2,0,0.4,0,0.7-0.1c0.5-0.1,0.9-0.2,1.3-0.4c0.7-0.3,1.3-0.8,1.7-1.3
				C67,26.2,67.3,25.6,67.4,25 M59.3,24.4c-0.1-0.3-0.1-0.6-0.1-0.9c0-0.3,0-0.5,0.1-0.8c0.2-0.7,0.5-1.3,1-1.7
				c0.4-0.4,0.9-0.7,1.4-0.8c0.5-0.1,1.1-0.2,1.6-0.1c0.6,0.1,1.1,0.3,1.5,0.6c0.4,0.3,0.8,0.8,1.1,1.3c0.3,0.5,0.4,1.2,0.4,1.9l0,0
				c0,0.1,0,0.3-0.1,0.4c-0.1,0.2-0.1,0.3-0.2,0.5l0,0c-0.1,0.3-0.2,0.5-0.4,0.8c-0.2,0.3-0.4,0.5-0.7,0.7c-0.3,0.2-0.5,0.4-0.8,0.5
				c-0.3,0.1-0.6,0.2-0.8,0.2h-1c0,0,0,0-0.1,0c-0.1,0-0.1,0-0.1,0c-0.4-0.1-0.8-0.3-1.1-0.5c-0.3-0.2-0.7-0.5-0.9-0.8
				c-0.2-0.2-0.3-0.4-0.4-0.7C59.5,25,59.4,24.7,59.3,24.4"/>
			<path class="st0" d="M76.3,20.7c-0.2-0.2-0.4-0.5-0.6-0.7c-0.5-0.5-1.2-0.8-2-1c-0.7-0.2-1.4-0.2-2.1,0c-0.6,0.1-1.2,0.4-1.7,0.8
				c-0.5,0.4-0.9,0.8-1.2,1.3c-0.3,0.5-0.6,1.1-0.7,1.7c-0.1,0.6-0.1,1.2,0,1.9c0.1,0.6,0.4,1.3,0.8,1.9c0.4,0.5,0.8,0.9,1.4,1.3
				c0.6,0.3,1.2,0.5,1.8,0.6c0.2,0,0.5,0,0.7,0c0.8,0,1.6-0.2,2.3-0.6c0.5-0.3,0.9-0.7,1.3-1.1v1.6h1.1V19h-1.1V20.7z M73,27.2
				c-0.4,0-0.7,0-1,0c-0.7-0.1-1.3-0.4-1.8-0.9c-0.5-0.5-0.9-1-1.1-1.7c-0.1-0.5-0.2-0.9-0.1-1.4c0.1-0.5,0.3-0.9,0.5-1.4
				c0.2-0.4,0.6-0.8,1-1.1c0.4-0.3,0.9-0.5,1.4-0.6c0.2,0,0.4-0.1,0.6-0.1c0.2,0,0.4,0,0.6,0.1c0.4,0.1,0.8,0.2,1.1,0.4
				c0.4,0.3,0.8,0.6,1.1,0.9c0.3,0.4,0.5,0.7,0.6,1.1c0.1,0.4,0.2,0.8,0.2,1.2c0,0.4-0.1,0.8-0.3,1.2c-0.2,0.4-0.4,0.8-0.7,1.1
				c-0.3,0.3-0.7,0.6-1.2,0.8C73.7,27.1,73.4,27.2,73,27.2"/>
			<path class="st0" d="M81.7,27.1l-0.4,0c-0.2,0-0.3,0-0.5-0.1c-0.2,0-0.3-0.1-0.5-0.1c-0.1,0-0.3-0.1-0.4-0.2
				c-0.1-0.1-0.2-0.2-0.3-0.3c0,0-0.1-0.1-0.1-0.2c0-0.1,0-0.1,0-0.1V14.6h-1.2v11.5c0,0.1,0,0.2,0.1,0.3c0,0.1,0.1,0.2,0.1,0.3
				c0.2,0.4,0.5,0.8,0.9,1c0.4,0.2,0.8,0.4,1.3,0.4l0,0c0,0,0.1,0,0.2,0c0.1,0,0.2,0,0.3,0h0.5V27.1z"/>
		</g>
		<g>
			<path class="st0" d="M49.4,9c0-0.2,0-0.5,0.1-0.8c0.1-0.3,0.2-0.6,0.4-0.8l0,0c0.2-0.4,0.5-0.7,0.8-1c0.3-0.3,0.7-0.5,1.1-0.6
				c0.4-0.1,0.8-0.2,1.2-0.2c0.4,0,0.8,0.1,1.2,0.2c0.4,0.1,0.7,0.3,1.1,0.6c0.3,0.3,0.6,0.6,0.8,1c0.1,0.2,0.3,0.5,0.4,0.8
				c0.1,0.3,0.1,0.5,0.1,0.8v4.8h1.1V8.8c0-0.3-0.1-0.6-0.2-1c-0.1-0.3-0.2-0.6-0.4-0.9l0,0c-0.4-0.7-0.9-1.2-1.5-1.6
				c-0.6-0.4-1.2-0.7-1.9-0.8c-0.7-0.1-1.4-0.1-2.1,0.1c-0.7,0.2-1.3,0.5-1.9,1.1c-0.1,0.1-0.3,0.3-0.4,0.4V0h-1.2v13.7h1.2V9z"/>
			<path class="st0" d="M59,12c0.2,0.3,0.5,0.6,0.8,0.9c0.3,0.3,0.6,0.5,1,0.7c0.4,0.2,0.7,0.3,1.1,0.4c0.3,0.1,0.6,0.1,1,0.1
				c0.2,0,0.5,0,0.7-0.1c0.6-0.1,1.1-0.3,1.6-0.5c0.5-0.2,0.9-0.6,1.3-1c0.4-0.4,0.7-0.9,0.9-1.4c0.1-0.2,0.1-0.4,0.2-0.6
				c0.1-0.2,0.1-0.5,0.1-0.7c0-0.4,0-0.8,0-1.2c0-0.4-0.1-0.8-0.3-1.2c-0.2-0.4-0.4-0.8-0.7-1.1c-0.3-0.3-0.6-0.6-1-0.9l0,0
				c-0.3-0.2-0.7-0.4-1.1-0.6c-0.4-0.2-0.8-0.3-1.2-0.3c-0.6,0-1.1,0-1.7,0.2c-0.5,0.2-1,0.4-1.4,0.7c-0.4,0.3-0.8,0.6-1.1,1.1
				c-0.3,0.4-0.6,0.9-0.7,1.3c-0.2,0.5-0.2,1-0.2,1.6c0,0.5,0.1,1.1,0.3,1.7C58.6,11.3,58.8,11.6,59,12 M62.3,12.7L62.3,12.7
				c-0.5-0.1-0.9-0.2-1.4-0.5c-0.4-0.2-0.7-0.6-1-1c-0.4-0.5-0.6-1.1-0.6-1.7c0-0.6,0.1-1.2,0.3-1.7c0.2-0.5,0.6-1,1.1-1.4
				c0.5-0.4,1-0.6,1.7-0.7c0.2,0,0.3,0,0.5,0c0.1,0,0.3,0,0.5,0c0.3,0,0.6,0.1,0.9,0.2c0.5,0.2,0.8,0.5,1.2,0.8
				c0.3,0.3,0.6,0.7,0.7,1.1c0.2,0.4,0.3,0.8,0.3,1.2c0,0.4,0,0.9-0.1,1.3c-0.1,0.4-0.3,0.8-0.6,1.2c-0.3,0.4-0.6,0.7-1.1,0.9
				c-0.3,0.2-0.7,0.3-1.1,0.4c-0.2,0-0.4,0.1-0.6,0.1C62.7,12.8,62.5,12.8,62.3,12.7"/>
			<path class="st0" d="M76.3,6c-0.4-0.4-0.8-0.7-1.3-1c-0.5-0.3-1.1-0.5-1.8-0.6c-0.8,0-1.7,0.1-2.4,0.4c-0.8,0.3-1.4,0.9-1.9,1.6
				c-0.4,0.6-0.7,1.4-0.8,2.1c-0.1,0.8,0,1.5,0.2,2.2c0.2,0.5,0.4,0.9,0.7,1.3c0.3,0.4,0.7,0.7,1.1,1c0.3,0.2,0.7,0.4,1.1,0.5
				c0.4,0.1,0.8,0.2,1.2,0.2c0.5,0,1,0,1.4-0.1c0.5-0.1,0.9-0.3,1.4-0.5c0.4-0.2,0.8-0.5,1.1-0.9c0,0,0.1-0.1,0.1-0.1v5.6h1.2V4.7
				h-1.2V6z M75.7,7.2c0.1,0.2,0.3,0.4,0.4,0.7c0.1,0.3,0.2,0.5,0.2,0.7v1.2c0,0.1,0,0.2-0.1,0.4c0,0.1-0.1,0.3-0.2,0.4l0,0
				c-0.2,0.4-0.4,0.7-0.6,1c-0.3,0.3-0.6,0.5-0.9,0.7c-0.3,0.2-0.7,0.3-1.1,0.4c-0.4,0.1-0.8,0.1-1.2,0c-0.5-0.1-0.9-0.2-1.3-0.5
				c-0.4-0.3-0.8-0.6-1.1-1c-0.2-0.2-0.3-0.5-0.4-0.7c-0.1-0.3-0.2-0.6-0.2-0.8l0,0c-0.1-0.6,0-1.2,0.2-1.7c0.2-0.5,0.5-0.9,0.8-1.3
				c0.4-0.4,0.8-0.6,1.3-0.8c0.4-0.2,0.9-0.3,1.3-0.3c0.1,0,0.1,0,0.2,0c0.5,0,1,0.2,1.5,0.4C74.9,6.3,75.3,6.7,75.7,7.2"/>
			<path class="st0" d="M87.9,13.7V4.7h-1.1l-0.1,5c0,0.2,0,0.5-0.1,0.7c-0.1,0.3-0.2,0.5-0.4,0.7c-0.2,0.2-0.4,0.5-0.6,0.7
				c-0.2,0.2-0.4,0.4-0.6,0.5c-0.5,0.3-0.9,0.4-1.4,0.5c-0.5,0-1,0-1.5-0.2c-0.5-0.2-0.9-0.4-1.3-0.7c-0.4-0.3-0.7-0.7-0.9-1.2
				c-0.1-0.2-0.1-0.4-0.2-0.6c-0.1-0.2-0.1-0.4-0.1-0.5V4.7h-1.2v5c0,0.1,0,0.1,0,0.2c0,0,0,0.1,0,0.1l0,0l0,0.1c0,0,0,0.1,0.1,0.2
				c0,0.1,0,0.1,0,0.1v0l0,0c0.1,0.5,0.3,0.9,0.6,1.3c0.3,0.4,0.6,0.7,0.9,1c0.3,0.3,0.7,0.5,1.1,0.7c0.4,0.2,0.9,0.3,1.3,0.4
				c0.2,0,0.5,0.1,0.7,0.1c0.3,0,0.6,0,0.8-0.1c0.5-0.1,0.9-0.3,1.3-0.5c0.4-0.2,0.8-0.5,1.1-0.9c0.1-0.1,0.1-0.1,0.2-0.2v1.5H87.9z
				"/>
			<path class="st0" d="M97.9,7.1c-0.3-0.6-0.7-1.2-1.2-1.6c-0.5-0.4-1-0.8-1.7-1c-0.6-0.2-1.3-0.3-1.9-0.3c-0.6,0-1.3,0.2-1.9,0.5
				c-0.6,0.3-1.2,0.8-1.6,1.4l0,0C89.4,6.6,89.2,7,89,7.4c-0.2,0.4-0.3,0.8-0.3,1.2c0,0.6,0.1,1.3,0.2,1.8c0.2,0.6,0.5,1.2,0.9,1.7
				l0,0c0.4,0.4,0.8,0.7,1.3,1c0.5,0.3,1,0.5,1.6,0.6c0.1,0,0.3,0,0.4,0h0.7v-1.1l-0.3,0c-0.3,0-0.6-0.1-0.9-0.2
				c-0.3-0.1-0.5-0.1-0.8-0.3c-0.5-0.3-0.9-0.7-1.3-1.1c-0.3-0.4-0.5-0.9-0.6-1.4c-0.1-0.5-0.1-1,0-1.6c0.1-0.5,0.4-1,0.8-1.5
				c0.3-0.3,0.6-0.6,1-0.8c0.4-0.2,0.8-0.3,1.2-0.4c0.4,0,0.8,0,1.2,0c0.4,0.1,0.7,0.2,1,0.4c1,0.6,1.6,1.4,1.8,2.5l-4.9,0v1.2
				l6.1,0l0-0.4C98.3,8.5,98.1,7.7,97.9,7.1"/>
		</g>
	</g>
	<path class="st0" d="M16,0C7.2,0,0,7.2,0,16c0,8.8,7.2,16,16,16c8.8,0,16-7.2,16-16C32,7.2,24.8,0,16,0 M8.1,21.1L8.1,21.1
		c-0.6,0-1-0.5-1-1l0-14.3c0-0.6,0.5-1,1-1h0c0.6,0,1,0.5,1,1l0,14.3C9.2,20.6,8.7,21.1,8.1,21.1 M15.9,20.2
		C15.3,19.6,15,18.8,15,18v-3.1c0-0.5-0.4-1-1-1h-3.4c-0.6,0-1-0.5-1-1c0-0.6,0.5-1,1-1H14c1.7,0,3.1,1.4,3.1,3.1V18
		c0,0.3,0.1,0.5,0.3,0.7c0.2,0.2,0.4,0.3,0.7,0.3l3.3,0h0c0.6,0,1,0.5,1,1c0,0.6-0.5,1.1-1,1.1l-3.3,0c0,0,0,0,0,0
		C17.2,21.1,16.5,20.7,15.9,20.2 M24,27.4c-0.6,0.6-1.3,0.9-2.2,0.9h-3.6c-0.6,0-1-0.5-1-1c0-0.6,0.5-1,1-1h3.6
		c0.3,0,0.5-0.1,0.7-0.3c0.2-0.2,0.3-0.4,0.3-0.7l0-10.3c0-0.5-0.4-1-1-1h-3.7c-0.6,0-1-0.5-1-1c0-0.6,0.5-1,1-1h3.7
		c1.7,0,3.1,1.4,3.1,3.1l0,10.3C24.9,26.1,24.6,26.8,24,27.4"/>
</g>
</svg>
