<svg width="178" height="32" viewBox="0 0 178 32" fill="none" xmlns="http://www.w3.org/2000/svg">
<g clip-path="url(#clip0_73_631)">
<path fill-rule="evenodd" clip-rule="evenodd" d="M0 0.237746C0.237218 0.216139 0.474437 0.151318 0.711655 0.151318C4.29149 0.151318 7.87133 0.108104 11.4512 0.172925C12.6157 0.194532 13.8234 0.345781 14.9663 0.669886C17.3601 1.3181 18.7618 3.19791 19.0637 5.66111C19.4303 8.66448 18.2874 10.9332 15.9583 12.705C15.0957 13.3532 14.1684 13.915 13.2195 14.52C15.8074 18.0635 18.4168 21.6287 21.0909 25.3019C20.5086 25.3019 20.0557 25.3019 19.6244 25.3019C18.3089 25.3019 16.9935 25.3235 15.6995 25.2803C15.4408 25.2803 15.0957 25.1074 14.9663 24.913C12.5726 21.4991 10.2004 18.0851 7.8282 14.6712C7.72038 14.52 7.61255 14.3471 7.61255 14.1743C7.59099 13.5261 7.61255 12.8779 7.61255 12.3593C9.03586 11.8623 10.3945 11.4734 11.6668 10.89C13.0039 10.285 13.9312 9.24787 14.2115 7.71378C14.5781 5.68272 13.5646 4.34308 11.5159 4.29987C9.31621 4.25665 7.09498 4.27826 4.83063 4.27826C4.83063 11.2573 4.83063 18.1932 4.83063 25.2155C3.19166 25.2155 1.59583 25.2155 0.0215653 25.2155C0 16.8968 0 8.57806 0 0.237746Z" fill="#0FC500"/>
<path fill-rule="evenodd" clip-rule="evenodd" d="M85.1182 0C86.2181 0.194463 87.3179 0.367319 88.4177 0.626604C89.0647 0.777853 89.9057 0.864281 90.2723 1.29642C90.5958 1.66374 90.3802 2.50641 90.4017 3.13302C90.4233 3.88926 90.4017 4.64551 90.4017 5.38015C89.1725 5.03444 88.0296 4.64551 86.8219 4.40783C84.7732 3.97569 82.6814 3.93248 80.6111 4.3214C77.0744 4.94801 75.0904 6.97907 74.5297 10.5226C74.2493 12.2512 74.3356 13.9581 74.7453 15.6435C75.5217 18.8197 77.5919 20.6347 80.762 21.1965C83.8243 21.7367 86.8219 21.3693 89.7332 20.289C89.9273 20.2242 90.0998 20.1594 90.3586 20.0729C90.3586 21.499 90.3586 22.8818 90.3586 24.2863C88.4393 25.0425 86.4337 25.3666 84.385 25.4747C81.905 25.6043 79.4466 25.4315 77.0528 24.6752C73.4514 23.5084 71.1439 21.0885 70.1519 17.4585C69.3109 14.3687 69.2462 11.214 70.0225 8.10263C71.1008 3.86766 73.9474 1.49088 78.1095 0.540176C78.9937 0.345712 79.8994 0.21607 80.8052 0.043214C82.2501 0 83.6949 0 85.1182 0Z" fill="#0FC500"/>
<path fill-rule="evenodd" clip-rule="evenodd" d="M178 24.7401C174.981 25.4315 171.962 25.6044 168.986 24.6753C166.333 23.8758 164.651 22.0608 163.918 19.3815C163.357 17.2857 163.292 15.1682 163.724 13.0507C164.306 10.2202 165.967 8.31874 168.727 7.45446C171.789 6.50375 174.895 6.655 177.978 7.36803C177.978 8.59963 177.978 9.83124 177.978 11.0628C176.232 10.6523 174.463 10.4578 172.673 10.5659C170.107 10.7387 168.533 12.1216 168.188 14.52C168.08 15.2762 168.102 16.0757 168.166 16.8535C168.425 19.7705 170.193 21.4774 173.105 21.499C174.722 21.499 176.339 21.1965 177.978 21.0237C178 22.2769 178 23.5085 178 24.7401Z" fill="#0FC500"/>
<path fill-rule="evenodd" clip-rule="evenodd" d="M42.3974 7.62715C42.3974 5.14234 42.3974 2.67914 42.3974 0.194336C43.9501 0.194336 45.4597 0.194336 47.034 0.194336C47.0555 0.410406 47.0555 0.626476 47.0555 0.842547C47.0555 8.405 47.0555 15.9675 47.0555 23.5515C47.0555 23.9405 47.0771 24.2213 46.5595 24.351C43.5835 25.0424 40.5644 25.4529 37.5021 25.2585C33.8791 25.0424 31.3991 23.141 30.4071 19.7703C30.1268 18.8196 29.9543 17.8041 29.9327 16.8101C29.9111 15.4489 29.9543 14.0444 30.213 12.7264C30.8384 9.50696 32.9734 7.58394 36.2082 7.06537C38.2138 6.74126 40.1978 6.78448 42.1171 7.60554C42.1818 7.60554 42.2681 7.60554 42.3974 7.62715ZM42.3974 16.2267C42.3974 14.8439 42.3759 13.4827 42.3974 12.0998C42.3974 11.7325 42.2681 11.538 41.9661 11.3868C40.6722 10.7602 39.3136 10.5657 37.9119 10.7818C36.0357 11.0627 34.9574 12.143 34.6555 14.0228C34.4183 15.3841 34.483 16.7237 34.8065 18.0417C35.2809 20.008 36.5964 21.218 38.4726 21.2612C39.594 21.2828 40.6938 21.0883 41.8152 20.9803C42.2896 20.9371 42.4406 20.6994 42.4406 20.2024C42.3759 18.8844 42.3974 17.5664 42.3974 16.2267Z" fill="#0FC500"/>
<path fill-rule="evenodd" clip-rule="evenodd" d="M54.668 17.6961C54.7112 19.2518 55.315 20.4186 56.7167 20.894C57.7734 21.2613 58.938 21.499 60.0594 21.5206C62.0002 21.5422 63.9195 21.3261 65.9251 21.1965C65.9251 22.2336 65.9251 23.3788 65.9036 24.5239C65.9036 24.632 65.731 24.8048 65.6232 24.8264C62.2806 25.345 58.9164 25.6907 55.5953 24.6752C52.2311 23.6597 50.5706 21.2181 50.1177 17.8258C49.859 15.9243 49.9452 14.0229 50.4628 12.1647C51.196 9.50706 52.9428 7.82171 55.5953 7.1735C57.6225 6.67654 59.6496 6.67654 61.6768 7.1735C64.6312 7.90814 66.2917 9.89599 66.7662 12.8345C67.0034 14.2822 66.874 15.7731 66.9171 17.2424C66.9387 17.7393 66.6152 17.7177 66.2702 17.7177C62.6472 17.7177 59.0242 17.7177 55.4012 17.7177C55.1856 17.6961 54.9699 17.6961 54.668 17.6961ZM54.7112 14.3686C57.3206 14.3686 59.9084 14.3686 62.4962 14.3686C62.4315 11.8406 61.3101 10.6306 59.0242 10.5226C56.3501 10.4146 54.9699 11.6462 54.7112 14.3686Z" fill="#0FC500"/>
<path fill-rule="evenodd" clip-rule="evenodd" d="M109.767 17.6963C105.713 17.6963 101.702 17.6963 97.6261 17.6963C97.583 19.0575 98.1221 20.0514 99.222 20.7213C100.149 21.283 101.206 21.5423 102.263 21.5207C104.441 21.4775 106.619 21.3479 108.862 21.2398C108.862 22.2122 108.883 23.3357 108.84 24.4593C108.84 24.5889 108.624 24.805 108.473 24.8266C105.497 25.3236 102.5 25.5612 99.5023 24.9346C95.5559 24.1136 93.2915 21.4343 92.9896 17.3938C92.8602 15.6436 92.8818 13.9151 93.3562 12.2081C94.0894 9.61526 95.7284 7.9083 98.3378 7.21688C100.43 6.6767 102.565 6.6551 104.656 7.19527C107.632 7.97312 109.379 10.1122 109.789 13.3101C109.983 14.7577 110.005 16.2054 109.767 17.6963ZM97.6693 14.3904C100.236 14.3904 102.802 14.3904 105.347 14.3904C105.605 12.1433 104.247 10.6524 101.918 10.5228C99.567 10.3931 97.7555 11.5167 97.6693 14.3904Z" fill="#0FC500"/>
<path fill-rule="evenodd" clip-rule="evenodd" d="M117.552 25.2587C115.978 25.2587 114.447 25.2587 112.916 25.2587C112.916 19.1223 112.916 13.0075 112.916 6.82788C114.037 6.82788 115.137 6.80627 116.237 6.84948C116.366 6.84948 116.539 7.06555 116.582 7.2168C116.776 7.92983 116.905 8.64287 117.078 9.44232C117.466 9.11822 117.811 8.81572 118.178 8.53483C120.593 6.69823 123.267 6.35252 126.071 7.30323C128.529 8.1459 129.478 10.177 129.564 12.5753C129.672 15.838 129.607 19.1007 129.607 22.3633C129.607 23.314 129.607 24.2431 129.607 25.2371C128.055 25.2371 126.524 25.2371 124.949 25.2371C124.949 24.9994 124.949 24.7833 124.949 24.5456C124.949 21.0669 124.863 17.5666 124.971 14.0878C125.079 10.9764 123.159 10.285 120.873 10.7171C119.731 10.9332 118.717 11.4734 117.833 12.2296C117.66 12.3809 117.574 12.7266 117.574 12.9859C117.552 16.8319 117.574 20.6996 117.574 24.5456C117.552 24.7833 117.552 24.9994 117.552 25.2587Z" fill="#0FC500"/>
<path fill-rule="evenodd" clip-rule="evenodd" d="M141.943 6.82796C141.943 8.12438 141.943 9.31277 141.943 10.5444C140.584 10.5444 139.269 10.5444 137.889 10.5444C137.867 10.7604 137.845 10.9117 137.845 11.0629C137.845 13.7206 137.845 16.3999 137.845 19.0575C137.845 19.36 137.889 19.6625 137.953 19.965C138.147 20.9373 138.794 21.4991 139.786 21.5423C140.131 21.5639 140.476 21.5423 140.821 21.5423C141.166 21.5423 141.512 21.5423 141.9 21.5423C141.9 22.7739 141.9 23.9839 141.9 25.2155C141.835 25.2371 141.727 25.2804 141.641 25.2804C140.131 25.2804 138.622 25.302 137.112 25.2371C134.977 25.1291 133.64 23.8759 133.274 21.78C133.209 21.3695 133.166 20.959 133.166 20.5484C133.166 15.1467 133.166 9.7233 133.166 4.32155C133.166 4.1919 133.187 4.08387 133.187 3.84619C134.266 3.84619 135.344 3.84619 136.401 3.8678C136.508 3.8678 136.659 4.10548 136.702 4.23512C136.897 4.92654 137.069 5.61797 137.198 6.331C137.285 6.74153 137.457 6.84957 137.867 6.84957C138.988 6.82796 140.11 6.84957 141.253 6.84957C141.468 6.82796 141.684 6.82796 141.943 6.82796Z" fill="#0FC500"/>
<path fill-rule="evenodd" clip-rule="evenodd" d="M149.253 25.2584C147.679 25.2584 146.17 25.2584 144.617 25.2584C144.617 19.122 144.617 13.0289 144.617 6.82764C145.738 6.82764 146.86 6.82764 147.981 6.84924C148.089 6.84924 148.24 7.06531 148.283 7.21656C148.456 7.82156 148.607 8.44816 148.757 9.03155C149.555 8.51298 150.31 7.9512 151.108 7.49745C151.928 7.0221 152.855 6.82764 153.868 6.84924C153.868 8.10245 153.868 9.31244 153.868 10.5657C153.567 10.6089 153.221 10.6089 152.92 10.7169C152.208 10.9546 151.475 11.1706 150.828 11.5164C149.749 12.0781 149.167 12.8344 149.232 14.2172C149.361 17.6528 149.275 21.1099 149.275 24.5454C149.253 24.7831 149.253 24.9991 149.253 25.2584Z" fill="#0FC500"/>
<path fill-rule="evenodd" clip-rule="evenodd" d="M26.9135 25.2587C25.3608 25.2587 23.8728 25.2587 22.3417 25.2587C22.3417 19.1223 22.3417 13.0291 22.3417 6.87109C23.8512 6.87109 25.3393 6.87109 26.9135 6.87109C26.9135 12.9859 26.9135 19.1007 26.9135 25.2587Z" fill="#0FC500"/>
<path fill-rule="evenodd" clip-rule="evenodd" d="M160.554 25.2587C159.001 25.2587 157.513 25.2587 155.982 25.2587C155.982 19.1223 155.982 13.0291 155.982 6.87109C157.491 6.87109 158.979 6.87109 160.554 6.87109C160.554 12.9859 160.554 19.1007 160.554 25.2587Z" fill="#0FC500"/>
<path fill-rule="evenodd" clip-rule="evenodd" d="M22.3417 0.172852C23.8944 0.172852 25.3824 0.172852 26.9135 0.172852C26.9135 1.38284 26.9135 2.59284 26.9135 3.82444C25.4039 3.82444 23.8944 3.82444 22.3417 3.82444C22.3417 2.61445 22.3417 1.42606 22.3417 0.172852Z" fill="#0FC500"/>
<path fill-rule="evenodd" clip-rule="evenodd" d="M155.982 3.84592C155.982 2.59272 155.982 1.40433 155.982 0.194336C157.535 0.194336 159.023 0.194336 160.575 0.194336C160.575 1.42594 160.575 2.61432 160.575 3.84592C159.044 3.84592 157.535 3.84592 155.982 3.84592Z" fill="#0FC500"/>
<path d="M172.307 32.0002H171.897V28.8024H170.776V28.4351H173.45V28.8024H172.307V32.0002Z" fill="#0FC500"/>
<path d="M175.542 32.0002L174.334 28.8456H174.312C174.334 29.1049 174.355 29.3858 174.355 29.7315V32.0002H173.967V28.4351H174.593L175.714 31.3736H175.736L176.879 28.4351H177.504V32.0002H177.094V29.7099C177.094 29.4506 177.116 29.1697 177.137 28.8456H177.116L175.887 32.0002H175.542Z" fill="#0FC500"/>
</g>
<defs>
<clipPath id="clip0_73_631">
<rect width="178" height="32" fill="white"/>
</clipPath>
</defs>
</svg>
