<svg width="312" height="113" viewBox="0 0 312 113" fill="none" xmlns="http://www.w3.org/2000/svg">
<path d="M146.977 49.8067H123.397V56.8033H140.121C139.293 66.5967 131.132 70.8003 123.425 70.8003C120.984 70.811 118.565 70.3352 116.309 69.4008C114.054 68.4664 112.007 67.0919 110.289 65.3578C108.57 63.6236 107.214 61.5645 106.3 59.3006C105.386 57.0367 104.932 54.6134 104.965 52.1722C104.965 41.5803 113.165 33.4255 123.448 33.4255C131.381 33.4255 136.055 38.4823 136.055 38.4823L140.952 33.4086C140.952 33.4086 134.661 26.4082 123.192 26.4082C108.587 26.4082 97.2886 38.7346 97.2886 52.0479C97.2886 65.0938 107.916 77.8157 123.561 77.8157C137.323 77.8157 147.397 68.3877 147.397 54.4473C147.397 51.5055 146.969 49.8067 146.969 49.8067H146.977Z" fill="white"/>
<path d="M166.294 44.7382C156.618 44.7382 149.683 52.3036 149.683 61.1232C149.683 70.0766 156.407 77.7813 166.407 77.7813C175.458 77.7813 182.873 70.8638 182.873 61.3153C182.873 50.392 174.247 44.7363 166.294 44.7363V44.7382ZM166.388 51.2282C171.146 51.2282 175.654 55.0758 175.654 61.2739C175.654 67.3382 171.164 71.297 166.366 71.297C161.092 71.297 156.949 67.0745 156.949 61.2249C156.949 55.4996 161.055 51.2282 166.403 51.2282H166.388Z" fill="white"/>
<path d="M202.418 44.7382C192.742 44.7382 185.807 52.3036 185.807 61.1232C185.807 70.0766 192.531 77.7813 202.531 77.7813C211.582 77.7813 218.997 70.8638 218.997 61.3153C218.997 50.392 210.371 44.7363 202.418 44.7363V44.7382ZM202.512 51.2282C207.27 51.2282 211.778 55.0758 211.778 61.2739C211.778 67.3382 207.288 71.297 202.49 71.297C197.216 71.297 193.073 67.0745 193.073 61.2249C193.073 55.4996 197.179 51.2282 202.527 51.2282H202.512Z" fill="white"/>
<path d="M237.849 44.7578C228.967 44.7578 221.988 52.536 221.988 61.2671C221.988 71.2111 230.08 77.8065 237.695 77.8065C242.403 77.8065 244.908 75.9364 246.735 73.7913V77.0494C246.735 82.7503 243.273 86.1648 238.049 86.1648C233.002 86.1648 230.47 82.4113 229.574 80.2831L223.223 82.9198C225.476 87.6846 230.011 92.651 238.102 92.651C246.953 92.651 253.662 87.0895 253.662 75.4241V45.7503H246.761V48.549C244.633 46.2513 241.718 44.7578 237.853 44.7578H237.849ZM238.49 51.2365C242.844 51.2365 247.315 54.9542 247.315 61.3029C247.315 67.7571 242.851 71.3128 238.394 71.3128C233.659 71.3128 229.254 67.4708 229.254 61.3632C229.254 55.0201 233.83 51.2365 238.49 51.2365Z" fill="white"/>
<path d="M284.503 44.7188C276.126 44.7188 269.092 51.3858 269.092 61.2168C269.092 71.6241 276.932 77.7957 285.288 77.7957C292.279 77.7957 296.588 73.9726 299.131 70.5449L293.419 66.7443C291.937 69.042 289.458 71.2926 285.324 71.2926C280.68 71.2926 278.544 68.7501 277.22 66.2829L299.374 57.0922L298.244 54.3991C296.104 49.1258 291.11 44.7188 284.503 44.7188ZM284.791 51.0731C287.81 51.0731 289.982 52.6777 290.905 54.6025L276.109 60.7855C275.469 55.998 280.008 51.0731 284.772 51.0731H284.791Z" fill="white"/>
<path d="M258.513 76.8165H265.79V28.1191H258.513V76.8165Z" fill="white"/>
<rect y="17" width="75.6386" height="73" rx="13" fill="white"/>
<path d="M53.7416 69.489C59.1409 64.4496 61.5406 56.0507 60.1008 48.0117H38.6235V56.8906H50.862C50.3821 59.7702 48.7023 62.1699 46.3026 63.7297L53.7416 69.489Z" fill="#4285F4"/>
<path d="M18.2261 62.4105C19.8045 65.5198 22.0681 68.2302 24.8464 70.3374C27.6246 72.4446 30.8449 73.8936 34.2646 74.5753C37.6843 75.2569 41.2141 75.1533 44.588 74.2724C47.9618 73.3914 51.0917 71.7561 53.7416 69.4896L46.3025 63.7303C39.9433 67.9298 29.3847 66.37 25.7851 56.5312L18.2261 62.4105Z" fill="#34A853"/>
<path d="M25.7851 56.5307C24.8252 53.5311 24.8252 50.7715 25.7851 47.7718L18.2261 41.8926C15.4664 47.4119 14.6265 55.2109 18.2261 62.41L25.7851 56.5307Z" fill="#FBBC02"/>
<path d="M25.7851 47.7716C28.4248 39.4926 39.7034 34.6932 47.2624 41.7723L53.8616 35.2931C44.5028 26.2943 26.2651 26.6542 18.2261 41.8923L25.7851 47.7716Z" fill="#EA4335"/>
</svg>
