<svg width="234" height="234" viewBox="0 0 234 234" fill="none" xmlns="http://www.w3.org/2000/svg">
<path fill-rule="evenodd" clip-rule="evenodd" d="M228.199 110.508C226.89 110.508 225.837 111.563 225.837 112.869C225.837 114.175 226.89 115.23 228.199 115.23C229.505 115.23 230.56 114.175 230.56 112.869C230.56 111.563 229.505 110.508 228.199 110.508ZM228.202 115.022C226.998 115.022 226.075 114.062 226.075 112.87C226.075 111.651 226.983 110.718 228.202 110.718C229.416 110.718 230.317 111.658 230.317 112.864C230.318 114.056 229.41 115.022 228.202 115.022ZM103.546 124.232L103.211 102.642C104.678 102.718 106.083 103.259 107.222 104.188C108.36 105.117 109.173 106.384 109.541 107.807C111.242 107.536 112.983 107.907 114.425 108.848C115.867 109.789 116.909 111.232 117.346 112.898C108.031 111.992 103.983 120.686 104.273 124.23H105.847C106.81 114.715 114.199 113.297 117.471 113.475C117.538 113.859 117.572 114.256 117.572 114.661C117.572 117.25 116.215 119.509 114.112 120.703C114.792 121.798 115.151 123.063 115.149 124.353C115.149 126.623 114.059 128.638 112.374 129.904C111.988 124.782 109.591 123.559 108.27 122.899L106.696 124.172C110 124.812 111.313 128.244 111.696 130.355C110.638 130.97 109.435 131.294 108.211 131.292C107.191 131.293 106.183 131.069 105.26 130.635C104.337 130.202 103.521 129.57 102.871 128.784H102.891C102.241 129.57 101.425 130.202 100.502 130.636C99.5787 131.069 98.5711 131.293 97.5511 131.292C96.3268 131.294 95.124 130.97 94.0658 130.355C94.4482 128.245 95.7605 124.813 99.0661 124.172L97.4916 122.899C96.1708 123.56 93.7744 124.783 93.3884 129.904C92.5261 129.259 91.8263 128.42 91.3445 127.457C90.8628 126.493 90.6124 125.43 90.6133 124.353C90.6106 123.063 90.9698 121.798 91.65 120.703C89.5474 119.51 88.1902 117.25 88.1902 114.661C88.1902 114.256 88.2242 113.861 88.2909 113.475C91.5626 113.297 98.952 114.715 99.9147 124.23H101.489C101.781 120.684 97.732 111.992 88.416 112.898C88.8538 111.232 89.8951 109.789 91.3377 108.848C92.7802 107.907 94.521 107.536 96.2218 107.807C96.59 106.384 97.4025 105.116 98.5411 104.187C99.6798 103.258 101.085 102.717 102.553 102.642L102.218 124.232H103.546Z" fill="black"/>
<path fill-rule="evenodd" clip-rule="evenodd" d="M228.575 112.983C228.973 112.92 229.296 112.699 229.296 112.245C229.296 111.739 229.018 111.474 228.388 111.474H227.34V114.265H227.579V112.977H228.305L229.144 114.265H229.41L228.575 112.983ZM228.172 112.769H227.579V111.683H228.35C228.684 111.683 229.057 111.809 229.057 112.239C229.057 112.724 228.594 112.769 228.172 112.769ZM53.7401 130.34C52.0259 129.974 51.9058 128.609 51.9058 126.417L51.6326 114.867C51.6326 112.885 52.2966 111.465 53.2581 110.956C53.4681 110.835 53.649 110.775 53.649 110.625C53.6199 110.505 53.2581 110.475 53.1683 110.475L50.8435 110.5C50.4199 110.56 50.1164 110.56 49.8153 111.217L42.3979 127.037L34.7912 111.217C34.4889 110.56 34.1866 110.56 33.763 110.5L30.7111 110.505C30.6212 110.505 30.2607 110.505 30.2303 110.625C30.2303 110.776 30.41 110.835 30.62 110.956C31.5815 111.465 33.3964 112.763 33.3964 114.747L33.0334 126.295C33.0334 128.489 32.6413 129.884 31.3508 130.252C31.1019 130.323 30.9004 130.46 30.9004 130.55C30.9004 130.641 30.9296 130.792 31.1699 130.792L33.5129 130.793L35.5572 130.792C36.0076 130.792 36.1278 130.762 36.1278 130.672C36.1278 130.55 36.0404 130.406 35.7672 130.281C34.9709 129.914 33.9936 130.231 33.9936 127.167L34.3566 115.514H34.4173L41.1985 130.131C41.4231 130.52 42.1746 130.592 42.3737 130.131L49.3977 115.151H49.4572L49.7303 127.046C49.7206 129.49 48.9036 130.127 48.1085 130.341C48.0599 130.355 47.6872 130.424 47.6872 130.641C47.6872 130.731 47.8074 130.822 48.259 130.822C48.5588 130.822 50.4939 130.793 51.5743 130.793L53.9185 130.792C54.1589 130.792 54.1273 130.702 54.1273 130.612C54.1273 130.522 53.9926 130.395 53.7401 130.34ZM74.9068 110.536C74.2756 110.536 73.4646 110.656 72.8334 110.656C72.2325 110.656 70.9408 110.536 70.4904 110.536C70.1602 110.536 69.9793 110.656 69.9793 110.806C69.9793 110.957 70.2391 111.06 70.6701 111.166C71.2819 111.317 72.3526 111.424 72.3526 113.978V126.921L57.9562 111.167C57.6842 110.865 57.439 110.53 56.883 110.504C56.1619 110.504 55.0208 110.534 54.7197 110.534C54.3895 110.534 54.3301 110.624 54.3301 110.744C54.3301 110.805 54.443 110.918 54.6008 110.954C56.1377 111.316 57.9185 114.031 57.9489 115.623V126.201C57.9489 128.875 57.927 129.38 56.8235 130.023C56.2882 130.337 55.8791 130.458 55.8791 130.639C55.8791 130.729 55.9082 130.789 56.1182 130.789C56.4788 130.789 57.7984 130.7 58.4284 130.7C59.5101 130.7 60.4715 130.789 60.8321 130.789C60.9826 130.789 61.0724 130.76 61.0724 130.669C61.0724 130.519 60.8624 130.519 60.4412 130.248C59.7808 129.857 58.9091 129.895 58.9091 126.831V115.785C63.5963 120.32 68.5796 126.389 72.2446 130.595C72.5505 130.911 72.7144 130.962 73.0106 130.906C73.2206 130.906 73.3117 129.645 73.3117 128.051V113.978C73.2777 111.226 74.5803 111.196 74.9335 111.045C75.2674 110.903 75.4143 110.866 75.4143 110.775C75.4143 110.684 75.3269 110.536 74.9068 110.536ZM82.8183 130.462C81.7148 129.883 80.9815 128.909 80.9815 126.175V113.569C80.9815 112.398 81.5558 111.226 82.5767 110.925C82.7272 110.895 82.7867 110.805 82.7867 110.685C82.7867 110.534 82.3958 110.534 82.2769 110.534C81.5861 110.534 80.5008 110.655 79.8101 110.655C78.6993 110.655 77.7354 110.534 77.3748 110.534C76.9839 110.534 76.8941 110.534 76.8941 110.714C76.8941 110.835 76.9839 110.865 77.1041 110.924C78.1566 111.315 78.6702 112.607 78.6702 113.568V126.475C78.6702 128.398 78.1263 129.557 76.8043 130.399C76.5943 130.548 76.7169 130.639 76.7169 130.698C76.7169 130.788 76.5044 130.82 76.7448 130.82C77.0143 130.82 78.1287 130.73 79.8113 130.73C81.2535 130.73 82.5488 130.82 82.8195 130.82C82.9992 130.82 83.1497 130.789 83.1497 130.73C83.1485 130.641 83.0465 130.579 82.8183 130.462ZM16.7298 105.746C9.80649 105.746 3.44043 110.629 3.44043 118.436C3.44043 126.392 9.4423 131.032 16.3656 131.032C23.2888 131.032 30.1393 126.392 30.1393 118.436C30.1405 110.63 23.653 105.746 16.7298 105.746ZM20.3498 129.423C14.615 131.507 9.42166 128.148 7.22923 122.127C4.86199 115.621 7.58007 109.682 12.4141 107.621C17.7653 105.339 23.7052 108.41 26.0737 114.917C28.2649 120.938 26.9259 127.033 20.3498 129.423ZM145.472 106.338C145.029 106.338 143.431 106.485 142.07 106.485C141.221 106.485 139.915 106.338 139.065 106.338C138.918 106.338 138.439 106.338 138.439 106.521C138.439 106.669 138.514 106.78 138.697 106.816C139.949 107.184 140.757 107.378 140.757 108.814V117.488H127.188V108.785C127.188 107.349 128.024 107.185 129.277 106.816C129.461 106.78 129.535 106.668 129.535 106.521C129.535 106.338 129.056 106.338 128.909 106.338C128.061 106.338 126.754 106.485 125.907 106.485C124.544 106.485 122.946 106.338 122.504 106.338C122.025 106.338 121.914 106.338 121.914 106.559C121.914 106.705 122.026 106.742 122.173 106.816C123.461 107.295 124.596 107.606 124.596 108.785V127.14C124.568 129.086 123.961 129.783 122.593 130.255C122.292 130.358 122.076 130.549 122.076 130.623C122.076 130.735 122.223 130.771 122.519 130.771C122.848 130.771 123.844 130.66 125.907 130.66C127.673 130.66 128.816 130.771 129.146 130.771C129.369 130.771 129.551 130.735 129.551 130.66C129.551 130.549 129.427 130.469 129.146 130.329C128.109 129.812 127.201 129.934 127.188 127.14V118.411H140.757V127.049C140.74 129.844 139.864 129.812 138.827 130.329C138.546 130.469 138.422 130.55 138.422 130.66C138.422 130.735 138.606 130.771 138.827 130.771C139.156 130.771 140.3 130.66 142.069 130.66C144.129 130.66 145.125 130.771 145.457 130.771C145.75 130.771 145.897 130.735 145.897 130.623C145.897 130.549 145.658 130.409 145.383 130.255C144.042 129.51 143.375 128.994 143.348 127.048V108.814C143.348 107.635 144.512 107.294 145.8 106.816C145.947 106.742 146.059 106.705 146.059 106.559C146.06 106.338 145.95 106.338 145.472 106.338ZM183.21 114.323L182.764 110.504H167.827L167.379 114.323C167.359 114.618 167.697 114.784 167.891 114.504C168.754 112.862 168.764 112.072 171.018 112.072L174.091 112.063V126.423C174.091 129.546 173.61 130.101 172.407 130.401C171.987 130.491 171.658 130.491 171.658 130.641C171.658 130.731 171.686 130.821 171.929 130.821C172.227 130.821 173.038 130.731 175.411 130.731C177.516 130.731 178.238 130.821 178.446 130.821C178.658 130.821 178.778 130.791 178.778 130.7C178.778 130.64 178.868 130.578 178.479 130.491C177.395 130.244 176.476 129.518 176.464 126.476V112.063L179.573 112.072C181.827 112.072 181.837 112.862 182.7 114.504C182.894 114.784 183.232 114.618 183.21 114.323ZM198.161 127.131C198.071 127.131 197.984 127.191 197.891 127.281C195.602 129.762 188.122 130.246 187.534 128.66V121.242H192.415C194.059 121.252 194.261 121.89 194.896 123.466C194.958 123.555 195.137 123.615 195.199 123.615C195.318 123.615 195.318 123.315 195.318 123.134V118.021C195.318 117.721 195.318 117.54 195.169 117.54C195.079 117.54 195.017 117.601 194.958 117.691C194.555 118.521 194.331 119.797 192.415 119.792H187.534V111.86H193.002C196.117 111.983 195.724 114.254 195.664 114.588C195.602 114.92 196.117 115.013 196.179 114.649L196.788 110.503H184.228C183.958 110.503 183.597 110.503 183.597 110.682C183.597 110.774 183.687 110.803 183.806 110.863C184.89 111.404 185.16 112.426 185.16 113.567V127.475C185.16 128.887 184.859 129.949 183.448 130.339C183.057 130.429 182.905 130.579 182.905 130.7C182.905 130.791 183.027 130.791 183.328 130.791H196.202L198.251 127.639C198.313 127.489 198.313 127.368 198.313 127.279C198.313 127.189 198.252 127.131 198.161 127.131ZM212.234 127.704C206.674 130.519 203.949 129.58 203.51 129.023L203.517 113.569C203.517 112.398 204.062 111.226 205.084 110.925C205.234 110.895 205.293 110.805 205.293 110.685C205.293 110.534 204.905 110.534 204.783 110.534C204.094 110.534 203.007 110.655 202.318 110.655C201.206 110.655 200.241 110.534 199.88 110.534C199.492 110.534 199.401 110.534 199.401 110.714C199.401 110.834 199.491 110.865 199.609 110.924C200.662 111.315 201.115 112.607 201.115 113.568L201.139 126.99C201.139 128.402 200.928 129.949 199.515 130.339C199.124 130.429 198.975 130.579 198.975 130.7C198.975 130.791 199.096 130.791 199.395 130.791H210.816L212.594 128.063C212.82 127.7 212.52 127.46 212.234 127.704ZM221.279 119.1C219.137 118.316 214.756 117.284 214.858 114.8C214.982 111.893 217.222 111.166 219.463 111.226C221.704 111.287 224.247 114.194 224.672 115.406C224.854 115.799 225.127 115.708 225.155 115.406C225.155 113.77 224.854 112.225 224.672 111.468C224.612 111.044 224.247 111.014 224.095 111.135C223.946 111.257 223.339 111.196 222.946 110.892C222.552 110.589 220.644 110.074 219.493 110.074C218.341 110.074 213.162 111.347 213.042 115.042C212.905 119.219 215.283 120.009 217.04 120.735C218.796 121.461 224.49 122.492 224.49 125.884C224.49 129.701 221.524 130.063 219.706 130.063C217.889 130.063 215.101 129.821 213.467 125.459C213.163 124.49 212.559 124.914 212.739 125.641C212.98 126.488 213.587 129.335 214.192 130.305C215.344 131.032 217.16 131.456 219.886 131.336C222.611 131.213 226.125 128.973 226.125 125.157C226.125 121.34 223.097 119.767 221.279 119.1Z" fill="black"/>
<path fill-rule="evenodd" clip-rule="evenodd" d="M157.249 110.083C151.433 110.083 146.084 114.185 146.084 120.745C146.084 127.429 151.127 131.327 156.946 131.327C162.762 131.327 168.516 127.429 168.516 120.745C168.516 114.186 163.068 110.083 157.249 110.083ZM160.291 129.975C155.473 131.725 151.111 128.904 149.268 123.844C147.279 118.378 149.562 113.388 153.624 111.656C158.12 109.738 163.11 112.319 165.1 117.785C166.943 122.846 165.816 127.967 160.291 129.975Z" fill="black"/>
</svg>
