<svg width="197" height="141" viewBox="0 0 197 141" fill="none" xmlns="http://www.w3.org/2000/svg">
<path fill-rule="evenodd" clip-rule="evenodd" d="M98.3995 117.729C84.4124 112.004 73.775 103.857 66.7806 93.5103C61.1644 85.2022 57.8662 75.4592 56.9775 64.5509C55.544 46.9542 60.9289 31.9078 61.5759 30.1788C63.2185 29.393 77.5416 22.8428 98.3995 22.8428C119.257 22.8428 133.581 29.3927 135.223 30.1788C135.87 31.9078 141.255 46.9542 139.822 64.5505C138.933 75.4589 135.635 85.2022 130.019 93.5103C123.024 103.857 112.387 112.004 98.3995 117.729Z" fill="#633492"/>
<path fill-rule="evenodd" clip-rule="evenodd" d="M98.3995 115.531C85.1689 109.98 75.0995 102.192 68.4621 92.3732C63.0434 84.3582 59.8602 74.9417 58.9999 64.3855C57.7291 48.792 61.9519 35.2508 63.1973 31.6669C66.6371 30.1407 79.8575 24.8721 98.3995 24.8721C116.941 24.8721 130.162 30.1407 133.602 31.6669C134.847 35.2504 139.069 48.7916 137.799 64.3855C136.939 74.9417 133.755 84.3579 128.337 92.3732C121.699 102.192 111.629 109.981 98.3995 115.531ZM98.3995 113.326C85.9266 107.955 76.4233 100.527 70.1433 91.237C64.9228 83.5144 61.8545 74.4248 61.0231 64.2211C59.8721 50.094 63.3347 37.7196 64.8311 33.1731C69.2299 31.325 81.5324 26.9016 98.3998 26.9016C115.267 26.9016 127.569 31.3243 131.969 33.1728C133.465 37.7192 136.928 50.094 135.777 64.2207C134.945 74.4248 131.876 83.5144 126.656 91.2367C120.376 100.527 110.872 107.956 98.4002 113.326" fill="white"/>
<path fill-rule="evenodd" clip-rule="evenodd" d="M80.7017 89.4684C80.3988 89.1725 80.0407 88.9371 79.6376 88.7691C79.2331 88.5997 78.7942 88.5146 78.3324 88.5146C77.871 88.5146 77.4317 88.5997 77.0269 88.7691C76.6241 88.9371 76.266 89.1725 75.9631 89.4684C75.6602 89.7643 75.4191 90.1143 75.2472 90.5079C75.0743 90.9029 74.9868 91.332 74.9868 91.7836C74.9868 92.2352 75.0747 92.664 75.2472 93.059C75.4191 93.4522 75.6594 93.8019 75.9631 94.0985C76.266 94.3944 76.6241 94.6298 77.0269 94.7982C77.431 94.9672 77.8703 95.0526 78.3324 95.0526C78.7942 95.0526 79.2335 94.9672 79.6376 94.7982C80.0407 94.6298 80.3984 94.3944 80.7017 94.0985C81.0043 93.8029 81.245 93.4529 81.4176 93.059C81.5905 92.6636 81.678 92.2345 81.678 91.7836C81.678 91.3327 81.5905 90.9037 81.4176 90.5079C81.2447 90.114 81.004 89.764 80.7017 89.4684ZM80.5791 91.7836C80.5791 92.0975 80.5207 92.3948 80.4058 92.6654C80.2913 92.9363 80.13 93.1739 79.9272 93.3714C79.7237 93.5699 79.4819 93.7288 79.2085 93.843C78.6656 94.0714 77.9989 94.0714 77.4563 93.843C77.1829 93.7284 76.9411 93.5699 76.7376 93.371C76.5349 93.1739 76.3739 92.9363 76.2593 92.6654C76.1448 92.3948 76.0864 92.0982 76.0864 91.7836C76.0864 91.4691 76.1448 91.1718 76.2593 90.9015C76.3739 90.6313 76.5348 90.3934 76.738 90.1955C76.9418 89.9973 77.1832 89.8385 77.4566 89.7239C77.7283 89.6097 78.0235 89.5517 78.3328 89.5517C78.642 89.5517 78.9369 89.6097 79.2085 89.7239C79.4816 89.8385 79.723 89.997 79.9272 90.1955C80.13 90.393 80.2913 90.6306 80.4058 90.9012C80.5204 91.1725 80.5787 91.4691 80.5787 91.7836H80.5791Z" fill="white"/>
<path fill-rule="evenodd" clip-rule="evenodd" d="M86.8151 92.5384C87.4972 92.1529 87.8311 91.4946 87.8311 90.7493C87.8311 89.5548 87.0527 88.5869 85.6048 88.5869H83.2847V94.9797H84.3836V89.6507H85.5429C86.1495 89.6507 86.6412 90.1423 86.6412 90.7489C86.6412 91.3551 86.1495 91.8471 85.5429 91.8471H84.7006L87.2916 94.9794H88.7705L86.8151 92.538" fill="white"/>
<path fill-rule="evenodd" clip-rule="evenodd" d="M94.4529 93.9536H91.2001V88.5557H90.1016V94.9457H93.9188L94.4529 93.9536Z" fill="white"/>
<path fill-rule="evenodd" clip-rule="evenodd" d="M98.6908 88.1172L95.4404 94.9451H96.6511L98.6908 90.6046L99.3508 92.0029H98.6908L98.2308 92.995H99.8203L100.73 94.9454H101.941L98.6908 88.1172Z" fill="white"/>
<path fill-rule="evenodd" clip-rule="evenodd" d="M103.154 91.0406L107.379 95.1309V88.7866H106.169V92.4383L102.122 88.3477V92.7426L103.154 94.6923V91.0403" fill="white"/>
<path fill-rule="evenodd" clip-rule="evenodd" d="M113.156 89.5038C112.862 89.2198 112.511 88.9939 112.11 88.8315C111.709 88.6691 111.272 88.5869 110.811 88.5869H108.646V94.9801H110.811C111.272 94.9801 111.709 94.8975 112.11 94.7351C112.511 94.5728 112.862 94.3468 113.156 94.0629C113.45 93.7786 113.685 93.438 113.854 93.05C114.024 92.661 114.11 92.2347 114.11 91.7835C114.11 91.3319 114.024 90.9063 113.854 90.517C113.685 90.1286 113.45 89.7881 113.156 89.5038ZM109.745 89.579H110.702C111.019 89.579 111.32 89.6359 111.598 89.748C111.877 89.8605 112.125 90.0172 112.335 90.214C112.543 90.4094 112.71 90.6452 112.831 90.9144C112.95 91.1819 113.011 91.4742 113.011 91.7831C113.011 92.0977 112.95 92.3911 112.831 92.6561C112.711 92.9225 112.544 93.1565 112.335 93.3526C112.125 93.5491 111.877 93.7058 111.598 93.8186C111.321 93.9304 111.019 93.9873 110.702 93.9873H109.745V89.579Z" fill="white"/>
<path fill-rule="evenodd" clip-rule="evenodd" d="M121.551 90.5079C121.378 90.114 121.137 89.764 120.835 89.4684C120.532 89.1725 120.174 88.9371 119.771 88.7691C119.366 88.6 118.927 88.5146 118.466 88.5146C118.004 88.5146 117.565 88.6 117.16 88.7691C116.757 88.9371 116.399 89.1725 116.096 89.4684C115.793 89.7643 115.552 90.1143 115.381 90.5079C115.208 90.9029 115.12 91.332 115.12 91.7836C115.12 92.2352 115.208 92.664 115.381 93.059C115.553 93.4522 115.793 93.8019 116.096 94.0985C116.399 94.3944 116.757 94.6298 117.16 94.7982C117.564 94.9672 118.004 95.0526 118.465 95.0526C118.927 95.0526 119.367 94.9672 119.771 94.7982C120.174 94.6298 120.532 94.3944 120.835 94.0985C121.138 93.8029 121.378 93.4529 121.551 93.059C121.723 92.6636 121.811 92.2345 121.811 91.7836C121.812 91.3327 121.724 90.9037 121.551 90.5079ZM120.712 91.7836C120.712 92.0975 120.654 92.3948 120.539 92.6654C120.425 92.9363 120.263 93.1739 120.06 93.3714C119.856 93.5699 119.615 93.7288 119.342 93.843C118.799 94.0714 118.132 94.0714 117.589 93.843C117.315 93.7284 117.074 93.5699 116.871 93.371C116.668 93.1739 116.507 92.9363 116.392 92.6654C116.278 92.3948 116.219 92.0982 116.219 91.7836C116.219 91.4691 116.277 91.1718 116.392 90.9015C116.507 90.6313 116.668 90.3934 116.871 90.1955C117.074 89.9973 117.316 89.8385 117.59 89.7239C117.861 89.6097 118.156 89.5517 118.466 89.5517C118.775 89.5517 119.07 89.6097 119.342 89.7239C119.615 89.8385 119.857 89.997 120.061 90.1955C120.264 90.393 120.425 90.6306 120.539 90.9012C120.654 91.1725 120.712 91.4691 120.712 91.7836H120.712Z" fill="white"/>
<path fill-rule="evenodd" clip-rule="evenodd" d="M93.7801 101.393C93.6964 101.52 93.6009 101.637 93.4926 101.743C93.2888 101.941 93.0474 102.1 92.774 102.214C92.231 102.443 91.5643 102.443 91.0217 102.214C90.748 102.1 90.5062 101.941 90.3031 101.743C90.0999 101.545 89.939 101.308 89.8244 101.037C89.7099 100.766 89.6515 100.469 89.6515 100.155C89.6515 99.8405 89.7099 99.5436 89.8244 99.273C89.939 99.0027 90.1003 98.7648 90.3031 98.567C90.5069 98.3688 90.7487 98.2099 91.0217 98.0954C91.2934 97.9811 91.5882 97.9235 91.8978 97.9235C92.2071 97.9235 92.5023 97.9811 92.774 98.0954C93.047 98.2099 93.2881 98.3684 93.4926 98.567C93.6009 98.672 93.6964 98.7898 93.7801 98.9173V97.4477C93.6001 97.3289 93.4072 97.2259 93.203 97.1405C92.7985 96.9715 92.3596 96.8857 91.8978 96.8857C91.4364 96.8857 90.9971 96.9715 90.5926 97.1405C90.1896 97.3089 89.8318 97.5443 89.5285 97.8402C89.2256 98.1358 88.9845 98.4858 88.8127 98.879C88.6398 99.2744 88.5522 99.7031 88.5522 100.155C88.5522 100.606 88.6401 101.036 88.8127 101.431C88.9849 101.824 89.2256 102.174 89.5285 102.47C89.8311 102.766 90.1895 103.001 90.5923 103.17C90.9961 103.339 91.4357 103.424 91.8978 103.424C92.3593 103.424 92.7989 103.339 93.203 103.17C93.4076 103.085 93.5998 102.981 93.7797 102.862L93.7801 101.393Z" fill="white"/>
<path fill-rule="evenodd" clip-rule="evenodd" d="M95.3687 96.8857H96.4679V103.279H95.3687V96.8857Z" fill="white"/>
<path fill-rule="evenodd" clip-rule="evenodd" d="M102.099 96.8516H97.8286V97.8433H99.6023V103.242H100.7V97.8433H102.756L102.1 96.8516" fill="white"/>
<path fill-rule="evenodd" clip-rule="evenodd" d="M107.898 96.8857L106.189 99.3211L104.481 96.8857H103.183C103.218 96.9585 105.64 100.471 105.64 100.471V103.279H106.739V100.471L109.219 96.8857H107.898Z" fill="white"/>
<path fill-rule="evenodd" clip-rule="evenodd" d="M119.123 59.7321C126.189 59.3508 125.956 55.1966 125.956 55.1966C121.817 57.0093 120.422 53.9202 118.728 53.5758C124.566 51.5695 123.7 47.1704 123.7 47.1704C121.428 50.1062 117.999 47.5053 116.329 47.7583C121.027 44.6362 119.22 40.2283 119.22 40.2283C118.34 43.5356 112.56 42.5551 112.56 42.5551C115.758 37.8358 112.91 34.6283 112.91 34.6283C113.149 38.1099 107.078 39.0092 107.078 39.0092C108.653 32.8409 105.122 31.2848 105.122 31.2848C105.821 34.2185 101.737 36.54 101.737 36.54L98.4001 30.0312L95.0623 36.54C95.0623 36.54 90.9787 34.2185 91.6777 31.2848C91.6777 31.2848 88.1469 32.8409 89.7216 39.0092C89.7216 39.0092 83.6511 38.1102 83.8901 34.6283C83.8901 34.6283 81.0417 37.8361 84.2394 42.5551C84.2394 42.5551 78.4601 43.5352 77.5791 40.2283C77.5791 40.2283 75.7728 44.6359 80.4707 47.7583C78.801 47.5053 75.3707 50.1062 73.0998 47.1704C73.0998 47.1704 72.2332 51.5695 78.0718 53.5758C76.3779 53.9202 74.9835 57.0096 70.8437 55.1966C70.8437 55.1966 70.611 59.3508 77.6765 59.7321C75.1451 61.2197 75.6884 64.1422 71.0464 63.6478C71.0464 63.6478 72.5685 67.4569 78.8267 65.8147C76.9065 67.834 77.9017 70.4532 73.575 71.2706C73.575 71.2706 76.3966 74.7086 81.8184 71.1929C80.8063 73.0843 82.2278 75.9386 78.4271 77.8261C78.4271 77.8261 82.3592 80.1192 86.4941 75.2115C86.3107 78.1705 88.1202 80.3936 85.2353 82.9299C85.2353 82.9299 89.5811 84.1135 92.1286 78.0264C92.5777 80.5908 95.043 81.643 93.0816 85.6942C93.0816 85.6942 96.3299 85.9444 98.4001 80.6379C100.47 85.9444 103.718 85.6942 103.718 85.6942C101.757 81.6433 104.222 80.5911 104.671 78.0264C107.219 84.1138 111.565 82.9299 111.565 82.9299C108.68 80.3936 110.489 78.1705 110.306 75.2115C114.441 80.1188 118.373 77.8261 118.373 77.8261C114.572 75.9382 115.994 73.0843 114.982 71.1929C120.403 74.7086 123.225 71.2706 123.225 71.2706C118.899 70.4535 119.894 67.834 117.973 65.8147C124.231 67.4565 125.754 63.6478 125.754 63.6478C121.112 64.1419 121.655 61.2197 119.123 59.7321M88.8835 42.5723C91.7023 42.5723 91.4595 40.392 91.1565 39.8842C91.1565 39.8842 93.5055 39.9889 95.4756 41.4375C95.4756 41.4375 97.8249 38.7495 98.4005 36.5987C98.9765 38.7491 101.325 41.4375 101.325 41.4375C103.295 39.9889 105.644 39.8842 105.644 39.8842C105.341 40.392 105.098 42.5723 107.917 42.5723C110.736 42.5723 111.326 43.4983 111.326 43.4983C110.509 43.3345 109.357 43.1697 106.311 44.2005C103.265 45.2308 103.932 42.5723 103.932 42.5723C99.6126 42.8861 98.4008 45.2969 98.4008 45.2969C98.4008 45.2969 97.1888 42.8858 92.8697 42.5723C92.8697 42.5723 93.5364 45.2308 90.4909 44.2005C87.4447 43.1697 86.2931 43.3345 85.475 43.4983C85.475 43.498 86.0657 42.5723 88.8845 42.5723H88.8835ZM100.203 62.7892C99.0211 63.5065 98.4001 64.5256 98.4001 64.5256C98.4001 64.5256 97.7785 63.5065 96.597 62.7892C96.597 62.7892 96.7333 61.9493 96.4374 61.8938C96.1422 61.8379 95.2781 61.8713 95.2781 61.8713C95.2781 61.8713 93.9029 61.3115 93.6643 60.1911C93.6643 60.1911 94.4143 60.4041 95.4144 60.0906C96.4146 59.7768 96.8236 60.1356 97.1417 60.2698C97.4597 60.4044 97.7936 60.4491 98.3998 60.4491C99.006 60.4491 99.3395 60.4041 99.6579 60.2698C99.9759 60.1356 100.385 59.7771 101.385 60.0906C102.386 60.4041 103.136 60.1911 103.136 60.1911C102.897 61.3115 101.522 61.8713 101.522 61.8713C101.522 61.8713 100.658 61.8379 100.363 61.8938C100.067 61.9493 100.203 62.7892 100.203 62.7892ZM93.7631 53.9821C92.293 53.9519 88.5503 53.6834 88.414 50.8157V50.7412C88.414 50.7412 90.4874 50.4133 91.2781 50.7412C92.7176 51.3387 93.9599 54.0717 96.2937 52.0253C96.2937 52.0253 94.733 55.4757 93.7631 57.1927C93.7631 57.1927 95.2331 54.0116 93.7631 53.9821ZM103.037 53.9821C101.567 54.012 103.037 57.1927 103.037 57.1927C102.067 55.4753 100.507 52.0253 100.507 52.0253C102.84 54.0717 104.083 51.339 105.523 50.7412C106.313 50.4133 108.387 50.7412 108.387 50.7412V50.8157C108.25 53.6834 104.507 53.9519 103.037 53.9821ZM114.16 63.0472C109.932 62.2182 108.25 64.145 108.25 64.145C111.001 64.5256 112.179 67.763 112.179 67.763C110.163 66.5309 107.932 66.8113 107.932 66.8113C110.659 73.6771 101.578 75.2674 98.3998 79.042C95.2211 75.2674 86.1406 73.6768 88.868 66.8113C88.868 66.8113 86.6365 66.5312 84.621 67.763C84.621 67.763 85.7994 64.526 88.5496 64.145C88.5496 64.145 86.8674 62.2185 82.6397 63.0472C82.6397 63.0472 84.8445 60.4487 87.5948 60.9411C87.5948 60.9411 86.1852 58.4997 82.1168 58.253C82.1168 58.253 82.776 57.3793 85.1854 57.2001C85.1854 57.2001 83.3517 55.1165 84.1849 51.2933C84.1849 51.2933 82.7606 50.1737 83.2758 46.8284C83.2758 46.8284 83.8131 49.5415 84.958 49.203C85.7537 48.9676 85.39 47.9744 84.7648 48.0493C84.7648 48.0493 84.9464 47.3102 86.1167 46.8284C87.2877 46.347 87.5945 46.3023 87.5488 45.3725C87.5488 45.3725 88.3785 45.0253 88.674 45.8205C88.9696 46.6158 88.1627 46.9968 87.7533 47.0748C87.3442 47.1535 86.776 47.3215 86.5261 47.792C86.5261 47.792 87.3899 48.0834 86.7078 48.8449C86.026 49.6065 83.5485 55.3189 89.3678 59.2841C89.3678 59.2841 89.2314 61.1206 91.2999 62.8458C91.2999 62.8458 90.4133 62.7636 90.2583 62.8008C90.1029 62.8381 90.0499 64.5109 90.2583 64.5706C90.4667 64.6303 93.7093 64.5706 93.7093 64.5706C93.7093 64.5706 90.4435 65.5564 90.3159 65.672C90.1883 65.7876 90.3532 66.6616 90.4589 66.676C90.5651 66.6908 93.2092 65.8923 94.5735 65.8027C94.5735 65.8027 91.4819 67.2137 90.959 67.6393C90.959 67.6393 91.4588 68.7371 92.1409 69.1177C92.1409 69.1177 96.6114 67.5047 98.3994 66.0487C100.188 67.5047 104.658 69.1177 104.658 69.1177C105.34 68.7368 105.84 67.6393 105.84 67.6393C105.317 67.2137 102.226 65.8027 102.226 65.8027C103.59 65.8923 106.235 66.6911 106.34 66.676C106.446 66.6612 106.611 65.7876 106.483 65.672C106.355 65.5564 103.09 64.5706 103.09 64.5706C103.09 64.5706 106.333 64.6303 106.541 64.5706C106.749 64.5109 106.696 62.8381 106.541 62.8008C106.386 62.7636 105.499 62.8458 105.499 62.8458C107.568 61.1206 107.431 59.2841 107.431 59.2841C113.251 55.3193 110.773 49.6065 110.091 48.8449C109.409 48.083 110.273 47.792 110.273 47.792C110.023 47.3215 109.455 47.1535 109.046 47.0748C108.637 46.9968 107.83 46.6158 108.125 45.8205C108.421 45.0253 109.25 45.3725 109.25 45.3725C109.205 46.3023 109.512 46.347 110.682 46.8284C111.853 47.3102 112.035 48.0493 112.035 48.0493C111.41 47.9744 111.046 48.9676 111.842 49.203C112.986 49.5411 113.524 46.8284 113.524 46.8284C114.039 50.174 112.615 51.2933 112.615 51.2933C113.448 55.1165 111.615 57.2001 111.615 57.2001C114.024 57.3793 114.683 58.253 114.683 58.253C110.614 58.4997 109.205 60.9411 109.205 60.9411C111.956 60.4484 114.161 63.0472 114.161 63.0472H114.16Z" fill="#FDE192"/>
<path fill-rule="evenodd" clip-rule="evenodd" d="M98.3999 68.4443C98.3999 68.4443 93.3632 68.6475 92.6414 70.283C92.5089 70.5828 92.6414 72.7251 92.6414 72.7251C92.6414 72.7251 93.0656 72.8147 93.3991 72.5831C93.3991 72.5831 93.346 73.5313 94.0355 74.0092C94.7247 74.4871 95.8085 75.1591 95.8313 75.1591C95.8542 75.1591 96.4906 74.6811 96.8543 74.6512C97.2177 74.6214 98.0059 75.9951 98.4002 76.3834C98.7942 75.9951 99.5821 74.6214 99.9455 74.6512C100.31 74.6811 100.946 75.1591 100.969 75.1591C100.992 75.1591 102.075 74.4868 102.764 74.0092C103.454 73.5313 103.401 72.5831 103.401 72.5831C103.735 72.8147 104.159 72.7251 104.159 72.7251C104.159 72.7251 104.291 70.5831 104.159 70.283C103.437 68.6471 98.4006 68.4443 98.4006 68.4443" fill="#FDE192"/>
</svg>
