<svg width="219" height="35" viewBox="0 0 219 35" fill="none" xmlns="http://www.w3.org/2000/svg">
<g clip-path="url(#clip0_364_252)">
<path d="M12.7622 17.3866C14.1957 12.0319 12.5608 6.42077 8.65042 3.44723C3.32365 6.80015 0.252077 13.1044 1.36155 19.6724C1.72712 21.8438 2.51899 23.8392 3.6338 25.5877C7.79886 24.4348 11.4609 22.2518 12.7622 17.3866ZM19.9519 32.8393C28.7436 31.3716 34.6714 23.0953 33.1943 14.3569C31.9654 7.08309 26.0013 1.78243 18.9682 1.05017C17.5486 0.901812 16.0821 0.942081 14.6028 1.18793C12.8496 1.48041 11.2147 2.04736 9.72579 2.8326C17.474 5.44584 21.6401 9.41763 21.929 13.488C22.0707 16.0005 20.8962 17.8179 19.353 19.2994L30.3092 18.5385C30.6193 18.5174 30.7163 18.8766 30.3412 18.9836L4.20825 26.4334C6.86844 30.0766 10.9994 32.5002 15.5876 32.9771C17.0072 33.1254 18.4737 33.0873 19.9519 32.8393ZM19.0695 0.0932544C27.6756 0.984469 34.3879 8.21592 34.3911 17.0083C34.3943 26.4037 26.7356 34.0241 17.2854 34.0272C7.8351 34.0304 0.172144 26.4164 0.168946 17.02C0.165749 7.62354 7.82337 0.00317919 17.2736 0C17.879 0 18.479 0.032851 19.0695 0.0932544Z" fill="white"/>
<path d="M1.36176 19.6727C1.72732 21.843 2.51919 23.8384 3.634 25.587C7.79907 24.434 11.4611 22.251 12.7635 17.3859C14.1959 12.0312 12.561 6.42 8.64956 3.44646C3.32386 6.79938 0.252281 13.1046 1.36176 19.6727ZM33.1945 14.3551C34.6716 23.0945 28.7438 31.3708 19.9521 32.8385C18.4739 33.0865 17.0074 33.1247 15.5867 32.9763C11.0007 32.4994 6.86757 30.0759 4.20845 26.4326L30.3414 18.9828C30.7165 18.8748 30.6195 18.5166 30.3094 18.5378L19.3532 19.2986C20.8964 17.8172 22.0709 15.9998 21.9292 13.4872C21.6403 9.41686 17.4742 5.44507 9.726 2.83183C11.2149 2.04659 12.8498 1.47964 14.603 1.18716C16.0823 0.941311 17.5488 0.901042 18.9684 1.0494C26.0015 1.78166 31.9656 7.08232 33.1945 14.3551Z" fill="#C70A0C"/>
<path d="M123.017 23.6861V18.0919H117.376V23.6861H114.28V10.3613H117.376V15.6694H123.017V10.3613H126.137V23.6861H123.017Z" fill="white"/>
<path d="M56.2842 10.3613V18.7034C56.2842 19.6253 56.4206 20.4233 56.6902 21.0718C56.9577 21.715 57.3457 22.2502 57.8434 22.6614C58.3454 23.0768 58.9518 23.383 59.6435 23.5717C60.3469 23.7645 61.1409 23.8631 62.0032 23.8631C62.8643 23.8631 63.6508 23.7645 64.3393 23.5717C65.0172 23.383 65.5948 23.0778 66.0584 22.6656C66.521 22.2544 66.8844 21.7193 67.1381 21.075C67.3939 20.4286 67.5218 19.6306 67.5218 18.7034V10.3613H64.625V18.6143C64.625 19.4547 64.415 20.134 64.0015 20.632C63.5784 21.1396 62.9059 21.3971 62.0032 21.3971C61.1154 21.3971 60.4482 21.1407 60.0176 20.6341C59.5956 20.1371 59.3813 19.4579 59.3813 18.6143V10.3613H56.2842Z" fill="white"/>
<path d="M47.3531 23.6882V12.8495H43.7124V10.3613H54.1123V11.5546C54.1123 12.2688 53.5293 12.8495 52.811 12.8495H50.4503V23.6882H47.3531Z" fill="white"/>
<path d="M97.1221 10.3613H100.219V23.6861H97.1221V10.3613Z" fill="white"/>
<path d="M86.8082 17.4734L86.9127 17.6058L90.8688 22.6744C91.3719 23.3198 92.1318 23.6907 92.9535 23.6907H95.4197L89.7519 16.5228L89.6688 16.4168L89.7519 16.3119L94.4115 10.3574H91.1886L86.9159 16.101L86.8082 16.2399L86.8071 15.9993V10.3574H83.71V23.6833H86.8071V17.7107L86.8082 17.4734Z" fill="white"/>
<path d="M73.4798 16.46H75.2852C75.9353 16.46 76.4309 16.2819 76.7571 15.9333C77.08 15.5878 77.2441 15.1385 77.2441 14.5991C77.2441 14.0459 77.0843 13.5913 76.7699 13.2459C76.4501 12.894 75.9513 12.7171 75.2852 12.7171H73.4798V16.46ZM79.673 23.684C78.7554 23.684 77.8911 23.1997 77.4168 22.4198L75.0071 18.4639H73.4798V23.684H70.3848V10.3613H75.9034C77.3209 10.3613 78.4314 10.729 79.203 11.4549C79.9725 12.1787 80.3626 13.1706 80.3626 14.402C80.3626 15.0272 80.1953 15.6609 79.8649 16.2851C79.5387 16.8987 78.9611 17.401 78.1458 17.7772L77.9667 17.8598L81.7268 23.684H79.673Z" fill="white"/>
<path d="M102.761 23.1198V20.5649C103.747 21.0163 105.017 21.4667 106.33 21.4667C107.841 21.4667 108.608 20.9517 108.608 19.964C108.608 18.8047 107.579 18.6765 105.52 17.7959C104.119 17.1738 102.783 16.2074 102.783 13.9756C102.783 11.3783 104.776 10.1543 107.535 10.1543C109.002 10.1543 110.251 10.4976 110.951 10.7552V13.2455C110.251 12.9233 109.002 12.5365 107.754 12.5365C106.396 12.5365 105.761 13.0303 105.761 13.8887C105.761 14.7905 106.528 15.0703 107.907 15.5853C109.681 16.4649 111.74 16.8517 111.74 19.857C111.74 22.4543 109.66 23.8712 106.878 23.8712C105.169 23.8712 103.813 23.5702 102.761 23.1198Z" fill="white"/>
<path d="M198.421 23.6852V10.3594H206.813V11.5685C206.813 12.2743 206.235 12.8476 205.526 12.8476H201.518V15.7141H206.019V17.9384H201.518V21.1981H206.813V23.6852H198.421Z" fill="white"/>
<path d="M167.803 23.6841V10.3594H169.308C170.185 10.3594 170.899 11.0694 170.899 11.9415V21.2839H175.842V23.6841H167.803Z" fill="white"/>
<path d="M148.633 23.6815V10.3652H151.73L151.729 23.6815H148.633Z" fill="white"/>
<path d="M157.665 16.4589H159.471C160.121 16.4589 160.615 16.2819 160.943 15.9333C161.266 15.5868 161.43 15.1385 161.43 14.598C161.43 14.0459 161.27 13.5903 160.954 13.2448C160.636 12.894 160.136 12.716 159.471 12.716H157.665V16.4589ZM163.859 23.6829C162.941 23.6829 162.076 23.1986 161.601 22.4198L159.193 18.4639H157.665V23.6829H154.57V10.3613H160.088C161.506 10.3613 162.616 10.729 163.389 11.4549C164.158 12.1787 164.548 13.1706 164.548 14.402C164.548 15.0272 164.381 15.6609 164.049 16.2851C163.724 16.8976 163.146 17.3999 162.331 17.7772L162.152 17.8598L165.912 23.6829H163.859Z" fill="white"/>
<path d="M137.989 18.8307L139.205 15.4629C139.475 14.7052 139.746 13.9052 139.926 13.316H139.971C140.128 13.9264 140.399 14.684 140.669 15.4629L141.84 18.8307H137.989ZM141.816 10.3594H138.259L133.205 23.6852H135.436C136.003 23.6852 136.503 23.326 136.68 22.7919L137.199 21.2277H142.634L143.429 23.6852H146.784L141.816 10.3594Z" fill="white"/>
<path d="M209.3 23.1198V20.5659C210.285 21.0163 211.555 21.4667 212.87 21.4667C214.381 21.4667 215.147 20.9517 215.147 19.964C215.147 18.8047 214.118 18.6765 212.06 17.7969C210.658 17.1738 209.322 16.2084 209.322 13.9756C209.322 11.3783 211.315 10.1543 214.074 10.1543C215.541 10.1543 216.79 10.4976 217.491 10.7552V13.2455C216.79 12.9244 215.541 12.5376 214.293 12.5376C212.936 12.5376 212.3 13.0314 212.3 13.8898C212.3 14.7905 213.067 15.0703 214.446 15.5853C216.22 16.4649 218.278 16.8517 218.278 19.857C218.278 22.4543 216.198 23.8712 213.417 23.8712C211.709 23.8712 210.351 23.5702 209.3 23.1198Z" fill="white"/>
<path d="M183.768 10.3613H185.687C186.598 10.3613 187.446 10.8287 187.927 11.598L191.665 17.5684C192.087 18.2318 192.576 19.1082 192.866 19.7281H192.932C192.887 19.1294 192.866 18.2954 192.866 17.6966V10.3613H195.58V23.685H192.184L187.638 16.4769C187.215 15.8146 186.771 15.023 186.459 14.4243H186.415C186.437 15.0018 186.481 15.6864 186.481 16.3275V23.685H183.768V10.3613Z" fill="white"/>
<path d="M177.835 23.6815V10.3652H180.932V23.6815H177.835Z" fill="white"/>
</g>
<defs>
<clipPath id="clip0_364_252">
<rect width="218.447" height="34.3624" fill="white"/>
</clipPath>
</defs>
</svg>
