<svg width="122" height="60" viewBox="0 0 122 60" fill="none" xmlns="http://www.w3.org/2000/svg">
<path d="M112.689 41.6028C111.163 40.8059 110.925 38.5541 110.959 33.0774L110.993 24.6842L108.077 24.6808L108.755 23.1277H110.993V19.1532L116.351 17.166V22.9954L118.827 22.9988L118.182 24.7216L116.351 24.7182V39.2425C116.453 40.4125 116.86 41.1009 117.403 41.6028H112.689Z" fill="white"/>
<path d="M59.8882 5.71402C60.2951 6.8365 61.2446 7.99628 60.5664 9.29849C60.2612 10.6211 59.0065 11.6927 57.6839 11.9063C56.2936 12.0318 55.0049 11.7978 53.9536 10.9602C53.2415 7.14171 54.8014 3.60811 57.8196 1.5022L59.8882 5.71402Z" fill="white"/>
<mask id="mask0_203_188" style="mask-type:luminance" maskUnits="userSpaceOnUse" x="0" y="0" width="122" height="60">
<path d="M0 60H121.913V0H0V60Z" fill="white"/>
</mask>
<g mask="url(#mask0_203_188)">
<path d="M65.2123 17.3492C64.534 19.6586 57.7177 18.1428 55.5813 14.3514C58.396 14.6634 61.5498 12.1743 61.6176 9.33589L65.2123 17.3492Z" fill="white"/>
</g>
<mask id="mask1_203_188" style="mask-type:luminance" maskUnits="userSpaceOnUse" x="0" y="0" width="122" height="60">
<path d="M0 60H121.913V0H0V60Z" fill="white"/>
</mask>
<g mask="url(#mask1_203_188)">
<path d="M68.027 17.0508C68.3322 16.9117 68.9426 16.5998 69.1122 15.9317L61.7872 -3.05176e-05C61.2786 -0.0610714 60.9395 -0.105162 60.2952 0.339083L68.027 17.0508Z" fill="white"/>
</g>
<path d="M71.3164 13.5917C74.4363 8.86096 71.8251 1.09857 65.0767 0.0100098L71.3164 13.5917Z" fill="white"/>
<path d="M70.6382 23.7754C71.6216 22.9479 73.3511 22.931 74.4702 23.46C74.945 23.6974 75.3858 24.0128 75.691 24.4265L73.5207 27.7905C73.2494 27.5735 73.0459 27.4751 72.7068 27.2988C71.6216 26.8342 70.5025 27.1055 69.8582 27.6922V37.5096C69.8243 39.2086 70.1295 40.7584 71.0112 41.5621H66.094C65.0427 40.7753 64.8054 39.5172 64.7036 38.4151L64.6697 25.3591C64.7036 24.301 64.4323 23.8364 64.0254 23.243L69.1122 23.2633C69.5191 23.5583 69.553 24.0704 69.7565 24.4638L70.6382 23.7754Z" fill="white"/>
<path d="M76.8441 27.0038C76.8102 25.7626 77.0815 24.2773 76.2676 23.2057H80.9813C81.3204 23.4431 81.49 23.8364 81.5917 24.2095C81.863 24.5418 81.8291 25.0166 81.9308 25.4099L81.9986 39.3205C82.1682 40.148 82.5073 40.9822 83.1177 41.6333L78.0649 41.6435C76.4032 40.0429 76.9458 37.4113 76.8102 34.695L76.8441 27.0038Z" fill="white"/>
<path d="M84.3386 27.1394C84.8472 25.7253 86.4411 25.0165 87.5941 24.2467C89.3575 23.599 91.3244 21.9848 93.2913 23.304C94.9529 24.3857 96.4111 25.6066 97.4624 27.2784C97.6998 27.9261 97.8354 28.6552 98.005 29.3436C98.005 30.2694 98.2084 30.9578 98.1745 31.8836C98.2424 32.8874 98.2424 33.7929 98.1745 34.7763C98.1067 36.4481 97.3268 37.9436 96.0042 39.1034C94.0373 40.8567 91.5618 42.8439 88.8827 41.484C86.475 40.3615 83.6603 38.1403 83.8299 35.0883C83.7282 32.9247 83.6264 31.0562 83.9316 28.9503C84.0334 28.3398 83.9994 27.6718 84.3386 27.1394ZM89.2558 36.9772C89.4931 37.8453 89.934 38.9067 90.9853 39.0254C91.5957 39.0458 92.0365 38.5337 92.4096 38.0997C93.4947 35.9361 93.3252 33.5758 93.3252 31.1138C92.9861 29.286 93.4269 26.7867 91.46 25.6642C90.7479 25.4099 90.2392 25.8812 89.7983 26.3153C89.0184 27.4751 88.9506 28.8044 88.8827 30.2796C88.6453 32.6399 88.9166 34.5966 89.2558 36.9772Z" fill="white"/>
<path d="M101.667 41.6028C100.141 40.8059 99.904 38.5541 99.9379 33.0774L99.9718 24.6842L97.0894 24.6808L97.7337 23.1277H99.9718V19.1532L105.364 17.166V22.9954L107.805 22.9988L107.161 24.7216L105.364 24.7182V39.2425C105.466 40.4125 105.872 41.1009 106.415 41.6028H101.667Z" fill="white"/>
<path d="M52.5633 25.3591C52.5294 24.301 52.3259 23.8364 51.9189 23.243L57.0057 23.2633C57.4126 23.5583 57.4465 24.0704 57.65 24.4638L58.5317 23.7754C59.5152 22.9479 61.2447 22.931 62.3637 23.46C62.8385 23.6974 63.2794 24.0128 63.5846 24.4265L61.4142 27.7905C61.1429 27.5735 60.9395 27.4751 60.6003 27.2988C59.5152 26.8342 58.3961 27.1055 57.7518 27.6922V37.5096C57.7178 39.2086 58.0231 40.7584 58.9047 41.5621H53.9875C52.9702 40.7753 52.665 39.6054 52.5972 38.4151L52.5633 25.3591Z" fill="white"/>
<path d="M14.0056 30.5238L12.1744 34.3355C10.8857 36.5838 9.12232 39.3408 6.40938 40.0258C5.35813 40.3921 4.4086 40.0598 3.39125 39.9885L0.101807 45.3636C0.3731 45.6281 0.712226 45.8485 1.05134 45.9773C6.81633 48.1816 9.15624 45.8112 14.8195 32.9552L20.2115 44.4072H27.3668L23.9757 36.6787L25.9086 32.684L31.1989 44.2309L38.049 44.275L26.0443 17.9324L20.5167 20.6758L24.8574 30.5068L22.9583 34.3694L15.023 17.2507L9.22406 20.2146L14.0056 30.5238Z" fill="white"/>
<path d="M36.0144 35.1697C36.15 33.2605 37.2013 31.4699 38.9647 30.5068C40.7281 29.4217 42.7628 28.991 44.594 28.0448C44.8992 27.7905 45.2723 27.4751 45.3062 27.0614C45.3401 26.5493 45.0688 26.156 44.6279 25.9796C41.8472 25.3896 39.5751 27.1191 37.5743 28.8316C37.8117 27.5735 38.0151 26.1967 38.6256 25.0165C38.8969 24.7012 39.1003 24.2671 39.4734 24.0331C41.4402 23.0666 43.8819 22.7919 46.0522 22.9479C47.8495 23.0666 49.5112 24.3451 50.1216 25.9796C50.4268 26.746 50.3929 27.6142 50.4607 28.4009L50.4947 39.0661C50.4947 39.9885 50.9355 40.8567 51.4781 41.6028H46.3913C45.7809 41.0534 45.4757 40.3616 45.3062 39.4968C43.8819 40.7583 40.8976 42.6269 39.1342 41.3857C37.303 40.5617 35.6074 37.7843 36.0144 35.1697ZM45.0349 31.4598C45.001 30.7205 44.4923 30.6425 44.1193 30.6425C42.8984 30.8188 41.8472 31.8396 41.2368 32.8874C40.7281 33.82 40.5924 34.6068 40.5585 35.424C40.5585 36.3057 40.4907 36.9602 40.8637 37.6283C41.0672 38.0624 41.4741 38.2591 41.915 38.3744C42.695 38.5337 43.4071 38.3167 44.0175 37.903C45.4757 37.0959 45.2044 35.4817 45.2383 34.0472L45.0349 31.4598Z" fill="white"/>
<path d="M118.047 40.0055C118.047 38.9136 118.928 38.1099 119.98 38.1099C121.031 38.1099 121.913 38.9136 121.913 40.0055C121.913 41.1043 121.031 41.908 119.98 41.908C118.928 41.908 118.047 41.1043 118.047 40.0055ZM119.98 41.5926C120.861 41.5926 121.54 40.9211 121.54 40.0055C121.54 39.1069 120.861 38.4252 119.98 38.4252C119.132 38.4252 118.42 39.1069 118.42 40.0055C118.42 40.9211 119.132 41.5926 119.98 41.5926ZM119.573 41.1043H119.268V38.9136H120.081C120.59 38.9136 120.861 39.1069 120.861 39.5375C120.861 39.9309 120.624 40.1005 120.285 40.1412L120.929 41.1043H120.556L119.98 40.1547H119.573V41.1043ZM119.98 39.8733C120.251 39.8733 120.522 39.8529 120.522 39.5172C120.522 39.2459 120.285 39.195 120.048 39.195H119.573V39.8733H119.98Z" fill="white"/>
</svg>
