<svg width="246" height="45" viewBox="0 0 246 45" fill="none" xmlns="http://www.w3.org/2000/svg">
<path d="M69.4801 43.7944H68.4752V36.0079H65.7559V35.1186H72.1995V36.0079H69.4801V43.7944ZM79.4707 35.1186C80.1801 35.1186 80.7712 35.1976 81.2245 35.3952C81.6974 35.5731 82.0324 35.83 82.2688 36.2055C82.5053 36.5612 82.6038 37.0158 82.6038 37.5889C82.6038 38.0435 82.525 38.4387 82.3477 38.7352C82.19 39.0316 81.9733 39.2885 81.6974 39.4861C81.4215 39.6838 81.1456 39.8221 80.8304 39.9209L83.195 43.8142H82.0324L79.9042 40.1976H78.111V43.8142H77.1061V35.1383H79.451L79.4707 35.1186ZM79.4116 35.9881H78.1307V39.328H79.5101C80.2195 39.328 80.7318 39.1897 81.0668 38.8933C81.4018 38.5968 81.5792 38.1818 81.5792 37.6087C81.5792 37.0355 81.4018 36.6008 81.0471 36.3636C80.6924 36.1265 80.1604 35.9881 79.4116 35.9881ZM93.6782 43.7944L92.6141 41.0474H89.146L88.0819 43.7944H87.0572L90.4465 35.079H91.3529L94.7225 43.7944H93.6782ZM92.3185 40.1383L91.3135 37.411C91.3135 37.411 91.2544 37.2134 91.1953 37.0553C91.1362 36.8972 91.0968 36.7193 91.0377 36.5415C90.9785 36.3636 90.9391 36.2253 90.8997 36.1265C90.8603 36.2846 90.8209 36.4427 90.7618 36.6205C90.7224 36.7786 90.683 36.9367 90.6239 37.0751C90.5844 37.2134 90.545 37.332 90.5056 37.411L89.481 40.1383H92.3185ZM106.329 43.7944H105.166L100.457 36.502H100.417C100.417 36.6996 100.437 36.917 100.457 37.1739C100.457 37.411 100.476 37.6877 100.496 37.9644C100.496 38.2411 100.496 38.5178 100.496 38.8142V43.7944H99.57V35.1186H100.733L105.442 42.3913H105.482C105.482 42.2529 105.482 42.0553 105.442 41.7984C105.442 41.5415 105.422 41.2648 105.403 40.9684C105.403 40.6719 105.403 40.3952 105.403 40.1383V35.1186H106.349V43.7944H106.329ZM117.206 41.4822C117.206 41.996 117.088 42.4308 116.812 42.8063C116.556 43.162 116.201 43.4387 115.748 43.6363C115.295 43.834 114.743 43.913 114.132 43.913C113.797 43.913 113.502 43.913 113.206 43.8735C112.91 43.834 112.654 43.7944 112.398 43.7351C112.162 43.6759 111.945 43.5968 111.748 43.5178V42.5494C112.043 42.668 112.398 42.7865 112.832 42.8853C113.265 42.9842 113.699 43.0434 114.172 43.0434C114.605 43.0434 114.98 42.9842 115.275 42.8656C115.571 42.747 115.807 42.5691 115.965 42.3517C116.122 42.1344 116.201 41.8577 116.201 41.5612C116.201 41.2648 116.142 41.0079 116.004 40.8103C115.866 40.6126 115.649 40.4348 115.354 40.2569C115.058 40.0988 114.645 39.9209 114.112 39.7233C113.738 39.585 113.423 39.4466 113.147 39.2885C112.871 39.1304 112.635 38.9525 112.438 38.7549C112.24 38.5573 112.103 38.3201 112.004 38.0632C111.905 37.8063 111.866 37.5099 111.866 37.1739C111.866 36.7193 111.984 36.3241 112.221 35.9881C112.457 35.6521 112.792 35.3952 113.206 35.2371C113.62 35.0593 114.112 34.9604 114.645 34.9604C115.098 34.9604 115.531 35 115.925 35.0988C116.319 35.1778 116.674 35.2964 117.009 35.4545L116.694 36.3241C116.379 36.1857 116.044 36.0869 115.709 35.9881C115.354 35.9091 114.999 35.8498 114.625 35.8498C114.25 35.8498 113.935 35.9091 113.679 36.0079C113.423 36.1067 113.226 36.2648 113.108 36.4624C112.97 36.6601 112.91 36.8972 112.91 37.1739C112.91 37.4703 112.97 37.7272 113.108 37.9249C113.245 38.1225 113.443 38.3004 113.718 38.4585C113.994 38.6166 114.369 38.7747 114.842 38.9525C115.354 39.1304 115.787 39.328 116.142 39.5454C116.497 39.7431 116.773 40 116.95 40.2964C117.127 40.5929 117.226 40.9684 117.226 41.4229L117.206 41.4822ZM124.872 35.1186C125.995 35.1186 126.803 35.3359 127.315 35.7707C127.827 36.2055 128.083 36.8379 128.083 37.6482C128.083 38.0237 128.024 38.3597 127.906 38.6956C127.788 39.0316 127.591 39.3083 127.335 39.5652C127.059 39.8221 126.704 40.0197 126.271 40.1581C125.837 40.2964 125.305 40.3755 124.674 40.3755H123.63V43.7944H122.625V35.1186H124.891H124.872ZM124.773 35.9881H123.61V39.5257H124.556C125.108 39.5257 125.561 39.4664 125.936 39.3478C126.31 39.2292 126.586 39.0316 126.763 38.7747C126.941 38.498 127.039 38.1423 127.039 37.7075C127.039 37.1344 126.862 36.6996 126.487 36.4229C126.113 36.1462 125.542 35.9881 124.773 35.9881ZM141.05 39.4466C141.05 40.1186 140.971 40.7312 140.793 41.2846C140.616 41.8379 140.38 42.2925 140.045 42.6877C139.71 43.083 139.296 43.3794 138.803 43.5968C138.311 43.8142 137.739 43.913 137.089 43.913C136.438 43.913 135.828 43.8142 135.335 43.5968C134.842 43.3794 134.429 43.083 134.094 42.6877C133.759 42.2925 133.522 41.8182 133.345 41.2648C133.187 40.7114 133.108 40.0988 133.108 39.4269C133.108 38.5375 133.246 37.7668 133.542 37.0948C133.837 36.4229 134.271 35.9091 134.862 35.5336C135.453 35.1581 136.202 34.9802 137.108 34.9802C138.015 34.9802 138.685 35.1581 139.276 35.5336C139.867 35.9091 140.301 36.4229 140.616 37.0948C140.912 37.7668 141.069 38.5375 141.069 39.4466H141.05ZM134.153 39.4466C134.153 40.1778 134.251 40.8102 134.468 41.3636C134.685 41.8972 135 42.3122 135.434 42.6087C135.867 42.9051 136.419 43.0434 137.089 43.0434C137.759 43.0434 138.311 42.9051 138.744 42.6087C139.178 42.3122 139.493 41.8972 139.69 41.3636C139.887 40.83 140.005 40.1976 140.005 39.4466C140.005 38.3201 139.769 37.4506 139.296 36.8182C138.823 36.1857 138.094 35.8695 137.108 35.8695C136.439 35.8695 135.887 36.0079 135.453 36.3043C135.02 36.6008 134.704 36.996 134.488 37.5296C134.271 38.0632 134.172 38.6956 134.172 39.4269L134.153 39.4466ZM148.951 35.1186C149.661 35.1186 150.252 35.1976 150.705 35.3952C151.178 35.5731 151.513 35.83 151.749 36.2055C151.986 36.5612 152.084 37.0158 152.084 37.5889C152.084 38.0435 152.006 38.4387 151.828 38.7352C151.671 39.0316 151.454 39.2885 151.178 39.4861C150.902 39.6838 150.626 39.8221 150.311 39.9209L152.676 43.8142H151.513L149.385 40.1976H147.592V43.8142H146.587V35.1383H148.932L148.951 35.1186ZM148.892 35.9881H147.611V39.328H148.991C149.7 39.328 150.212 39.1897 150.547 38.8933C150.882 38.5968 151.06 38.1818 151.06 37.6087C151.06 37.0355 150.882 36.6008 150.528 36.3636C150.173 36.1265 149.641 35.9881 148.892 35.9881ZM160.4 43.7944H159.395V36.0079H156.676V35.1186H163.119V36.0079H160.4V43.7944ZM179.731 41.4822C179.731 41.996 179.613 42.4308 179.337 42.8063C179.081 43.162 178.726 43.4387 178.273 43.6363C177.819 43.834 177.268 43.913 176.657 43.913C176.322 43.913 176.026 43.913 175.731 43.8735C175.435 43.834 175.179 43.7944 174.923 43.7351C174.686 43.6759 174.47 43.5968 174.273 43.5178V42.5494C174.568 42.668 174.923 42.7865 175.356 42.8853C175.79 42.9842 176.223 43.0434 176.696 43.0434C177.13 43.0434 177.504 42.9842 177.8 42.8656C178.095 42.747 178.332 42.5691 178.489 42.3517C178.647 42.1344 178.726 41.8577 178.726 41.5612C178.726 41.2648 178.667 41.0079 178.529 40.8103C178.391 40.6126 178.174 40.4348 177.879 40.2569C177.583 40.0988 177.169 39.9209 176.637 39.7233C176.263 39.585 175.947 39.4466 175.672 39.2885C175.396 39.1304 175.159 38.9525 174.962 38.7549C174.765 38.5573 174.627 38.3201 174.529 38.0632C174.43 37.8063 174.391 37.5099 174.391 37.1739C174.391 36.7193 174.509 36.3241 174.745 35.9881C174.982 35.6521 175.317 35.3952 175.731 35.2371C176.145 35.0593 176.637 34.9604 177.169 34.9604C177.622 34.9604 178.056 35 178.45 35.0988C178.844 35.1778 179.199 35.2964 179.534 35.4545L179.219 36.3241C178.903 36.1857 178.568 36.0869 178.233 35.9881C177.879 35.9091 177.524 35.8498 177.149 35.8498C176.775 35.8498 176.46 35.9091 176.204 36.0079C175.947 36.1067 175.75 36.2648 175.632 36.4624C175.494 36.6601 175.435 36.8972 175.435 37.1739C175.435 37.4703 175.494 37.7272 175.632 37.9249C175.77 38.1225 175.967 38.3004 176.243 38.4585C176.519 38.6166 176.893 38.7747 177.366 38.9525C177.879 39.1304 178.312 39.328 178.667 39.5454C179.021 39.7431 179.297 40 179.475 40.2964C179.652 40.5929 179.751 40.9684 179.751 41.4229L179.731 41.4822ZM187.337 39.4664L189.643 35.1186H190.726L187.849 40.4348V43.7944H186.844V40.4743L183.948 35.1186H185.051L187.337 39.4664ZM200.441 41.4822C200.441 41.996 200.323 42.4308 200.047 42.8063C199.791 43.162 199.436 43.4387 198.983 43.6363C198.53 43.834 197.978 43.913 197.367 43.913C197.032 43.913 196.736 43.913 196.441 43.8735C196.145 43.834 195.889 43.7944 195.633 43.7351C195.397 43.6759 195.18 43.5968 194.983 43.5178V42.5494C195.278 42.668 195.633 42.7865 196.067 42.8853C196.5 42.9842 196.934 43.0434 197.406 43.0434C197.84 43.0434 198.214 42.9842 198.51 42.8656C198.806 42.747 199.042 42.5691 199.2 42.3517C199.357 42.1344 199.436 41.8577 199.436 41.5612C199.436 41.2648 199.377 41.0079 199.239 40.8103C199.101 40.6126 198.884 40.4348 198.589 40.2569C198.293 40.0988 197.879 39.9209 197.347 39.7233C196.973 39.585 196.658 39.4466 196.382 39.2885C196.106 39.1304 195.869 38.9525 195.672 38.7549C195.475 38.5573 195.337 38.3201 195.239 38.0632C195.14 37.8063 195.101 37.5099 195.101 37.1739C195.101 36.7193 195.219 36.3241 195.456 35.9881C195.692 35.6521 196.027 35.3952 196.441 35.2371C196.855 35.0593 197.347 34.9604 197.879 34.9604C198.333 34.9604 198.766 35 199.16 35.0988C199.554 35.1778 199.909 35.2964 200.244 35.4545L199.929 36.3241C199.613 36.1857 199.278 36.0869 198.943 35.9881C198.589 35.9091 198.234 35.8498 197.86 35.8498C197.485 35.8498 197.17 35.9091 196.914 36.0079C196.658 36.1067 196.461 36.2648 196.342 36.4624C196.204 36.6601 196.145 36.8972 196.145 37.1739C196.145 37.4703 196.204 37.7272 196.342 37.9249C196.48 38.1225 196.677 38.3004 196.953 38.4585C197.229 38.6166 197.604 38.7747 198.076 38.9525C198.589 39.1304 199.022 39.328 199.377 39.5454C199.732 39.7431 200.008 40 200.185 40.2964C200.362 40.5929 200.461 40.9684 200.461 41.4229L200.441 41.4822ZM208.501 43.7944H207.496V36.0079H204.776V35.1186H211.22V36.0079H208.501V43.7944ZM220.974 43.7944H216.146V35.1186H220.974V36.0079H217.171V38.8142H220.757V39.6838H217.171V42.9051H220.974V43.7944ZM230.334 43.7944L227.418 36.1067H227.378C227.378 36.2648 227.418 36.4624 227.418 36.6996C227.418 36.9367 227.437 37.1937 227.437 37.4703C227.437 37.747 227.437 38.0237 227.437 38.3004V43.7944H226.511V35.1186H228.009L230.748 42.332H230.787L233.566 35.1186H235.043V43.7944H234.058V38.2411C234.058 37.9842 234.058 37.7272 234.058 37.4703C234.058 37.2134 234.058 36.9565 234.098 36.7391C234.098 36.5019 234.117 36.3043 234.137 36.1265H234.098L231.162 43.7944H230.334ZM245.96 41.4822C245.96 41.996 245.822 42.4308 245.566 42.8063C245.31 43.162 244.955 43.4387 244.502 43.6363C244.049 43.834 243.497 43.913 242.886 43.913C242.551 43.913 242.256 43.913 241.96 43.8735C241.664 43.834 241.408 43.7944 241.152 43.7351C240.916 43.6759 240.699 43.5968 240.502 43.5178V42.5494C240.797 42.668 241.152 42.7865 241.586 42.8853C242.019 42.9842 242.453 43.0434 242.926 43.0434C243.359 43.0434 243.733 42.9842 244.029 42.8656C244.325 42.747 244.561 42.5691 244.719 42.3517C244.876 42.1344 244.955 41.8577 244.955 41.5612C244.955 41.2648 244.896 41.0079 244.758 40.8103C244.62 40.6126 244.403 40.4348 244.108 40.2569C243.812 40.0988 243.398 39.9209 242.886 39.7233C242.512 39.585 242.196 39.4466 241.921 39.2885C241.645 39.1304 241.408 38.9525 241.211 38.7549C241.014 38.5573 240.876 38.3201 240.778 38.0632C240.679 37.8063 240.64 37.5099 240.64 37.1739C240.64 36.7193 240.758 36.3241 240.994 35.9881C241.231 35.6521 241.566 35.3952 241.98 35.2371C242.394 35.0593 242.886 34.9604 243.418 34.9604C243.871 34.9604 244.305 35 244.699 35.0988C245.093 35.1778 245.448 35.2964 245.783 35.4545L245.467 36.3241C245.152 36.1857 244.817 36.0869 244.482 35.9881C244.128 35.9091 243.773 35.8498 243.398 35.8498C243.024 35.8498 242.709 35.9091 242.453 36.0079C242.196 36.1067 241.999 36.2648 241.881 36.4624C241.743 36.6601 241.684 36.8972 241.684 37.1739C241.684 37.4703 241.743 37.7272 241.881 37.9249C242.019 38.1225 242.216 38.3004 242.492 38.4585C242.768 38.6166 243.142 38.7747 243.615 38.9525C244.128 39.1304 244.561 39.328 244.916 39.5454C245.27 39.7431 245.546 40 245.724 40.2964C245.901 40.5929 246 40.9684 246 41.4229L245.96 41.4822Z" fill="white"/>
<path d="M86.4737 2.98415L78.8281 25.5533H73.6259L66 2.98415H70.8081L75.0447 16.4229C75.1235 16.6403 75.2418 17.0751 75.3994 17.7075C75.557 18.3201 75.7344 18.992 75.892 19.6837C76.0694 20.3754 76.1876 20.9486 76.2467 21.4031C76.3058 20.9486 76.4241 20.3754 76.562 19.6837C76.7196 18.992 76.8773 18.3399 77.0349 17.7272C77.1926 17.0948 77.3108 16.66 77.3896 16.4229L81.646 2.98415H86.454H86.4737ZM107.007 25.5533H94.0405V2.98415H107.007V6.89719H98.8092V11.8577H106.435V15.7707H98.8092V21.581H107.007V25.5335V25.5533ZM123.007 2.98415C125.057 2.98415 126.731 3.2213 128.052 3.73514C129.392 4.22921 130.377 4.9802 131.027 5.96834C131.678 6.97624 131.993 8.2213 131.993 9.74304C131.993 10.7707 131.796 11.6798 131.402 12.4505C131.008 13.2213 130.495 13.8735 129.865 14.4071C129.234 14.9407 128.544 15.3754 127.796 15.7114L134.417 25.5533H129.116L123.736 16.8972H121.194V25.5533H116.426V2.98415H122.988H123.007ZM122.672 6.89719H121.234V13.0039H122.771C124.347 13.0039 125.47 12.747 126.16 12.2134C126.85 11.6798 127.185 10.8893 127.185 9.86162C127.185 8.83395 126.81 8.02367 126.081 7.56913C125.352 7.11458 124.209 6.89719 122.672 6.89719ZM150.673 25.5533H145.905V6.95648H139.796V2.96439H156.782V6.95648H150.673V25.5335V25.5533ZM164.979 25.5533V2.98415H169.748V25.5533H164.979ZM189.709 6.64027C188.803 6.64027 187.995 6.81814 187.286 7.17387C186.596 7.5296 186.005 8.02367 185.512 8.69561C185.039 9.36755 184.685 10.1778 184.428 11.1264C184.172 12.0751 184.054 13.1422 184.054 14.328C184.054 15.9288 184.251 17.2924 184.645 18.4189C185.039 19.5454 185.67 20.3952 186.497 20.9881C187.325 21.581 188.409 21.8774 189.709 21.8774C190.616 21.8774 191.542 21.7786 192.448 21.5612C193.375 21.3636 194.38 21.0671 195.444 20.6719V24.6837C194.439 25.0988 193.473 25.3952 192.508 25.5731C191.542 25.7509 190.458 25.8498 189.256 25.8498C186.931 25.8498 185.02 25.3754 183.522 24.4071C182.024 23.4387 180.941 22.0948 180.211 20.3557C179.502 18.6166 179.128 16.581 179.128 14.2687C179.128 12.5691 179.364 10.9881 179.817 9.58494C180.271 8.16201 180.96 6.93672 181.847 5.88929C182.734 4.84186 183.837 4.05134 185.157 3.47822C186.478 2.9051 187.975 2.62842 189.69 2.62842C190.813 2.62842 191.936 2.76676 193.04 3.0632C194.163 3.33988 195.247 3.73514 196.271 4.22921L194.734 8.12249C193.887 7.72723 193.04 7.3715 192.192 7.07506C191.345 6.77861 190.498 6.62051 189.69 6.62051L189.709 6.64027ZM218.755 25.5533L217.119 20.1778H208.922L207.286 25.5533H202.143L210.085 2.88534H215.917L223.898 25.5533H218.755ZM215.976 16.166L214.341 10.909C214.242 10.5533 214.104 10.1185 213.927 9.56517C213.769 9.01181 213.592 8.43869 213.415 7.88533C213.257 7.31221 213.119 6.81814 213.021 6.38336C212.922 6.79838 212.784 7.33197 212.587 7.96438C212.41 8.57703 212.252 9.16992 212.075 9.72328C211.917 10.2766 211.799 10.6719 211.72 10.909L210.104 16.166H215.976ZM231.465 25.5533V2.98415H236.233V21.6007H245.357V25.5533H231.465Z" fill="white"/>
<path d="M24.4342 17.8656L22.2666 15.0791L32.0207 0.0395508L34.5035 2.52967L24.4539 17.8854L24.4342 17.8656Z" fill="white"/>
<path d="M17.1637 44.5455L14.9961 41.7589L18.0898 36.9565L20.0997 40.0593L17.1637 44.5652V44.5455Z" fill="white"/>
<path d="M25.2223 32.4308L23.0547 29.1699L42.7008 0L45.1837 2.49012L25.2223 32.4308Z" fill="white"/>
<path d="M22.7398 9.48623L20.5723 12.589L17.0056 6.99612H6.18744L26.2868 38.34L50.7409 2.03564L53.3617 4.6641L26.2868 45.0001L0 3.89335H19.1732L22.7398 9.48623Z" fill="white"/>
</svg>
