<svg width="557" height="71" viewBox="0 0 557 71" fill="none" xmlns="http://www.w3.org/2000/svg">
<path d="M125.743 7.24414L119.788 16.665C119.005 17.9036 117.732 19.0981 116.196 19.225V19.5145H122.82C124.578 19.5145 125.861 18.263 126.729 16.8846L132.844 7.24414H125.744H125.743Z" fill="#FF0000"/>
<path d="M16.0726 19.5145V8.27906H19.0706V19.5145H16.0726ZM85.2185 19.5145L78.0144 12.8428V19.5145H75.4828V8.27906H77.6334L84.7415 14.8458V8.27906H87.2732V19.5145H85.2185ZM100.885 11.9036C99.5308 11.1742 98.0046 10.5837 95.9816 10.5837C93.5657 10.5837 91.7643 11.95 91.7643 13.8497C91.7643 15.7957 93.5981 17.1748 95.9598 17.1748C97.91 17.1748 99.4553 16.63 100.981 15.668V18.4484C99.6352 19.1779 97.8458 19.7219 95.8328 19.7219C91.7227 19.7219 88.4904 17.4294 88.4904 13.8497C88.4904 10.3284 91.7855 8.06934 95.8215 8.06934C97.7287 8.06934 99.4553 8.46295 100.885 9.10124V11.9036ZM35.7558 19.5145V8.27906H45.7773V10.6878H38.7539V13.4796H45.6193V15.8891H38.7539V19.5152H35.7558V19.5145ZM102.698 19.5145V8.27906H113.101V10.6878H105.696V12.6346H112.984V15.0434H105.696V17.1057H113.069V19.5145H102.698ZM56.1912 15.298L60.333 19.5152H57.1338C56.424 19.5152 55.9583 19.2721 55.5872 18.8769L52.769 15.8884C52.7362 15.8566 52.6978 15.8321 52.6562 15.8163C52.6145 15.8006 52.5704 15.7938 52.5263 15.7964H50.6085V19.5145H47.6104V8.27906H54.1047C57.4732 8.27906 58.8929 9.93557 58.8929 11.7653C58.8929 13.8968 57.155 14.9142 56.1912 15.298ZM53.7978 13.4446C54.9832 13.4446 55.5554 12.7851 55.5554 12.0434C55.5554 11.3018 55.0474 10.6878 53.7978 10.6878H50.6085V13.4446H53.7978ZM30.4582 15.2987L34.6 19.5145H31.4016C30.6918 19.5145 30.2254 19.2713 29.8549 18.8769L27.0368 15.8884C27.0038 15.8565 26.9654 15.832 26.9236 15.8162C26.8818 15.8005 26.8376 15.7937 26.7934 15.7964H24.8763V19.5145H21.8775V8.27906H28.3718C31.7403 8.27906 33.1606 9.93557 33.1606 11.7653C33.1606 13.8968 31.4227 14.915 30.4582 15.2987ZM28.0648 13.4446C29.2516 13.4446 29.8239 12.7851 29.8239 12.0434C29.8239 11.3018 29.3151 10.6878 28.0648 10.6878H24.8763V13.4446H28.0648ZM11.379 19.5145L10.0659 17.0472H4.32446L3.12707 19.5145H0.266602L5.98755 8.29046H8.594L15.0777 19.5145H11.379ZM5.46823 14.7068H8.81627L7.07839 11.2783L5.46823 14.7068ZM71.245 19.5145L69.9629 17.0472H64.3711L63.216 19.5145H60.4289L66.001 8.29046H68.5327L74.8364 19.5145H71.245ZM65.493 14.7068H68.7556L67.0608 11.2783L65.493 14.7068Z" fill="#051039"/>
<g clip-path="url(#clip0_370_482)">
<path fill-rule="evenodd" clip-rule="evenodd" d="M338.841 22.3601L321.62 5.21753C319.329 2.94635 316.215 1.59766 312.974 1.59766H309.376L309.645 2.28965L310.844 5.39507L317.36 22.3601H338.841Z" fill="url(#paint0_linear_370_482)"/>
<path fill-rule="evenodd" clip-rule="evenodd" d="M320.057 15.9283C320.093 16.1759 320.291 16.3882 320.542 16.4235C324.11 16.9722 327.572 18.4221 330.585 20.8112C330.602 20.8288 330.62 20.8288 330.657 20.8288C330.675 20.8288 330.711 20.8112 330.729 20.7935C330.765 20.7582 330.765 20.6871 330.729 20.6518C328.648 18.4938 326.084 16.7599 323.232 15.6277L322.353 15.2736C321.905 15.0971 321.6 14.6543 321.6 14.1591C321.654 12.3193 326.066 12.6899 326.514 11.8064L326.585 11.647C325.67 10.8855 324.594 10.3025 323.411 9.98321C323.393 10.0367 323.374 10.248 323.608 10.6373C323.877 11.063 323.321 11.7347 322.514 11.0095L322.442 10.9566C316.489 5.54259 312.005 8.34588 309.638 2.27832L310.839 5.37232C313.188 9.33534 319.375 9.75375 320.057 15.9283Z" fill="white"/>
<path fill-rule="evenodd" clip-rule="evenodd" d="M323.606 10.6304C323.694 10.7695 323.694 10.9507 323.622 11.0898C323.547 11.2331 323.396 11.3323 323.196 11.3323V12.7796C323.842 12.6031 324.578 12.4785 325.187 12.3549V11.541C325.187 11.541 324.198 11.6038 323.606 10.6304Z" fill="url(#paint1_linear_370_482)"/>
<path fill-rule="evenodd" clip-rule="evenodd" d="M321.259 16.5487C324.559 17.1665 327.77 18.5827 330.567 20.7942C324.309 15.5396 321.474 16.4771 321.259 16.5477L321.259 16.5487Z" fill="url(#paint2_linear_370_482)"/>
<path fill-rule="evenodd" clip-rule="evenodd" d="M309.638 2.28809L310.84 5.38416C313.189 9.34718 319.376 9.77182 320.058 15.9463C319.358 8.05559 315.861 9.22363 312.095 5.64995C311.126 4.95951 310.302 3.96902 309.638 2.28809Z" fill="url(#paint3_linear_370_482)"/>
<path fill-rule="evenodd" clip-rule="evenodd" d="M334.25 13.456C334.25 10.6112 337.171 8.41895 341.505 8.41895C345.82 8.41895 348.76 10.6112 348.76 13.347C348.76 14.5618 348.208 15.5756 347.161 16.4099H349.733L349.126 17.4419C348.74 18.095 348.263 18.4931 347.234 18.4698L341.376 18.4931C337.022 18.4931 334.249 16.2645 334.249 13.4566L334.25 13.456ZM341.487 16.21C343.855 16.21 345.876 15.0503 345.876 13.456C345.876 11.8613 343.874 10.7015 341.486 10.7015C339.116 10.7015 337.096 11.8613 337.096 13.456C337.096 15.0498 339.116 16.21 341.486 16.21H341.487ZM353.667 16.6523L352.58 18.4692H349.732L354.49 10.3761C354.857 9.74116 355.408 9.23397 356.474 9.12496H357.539C358.623 9.23397 359.155 9.72351 359.523 10.3761L364.28 18.4692H361.378L360.258 16.6523H353.667ZM359.246 14.8354L357.135 11.0639C357.079 10.9736 357.042 10.9549 356.969 10.9549C356.895 10.9549 356.858 10.9736 356.804 11.0639L354.711 14.8354H359.246ZM377.921 18.4692H375.299L367.903 12.3503V18.4692H365.267V9.12496H366.905C367.714 9.23397 368.136 9.45201 368.595 9.83201L375.285 15.3581V9.12496H377.921V18.4692ZM386.885 18.4692H384.248V11.2015H378.976V9.12496H392.157V11.2015H386.885M393.739 16.6523L392.692 18.4692H389.845L394.602 10.3761C394.969 9.74116 395.52 9.23397 396.586 9.12496H397.651C398.734 9.23397 399.267 9.72351 399.634 10.3761L404.391 18.4692H401.49L400.33 16.6523H393.739ZM399.377 14.8354L397.266 11.0639C397.21 10.9736 397.173 10.9549 397.1 10.9549C397.026 10.9549 396.989 10.9736 396.935 11.0639L394.842 14.8354H399.378H399.377ZM405.053 17.7497L405.696 15.7386C407.532 16.3185 409.479 16.5537 411.243 16.5537C414.126 16.5537 414.842 16.2282 414.842 15.8658C414.842 15.7205 414.75 15.6115 414.511 15.5388C414.218 15.449 413.428 15.286 411.058 14.9054C408.451 14.4886 407.256 14.2711 406.394 13.8724C405.531 13.4737 404.997 12.8393 404.997 11.9153C404.997 11.2093 405.346 10.6476 405.916 10.1944C406.926 9.43332 408.634 9.12496 410.489 9.12496C412.895 9.12496 414.915 9.32482 417.156 9.86835L417.358 9.92286L416.826 11.88C414.328 11.3541 412.932 11.2093 411.022 11.1729C409.681 11.1547 408.763 11.2632 408.267 11.4086C407.991 11.4984 407.881 11.6251 407.881 11.7704C407.881 11.9158 407.973 12.0238 408.249 12.1146C408.543 12.2049 409.039 12.3326 411.61 12.7303C414.383 13.1835 415.302 13.3647 416.073 13.6543C417.12 14.053 417.745 14.7777 417.745 15.6841C417.745 16.8252 416.845 17.6776 415.283 18.1479C414.328 18.4386 413.024 18.6011 411.573 18.6011C409.277 18.6193 406.853 18.3291 405.292 17.8224L405.053 17.7497Z" fill="#323232"/>
</g>
<g clip-path="url(#clip1_370_482)">
<path fill-rule="evenodd" clip-rule="evenodd" d="M193.292 23.4037C193.09 23.4172 192.894 23.4294 192.693 23.4294C192.465 23.4294 192.246 23.4099 192.017 23.4037L192.678 21.8159L193.292 23.4037ZM194.028 25.2017C194.145 25.1956 194.327 25.1639 194.508 25.1639C194.691 25.1639 194.919 25.1956 195.017 25.2017C194.724 24.5763 194.294 23.6028 194.048 23.0398C193.814 22.4987 193.422 21.5948 193.111 20.7129C193.038 20.7324 192.973 20.7446 192.903 20.7446C192.823 20.7446 192.759 20.7312 192.685 20.7129C192.529 21.2406 192.151 22.0809 191.494 23.5381L190.74 25.2017C190.829 25.1895 190.922 25.1639 191.033 25.1639C191.136 25.1639 191.26 25.1895 191.344 25.2017C191.449 24.8341 191.656 24.2991 191.865 23.8019C192.125 23.7885 192.385 23.7763 192.647 23.7763C192.926 23.7763 193.2 23.7885 193.481 23.8019L193.754 24.4884L194.028 25.2017Z" fill="#53616F"/>
<path d="M195.587 22.2675C195.587 23.3693 195.587 24.4344 195.516 25.2014C195.659 25.1953 195.843 25.1636 195.986 25.1636C196.134 25.1636 196.29 25.1953 196.44 25.2014C196.389 24.6799 196.376 23.9824 196.376 23.0224C196.376 22.3701 196.376 21.2549 196.448 20.7773C196.29 20.7969 196.13 20.8164 195.986 20.8164C195.888 20.8164 195.647 20.7908 195.523 20.7773C195.587 21.4015 195.587 21.8608 195.587 22.2675Z" fill="#53616F"/>
<path fill-rule="evenodd" clip-rule="evenodd" d="M199.459 23.0102C200.05 22.9014 200.592 22.5313 200.592 21.8156C200.592 21.5444 200.487 21.2806 200.294 21.0925C200.013 20.8286 199.693 20.7773 199.272 20.7773C199.121 20.7773 198.365 20.8091 198.196 20.8091C197.865 20.8091 197.694 20.7896 197.545 20.7773C197.592 21.6092 197.592 21.6983 197.592 22.5448C197.592 23.7882 197.583 23.9311 197.533 25.2014C197.676 25.1831 197.832 25.1636 197.982 25.1636C198.145 25.1636 198.287 25.1892 198.416 25.2014C198.416 25.0341 198.391 24.2023 198.391 24.0142V23.0993H198.549C198.9 23.5879 199.304 24.1559 199.635 24.6664C199.733 24.813 199.876 25.0524 199.973 25.2014C200.169 25.1758 200.247 25.1636 200.501 25.1636C200.735 25.1636 200.898 25.1843 201.081 25.2014C200.671 24.6933 200.496 24.4673 199.982 23.7504C199.883 23.6172 199.741 23.4035 199.643 23.2667L199.459 23.0102ZM198.391 21.1267C198.488 21.1194 198.731 21.0937 198.855 21.0937C199.069 21.0937 199.284 21.1267 199.459 21.2562C199.687 21.4247 199.733 21.6556 199.733 21.928C199.733 22.3469 199.492 22.8184 198.843 22.8184C198.671 22.8184 198.515 22.8037 198.392 22.7964V21.1267H198.391Z" fill="#53616F"/>
<path d="M202.85 23.692C202.545 22.7966 202.119 21.5386 201.918 20.7776C201.754 20.8032 201.613 20.8167 201.462 20.8167C201.306 20.8167 201.083 20.791 200.954 20.7776C201.22 21.4738 201.449 22.0931 201.625 22.5829C201.925 23.4233 202.119 24.0034 202.355 24.7119L202.518 25.2017C202.608 25.1834 202.713 25.1638 202.785 25.1638C202.857 25.1638 202.922 25.176 203.032 25.2017C203.136 24.8658 203.26 24.4542 203.352 24.1903C203.605 23.455 203.638 23.3512 203.97 22.4351L204.164 21.9001C204.237 22.1065 204.361 22.4351 204.432 22.6415C204.504 22.8418 204.837 23.8275 204.913 24.0474C205.019 24.3369 205.044 24.4224 205.285 25.2005C205.346 25.1944 205.466 25.1626 205.565 25.1626C205.656 25.1626 205.728 25.1834 205.826 25.2005C206.074 24.4334 206.101 24.3564 206.463 23.3231C206.821 22.3166 207.042 21.7438 207.434 20.7764C207.335 20.802 207.239 20.8155 207.14 20.8155C207.016 20.8155 206.912 20.7947 206.841 20.7764C206.607 21.6143 206.488 22.021 206.302 22.5756C205.994 23.4782 205.956 23.582 205.768 24.0743C205.56 23.5185 205.358 22.9567 205.17 22.3899C205.066 22.0809 204.668 20.7898 204.662 20.7776C204.571 20.7971 204.505 20.8167 204.376 20.8167C204.26 20.8167 204.175 20.791 204.09 20.7776C203.894 21.5642 203.203 23.4611 203.14 23.6346L202.976 24.0547L202.85 23.692Z" fill="#53616F"/>
<path fill-rule="evenodd" clip-rule="evenodd" d="M209.416 23.4037C209.215 23.4172 209.02 23.4294 208.818 23.4294C208.591 23.4294 208.369 23.4099 208.142 23.4037L208.806 21.8159L209.416 23.4037ZM210.153 25.2017C210.271 25.1956 210.451 25.1639 210.635 25.1639C210.816 25.1639 211.045 25.1956 211.141 25.2017C210.85 24.5763 210.42 23.6028 210.174 23.0398C209.939 22.4987 209.545 21.5948 209.234 20.7129C209.164 20.7324 209.099 20.7446 209.027 20.7446C208.951 20.7446 208.882 20.7312 208.812 20.7129C208.656 21.2406 208.278 22.0809 207.62 23.5381L206.866 25.2017C206.955 25.1895 207.048 25.1639 207.156 25.1639C207.263 25.1639 207.385 25.1895 207.472 25.2017C207.575 24.8341 207.785 24.2991 207.993 23.8019C208.251 23.7885 208.513 23.7763 208.773 23.7763C209.053 23.7763 209.326 23.7885 209.606 23.8019L209.88 24.4884L210.153 25.2017Z" fill="#53616F"/>
<path d="M212.885 23.4731C212.885 23.4157 212.924 23.3448 212.969 23.2667C213.243 22.8025 213.497 22.3176 213.789 21.8547C213.887 21.6983 214.362 20.9508 214.46 20.7773C214.388 20.803 214.317 20.8164 214.186 20.8164C214.043 20.8164 213.911 20.7957 213.807 20.7773C213.338 21.796 213.235 22.0159 212.683 22.9564C212.129 21.9964 211.881 21.487 211.543 20.7773C211.354 20.8091 211.164 20.8164 211.009 20.8164C210.865 20.8164 210.716 20.803 210.476 20.7773C210.812 21.3392 211.366 22.2284 211.699 22.7952L212.081 23.4548C212.081 23.853 212.062 24.6994 212.043 25.2014C212.166 25.1892 212.348 25.1636 212.478 25.1636C212.628 25.1636 212.779 25.1892 212.929 25.2014C212.903 24.6017 212.883 24.2548 212.883 23.7113V23.4731" fill="#53616F"/>
<path d="M214.837 24.2348C214.804 24.5438 214.797 24.6269 214.685 24.9628C214.92 25.0801 215.344 25.2926 215.903 25.2926C217.094 25.2926 217.553 24.539 217.553 23.8818C217.553 23.6998 217.508 23.3187 217.237 23.0292C217.048 22.8228 216.852 22.7508 216.352 22.5578C215.779 22.3391 215.446 22.2096 215.446 21.7394C215.446 21.3571 215.701 21.0419 216.215 21.0419C216.623 21.0419 216.97 21.2349 217.067 21.6038H217.156C217.216 21.3583 217.229 21.3082 217.359 20.9894C217.041 20.849 216.753 20.7256 216.278 20.7256C215.1 20.7256 214.76 21.4487 214.76 22.0167C214.76 22.5517 214.95 22.8814 215.581 23.1599C215.764 23.2369 216.071 23.3529 216.254 23.4311C216.378 23.4812 216.787 23.662 216.787 24.1725C216.787 24.6367 216.449 24.9787 215.934 24.9787C215.551 24.9787 215.223 24.881 214.926 24.2373H214.837" fill="#53616F"/>
<path fill-rule="evenodd" clip-rule="evenodd" d="M178.674 12.3152C178.674 7.43915 181.31 6.12243 183.303 6.12243C186.507 6.12243 187.893 8.75466 187.893 11.5615C187.893 13.1653 187.699 14.6762 186.896 15.8965C186.097 17.1143 184.77 17.8496 183.323 17.8496C179.709 17.8484 178.674 14.4442 178.674 12.3152ZM188.4 22.281C188.984 21.8755 189.901 21.3722 190.567 21.0815L186.154 18.3711C188.868 17.4245 190.567 15.0244 190.567 11.7533C190.567 7.10936 186.992 5.13672 183.341 5.13672C179.399 5.13672 176 7.30235 176 12.2187C176 13.2618 176.234 15.2369 177.872 16.881C179.573 18.5861 181.584 18.8365 183.282 18.8365C183.497 18.8365 183.713 18.8365 183.926 18.817L188.4 22.281Z" fill="#63003C"/>
<path fill-rule="evenodd" clip-rule="evenodd" d="M199.676 13.1649C199.07 13.2052 198.484 13.2442 197.88 13.2442C197.195 13.2442 196.531 13.1856 195.85 13.1649L197.841 8.40608L199.676 13.1649ZM201.884 18.5661C202.235 18.5453 202.781 18.4476 203.329 18.4476C203.877 18.4476 204.559 18.5453 204.853 18.5661C203.972 16.6875 202.685 13.7658 201.941 12.0814C201.24 10.4557 200.068 7.7465 199.13 5.09473C198.915 5.15458 198.719 5.19366 198.504 5.19366C198.27 5.19366 198.074 5.15458 197.86 5.09473C197.391 6.68383 196.26 9.1988 194.286 13.5704L192.021 18.5649C192.297 18.5258 192.567 18.4464 192.901 18.4464C193.213 18.4464 193.584 18.5246 193.839 18.5649C194.151 17.4619 194.778 15.8533 195.401 14.3643C196.183 14.3264 196.964 14.2874 197.745 14.2874C198.583 14.2874 199.405 14.3252 200.244 14.3643L201.063 16.4164L201.884 18.5661Z" fill="#63003C"/>
<path d="M210.549 8.7548C210.549 8.01827 210.57 7.2854 210.588 6.58673C211.934 6.58673 213.322 6.60872 214.474 6.72353C214.414 6.41328 214.375 6.23984 214.375 6.02731C214.375 5.87096 214.414 5.61934 214.474 5.29199C212.599 5.38727 210.88 5.40803 209.259 5.40803C207.756 5.40803 205.587 5.38727 204.045 5.29199C204.105 5.52285 204.142 5.77447 204.142 6.00776C204.142 6.23862 204.105 6.49146 204.045 6.72353C205.041 6.62582 206.917 6.58673 207.093 6.58673H208.069C208.089 7.34281 208.108 8.01949 208.108 8.73526L208.128 14.1341C208.128 15.6059 208.01 17.0973 207.932 18.5679C208.635 18.491 208.928 18.4495 209.26 18.4495C209.493 18.4495 210.121 18.5093 210.687 18.5679C210.628 18.0256 210.55 17.3868 210.55 15.9149V8.7548" fill="#63003C"/>
<path fill-rule="evenodd" clip-rule="evenodd" d="M221.419 13.1649C220.812 13.2052 220.226 13.2442 219.622 13.2442C218.939 13.2442 218.274 13.1856 217.589 13.1649L219.582 8.40608L221.419 13.1649ZM223.625 18.5661C223.975 18.5453 224.523 18.4476 225.07 18.4476C225.617 18.4476 226.299 18.5453 226.591 18.5661C225.712 16.6875 224.427 13.7658 223.682 12.0814C222.981 10.4557 221.809 7.7465 220.871 5.09473C220.654 5.15458 220.459 5.19366 220.245 5.19366C220.012 5.19366 219.816 5.15458 219.6 5.09473C219.132 6.68383 218.001 9.1988 216.027 13.5704L213.764 18.5649C214.037 18.5258 214.309 18.4464 214.641 18.4464C214.954 18.4464 215.323 18.5246 215.58 18.5649C215.894 17.4619 216.518 15.8533 217.142 14.3643C217.921 14.3264 218.702 14.2874 219.484 14.2874C220.325 14.2874 221.144 14.3252 221.985 14.3643L222.805 16.4164L223.625 18.5661Z" fill="#63003C"/>
<path fill-rule="evenodd" clip-rule="evenodd" d="M234.458 11.9868C236.234 11.657 237.854 10.554 237.854 8.40547C237.854 7.59198 237.541 6.79926 236.956 6.23862C236.118 5.4459 235.159 5.29199 233.89 5.29199C233.442 5.29199 231.177 5.38727 230.668 5.38727C229.673 5.38727 229.165 5.32864 228.714 5.29199C228.851 7.78742 228.851 8.05858 228.851 10.5943C228.851 14.3283 228.831 14.7533 228.675 18.5667C229.105 18.5081 229.573 18.4482 230.021 18.4482C230.509 18.4482 230.939 18.5264 231.331 18.5667C231.331 18.0623 231.253 15.5668 231.253 15.005V12.2579H231.72C232.775 13.7273 233.986 15.4313 234.983 16.9605C235.274 17.4063 235.706 18.1209 235.999 18.5667C236.585 18.4898 236.819 18.4482 237.58 18.4482C238.283 18.4482 238.771 18.5081 239.317 18.5667C238.087 17.0375 237.56 16.3596 236.018 14.2122C235.726 13.8055 235.295 13.1667 235.002 12.7612L234.458 11.9868ZM231.255 6.33511C231.547 6.31679 232.269 6.23862 232.641 6.23862C233.286 6.23862 233.93 6.33511 234.458 6.72231C235.141 7.22555 235.276 7.92055 235.276 8.73282C235.276 9.99091 234.555 11.4054 232.602 11.4054C232.094 11.4054 231.625 11.3663 231.256 11.3467V6.33511H231.255Z" fill="#63003C"/>
<path d="M263.647 12.0234C263.647 12.1468 261.879 12.2641 259.358 12.363C258.913 12.1114 258.573 11.8598 258.327 11.6436C261.386 11.7523 263.647 11.883 263.647 12.0234Z" fill="#77838F"/>
<path d="M261.835 7.80142C261.835 7.90402 260.351 8.00296 258.235 8.08602C258.54 7.90891 258.853 7.73302 259.178 7.55469C260.78 7.63042 261.835 7.71348 261.835 7.80142Z" fill="#77838F"/>
<path d="M246.052 16.8843C245.072 16.8953 244.212 16.9002 243.539 16.9002C242.574 16.9002 241.791 16.6059 241.791 16.2382C241.791 15.8754 242.574 15.5811 243.539 15.5811C244.398 15.5811 245.558 15.5896 246.887 15.6067C246.373 16.3432 246.127 16.7854 246.105 16.8111C246.09 16.8318 246.072 16.8575 246.052 16.8843Z" fill="#77838F"/>
<path d="M246.58 17.7688C246.906 18.1548 247.215 18.4809 247.63 18.8364C247.63 18.8364 247.786 19.0575 248.261 18.8669C248.743 18.6739 249.153 18.4064 249.616 17.7932C250.963 17.8152 252.396 17.8458 253.803 17.8775C253.92 18.0436 254.154 18.3893 254.445 18.8168C250.52 18.9182 246.26 18.9781 244.078 18.9781C243.168 18.9781 242.431 18.6983 242.431 18.3551C242.431 18.0131 243.166 17.7334 244.078 17.7334C244.742 17.7334 245.597 17.7383 246.579 17.7505C246.576 17.759 246.58 17.7688 246.58 17.7688Z" fill="#77838F"/>
<path d="M245.062 21.0126C244.256 21.0126 243.603 20.7659 243.603 20.463C243.603 20.1588 244.256 19.9121 245.062 19.9121C247.197 19.9121 251.571 19.9768 255.318 20.0819C255.498 20.3384 255.679 20.5937 255.852 20.827C251.992 20.9381 247.299 21.0126 245.062 21.0126Z" fill="#77838F"/>
<path d="M257.506 22.7748C254.36 22.9116 248.951 23.0044 246.702 23.0044C246.069 23.0044 245.556 22.809 245.556 22.572C245.556 22.3339 246.07 22.1396 246.702 22.1396C248.853 22.1396 253.9 22.2215 257.087 22.3497C257.231 22.5024 257.372 22.6453 257.506 22.7748Z" fill="#77838F"/>
<path d="M249.297 23.9443C251.152 23.9443 256.803 24.0836 256.803 24.2509C256.803 24.4231 251.152 24.5575 249.297 24.5575C248.934 24.5575 248.643 24.4231 248.643 24.2509C248.643 24.0836 248.935 23.9443 249.297 23.9443Z" fill="#77838F"/>
<path d="M249.317 12.6228C246.983 12.6619 244.887 12.6851 243.539 12.6851C242.574 12.6851 241.791 12.3883 241.791 12.0243C241.791 11.6591 242.574 11.3623 243.539 11.3623C245.106 11.3623 247.677 11.3928 250.466 11.4441C250.051 11.8497 249.668 12.2442 249.317 12.6228Z" fill="#77838F"/>
<path d="M260.777 9.6709C262.146 9.74419 263.006 9.82358 263.006 9.90786C263.006 10.0007 261.965 10.0886 260.351 10.1692C260.697 9.9103 260.771 9.68556 260.777 9.6709Z" fill="#77838F"/>
<path d="M244.078 10.5298C243.168 10.5298 242.431 10.2501 242.431 9.9081C242.431 9.56609 243.166 9.28516 244.078 9.28516C245.942 9.28516 249.326 9.33035 252.72 9.40608C252.304 9.75297 251.908 10.0974 251.536 10.4358C248.557 10.4944 245.726 10.5298 244.078 10.5298Z" fill="#77838F"/>
<path d="M254.221 8.21128C250.75 8.298 246.991 8.35175 245.061 8.35175C244.255 8.35175 243.602 8.10624 243.602 7.8021C243.602 7.49795 244.255 7.25 245.061 7.25C247.19 7.25 251.553 7.31718 255.295 7.42222C255.109 7.55536 254.919 7.69094 254.73 7.83141C254.558 7.95722 254.388 8.08547 254.221 8.21128Z" fill="#77838F"/>
<path d="M246.702 6.12358C246.069 6.12358 245.556 5.93059 245.556 5.69118C245.556 5.45178 246.07 5.25879 246.702 5.25879C249.087 5.25879 255.042 5.36139 258.063 5.51163C257.871 5.63744 257.679 5.76691 257.483 5.89639C254.333 6.03197 248.944 6.12358 246.702 6.12358Z" fill="#77838F"/>
<path d="M243.359 14.8048C242.376 14.8048 241.578 14.5055 241.578 14.1305C241.578 13.7604 242.376 13.46 243.359 13.46C244.594 13.46 246.438 13.4783 248.527 13.5088C248.133 13.9656 247.793 14.3895 247.501 14.7694C245.841 14.7913 244.387 14.8048 243.359 14.8048Z" fill="#77838F"/>
<path d="M248.643 4.01166C248.643 3.84066 248.934 3.70508 249.297 3.70508C251.152 3.70508 256.803 3.84066 256.803 4.01166C256.803 4.18022 251.152 4.31947 249.297 4.31947C248.935 4.31947 248.643 4.18022 248.643 4.01166Z" fill="#77838F"/>
<path d="M263.833 13.6342C263.847 13.9677 263.844 14.3024 263.828 14.6273C260.538 14.7555 257.422 14.9534 257.422 15.1732C257.422 15.3894 260.47 15.5849 263.72 15.7131C263.662 16.0844 263.588 16.4497 263.497 16.8063C260.294 16.937 257.322 17.1276 257.322 17.3425C257.322 17.5502 260.096 17.7358 263.172 17.8665C263.029 18.2537 262.87 18.6324 262.689 18.9952C260.051 19.1198 257.869 19.2883 257.869 19.4715C257.869 19.6425 259.775 19.8013 262.177 19.9222C262.044 20.1397 261.901 20.3546 261.755 20.5562C261.599 20.776 261.43 20.9922 261.248 21.206C259.746 21.3208 258.717 21.4466 258.717 21.5859C258.717 21.7031 259.455 21.8143 260.592 21.9132C259.97 22.5227 259.237 23.0919 258.373 23.5866C258.373 23.5866 257.352 22.7181 256.515 21.7031C255.765 20.798 254.178 18.4138 253.8 17.8788C253.426 17.3438 253.181 17.1874 252.744 17.3438C252.157 17.549 251.473 17.654 251.263 17.654C251.053 17.654 250.937 17.5722 251.291 17.4329C251.64 17.2937 253.026 16.6439 253.706 15.3052C254.474 13.7979 253.799 11.7141 253.799 11.7141C253.543 12.8268 252.959 13.2434 252.959 13.2434C253.147 12.21 252.941 11.2719 252.426 10.6136L252.138 11.923C252.138 11.923 251.958 11.9144 251.513 12.2845C251.068 12.6558 250.946 13.1969 250.946 13.1969C251.297 13.3362 251.717 12.9893 251.717 12.9893C251.18 14.9815 250.41 16.6036 249.846 17.4622C249.284 18.3197 248.821 18.6434 248.258 18.8681C247.783 19.0575 247.627 18.8376 247.627 18.8376C247.212 18.4822 246.903 18.156 246.577 17.7701C246.577 17.7701 246.552 17.7249 246.639 17.7273C246.872 17.7297 247.284 17.3364 247.375 17.1752C247.478 16.9895 247.467 16.8466 247.413 16.8369C247.364 16.8271 247.275 16.9749 246.829 17.2558C246.384 17.5343 246.18 17.3389 246.033 17.185C245.918 17.0616 246.029 16.9089 246.103 16.8124C246.17 16.7282 248.517 12.3896 254.73 7.83233C262.871 1.85821 268.068 0.24712 268.365 0.12986C268.562 0.0529091 268.884 -0.0484713 268.956 0.0260372C269.038 0.109096 269.076 0.176276 269.066 0.273992C269.056 0.370486 269.002 0.420566 268.627 0.58424C265.502 1.9486 261.855 4.22294 259.782 5.54699C257.233 6.77822 254.8 8.53466 254.71 8.57619C254.514 8.69711 254.659 8.87178 254.778 8.79972C259.082 5.96229 264.132 4.03117 269.706 2.44695C269.973 2.37 270.119 2.37 270.163 2.43107C270.212 2.49459 270.234 2.56788 270.241 2.64971C270.248 2.75109 270.164 2.80484 269.935 2.894C263.945 5.09872 259.529 7.14587 256.688 9.04034C256.688 9.04034 256.394 9.21623 256.391 9.42021C256.39 9.49716 256.55 9.50571 256.55 9.50571C257.972 9.53136 259.872 9.61564 260.776 9.66695C260.776 9.66695 260.646 10.1213 259.78 10.4865C259.111 10.7675 258.495 10.7223 257.881 10.7284C257.743 10.7247 257.63 10.8615 257.739 11.0069C257.795 11.0789 259.098 13.1579 263.833 13.6342Z" fill="#63003C"/>
<path d="M220.422 24.5052H219.619C219.619 24.5052 219.51 24.0166 219.8 23.8273C220.092 23.638 220.422 23.4926 220.422 23.4926V24.5052ZM224.23 22.673C224.23 22.673 223.742 22.9515 223.433 23.2227C223.125 23.4926 223.497 23.5965 223.497 23.5965V24.5052H221.166V21.3221C221.166 21.3221 220.318 22.0965 220.239 22.1991C220.158 22.309 220.44 22.408 220.44 22.408L220.393 22.7085C220.393 22.7085 220.055 22.8831 219.644 23.1592C219.236 23.4303 218.933 23.776 218.933 24.0166C218.933 24.256 218.831 25.2027 218.831 25.2027H224.231V22.673H224.23ZM219.408 21.5078C219.674 21.5078 219.862 21.4039 219.862 21.1951C219.862 20.9838 219.735 20.8372 219.408 20.8372C219.116 20.8372 219.038 20.9642 219.038 21.1951C219.039 21.4272 219.138 21.5078 219.408 21.5078ZM220.401 21.5078C220.671 21.5078 220.851 21.4039 220.851 21.1951C220.851 20.9838 220.728 20.8372 220.401 20.8372C220.108 20.8372 220.031 20.9642 220.031 21.1951C220.031 21.4272 220.132 21.5078 220.401 21.5078ZM221.905 25.475C221.616 25.475 221.534 25.5996 221.534 25.8305C221.534 26.0601 221.638 26.1444 221.905 26.1444C222.171 26.1444 222.36 26.0406 222.36 25.8305C222.36 25.6192 222.237 25.475 221.905 25.475ZM222.938 25.475C222.647 25.475 222.567 25.5996 222.567 25.8305C222.567 26.0601 222.672 26.1444 222.938 26.1444C223.208 26.1444 223.392 26.0406 223.392 25.8305C223.392 25.6192 223.269 25.475 222.938 25.475ZM234.572 21.4467C234.84 21.4467 235.026 21.3441 235.026 21.134C235.026 20.9251 234.903 20.7773 234.572 20.7773C234.283 20.7773 234.204 20.9032 234.204 21.134C234.204 21.3673 234.306 21.4467 234.572 21.4467ZM235.603 21.4467C235.869 21.4467 236.055 21.3441 236.055 21.134C236.055 20.9251 235.93 20.7773 235.603 20.7773C235.311 20.7773 235.232 20.9032 235.232 21.134C235.233 21.3673 235.334 21.4467 235.603 21.4467ZM238.45 21.5334C238.305 21.658 238.348 21.8082 238.532 21.7863V25.2075H239.297V20.9483C239.297 20.9471 238.593 21.4076 238.45 21.5334ZM235.376 23.4523H234.882C234.882 23.1812 235.376 23.0321 235.376 23.0321V23.4523ZM232.116 24.0166C232.116 24.1412 232.11 24.3428 232.105 24.5052H227.783V23.7516C227.896 23.4633 228.087 23.4291 228.382 23.4291H231.539C232.222 23.4291 232.116 23.7833 232.116 24.0166ZM237.17 21.7838V24.5064H236.141V22.0342C236.141 22.0342 235.93 22.1136 235.642 22.2406C235.357 22.3677 234.322 22.7842 234.322 23.3473V23.9983H235.374V24.5064H232.873C232.877 24.3867 232.878 24.2108 232.878 23.9543C232.878 23.1421 232.181 22.7011 231.559 22.7011H228.669C228.164 22.7011 227.919 22.8233 227.781 22.9613V20.8653C227.781 20.8653 227.331 21.1792 226.998 21.4284C226.668 21.6788 226.998 21.8473 226.998 21.8473V24.5077H226.051L226.029 22.2248C226.029 22.2248 225.372 22.7024 225.183 22.8477C224.998 22.9918 225.101 23.1213 225.307 23.1213C225.307 23.1213 225.269 24.8081 225.269 25.2051C225.269 25.6057 224.938 26.0626 224.234 25.8549C224.234 25.8549 224.01 25.8964 224.196 26.0638C224.381 26.2299 224.604 26.3557 224.853 26.3557C225.101 26.3557 226.01 26.1847 226.01 25.2051H237.93V20.9483C237.93 20.9483 237.23 21.4076 237.086 21.5334C236.941 21.6543 236.982 21.8034 237.17 21.7838Z" fill="#63003C"/>
</g>
<g clip-path="url(#clip2_370_482)">
<path d="M8.3058 59.4292C9.23868 55.9444 8.17471 52.2928 5.62993 50.3577C2.16338 52.5397 0.164452 56.6423 0.886478 60.9167C1.12438 62.3298 1.63972 63.6284 2.36521 64.7663C5.07576 64.0159 7.45893 62.5953 8.3058 59.4292ZM12.9848 69.4855C18.7062 68.5303 22.5639 63.1442 21.6026 57.4575C20.8029 52.7238 16.9216 49.2742 12.3446 48.7977C11.4207 48.7011 10.4663 48.7273 9.50363 48.8873C8.36268 49.0777 7.29871 49.4466 6.32977 49.9577C11.3722 51.6583 14.0834 54.2431 14.2714 56.892C14.3636 58.5271 13.5993 59.7098 12.595 60.674L19.7251 60.1788C19.9269 60.165 19.99 60.3988 19.7459 60.4684L2.73906 65.3166C4.47025 67.6876 7.15861 69.2648 10.1445 69.5751C11.0684 69.6717 12.0227 69.6468 12.9848 69.4855ZM12.4105 48.1749C18.0112 48.7549 22.3794 53.461 22.3815 59.183C22.3836 65.2973 17.3994 70.2565 11.2494 70.2585C5.09934 70.2606 0.112433 65.3056 0.110352 59.1905C0.108271 53.0755 5.09171 48.1163 11.2418 48.1143C11.6357 48.1143 12.0262 48.1356 12.4105 48.1749Z" fill="white"/>
<path d="M0.886027 60.9172C1.12393 62.3296 1.63926 63.6282 2.36476 64.7661C5.0753 64.0158 7.45848 62.5951 8.30604 59.429C9.23823 55.9442 8.17426 52.2926 5.62879 50.3575C2.16292 52.5395 0.164 56.6428 0.886027 60.9172ZM21.6021 57.4566C22.5635 63.1441 18.7057 68.5301 12.9843 69.4853C12.0223 69.6467 11.0679 69.6715 10.1434 69.5749C7.15885 69.2646 4.46911 67.6874 2.7386 65.3164L19.7454 60.4683C19.9896 60.3979 19.9264 60.1648 19.7246 60.1786L12.5945 60.6738C13.5988 59.7097 14.3632 58.5269 14.2709 56.8918C14.0829 54.2429 11.3717 51.6581 6.32931 49.9575C7.29826 49.4465 8.36222 49.0775 9.50318 48.8872C10.4659 48.7272 11.4203 48.701 12.3441 48.7975C16.9211 49.2741 20.8024 52.7236 21.6021 57.4566Z" fill="#C70A0C"/>
<path d="M80.0571 63.5289V59.8883H76.386V63.5289H74.3711V54.8574H76.386V58.3118H80.0571V54.8574H82.0873V63.5289H80.0571Z" fill="black"/>
<path d="M36.6289 54.8574V60.2863C36.6289 60.8862 36.7177 61.4055 36.8932 61.8276C37.0673 62.2462 37.3197 62.5945 37.6436 62.8621C37.9703 63.1324 38.365 63.3317 38.8151 63.4545C39.2729 63.58 39.7896 63.6441 40.3507 63.6441C40.9111 63.6441 41.423 63.58 41.8711 63.4545C42.3122 63.3317 42.6881 63.1331 42.9898 62.8648C43.2908 62.5972 43.5273 62.249 43.6924 61.8297C43.8589 61.409 43.9421 60.8897 43.9421 60.2863V54.8574H42.0569V60.2283C42.0569 60.7752 41.9203 61.2173 41.6512 61.5414C41.3758 61.8717 40.9382 62.0393 40.3507 62.0393C39.7729 62.0393 39.3388 61.8724 39.0585 61.5428C38.7839 61.2193 38.6445 60.7773 38.6445 60.2283V54.8574H36.6289Z" fill="black"/>
<path d="M30.8166 63.5303V56.4767H28.4473V54.8574H35.2153V55.634C35.2153 56.0988 34.8359 56.4767 34.3684 56.4767H32.8321V63.5303H30.8166Z" fill="black"/>
<path d="M63.2051 54.8564H65.2206V63.528H63.2051V54.8564Z" fill="black"/>
<path d="M56.4938 59.4854L56.5618 59.5716L59.1364 62.8702C59.4638 63.2901 59.9583 63.5315 60.4931 63.5315H62.098L58.4095 58.8668L58.3554 58.7978L58.4095 58.7296L61.4419 54.8545H59.3445L56.5639 58.5923L56.4938 58.6827L56.4931 58.5261V54.8545H54.4775V63.5267H56.4931V59.6399L56.4938 59.4854Z" fill="black"/>
<path d="M47.8198 58.8263H48.9948C49.4179 58.8263 49.7404 58.7104 49.9526 58.4835C50.1628 58.2587 50.2696 57.9663 50.2696 57.6153C50.2696 57.2553 50.1656 56.9594 49.961 56.7346C49.7529 56.5057 49.4283 56.3905 48.9948 56.3905H47.8198V58.8263ZM51.8503 63.5276C51.2531 63.5276 50.6906 63.2124 50.382 62.7048L48.8138 60.1304H47.8198V63.5276H45.8057V54.8574H49.3971C50.3195 54.8574 51.0423 55.0967 51.5444 55.5691C52.0452 56.0402 52.299 56.6857 52.299 57.487C52.299 57.8939 52.1902 58.3063 51.9751 58.7125C51.7629 59.1118 51.387 59.4387 50.8564 59.6835L50.7399 59.7373L53.1868 63.5276H51.8503Z" fill="black"/>
<path d="M66.875 63.1604V61.4977C67.5166 61.7915 68.3433 62.0845 69.1978 62.0845C70.1813 62.0845 70.68 61.7494 70.68 61.1066C70.68 60.3522 70.0107 60.2687 68.6707 59.6956C67.7586 59.2908 66.8896 58.6619 66.8896 57.2095C66.8896 55.5192 68.1866 54.7227 69.9823 54.7227C70.9367 54.7227 71.7495 54.9461 72.2052 55.1137V56.7343C71.7495 56.5247 70.9367 56.273 70.1245 56.273C69.2408 56.273 68.8275 56.5943 68.8275 57.1529C68.8275 57.7398 69.3268 57.9219 70.2243 58.2571C71.3785 58.8295 72.7185 59.0812 72.7185 61.037C72.7185 62.7273 71.3646 63.6493 69.5543 63.6493C68.4425 63.6493 67.5596 63.4535 66.875 63.1604Z" fill="black"/>
<path d="M129.129 63.5286V54.8564H134.59V55.6433C134.59 56.1026 134.214 56.4757 133.753 56.4757H131.144V58.3412H134.074V59.7887H131.144V61.9101H134.59V63.5286H129.129Z" fill="black"/>
<path d="M109.203 63.528V54.8564H110.182C110.753 54.8564 111.218 55.3185 111.218 55.8861V61.9659H114.435V63.528H109.203Z" fill="black"/>
<path d="M96.7275 63.5263V54.8604H98.7431L98.7424 63.5263H96.7275Z" fill="black"/>
<path d="M102.606 58.8246H103.781C104.204 58.8246 104.526 58.7095 104.739 58.4826C104.949 58.2571 105.056 57.9653 105.056 57.6136C105.056 57.2543 104.952 56.9578 104.746 56.733C104.539 56.5047 104.214 56.3888 103.781 56.3888H102.606V58.8246ZM106.636 63.5259C106.039 63.5259 105.476 63.2107 105.167 62.7038L103.6 60.1294H102.606V63.5259H100.592V54.8564H104.183C105.106 54.8564 105.828 55.0957 106.331 55.5682C106.831 56.0392 107.085 56.6847 107.085 57.486C107.085 57.8929 106.976 58.3053 106.761 58.7115C106.549 59.1101 106.172 59.437 105.643 59.6825L105.526 59.7363L107.973 63.5259H106.636Z" fill="black"/>
<path d="M89.801 60.3684L90.5924 58.1768C90.7679 57.6837 90.9441 57.163 91.0613 56.7796H91.0904C91.1931 57.1768 91.3692 57.6699 91.5447 58.1768L92.307 60.3684H89.801ZM92.291 54.8555H89.9765L86.6875 63.5277H88.1392C88.5082 63.5277 88.8335 63.2939 88.9486 62.9463L89.2864 61.9284H92.8237L93.3411 63.5277H95.5245L92.291 54.8555Z" fill="black"/>
<path d="M136.209 63.1604V61.4984C136.85 61.7915 137.677 62.0845 138.532 62.0845C139.515 62.0845 140.014 61.7494 140.014 61.1066C140.014 60.3522 139.344 60.2687 138.005 59.6963C137.093 59.2908 136.223 58.6626 136.223 57.2095C136.223 55.5192 137.52 54.7227 139.316 54.7227C140.271 54.7227 141.083 54.9461 141.539 55.1137V56.7343C141.083 56.5254 140.271 56.2737 139.458 56.2737C138.575 56.2737 138.161 56.595 138.161 57.1536C138.161 57.7398 138.66 57.9219 139.558 58.2571C140.712 58.8295 142.052 59.0812 142.052 61.037C142.052 62.7273 140.698 63.6493 138.888 63.6493C137.776 63.6493 136.893 63.4535 136.209 63.1604Z" fill="black"/>
<path d="M119.593 54.8574H120.842C121.435 54.8574 121.986 55.1616 122.3 55.6622L124.732 59.5477C125.007 59.9794 125.325 60.5497 125.514 60.9531H125.557C125.528 60.5635 125.514 60.0207 125.514 59.6311V54.8574H127.28V63.5282H125.07L122.112 58.8373C121.837 58.4063 121.547 57.8911 121.344 57.5015H121.316C121.33 57.8773 121.359 58.3229 121.359 58.7401V63.5282H119.593V54.8574Z" fill="black"/>
<path d="M115.732 63.5263V54.8604H117.747V63.5263H115.732Z" fill="black"/>
</g>
<g clip-path="url(#clip3_370_482)">
<path d="M229.268 59.2917C229.268 59.2917 230.014 57.5133 230.332 57.0008C230.332 57.0008 231.243 58.2706 231.565 59.3138C231.565 59.3138 230.538 59.4773 229.268 59.2917ZM207.943 57.9406V55.9365C207.943 55.9365 207.964 54.441 209.128 54.441C210.299 54.441 210.152 55.8944 210.164 56.078C210.174 56.2655 210.099 57.9406 207.943 57.9406ZM211.592 52.9274C211.592 52.9274 205.91 53.3587 202.845 53.0688C202.845 53.0688 202.48 52.9695 202.38 53.3978C202.38 53.3978 202.181 53.7238 202.501 53.9495C202.821 54.1762 203.751 54.7279 203.751 56.7741C203.751 58.8213 203.751 60.722 203.751 60.722C203.751 60.722 203.933 62.8926 202.46 63.7091C202.46 63.7091 202.159 63.8124 202.319 64.2437C202.319 64.2437 202.34 64.6319 202.765 64.5717C203.186 64.5085 205.566 64.325 208.831 64.5506C208.831 64.5506 209.112 64.5717 209.19 64.3841C209.273 64.2046 209.294 64.1825 209.294 64.1825C209.294 64.1825 209.578 63.8967 209.15 63.6098C208.729 63.3239 208.023 62.8926 207.964 61.0721C207.903 59.2495 207.964 59.2104 207.964 59.2104H208.224C208.224 59.2104 209.128 59.1262 209.735 60.5234C209.735 60.5234 210.906 63.3841 211.086 63.7312C211.269 64.0812 211.611 64.8164 212.881 64.6931C214.15 64.5717 220.073 64.1404 226.364 64.7142C226.364 64.7142 227.05 64.8165 227.312 64.1404C227.312 64.1404 228.4 61.1744 228.66 60.701C228.66 60.701 230.96 60.6408 232.21 60.6609C232.21 60.6609 232.671 61.4603 232.671 62.4222C232.671 63.3841 231.847 63.6098 231.847 63.6098C231.847 63.6098 231.503 63.7512 231.665 64.1826C231.665 64.1826 231.726 64.5928 232.129 64.5507C232.53 64.5085 236.138 64.1625 241.58 64.5085C241.58 64.5085 241.944 64.654 242.063 64.1625C242.063 64.1625 242.285 63.7733 241.902 63.5888C241.902 63.5888 240.474 63.2628 240.474 60.9477C240.474 58.6347 240.494 57.0008 240.494 57.0008C240.494 57.0008 241.58 58.5745 242.87 60.9297C244.161 63.2818 244.847 64.2859 244.847 64.2859C244.847 64.2859 245.492 65.5547 246.76 64.8787C248.029 64.2046 249.4 63.4263 250.186 62.8716C250.186 62.8716 250.491 62.7301 250.327 62.338L250.208 62.0942C250.208 62.0942 250.186 61.9518 249.764 61.9097C249.764 61.9097 248.817 62.1364 248.795 60.7642C248.777 59.395 248.714 57.4501 248.795 55.4661C248.795 55.4661 248.837 54.2364 249.945 53.8893C249.945 53.8893 250.346 53.8502 250.166 53.3587L250.045 53.1109C250.045 53.1109 250.045 52.9063 249.764 52.9485C249.483 52.9906 247.91 53.132 246.239 52.9906C246.239 52.9906 245.875 52.9906 245.833 53.3978C245.833 53.3978 245.734 53.7679 246.017 53.8893C246.298 54.0117 247.284 54.3808 247.348 55.9546C247.406 57.5344 247.427 59.721 247.427 59.721C247.427 59.721 245.128 56.2836 243.657 53.6446C243.657 53.6446 243.417 52.9274 242.546 52.9906C241.685 53.0508 239.605 53.1531 238.094 53.0077C238.094 53.0077 237.67 52.9485 237.61 53.44C237.61 53.44 237.489 53.8683 237.852 54.0519C237.852 54.0519 239.062 54.8302 239.062 55.096C239.062 55.3638 239.039 60.8064 239.039 60.8064C239.039 60.8064 239.143 63.0371 238.557 62.7503C238.557 62.7503 238.215 62.975 237.389 61.4393C236.563 59.9046 235.494 57.716 233.762 53.4581C233.762 53.4581 233.397 52.2725 232.653 52.2725C232.653 52.2725 232.21 52.2945 231.747 52.5563C231.283 52.8252 229.811 53.6637 228.28 54.1151C228.28 54.1151 227.877 54.2364 227.996 54.6457C227.996 54.6457 227.938 54.9506 228.38 55.1201C228.822 55.2816 229.206 55.4661 229.326 55.6888C229.326 55.6888 228.864 57.2034 228.016 58.7622C227.169 60.3149 226.083 62.8927 222.958 62.8927H221.728C221.728 62.8927 221.407 62.9318 221.407 62.4835C221.407 62.0341 221.407 59.1905 221.407 59.1905H222.213C222.213 59.1905 223.521 58.9026 224.149 60.6218C224.149 60.6218 224.267 61.1534 224.711 60.9478C224.711 60.9478 225.214 60.8876 225.174 60.3751C225.135 59.8655 225.096 58.4723 225.194 57.2456C225.194 57.2456 225.236 56.8774 224.831 56.7962C224.831 56.7962 224.51 56.6327 224.267 56.8985C224.026 57.1633 223.521 57.7962 222.372 57.7962C221.226 57.7962 221.428 57.7962 221.428 57.7962V54.7279C221.428 54.7279 221.407 54.5253 221.546 54.5042C221.686 54.4831 223.442 54.0519 224.469 54.8894C225.496 55.731 225.56 56.078 225.779 56.3859C225.779 56.3859 225.98 56.8985 226.503 56.5524C226.503 56.5524 226.908 56.4883 226.706 55.8543C226.503 55.2164 226.445 54.9957 226.103 53.3979C226.103 53.3979 226.04 52.7218 225.356 52.786C224.671 52.8462 220.38 53.3588 216.348 53.0298C216.348 53.0298 215.926 52.9274 215.844 53.3798C215.844 53.3798 215.661 53.6837 216.004 53.9696C216.004 53.9696 217.191 54.5253 217.191 56.6508C217.191 58.7792 217.191 60.2126 217.191 60.2126C217.191 60.2126 217.395 63.0371 216.408 63.0371C216.408 63.0371 215.983 63.2207 215.26 61.7673C214.534 60.3149 214.494 60.2727 214.494 60.2727C214.494 60.2727 213.909 58.367 211.388 58.2877C211.388 58.2877 214.875 57.6949 214.553 55.0348C214.553 55.0348 214.494 53.0077 211.875 52.9274" fill="#1C4E9D"/>
<path d="M259.113 56.8566C260.203 58.4303 260.346 59.1686 260.346 59.1686C259.481 59.314 258.05 59.1485 258.05 59.1485C258.469 58.0021 259.113 56.8566 259.113 56.8566ZM268.246 60.1726C268.246 60.1726 268.325 62.8508 267.338 62.6662C267.338 62.6662 266.994 62.8929 266.168 61.3582C265.344 59.8256 264.274 57.6349 262.541 53.38C262.541 53.38 262.178 52.1914 261.432 52.1914C261.432 52.1914 260.991 52.2135 260.527 52.4753C260.062 52.7441 258.592 53.5846 257.061 54.034C257.061 54.034 256.655 54.1554 256.776 54.5646C256.776 54.5646 256.715 54.8725 257.161 55.035C257.604 55.2015 257.988 55.3821 258.106 55.6088C258.106 55.6088 257.645 57.1214 256.797 58.6771C255.951 60.2338 255.203 62.5037 253.21 63.5258C253.21 63.5258 252.824 63.6101 252.949 64.0815C253.09 64.6121 253.352 64.4697 253.352 64.4697C255.669 64.2229 256.375 64.4276 256.9 64.4697C257.423 64.5088 257.342 64.0815 257.342 64.0815C257.482 63.8127 257.302 63.6502 257.302 63.6502L257.081 63.3633C257.081 63.3633 256.213 63.1366 257.442 60.622C257.442 60.622 259.743 60.5618 260.991 60.5799C260.991 60.5799 261.456 61.3763 261.456 62.3382C261.456 63.3031 260.628 63.5258 260.628 63.5258C260.628 63.5258 260.284 63.6703 260.444 64.0986C260.444 64.0986 260.507 64.5088 260.911 64.4697C261.313 64.4276 268.005 64.1407 273.447 64.4877C273.447 64.4877 273.828 64.5088 273.928 64.1627C273.928 64.1627 274.151 63.7314 273.769 63.4867C273.769 63.4867 272.699 62.9952 272.62 61.2589C272.538 59.5156 272.56 56.2206 272.56 56.2206C272.56 56.2206 272.478 54.381 273.626 53.8103C273.626 53.8103 273.928 53.6639 273.769 53.2536C273.769 53.2536 273.688 52.8675 273.322 52.9066C272.961 52.9487 269.154 53.1533 267.36 52.9276C267.36 52.9276 266.953 52.9066 266.875 53.2536C266.875 53.2536 266.674 53.5846 267.018 53.8504C267.36 54.1152 268.246 54.7281 268.246 56.6328C268.246 58.5356 268.246 60.1726 268.246 60.1726Z" fill="#1C4E9D"/>
<path d="M280.821 57.8611V55.855C280.821 55.855 280.863 54.3635 281.971 54.3635C283.08 54.3635 283.097 55.6263 283.039 56.0406C282.983 56.4498 282.879 57.8611 280.821 57.8611ZM284.288 52.7646C284.288 52.7646 279.854 53.2963 275.743 52.889C275.743 52.889 275.219 52.7446 275.157 53.2963C275.157 53.2963 275.119 53.6644 275.342 53.8108C275.563 53.9503 276.469 54.5049 276.53 56.4268C276.592 58.3496 276.631 57.7969 276.592 60.4179C276.592 60.4179 276.748 62.9325 275.342 63.5474C275.342 63.5474 274.977 63.6286 275.179 64.1632C275.179 64.1632 275.3 64.5725 275.639 64.4281C275.639 64.4281 278.947 64.2054 281.81 64.4492C281.81 64.4492 282.134 64.5725 282.233 64.1412C282.233 64.1412 282.495 63.8554 282.094 63.5474C281.688 63.2435 280.963 62.7089 280.88 61.419C280.799 60.128 280.821 59.1089 280.821 59.1089H281.105C281.105 59.1089 282.052 58.9836 282.696 60.4992C283.343 62.0128 283.785 63.1191 283.785 63.1191C283.785 63.1191 284.206 64.3258 284.893 64.715C284.893 64.715 285.175 64.9828 286.223 64.8564C286.223 64.8564 287.936 64.7571 289.629 63.9607C289.629 63.9607 290.011 63.8764 289.889 63.4271C289.889 63.4271 289.972 63.075 289.49 62.9757C289.006 62.8724 288.644 62.4019 288.3 61.7048C287.955 61.0117 287.43 59.9866 287.43 59.9866C287.43 59.9866 286.727 58.2112 284.428 58.1871C284.428 58.1871 287.592 57.6355 287.592 55.2171C287.592 52.8068 284.773 52.7647 284.773 52.7647" fill="#1C4E9D"/>
<path d="M202.234 58.8979C202.234 62.6432 199.246 65.6795 195.558 65.6795C191.868 65.6795 188.876 62.6432 188.876 58.8979C188.876 55.1495 191.868 52.1133 195.558 52.1133C199.246 52.1133 202.234 55.1495 202.234 58.8979Z" fill="white"/>
<path d="M198.426 54.8086C200.46 55.4425 201.941 57.3653 201.941 59.6433C201.941 59.9783 201.907 60.2992 201.848 60.6112L201.84 60.6553C201.686 61.548 201.328 62.3735 200.821 63.0717L200.811 63.0827C201.702 61.9312 202.236 60.4748 202.236 58.892C202.236 55.1466 199.243 52.1074 195.55 52.1074C193.871 52.1074 192.337 52.7383 191.161 53.7785L191.145 53.7936C190.219 54.6562 189.641 55.8949 189.641 57.2701C189.641 57.8368 189.737 58.3865 189.921 58.892L189.93 58.9161C190.396 59.9473 191.422 60.6674 192.614 60.6674C194.241 60.6674 195.563 59.3294 195.563 57.6744L195.554 56.3864C195.554 55.7987 195.881 55.2791 196.36 55.0143L196.365 55.0128C196.739 54.8052 197.167 54.6828 197.627 54.6828C197.905 54.6828 198.171 54.7249 198.422 54.8062L198.426 54.8095" fill="#ED192D"/>
<path d="M190.438 63.2617C191.664 64.7422 193.502 65.6851 195.557 65.6851C197.238 65.6851 198.776 65.0552 199.95 64.015L199.966 64.003C200.892 63.1373 201.471 61.8986 201.471 60.5244C201.471 59.9567 201.372 59.408 201.189 58.9015L201.18 58.8804C200.714 57.8432 199.69 57.1251 198.496 57.1251C196.868 57.1251 195.548 58.4641 195.548 60.1161L195.557 61.4081C195.557 61.9969 195.231 62.5144 194.751 62.7792L194.746 62.7825C194.372 62.9901 193.941 63.1115 193.485 63.1115C193.206 63.1115 192.939 63.0654 192.689 62.9881L192.686 62.9841C190.65 62.3482 189.17 60.4244 189.17 58.1505C189.17 57.8184 189.203 57.4935 189.263 57.1795L189.268 57.1374C189.424 56.2426 189.781 55.4232 190.291 54.722L190.297 54.711C189.408 55.8625 188.874 57.319 188.874 58.8988C188.874 59.9871 189.128 61.0192 189.576 61.932L189.521 61.9741C189.521 61.9741 189.262 62.1757 188.735 61.5648C188.211 60.949 185.128 57.1645 185.128 57.1645C185.128 57.1645 187.084 55.036 188.999 54.1774C188.999 54.1774 189.5 54.0129 189.381 53.5646L189.299 53.2967C189.299 53.2967 189.283 53.0089 188.836 53.0701C188.393 53.1333 186.296 53.2968 184.202 53.0912C184.202 53.0912 183.879 53.0912 183.758 53.36C183.758 53.36 183.555 53.707 183.758 53.9086C183.961 54.1163 184.687 54.6268 184.687 55.3219C184.687 55.3219 184.844 55.8356 183.738 56.652C182.628 57.4724 181.944 58.003 181.482 58.2508L181.499 56.3269C181.499 56.3269 181.44 54.711 182.589 53.9507C182.589 53.9507 182.87 53.8304 182.77 53.5646L182.692 53.3599C182.692 53.3599 182.628 53.0309 182.286 53.07C182.286 53.07 180.293 53.2967 176.32 53.1122C176.32 53.1122 176.057 53.0911 175.958 53.2967L175.878 53.4592C175.878 53.4592 175.737 53.8304 175.958 53.9929C176.181 54.1563 177.107 54.711 177.149 56.4052C177.149 56.4052 177.249 59.6189 177.107 60.8667C176.965 62.1165 176.866 62.8327 175.878 63.7104C175.878 63.7104 175.616 63.919 175.737 64.2239L175.878 64.4887C175.878 64.4887 175.978 64.6943 176.32 64.6552C176.664 64.6131 179.143 64.3653 182.286 64.6131C182.286 64.6131 182.509 64.6943 182.609 64.4707L182.75 64.1838C182.75 64.1838 182.911 63.8979 182.609 63.6712C182.306 63.4455 181.499 62.7936 181.482 61.5247C181.462 60.2559 181.462 59.4524 181.462 59.4524C181.462 59.4524 182.006 59.6801 184.906 64.0404C184.906 64.0404 185.935 65.9221 188.111 64.7575C188.111 64.7575 189.703 63.8769 190.368 63.3041L190.438 63.2617Z" fill="#1C4E9D"/>
</g>
<path d="M465.453 11.9034C465.386 11.9034 465.329 11.9051 465.297 11.9087C465.26 11.9762 465.205 12.0667 465.123 12.1927C466.394 12.1927 467.548 12.2974 468.824 12.5264L468.464 12.8743C467.312 12.6702 466.355 12.5886 465.135 12.5886C464.958 12.5886 464.921 12.5886 464.878 12.5903C464.835 12.6542 464.739 12.7785 464.644 12.8939C464.752 12.8868 464.961 12.8832 465.251 12.8832C466.254 12.8832 467.191 12.9578 468.208 13.1211L467.848 13.4708C467.074 13.3501 466.128 13.2808 465.279 13.2808C464.977 13.2808 464.635 13.2915 464.328 13.3092C464.258 13.3891 464.077 13.5844 464.022 13.6447C464.429 13.6021 464.876 13.5826 465.409 13.5826C466.167 13.5826 466.891 13.6323 467.576 13.7335L467.216 14.0796C466.728 14.0193 466.135 13.9838 465.611 13.9838C464.26 13.9838 463.195 14.2766 462.095 14.9494C463.144 16.0748 464.862 16.7865 466.527 16.7865H466.683L466.101 17.3493C463.699 16.8984 461.172 15.8422 459.036 14.3955C456.983 13.0092 456.264 12.5992 454.661 11.891L454.65 11.4791L455.735 11.9442L456.104 11.6513L459.645 13.2737L459.414 13.4583L457.597 12.6685L457.417 12.8087L458.362 13.3359C459.159 13.7796 459.766 13.9784 460.327 13.9784C461.553 13.9784 462.654 13.1086 463.364 11.5803C463.898 11.5111 464.468 11.4791 465.153 11.4791C466.559 11.4791 467.924 11.614 469.47 11.9034L469.094 12.2673C468.132 12.0667 466.497 11.9034 465.453 11.9034ZM462.011 22.0123C457.404 22.0123 453.667 18.2753 453.667 13.6685C453.667 9.06161 457.404 5.32458 462.011 5.32458C466.618 5.32458 470.355 9.06161 470.355 13.6685C470.355 18.2753 466.618 22.0123 462.011 22.0123ZM462.011 4.79203C457.103 4.79203 453.135 8.75978 453.135 13.6685C453.135 18.5771 457.103 22.5449 462.011 22.5449C466.92 22.5449 470.888 18.5771 470.888 13.6685C470.888 8.75978 466.92 4.79203 462.011 4.79203ZM485.462 17.2022H490.551V19.5861H482.723V7.7508H485.462V17.2022ZM496.705 11.0647H499.258V19.5861H496.858V18.6055C496.503 19.2649 495.776 19.8397 494.44 19.8397C492.259 19.8397 491.126 18.859 491.126 16.0524V11.0647H493.679V15.934C493.679 17.0669 494.169 17.574 495.201 17.574C496.131 17.574 496.705 17.0669 496.705 15.934V11.0647ZM501.22 10.7435C501.22 8.68083 502.522 7.58175 504.567 7.58175C505.227 7.58175 505.65 7.6832 505.65 7.6832V9.74588C505.65 9.74588 505.295 9.71219 504.99 9.71219C504.195 9.71219 503.773 9.9827 503.773 10.7266V11.0647H505.65V13.1443H503.773V19.5861H501.22V13.1443H499.935V11.0647H501.22V10.7435ZM510.147 11.0647H512.091V13.1443H510.147V16.4582C510.147 17.3712 510.62 17.6079 511.364 17.6079C511.669 17.6079 512.091 17.5573 512.091 17.5573V19.603C512.091 19.603 511.499 19.7382 510.874 19.7382C508.828 19.7382 507.594 18.8084 507.594 16.7457V13.1443H506.309V11.0647H507.594V8.57933H510.147V11.0647ZM517.743 10.8111C519.908 10.8111 521.041 11.7917 521.041 14.5984V19.5861H518.487V14.7167C518.487 13.584 517.997 13.0768 516.932 13.0768C515.968 13.0768 515.394 13.584 515.394 14.7167V19.5861H512.84V7.76775H515.41V11.8932C515.85 11.2675 516.543 10.8111 517.743 10.8111ZM527.55 16.2722C527.55 17.2021 526.67 17.8954 525.318 17.8954C524.659 17.8954 524.27 17.5911 524.27 17.0161C524.27 16.5766 524.54 16.2046 525.403 16.0864L526.874 15.8834C527.127 15.8495 527.398 15.7989 527.55 15.7481V16.2722ZM526.13 10.8111C523.61 10.8111 522.393 11.7749 522.292 13.584H524.777C524.811 13.1105 525.081 12.7555 526.13 12.7555C527.06 12.7555 527.499 13.0599 527.499 13.5163C527.499 13.9222 527.245 14.0743 526.62 14.1419L524.997 14.3109C522.799 14.5476 521.801 15.4607 521.801 17.1177C521.801 18.6562 522.748 19.8397 524.76 19.8397C526.13 19.8397 526.941 19.4001 527.651 18.5209V19.5861H529.985V13.9897C529.985 11.6396 528.615 10.8111 526.13 10.8111ZM535.888 10.8111C538.103 10.8111 539.236 11.7917 539.236 14.5984V19.5861H536.683V14.7167C536.683 13.584 536.192 13.0768 535.127 13.0768C534.163 13.0768 533.589 13.584 533.589 14.7167V19.5861H531.036V11.0648H533.436V12.0454C533.792 11.386 534.519 10.8111 535.888 10.8111ZM544.621 14.2433C546.785 14.5308 547.868 15.2071 547.868 16.9824C547.868 18.7746 546.6 19.8397 543.911 19.8397C540.986 19.8397 539.955 18.6732 539.904 16.9654H542.424C542.491 17.5911 542.93 17.8954 543.911 17.8954C544.909 17.8954 545.314 17.6586 545.314 17.1853C545.314 16.7457 544.976 16.5428 544.097 16.4245L543.201 16.306C541.324 16.0525 540.242 15.3255 540.242 13.6347C540.242 12.0116 541.443 10.8111 543.962 10.8111C546.295 10.8111 547.547 11.741 547.665 13.584H545.179C545.095 13.0937 544.824 12.7893 543.962 12.7893C543.117 12.7893 542.796 13.0768 542.796 13.4488C542.796 13.8206 542.998 14.0236 543.725 14.1251L544.621 14.2433ZM554.259 16.2724C554.259 17.2022 553.379 17.8954 552.027 17.8954C551.367 17.8954 550.979 17.5911 550.979 17.0161C550.979 16.5766 551.249 16.2046 552.111 16.0864L553.582 15.8834C553.836 15.8497 554.106 15.7989 554.259 15.7481V16.2724ZM552.838 10.8111C550.319 10.8111 549.102 11.7749 549 13.584H551.486C551.52 13.1105 551.79 12.7556 552.838 12.7556C553.768 12.7556 554.208 13.0599 554.208 13.5164C554.208 13.9222 553.954 14.0743 553.329 14.1419L551.705 14.3109C549.508 14.5477 548.51 15.4607 548.51 17.1177C548.51 18.6562 549.457 19.8397 551.469 19.8397C552.838 19.8397 553.65 19.4001 554.36 18.5209V19.5861H556.693V13.9897C556.693 11.6397 555.324 10.8111 552.838 10.8111Z" fill="#0A1D3D"/>
<g clip-path="url(#clip4_370_482)">
<path d="M323.383 51.4824V64.7976H326.027V59.4128H330.807V57.1609H326.027V53.7538H331.708V51.4824H323.383ZM373.688 51.4824V64.7976H376.274V60.0197C376.274 59.5302 376.313 59.0801 376.431 58.6689C376.822 57.4157 377.88 56.515 379.252 56.515C380.564 56.515 380.897 57.3567 380.897 58.6295V64.7976H383.463V58.101C383.463 55.34 382.17 54.1454 379.859 54.1454C378.057 54.1454 376.783 55.2027 376.274 56.2014H376.235C376.235 56.2014 376.274 55.8293 376.274 55.3202V51.4824H373.688ZM345.264 54.1454C342.169 54.1454 339.975 56.3973 339.975 59.6086C339.975 62.5653 342.11 65.0523 345.558 65.0523C348.144 65.0523 349.73 63.5642 349.73 63.5642L348.731 61.704C348.731 61.704 347.4 62.8394 345.734 62.8394C344.187 62.8394 342.776 61.8996 342.62 60.0786H349.809C349.809 60.0786 349.868 59.3933 349.868 59.08C349.868 56.3191 348.261 54.1454 345.264 54.1454ZM357.723 54.1454C355.627 54.1454 354.491 55.4181 354.04 56.2993H354.001C354.001 56.2993 354.04 55.9861 354.04 55.5944V54.4001H351.552V64.7976H354.138V60.0197C354.138 59.5302 354.177 59.0603 354.314 58.6295C354.706 57.3959 355.725 56.515 357.116 56.515C358.428 56.515 358.761 57.3567 358.761 58.6295V64.7976H361.327V58.101C361.327 55.34 360.034 54.1454 357.723 54.1454ZM368.262 54.1454C364.814 54.1454 362.62 56.6322 362.62 59.6086C362.62 62.6241 364.814 65.0523 368.262 65.0523C371.063 65.0523 372.552 63.3684 372.552 63.3684L371.553 61.5277C371.553 61.5277 370.26 62.859 368.497 62.859C366.519 62.859 365.245 61.3514 365.245 59.5891C365.245 57.8072 366.479 56.3582 368.399 56.3582C370.045 56.3582 371.122 57.4742 371.122 57.4742L372.258 55.6924C372.258 55.6924 370.985 54.1454 368.262 54.1454ZM338.956 54.2632C337.35 54.2632 336.116 55.438 335.646 56.9261H335.607C335.607 56.9261 335.646 56.593 335.646 56.2014V54.4001H333.158V64.778H335.763V60.666C335.763 60.059 335.822 59.4912 335.979 58.9821C336.469 57.4352 337.722 56.8087 338.819 56.8087C339.152 56.8087 339.427 56.8477 339.427 56.8477V54.3022C339.427 54.3022 339.191 54.2632 338.956 54.2632ZM345.205 56.1429C346.342 56.1429 347.223 56.887 347.262 58.2968H342.718C342.953 56.9653 343.873 56.1429 345.205 56.1429Z" fill="#0C51A0"/>
<path d="M385.951 51.4824V64.778H388.4V64.1906C388.4 63.799 388.361 63.4858 388.361 63.4858H388.4C388.4 63.4858 389.34 65.0328 391.495 65.0328C394.257 65.0328 396.275 62.8983 396.275 59.5891C396.275 56.3778 394.492 54.1454 391.671 54.1454C389.477 54.1454 388.557 55.6533 388.557 55.6533H388.517C388.517 55.6533 388.557 55.2813 388.557 54.7722V51.4824H385.971H385.951ZM402.857 54.1454C399.762 54.1454 397.587 56.3973 397.548 59.6086C397.548 62.5653 399.683 65.0523 403.131 65.0523C405.737 65.0523 407.323 63.5642 407.323 63.5642L406.324 61.704C406.324 61.704 404.992 62.8394 403.327 62.8394C401.78 62.8394 400.369 61.8996 400.212 60.0786H407.401C407.401 60.0786 407.46 59.3933 407.46 59.08C407.46 56.3191 405.854 54.1454 402.857 54.1454ZM414.042 54.1454C410.947 54.1454 408.773 56.3973 408.753 59.6086C408.753 62.5653 410.888 65.0523 414.336 65.0523C416.922 65.0523 418.509 63.5642 418.509 63.5642L417.509 61.704C417.509 61.704 416.178 62.8394 414.512 62.8394C412.965 62.8394 411.554 61.8996 411.398 60.0786H418.587C418.587 60.0786 418.646 59.3933 418.646 59.08C418.646 56.3191 417.039 54.1454 414.042 54.1454ZM402.798 56.1429C403.934 56.1429 404.816 56.887 404.855 58.2968H400.31C400.545 56.9653 401.466 56.1429 402.798 56.1429ZM413.983 56.1429C415.12 56.1429 416.001 56.887 416.04 58.2968H411.496C411.731 56.9653 412.651 56.1429 413.983 56.1429ZM391.084 56.3582C392.612 56.3582 393.669 57.6504 393.669 59.6281C393.669 61.7037 392.494 62.859 391.064 62.859C389.32 62.859 388.478 61.2536 388.478 59.648C388.478 57.3374 389.732 56.3582 391.084 56.3582Z" fill="#00ADE9"/>
<path d="M427.441 53.8121C424.346 49.328 423.857 42.9837 427.089 44.0803C430.341 45.1768 434.944 48.5056 427.441 53.8121Z" fill="#00ADE9"/>
<path d="M427.441 53.8121C424.366 55.8485 420.174 56.0052 420.663 54.145C421.153 52.1869 423.151 49.1518 427.441 53.8121Z" fill="#0C51A0"/>
<path d="M427.677 54.1454C428.637 55.7902 431.007 56.456 432.79 54.7133C435.238 52.344 438.803 47.1942 427.677 54.1454Z" fill="#7BCDF3"/>
<path d="M427.677 54.1455C425.267 55.7512 423.328 58.3554 424.503 58.3359C425.679 58.3163 428.558 56.7302 427.677 54.1455Z" fill="#5491CE"/>
</g>
<defs>
<linearGradient id="paint0_linear_370_482" x1="328.044" y1="22.2825" x2="320.171" y2="-0.674719" gradientUnits="userSpaceOnUse">
<stop stop-color="#BE0000"/>
<stop offset="0.3898" stop-color="#DE0000"/>
<stop offset="0.768" stop-color="#F60000"/>
<stop offset="1" stop-color="#FF0000"/>
</linearGradient>
<linearGradient id="paint1_linear_370_482" x1="324.289" y1="11.7047" x2="324.289" y2="10.8022" gradientUnits="userSpaceOnUse">
<stop stop-color="white" stop-opacity="0"/>
<stop offset="0.51203" stop-color="#E0E0E0" stop-opacity="0.262"/>
<stop offset="0.66549" stop-color="#C5C5C5" stop-opacity="0.549"/>
<stop offset="0.82415" stop-color="#B5B5B5" stop-opacity="0.805"/>
<stop offset="1" stop-color="#AFAFAF"/>
</linearGradient>
<linearGradient id="paint2_linear_370_482" x1="321.262" y1="18.6243" x2="329.641" y2="18.6243" gradientUnits="userSpaceOnUse">
<stop stop-color="white" stop-opacity="0"/>
<stop offset="0.08391" stop-color="#F1F1F1" stop-opacity="0.093"/>
<stop offset="0.24826" stop-color="#D4D4D4" stop-opacity="0.325"/>
<stop offset="0.44531" stop-color="#C0C0C0" stop-opacity="0.555"/>
<stop offset="0.7032" stop-color="#B3B3B3" stop-opacity="0.781"/>
<stop offset="1" stop-color="#AFAFAF"/>
</linearGradient>
<linearGradient id="paint3_linear_370_482" x1="312.238" y1="9.10027" x2="320.042" y2="9.10027" gradientUnits="userSpaceOnUse">
<stop stop-color="white" stop-opacity="0"/>
<stop offset="0.28583" stop-color="#EDEDED" stop-opacity="0.282"/>
<stop offset="0.886" stop-color="#BDBDBD" stop-opacity="0.848"/>
<stop offset="1" stop-color="#AFAFAF"/>
</linearGradient>
<clipPath id="clip0_370_482">
<rect width="108.617" height="20.7651" fill="white" transform="translate(309.376 1.59766)"/>
</clipPath>
<clipPath id="clip1_370_482">
<rect width="94.2416" height="26.3557" fill="white" transform="translate(176)"/>
</clipPath>
<clipPath id="clip2_370_482">
<rect width="142.161" height="22.3624" fill="white" transform="translate(0 48.1143)"/>
</clipPath>
<clipPath id="clip3_370_482">
<rect width="114.208" height="13.5772" fill="white" transform="translate(175.705 52.1074)"/>
</clipPath>
<clipPath id="clip4_370_482">
<rect width="113.409" height="22.3624" fill="white" transform="translate(322.657 43.3223)"/>
</clipPath>
</defs>
</svg>
