<svg width="360" height="169" viewBox="0 0 360 169" fill="none" xmlns="http://www.w3.org/2000/svg">
<mask id="mask0_1742_233" style="mask-type:luminance" maskUnits="userSpaceOnUse" x="62" y="0" width="118" height="116">
<path d="M62 115.124H179.493V-0.000160217H62V115.124Z" fill="white"/>
</mask>
<g mask="url(#mask0_1742_233)">
<path d="M125.018 58.6248L122.068 51.2076L119.135 58.5755C119.898 58.5515 120.67 58.5376 121.459 58.5376C122.677 58.5376 123.862 58.5673 125.018 58.6248ZM149.501 66.145C143.179 63.3959 136.069 61.36 127.715 60.6727L130.259 66.8506H128.29L125.779 60.5394C124.376 60.4617 122.937 60.4182 121.462 60.4182C120.416 60.4182 119.389 60.4396 118.378 60.4807L115.843 66.8506H113.873L116.452 60.583C107.591 61.1642 100.044 63.2639 93.4155 66.1431V65.754C97.8398 63.2847 102.215 61.4415 106.938 60.2375V56.4455L101.619 48.2797H103.595L107.816 55.0646L112.039 48.2797H114.013L108.695 56.4455L108.693 59.8219C111.396 59.235 114.222 58.8472 117.243 58.6633L121.627 48.0094H122.506L126.924 58.748C129.89 58.9849 132.67 59.4214 135.335 60.06V49.7004H130.989V48.2797H141.479V49.7004H137.135V60.5268C141.42 61.7238 145.441 63.4648 149.501 65.7578V66.145ZM156.529 48.2797H146.04V49.7004H150.386V62.5046H152.184V49.7004H156.529V48.2797ZM96.3174 62.5046L94.519 62.5065V55.4872H86.7632V62.5046H84.9648V48.2797H86.7632V54.0679H94.519V48.2797H96.3174V62.5046Z" fill="#4B77A9"/>
<path d="M161.273 49.3873C161.188 49.3368 161.049 49.3121 160.858 49.3121H160.565V50.024H160.875C161.022 50.024 161.129 50.0083 161.203 49.9798C161.337 49.9236 161.406 49.8225 161.406 49.6735C161.406 49.5313 161.361 49.4366 161.273 49.3873ZM160.903 49.0797C161.144 49.0797 161.322 49.1031 161.436 49.1485C161.638 49.2332 161.738 49.3999 161.738 49.645C161.738 49.8187 161.675 49.9482 161.549 50.0316C161.481 50.0752 161.388 50.1049 161.265 50.1245C161.421 50.1485 161.531 50.2123 161.603 50.3159C161.671 50.4195 161.707 50.5212 161.707 50.6204V50.7625C161.707 50.8086 161.709 50.8572 161.712 50.9071C161.716 50.9589 161.721 50.9924 161.73 51.0107L161.742 51.0347H161.421C161.419 51.0278 161.418 51.0221 161.416 51.0158C161.414 51.0088 161.414 51 161.412 50.9924L161.404 50.9292V50.7739C161.404 50.549 161.34 50.3999 161.219 50.3273C161.144 50.2862 161.019 50.2641 160.835 50.2641H160.565V51.0347H160.219V49.0797H160.903ZM159.856 48.9786C159.557 49.2787 159.409 49.6412 159.409 50.0645C159.409 50.4909 159.557 50.8547 159.853 51.1554C160.151 51.4573 160.512 51.6064 160.937 51.6064C161.361 51.6064 161.723 51.4573 162.022 51.1554C162.318 50.8547 162.467 50.4909 162.467 50.0645C162.467 49.6412 162.318 49.2787 162.022 48.9786C161.721 48.6798 161.359 48.5295 160.937 48.5295C160.514 48.5295 160.155 48.6798 159.856 48.9786ZM162.196 51.3247C161.85 51.6753 161.431 51.8496 160.937 51.8496C160.443 51.8496 160.024 51.6753 159.677 51.3247C159.333 50.9754 159.161 50.5559 159.161 50.0626C159.161 49.573 159.335 49.1536 159.683 48.8062C160.029 48.4594 160.447 48.2857 160.937 48.2857C161.431 48.2857 161.85 48.4594 162.196 48.8062C162.546 49.1504 162.719 49.5711 162.719 50.0626C162.719 50.554 162.546 50.9747 162.196 51.3247Z" fill="#4B77A9"/>
</g>
<g clip-path="url(#clip0_1742_233)">
<path d="M181.212 93.8619C181.212 93.1833 181.494 92.7154 182.057 92.458C182.645 92.2006 183.279 92.0602 183.96 92.0368C185.181 91.99 186.145 92.2591 186.849 92.8441C187.577 93.429 187.941 93.7215 187.941 93.7215H187.977V92.7388C187.977 92.7388 187.554 92.5984 186.708 92.3176C185.886 92.0134 184.97 91.8613 183.96 91.8613C183.349 91.8613 182.621 92.0251 181.775 92.3527C180.953 92.6803 180.542 93.3588 180.542 94.3884C180.542 95.418 180.906 96.0731 181.635 96.3539C182.363 96.6113 183.161 96.7751 184.03 96.8453C184.923 96.8921 185.745 96.9623 186.497 97.0559C187.225 97.1495 187.589 97.5473 187.589 98.2492C187.589 99.0214 187.202 99.5128 186.426 99.7234C185.675 99.9106 185.146 100.016 184.841 100.039C183.431 100.039 182.41 99.7351 181.775 99.1267C181.165 98.5183 180.859 98.2141 180.859 98.2141C180.836 98.2141 180.812 98.2141 180.789 98.2141C180.789 98.2141 180.777 98.2141 180.754 98.2141L180.824 99.4777C180.824 99.4777 181.282 99.6064 182.198 99.8638C183.114 100.098 183.96 100.215 184.735 100.215C186.262 100.215 187.272 99.8521 187.765 99.1267C188.259 98.4013 188.505 97.8983 188.505 97.6175C188.482 96.5411 188.094 95.8625 187.342 95.5817C186.591 95.301 185.757 95.1372 184.841 95.0904C183.925 95.0436 183.091 94.9851 182.339 94.9149C181.588 94.8447 181.212 94.4937 181.212 93.8619ZM178.781 90.5978L176.772 89.8958C176.561 89.8022 176.338 89.7905 176.103 89.8607C175.891 89.9308 175.727 90.0712 175.609 90.2818L178.287 91.1944C178.358 91.0774 178.428 90.9721 178.499 90.8785C178.593 90.7849 178.687 90.6914 178.781 90.5978ZM176.244 96.0731L175.116 95.687L173.848 95.2308C173.848 95.3712 173.953 95.5466 174.165 95.7572C174.4 95.9678 174.517 96.0731 174.517 96.0731C174.517 96.0731 174.4 96.1784 174.165 96.389C173.953 96.5996 173.848 96.7751 173.848 96.9155L175.116 96.4592L176.244 96.0731ZM180.789 89.1587L178.358 88.3164C178.123 88.2462 177.876 88.2344 177.618 88.2812C177.383 88.328 177.171 88.4333 176.984 88.5971L179.943 89.615C180.084 89.5448 180.225 89.4746 180.366 89.4044C180.507 89.3108 180.648 89.2289 180.789 89.1587ZM177.547 92.2825L175.645 91.6156C175.433 91.5454 175.234 91.5571 175.046 91.6507C174.858 91.7209 174.717 91.8496 174.623 92.0368L177.195 92.9494C177.242 92.8324 177.289 92.7154 177.336 92.5984C177.406 92.4814 177.477 92.3761 177.547 92.2825ZM176.772 94.1427L174.905 93.5109C174.693 93.4407 174.505 93.4641 174.341 93.5811C174.177 93.6747 174.071 93.8151 174.024 94.0023L176.596 94.8798C176.643 94.7628 176.666 94.6458 176.666 94.5288C176.69 94.3884 176.725 94.2597 176.772 94.1427ZM184.348 88.2812C184.629 88.2812 184.9 88.3046 185.158 88.3514C185.44 88.3748 185.71 88.4099 185.968 88.4567L189.844 87.0879C189.586 86.9241 189.304 86.8305 188.999 86.8071C188.693 86.7837 188.4 86.8305 188.118 86.9475L184.348 88.2461L180.613 86.9826C180.331 86.8656 180.037 86.8305 179.732 86.8773C179.426 86.9007 179.145 86.9943 178.886 87.1581L182.727 88.4918C182.985 88.4216 183.244 88.3748 183.502 88.3514C183.784 88.3046 184.066 88.2812 184.348 88.2812ZM191.5 92.9143L194.107 92.0017C194.014 91.8145 193.861 91.6858 193.649 91.6156C193.462 91.522 193.274 91.5103 193.086 91.5805L191.183 92.2474C191.23 92.3643 191.277 92.4813 191.324 92.5983C191.394 92.6919 191.453 92.7973 191.5 92.9143ZM190.408 91.1593L193.086 90.2468C192.968 90.0596 192.792 89.9309 192.557 89.8607C192.346 89.7905 192.134 89.7905 191.923 89.8607L189.879 90.5627C189.973 90.6563 190.067 90.7616 190.161 90.8785C190.255 90.9721 190.337 91.0657 190.408 91.1593ZM188.752 89.615L191.747 88.5971C191.559 88.4333 191.336 88.328 191.077 88.2812C190.842 88.2345 190.608 88.2462 190.373 88.3164L187.906 89.1587C188.047 89.2055 188.188 89.2757 188.329 89.3693C188.47 89.4395 188.611 89.5214 188.752 89.615ZM187.061 85.9297C187.014 85.9297 186.955 85.9179 186.884 85.8945C186.814 85.8711 186.755 85.8594 186.708 85.8594C186.379 85.7658 186.039 85.7307 185.686 85.7541C185.334 85.7775 185.005 85.8477 184.7 85.9647L184.348 86.1051L183.995 85.9998C183.643 85.8828 183.279 85.8126 182.903 85.7892C182.551 85.7658 182.187 85.8009 181.811 85.8945C181.787 85.9179 181.752 85.9413 181.705 85.9647C181.681 85.9647 181.646 85.9647 181.599 85.9647L184.312 86.9123L187.061 85.9297ZM192.099 94.8447L194.671 93.9321C194.624 93.7449 194.519 93.6045 194.354 93.5109C194.19 93.3939 194.002 93.3705 193.79 93.4408L191.923 94.1076C191.97 94.2246 192.005 94.3533 192.029 94.4937C192.052 94.6107 192.076 94.7277 192.099 94.8447ZM178.252 100.987L175.574 101.935C175.692 102.122 175.856 102.25 176.067 102.321C176.302 102.367 176.526 102.367 176.737 102.321L178.745 101.584C178.651 101.49 178.557 101.396 178.463 101.303C178.393 101.209 178.322 101.104 178.252 100.987ZM191.183 99.934L193.086 100.601C193.274 100.671 193.462 100.671 193.649 100.601C193.861 100.507 194.014 100.367 194.107 100.18L191.535 99.3022C191.488 99.3958 191.43 99.5011 191.359 99.6181C191.312 99.7351 191.254 99.8404 191.183 99.934ZM187.941 103.093L190.373 103.9C190.608 103.994 190.842 104.017 191.077 103.97C191.336 103.924 191.559 103.807 191.747 103.619L188.787 102.601C188.646 102.672 188.505 102.754 188.364 102.847C188.223 102.917 188.082 102.999 187.941 103.093ZM189.95 101.619L191.958 102.321C192.17 102.414 192.381 102.426 192.592 102.356C192.827 102.286 193.003 102.157 193.121 101.97L190.443 101.022C190.373 101.139 190.29 101.244 190.196 101.338C190.103 101.432 190.02 101.525 189.95 101.619ZM194.107 96.0731C194.107 96.0731 194.237 95.9678 194.495 95.7572C194.753 95.5233 194.883 95.3478 194.883 95.2308L193.473 95.687L192.346 96.0731L193.473 96.4592L194.883 96.9506C194.883 96.8102 194.753 96.6347 194.495 96.4241C194.237 96.1901 194.107 96.0731 194.107 96.0731ZM191.958 98.0737L193.826 98.7055C194.037 98.7757 194.225 98.764 194.389 98.6704C194.554 98.5768 194.66 98.4247 194.706 98.2141L192.134 97.3367C192.087 97.4536 192.052 97.5823 192.029 97.7227C192.029 97.8397 192.005 97.9567 191.958 98.0737ZM176.596 97.3016L174.024 98.2141C174.047 98.4013 174.141 98.5417 174.306 98.6353C174.494 98.7289 174.693 98.7406 174.905 98.6705L176.772 98.0387C176.725 97.9217 176.69 97.8047 176.666 97.6877C176.643 97.5473 176.619 97.4186 176.596 97.3016ZM179.873 102.531L176.913 103.584C177.101 103.771 177.312 103.888 177.547 103.935C177.806 103.982 178.064 103.959 178.322 103.865L180.718 103.058C180.577 102.964 180.437 102.882 180.296 102.812C180.178 102.718 180.037 102.625 179.873 102.531ZM177.195 99.232L174.623 100.109C174.717 100.32 174.858 100.472 175.046 100.566C175.234 100.636 175.433 100.636 175.645 100.566L177.547 99.934C177.453 99.817 177.383 99.7 177.336 99.583C177.289 99.466 177.242 99.349 177.195 99.232ZM184.348 103.935C184.042 103.935 183.749 103.924 183.467 103.9C183.185 103.853 182.903 103.807 182.621 103.76L178.816 105.058C179.074 105.222 179.344 105.327 179.626 105.374C179.932 105.398 180.237 105.363 180.542 105.269L184.312 103.935L188.118 105.269C188.4 105.363 188.693 105.398 188.999 105.374C189.304 105.351 189.586 105.257 189.844 105.093L186.039 103.76C185.757 103.807 185.475 103.853 185.193 103.9C184.935 103.924 184.653 103.935 184.348 103.935ZM181.529 106.217C181.952 106.334 182.363 106.392 182.762 106.392C183.185 106.369 183.596 106.287 183.995 106.146L184.312 106.076L184.594 106.146C184.994 106.287 185.405 106.369 185.827 106.392C186.274 106.415 186.708 106.369 187.131 106.252L184.312 105.269L181.529 106.217ZM223 111.832V120.747L216.164 113.728V120.537H215.213V111.657L222.048 118.677V111.832H223ZM207.708 111.692C206.369 111.692 205.253 112.125 204.361 112.991C203.492 113.856 203.057 114.921 203.057 116.185C203.057 117.472 203.492 118.548 204.361 119.414C205.253 120.279 206.369 120.712 207.708 120.712C209.047 120.712 210.163 120.279 211.055 119.414C211.948 118.548 212.394 117.472 212.394 116.185C212.394 114.921 211.948 113.856 211.055 112.991C210.163 112.125 209.047 111.692 207.708 111.692ZM207.708 119.94C206.627 119.94 205.723 119.577 204.995 118.852C204.267 118.15 203.903 117.261 203.903 116.185C203.903 115.132 204.267 114.242 204.995 113.517C205.723 112.792 206.627 112.429 207.708 112.429C208.789 112.429 209.693 112.792 210.421 113.517C211.149 114.242 211.513 115.132 211.513 116.185C211.513 117.261 211.149 118.15 210.421 118.852C209.693 119.577 208.789 119.94 207.708 119.94ZM194.883 111.832H201.154V112.605H198.512V120.572H197.56V112.605H194.918V111.832H194.883ZM153.2 118.396C153.2 119.098 152.93 119.659 152.39 120.081C151.873 120.502 151.157 120.712 150.241 120.712C149.465 120.712 148.796 120.537 148.232 120.186C147.668 119.835 147.257 119.343 146.999 118.712L147.809 118.396C148.021 118.887 148.338 119.262 148.761 119.519C149.207 119.8 149.712 119.94 150.276 119.94C150.91 119.94 151.403 119.8 151.756 119.519C152.132 119.238 152.319 118.864 152.319 118.396C152.319 117.834 152.12 117.425 151.72 117.167C151.345 116.91 150.816 116.641 150.135 116.36C149.383 116.056 148.772 115.74 148.303 115.412C147.833 115.061 147.598 114.547 147.598 113.868C147.598 113.213 147.845 112.686 148.338 112.289C148.855 111.891 149.501 111.692 150.276 111.692C150.84 111.692 151.333 111.809 151.756 112.043C152.178 112.254 152.531 112.581 152.813 113.026L152.038 113.412C151.85 113.084 151.603 112.839 151.298 112.675C151.016 112.511 150.663 112.429 150.241 112.429C149.771 112.429 149.36 112.569 149.007 112.85C148.679 113.108 148.514 113.435 148.514 113.833C148.514 114.301 148.714 114.664 149.113 114.921C149.512 115.155 149.982 115.377 150.522 115.588C151.439 115.986 152.108 116.372 152.531 116.746C152.977 117.121 153.2 117.67 153.2 118.396ZM162.995 111.832H163.947V120.572H162.995V117.062H157.428V120.572H156.512V111.832H157.428V116.255H162.96L162.995 111.832ZM168.739 119.8H173.249V120.572H167.823V111.832H173.178V112.605H168.739V116.255H172.685V117.027H168.739V119.8ZM180.859 116.922L183.185 120.572H182.093L179.943 117.097L179.908 117.062H178.358L178.64 116.29H179.838C180.401 116.29 180.871 116.114 181.247 115.763C181.646 115.412 181.846 114.968 181.846 114.43C181.846 113.915 181.658 113.494 181.282 113.166C180.93 112.815 180.472 112.64 179.908 112.64H177.653V120.607H176.737V111.832H179.978C180.777 111.832 181.447 112.078 181.987 112.569C182.551 113.061 182.832 113.669 182.832 114.395C182.832 114.956 182.668 115.459 182.339 115.904C182.01 116.348 181.564 116.664 181 116.851L180.859 116.922ZM189.527 111.657L185.228 120.572H186.215L187.448 117.94H191.535L192.733 120.432L192.804 120.537H193.826L189.527 111.657ZM187.836 117.167L189.527 113.587L191.183 117.167H187.836Z" fill="#030303"/>
</g>
<g clip-path="url(#clip1_1742_233)">
<path d="M312.08 46.6025H308.247C308.659 46.8119 308.907 47.3133 308.907 47.8571C308.907 48.3584 308.763 49.0485 308.474 49.8218L306.557 55.1945L303.116 46.6025H300.026C300.891 47.2714 301.303 48.6304 300.664 50.1356L298.398 55.4458L294.977 46.6025H291.371C291.948 47.0001 292.381 47.9196 292.896 49.1948L296.42 58.1631C296.893 59.3758 297.429 60.0028 298.563 60.5466L302.23 52.1634L304.744 58.1631C305.259 59.3551 305.774 60.0028 306.908 60.5466L312.08 46.6025Z" fill="#827662"/>
<path d="M320.251 57.9543C319.365 58.6231 318.437 58.9157 317.139 58.9157C316.439 58.9157 315.821 58.8532 315.367 58.7482V55.3201H316.315C317.469 55.3201 317.86 55.4039 318.169 55.7589V53.7523H315.367V50.93C315.367 50.93 315.8 50.8669 316.686 50.8669C317.716 50.8669 318.437 51.0344 318.849 51.4945V49.4248H312.132C312.668 49.7174 312.75 50.1562 312.75 51.9752V57.808C312.75 59.6264 312.668 60.0658 312.132 60.3584H319.488L320.251 57.9543Z" fill="#827662"/>
<path d="M328.947 56.972C328.947 53.6271 323.94 53.8572 323.94 51.8081C323.94 51.2018 324.476 50.6792 325.403 50.6792C326.392 50.6792 327.237 51.0349 328.164 51.9338V49.5503C327.216 49.2996 326.453 49.1533 325.506 49.1533C323.446 49.1533 321.343 50.4079 321.343 52.4776C321.343 56.2401 326.351 55.6968 326.351 57.8078C326.351 58.5604 325.691 59.1043 324.558 59.1043C323.28 59.1043 322.044 58.5817 320.767 57.4527L321.446 60.0657C322.477 60.442 323.342 60.6301 324.29 60.6301C326.928 60.6301 328.947 59.1668 328.947 56.972Z" fill="#827662"/>
<path d="M338.517 49.4248H329.719L329.121 51.4945C329.78 51.0344 330.378 50.8669 331.47 50.8669H332.521V57.808C332.521 59.6264 332.438 60.0658 331.882 60.3584H335.735C335.2 60.0658 335.117 59.6264 335.117 57.808V50.8669H336.045C337.013 50.8669 337.672 51.0132 338.002 51.4945L338.517 49.4248Z" fill="#827662"/>
<path d="M343.567 60.3584C343.031 60.0658 342.949 59.627 342.949 57.808V51.9752C342.949 50.1568 343.031 49.7174 343.567 49.4248H339.714C340.25 49.7174 340.332 50.1568 340.332 51.9752V57.808C340.332 59.627 340.25 60.0658 339.714 60.3584H343.567Z" fill="#827662"/>
<path d="M356.361 49.4248H352.838C353.539 49.8011 353.621 50.5956 353.621 51.8083V56.2396L349.108 50.8044C348.655 50.2399 348.346 49.8223 348.057 49.4248H344.946C345.585 49.8011 345.894 50.5118 345.894 51.9958V57.9749C345.894 59.1876 345.811 59.9821 345.111 60.3584H348.634C347.934 59.9821 347.851 59.1876 347.851 57.9749V53.4598L352.508 59.0619C353.167 59.8564 354.013 60.1909 355.578 60.4421V51.8083C355.578 50.5956 355.681 49.8011 356.361 49.4248Z" fill="#827662"/>
<path d="M297.282 66.5557V67.5189C297.282 67.7584 297.319 68.1471 297.051 68.2479V68.2639H298.053V68.2479C297.786 68.1471 297.817 67.7584 297.817 67.5189V65.5076C297.817 65.2682 297.786 64.8795 298.053 64.7786V64.7627H297.051V64.7786C297.319 64.8795 297.282 65.2682 297.282 65.5129V66.1729H295.389V65.5129C295.389 65.2682 295.357 64.8795 295.619 64.7786V64.7627H294.623V64.7786C294.89 64.8795 294.854 65.2682 294.854 65.5076V67.5189C294.854 67.7584 294.885 68.1471 294.623 68.2479V68.2639H295.619V68.2479C295.357 68.1471 295.389 67.7584 295.389 67.5189V66.5557H297.282Z" fill="#827662"/>
<path d="M301.448 65.0559C302.277 65.0559 302.765 65.8061 302.765 66.5829C302.765 67.3757 302.255 67.9667 301.458 67.9667C300.635 67.9667 300.115 67.2005 300.115 66.4555C300.115 65.6516 300.635 65.0559 301.448 65.0559ZM301.484 64.6725C300.383 64.6459 299.518 65.4923 299.518 66.5027C299.518 67.5939 300.394 68.3494 301.432 68.3494C302.476 68.3494 303.362 67.562 303.362 66.4768C303.362 65.5189 302.586 64.6672 301.484 64.6725Z" fill="#827662"/>
<path d="M305.945 65.1461H306.417C306.59 65.1461 306.8 65.1727 306.868 65.3591H306.884L307.052 64.7256H307.036C306.968 64.758 306.884 64.7633 306.794 64.7633H304.838H304.707C304.639 64.7527 304.571 64.7527 304.508 64.7256H304.492L304.309 65.3591H304.324C304.487 65.2045 304.723 65.1461 304.949 65.1461H305.41V67.5196C305.41 67.7591 305.442 68.1477 305.179 68.2486V68.2645H306.218V68.2486C305.94 68.0835 305.945 67.8764 305.945 67.5727V65.1461Z" fill="#827662"/>
<path d="M309.225 66.556H309.613C309.776 66.556 309.996 66.5507 310.08 66.7052H310.096V66.1413H310.08C310.017 66.1732 309.933 66.1732 309.849 66.1732H309.225V65.1829C309.393 65.151 309.577 65.1457 309.76 65.1457C310.001 65.1457 310.216 65.1675 310.379 65.3586H310.395V64.7363H310.379C310.311 64.7735 310.221 64.7628 310.133 64.7628H308.454V64.7788C308.722 64.8796 308.69 65.2683 308.69 65.5131V67.5191C308.69 67.7585 308.722 68.1525 308.454 68.2481V68.264H310.641L310.877 67.5668H310.862C310.599 67.801 310.237 67.9131 309.891 67.8812L309.225 67.8175L309.225 66.556Z" fill="#827662"/>
<path d="M313.066 67.8333V65.5129C313.066 65.2735 313.029 64.8801 313.297 64.7786V64.7627H312.295V64.7786C312.562 64.8801 312.531 65.2682 312.531 65.5129V67.5195C312.531 67.7584 312.562 68.1524 312.295 68.2485V68.2644H314.451L314.723 67.5567H314.708C314.445 67.7802 314.136 67.9023 313.779 67.8811L313.066 67.8333Z" fill="#827662"/>
<path d="M318.15 64.7945C317.899 64.7149 317.631 64.6777 317.369 64.6777C316.729 64.6777 316.052 64.9325 316.052 65.6032C316.052 66.7315 317.857 66.5823 317.857 67.4128C317.857 67.7849 317.406 67.966 317.107 67.966C316.698 67.966 316.267 67.7955 315.958 67.5242L316.11 68.1896C316.409 68.301 316.729 68.3488 317.049 68.3488C317.867 68.3488 318.454 67.8174 318.454 67.2476C318.454 66.2632 316.65 66.2738 316.65 65.5448C316.65 65.1773 317.028 65.0605 317.327 65.0605C317.621 65.0605 317.946 65.1826 318.15 65.3956V64.7945Z" fill="#827662"/>
<path d="M324.06 67.5248C323.876 67.7696 323.609 67.9825 323.289 67.9825C322.885 67.9825 322.555 67.7218 322.555 67.2853C322.555 66.955 322.77 66.6843 323.027 66.4979L324.06 67.5248ZM323.116 65.8857C322.975 65.7583 322.749 65.5453 322.749 65.3324C322.749 65.1301 322.906 65.0292 323.095 65.0292C323.289 65.0292 323.456 65.1513 323.456 65.3536C323.456 65.5719 323.284 65.7636 323.116 65.8857ZM325.959 68.2644V68.2485C324.967 67.7855 324.197 66.9609 323.415 66.2001C323.656 65.9818 323.871 65.7636 323.871 65.4121C323.871 64.9703 323.536 64.6777 323.116 64.6777C322.706 64.6777 322.298 64.9762 322.298 65.4174C322.298 65.7152 322.523 65.9659 322.717 66.1676C322.334 66.4767 321.993 66.7905 321.993 67.3172C321.993 67.9772 322.586 68.3335 323.179 68.3335C323.683 68.3335 324.002 68.1477 324.27 67.7106C324.433 67.8705 324.705 68.0781 324.894 68.1795C325.035 68.2538 325.203 68.2645 325.387 68.2645L325.959 68.2644Z" fill="#827662"/>
<path d="M328.968 64.7627V64.7786C329.235 64.8801 329.199 65.2682 329.199 65.513V67.519C329.199 67.7584 329.235 68.1524 328.968 68.2486V68.2645H329.969V68.2486C329.702 68.1524 329.733 67.7643 329.733 67.519V65.1355C329.854 65.1136 329.969 65.0977 330.09 65.0924C330.442 65.0765 330.767 65.3 330.767 65.6834C330.767 66.1836 330.279 66.3806 329.86 66.4443L330.342 67.1945L330.982 67.9979C331.139 68.1949 331.312 68.2645 331.59 68.2645H332.073C331.774 68.0728 331.443 67.7962 331.223 67.5189L330.468 66.5558C330.898 66.4549 331.302 66.0874 331.302 65.6191C331.302 65.1355 330.919 64.7627 330.217 64.7627H328.968Z" fill="#827662"/>
<path d="M334.12 66.556H334.508C334.67 66.556 334.89 66.5507 334.975 66.7052H334.99V66.1413H334.975C334.911 66.1732 334.828 66.1732 334.744 66.1732H334.12V65.1829C334.287 65.151 334.471 65.1457 334.654 65.1457C334.896 65.1457 335.111 65.1675 335.274 65.3586H335.289V64.7363H335.274C335.206 64.7735 335.116 64.7628 335.027 64.7628H333.349V64.7788C333.616 64.8796 333.585 65.2683 333.585 65.5131V67.5191C333.585 67.7585 333.616 68.1525 333.349 68.2481V68.264H335.536L335.772 67.5668H335.756C335.494 67.801 335.132 67.9131 334.786 67.8812L334.12 67.8175L334.12 66.556Z" fill="#827662"/>
<path d="M339.314 64.7945C339.063 64.7149 338.795 64.6777 338.533 64.6777C337.893 64.6777 337.216 64.9325 337.216 65.6032C337.216 66.7315 339.021 66.5823 339.021 67.4128C339.021 67.7849 338.57 67.966 338.27 67.966C337.862 67.966 337.431 67.7955 337.122 67.5242L337.274 68.1896C337.573 68.301 337.893 68.3488 338.213 68.3488C339.031 68.3488 339.618 67.8174 339.618 67.2476C339.618 66.2632 337.814 66.2738 337.814 65.5448C337.814 65.1773 338.192 65.0605 338.491 65.0605C338.785 65.0605 339.11 65.1826 339.314 65.3956V64.7945Z" fill="#827662"/>
<path d="M342.957 65.0559C343.786 65.0559 344.273 65.8061 344.273 66.5829C344.273 67.3757 343.764 67.9667 342.967 67.9667C342.143 67.9667 341.624 67.2005 341.624 66.4555C341.624 65.6516 342.143 65.0559 342.957 65.0559ZM342.993 64.6725C341.891 64.6459 341.026 65.4923 341.026 66.5027C341.026 67.5939 341.902 68.3494 342.941 68.3494C343.984 68.3494 344.871 67.562 344.871 66.4768C344.871 65.5189 344.095 64.6672 342.993 64.6725Z" fill="#827662"/>
<path d="M346.321 64.7627V64.7786C346.589 64.8801 346.552 65.2682 346.552 65.513V67.519C346.552 67.7584 346.589 68.1524 346.321 68.2486V68.2645H347.323V68.2486C347.056 68.1524 347.087 67.7643 347.087 67.519V65.1355C347.208 65.1136 347.323 65.0977 347.444 65.0924C347.795 65.0765 348.121 65.3 348.121 65.6834C348.121 66.1836 347.633 66.3806 347.213 66.4443L347.696 67.1945L348.335 67.9979C348.493 68.1949 348.666 68.2645 348.944 68.2645H349.426C349.128 68.0728 348.797 67.7962 348.577 67.5189L347.822 66.5558C348.251 66.4549 348.655 66.0874 348.655 65.6191C348.655 65.1355 348.273 64.7627 347.57 64.7627H346.321Z" fill="#827662"/>
<path d="M351.775 65.1461H352.247C352.42 65.1461 352.63 65.1727 352.698 65.3591H352.714L352.882 64.7256H352.866C352.798 64.758 352.714 64.7633 352.625 64.7633H350.669H350.537C350.469 64.7527 350.401 64.7527 350.338 64.7256H350.322L350.139 65.3591H350.155C350.317 65.2045 350.553 65.1461 350.779 65.1461H351.24V67.5196C351.24 67.7591 351.272 68.1477 351.01 68.2486V68.2645H352.048V68.2486C351.77 68.0835 351.775 67.8764 351.775 67.5727L351.775 65.1461Z" fill="#827662"/>
<path d="M356.098 64.7945C355.846 64.7149 355.578 64.6777 355.316 64.6777C354.676 64.6777 353.999 64.9325 353.999 65.6032C353.999 66.7315 355.803 66.5823 355.803 67.4128C355.803 67.7849 355.353 67.966 355.054 67.966C354.645 67.966 354.215 67.7955 353.905 67.5242L354.057 68.1896C354.356 68.301 354.676 68.3488 354.996 68.3488C355.814 68.3488 356.402 67.8174 356.402 67.2476C356.402 66.2632 354.598 66.2738 354.598 65.5448C354.598 65.1773 354.975 65.0605 355.274 65.0605C355.567 65.0605 355.893 65.1826 356.098 65.3956V64.7945Z" fill="#827662"/>
<path d="M357.631 50.8235V50.4094H357.904C358.042 50.4094 358.191 50.4401 358.191 50.6059C358.191 50.8111 358.04 50.8235 357.87 50.8235H357.631ZM357.631 50.9951H357.861L358.209 51.5743H358.432L358.058 50.9857C358.251 50.9615 358.399 50.8571 358.399 50.6182C358.399 50.3546 358.245 50.2378 357.934 50.2378H357.432V51.5743H357.631V50.9951ZM357.873 52.0651C358.496 52.0651 359.027 51.5743 359.027 50.9031C359.027 50.2378 358.496 49.7471 357.873 49.7471C357.245 49.7471 356.713 50.2378 356.713 50.9031C356.713 51.5743 357.245 52.0651 357.873 52.0651ZM356.943 50.9031C356.943 50.3546 357.351 49.9405 357.873 49.9405C358.39 49.9405 358.798 50.3546 358.798 50.9031C358.798 51.4611 358.39 51.8722 357.873 51.8722C357.351 51.8722 356.943 51.4611 356.943 50.9031Z" fill="#827662"/>
</g>
<path fill-rule="evenodd" clip-rule="evenodd" d="M113.124 107.782C112.475 107.782 111.953 108.305 111.953 108.952C111.953 109.6 112.475 110.123 113.124 110.123C113.771 110.123 114.294 109.6 114.294 108.952C114.294 108.305 113.771 107.782 113.124 107.782ZM113.125 110.02C112.528 110.02 112.071 109.544 112.071 108.953C112.071 108.349 112.521 107.886 113.125 107.886C113.727 107.886 114.174 108.352 114.174 108.95C114.174 109.541 113.724 110.02 113.125 110.02ZM51.3299 114.585L51.1638 103.883C51.8912 103.92 52.5877 104.189 53.1521 104.649C53.7166 105.109 54.1194 105.738 54.3022 106.443C55.1453 106.309 56.0081 106.493 56.7231 106.959C57.4381 107.426 57.9542 108.141 58.1711 108.967C53.5535 108.518 51.5465 112.827 51.6904 114.585H52.4709C52.9481 109.868 56.6113 109.165 58.2331 109.253C58.2662 109.443 58.2831 109.64 58.2831 109.841C58.2831 111.124 57.6103 112.244 56.5679 112.836C56.9051 113.379 57.0832 114.006 57.0819 114.645C57.0819 115.771 56.5415 116.77 55.7062 117.397C55.5148 114.858 54.3268 114.252 53.6721 113.924L52.8916 114.556C54.5297 114.873 55.1802 116.574 55.3704 117.621C54.8458 117.926 54.2495 118.086 53.6426 118.085C53.137 118.086 52.6375 117.975 52.1799 117.76C51.7222 117.545 51.3177 117.231 50.9953 116.842H51.0055C50.6831 117.231 50.2787 117.545 49.821 117.76C49.3633 117.975 48.8638 118.086 48.3582 118.085C47.7513 118.086 47.1551 117.926 46.6305 117.621C46.82 116.575 47.4706 114.873 49.1093 114.556L48.3287 113.924C47.674 114.252 46.486 114.858 46.2947 117.397C45.8672 117.077 45.5203 116.662 45.2815 116.184C45.0427 115.706 44.9185 115.179 44.919 114.645C44.9176 114.006 45.0957 113.379 45.4329 112.836C44.3906 112.245 43.7178 111.124 43.7178 109.841C43.7178 109.64 43.7346 109.444 43.7677 109.253C45.3896 109.165 49.0527 109.868 49.5299 114.585H50.3105C50.4549 112.827 48.4479 108.518 43.8297 108.967C44.0468 108.141 44.563 107.426 45.2781 106.959C45.9932 106.493 46.8561 106.309 47.6993 106.443C47.8818 105.738 48.2846 105.109 48.849 104.649C49.4135 104.188 50.1101 103.92 50.8376 103.883L50.6715 114.585H51.3299Z" fill="black"/>
<path fill-rule="evenodd" clip-rule="evenodd" d="M113.31 109.009C113.508 108.978 113.668 108.868 113.668 108.643C113.668 108.392 113.53 108.261 113.217 108.261H112.698V109.645H112.817V109.006H113.177L113.592 109.645H113.724L113.31 109.009ZM113.11 108.903H112.817V108.365H113.199C113.364 108.365 113.549 108.427 113.549 108.64C113.549 108.881 113.32 108.903 113.11 108.903ZM26.6399 117.614C25.7902 117.432 25.7306 116.756 25.7306 115.669L25.5952 109.943C25.5952 108.96 25.9244 108.257 26.401 108.004C26.5051 107.945 26.5948 107.915 26.5948 107.84C26.5804 107.781 26.401 107.766 26.3565 107.766L25.2041 107.779C24.994 107.808 24.8436 107.808 24.6943 108.134L21.0173 115.976L17.2465 108.134C17.0966 107.808 16.9468 107.808 16.7368 107.779L15.2238 107.781C15.1793 107.781 15.0006 107.781 14.9855 107.84C14.9855 107.915 15.0746 107.945 15.1787 108.004C15.6553 108.257 16.555 108.9 16.555 109.884L16.3751 115.608C16.3751 116.696 16.1807 117.387 15.541 117.57C15.4176 117.605 15.3177 117.673 15.3177 117.718C15.3177 117.763 15.3322 117.838 15.4513 117.838L16.6128 117.838L17.6262 117.838C17.8495 117.838 17.9091 117.823 17.9091 117.778C17.9091 117.718 17.8657 117.646 17.7303 117.584C17.3356 117.402 16.8511 117.56 16.8511 116.041L17.031 110.264H17.0611L20.4228 117.51C20.5341 117.703 20.9066 117.738 21.0053 117.51L24.4873 110.084H24.5168L24.6522 115.98C24.6474 117.192 24.2424 117.508 23.8482 117.614C23.8241 117.621 23.6394 117.655 23.6394 117.763C23.6394 117.807 23.699 117.853 23.9228 117.853C24.0715 117.853 25.0307 117.838 25.5663 117.838L26.7284 117.838C26.8476 117.838 26.8319 117.793 26.8319 117.748C26.8319 117.704 26.7651 117.641 26.6399 117.614ZM37.1329 107.796C36.8199 107.796 36.4179 107.856 36.105 107.856C35.8071 107.856 35.1668 107.796 34.9435 107.796C34.7798 107.796 34.6902 107.856 34.6902 107.93C34.6902 108.005 34.819 108.056 35.0326 108.108C35.3359 108.184 35.8667 108.236 35.8667 109.503V115.918L28.73 108.109C28.5952 107.959 28.4736 107.793 28.198 107.78C27.8405 107.78 27.2748 107.795 27.1256 107.795C26.9619 107.795 26.9324 107.84 26.9324 107.899C26.9324 107.93 26.9884 107.986 27.0666 108.004C27.8285 108.183 28.7113 109.529 28.7264 110.318V115.562C28.7264 116.887 28.7155 117.138 28.1685 117.457C27.9031 117.612 27.7003 117.672 27.7003 117.762C27.7003 117.806 27.7147 117.836 27.8189 117.836C27.9976 117.836 28.6517 117.792 28.9641 117.792C29.5003 117.792 29.9769 117.836 30.1556 117.836C30.2303 117.836 30.2748 117.822 30.2748 117.777C30.2748 117.702 30.1707 117.702 29.9619 117.568C29.6345 117.374 29.2024 117.393 29.2024 115.874V110.398C31.5259 112.646 33.9963 115.655 35.8131 117.74C35.9648 117.897 36.046 117.922 36.1929 117.894C36.297 117.894 36.3421 117.269 36.3421 116.479V109.503C36.3253 108.138 36.971 108.123 37.1461 108.049C37.3116 107.978 37.3844 107.96 37.3844 107.915C37.3844 107.869 37.3411 107.796 37.1329 107.796ZM41.0548 117.674C40.5077 117.387 40.1443 116.904 40.1443 115.549V109.3C40.1443 108.719 40.4289 108.138 40.935 107.989C41.0096 107.974 41.0391 107.93 41.0391 107.87C41.0391 107.795 40.8454 107.795 40.7864 107.795C40.444 107.795 39.9059 107.855 39.5635 107.855C39.0129 107.855 38.5351 107.795 38.3563 107.795C38.1625 107.795 38.118 107.795 38.118 107.884C38.118 107.945 38.1625 107.959 38.2221 107.989C38.7439 108.182 38.9984 108.823 38.9984 109.299V115.698C38.9984 116.651 38.7288 117.226 38.0735 117.643C37.9694 117.717 38.0302 117.762 38.0302 117.791C38.0302 117.836 37.9248 117.851 38.044 117.851C38.1776 117.851 38.73 117.807 39.5641 117.807C40.2791 117.807 40.9212 117.851 41.0554 117.851C41.1445 117.851 41.2191 117.836 41.2191 117.807C41.2185 117.763 41.1679 117.732 41.0548 117.674ZM8.29295 105.422C4.8609 105.422 1.70508 107.842 1.70508 111.712C1.70508 115.657 4.68036 117.957 8.11241 117.957C11.5445 117.957 14.9404 115.657 14.9404 111.712C14.941 107.843 11.725 105.422 8.29295 105.422ZM10.0875 117.159C7.24462 118.192 4.67013 116.527 3.58329 113.542C2.40978 110.317 3.75721 107.373 6.15356 106.351C8.80628 105.22 11.7509 106.742 12.925 109.968C14.0112 112.953 13.3474 115.974 10.0875 117.159ZM72.1141 105.715C71.8945 105.715 71.1019 105.788 70.4273 105.788C70.0066 105.788 69.3591 105.715 68.9378 105.715C68.865 105.715 68.6273 105.715 68.6273 105.806C68.6273 105.879 68.6646 105.934 68.7555 105.952C69.376 106.134 69.7767 106.231 69.7767 106.943V111.242H63.0499V106.928C63.0499 106.216 63.4645 106.135 64.0856 105.952C64.177 105.934 64.2137 105.879 64.2137 105.806C64.2137 105.715 63.976 105.715 63.9032 105.715C63.4826 105.715 62.835 105.788 62.415 105.788C61.7391 105.788 60.9472 105.715 60.7281 105.715C60.4904 105.715 60.4357 105.715 60.4357 105.824C60.4357 105.897 60.491 105.915 60.5638 105.952C61.2023 106.19 61.765 106.344 61.765 106.928V116.027C61.7512 116.992 61.4503 117.337 60.7721 117.572C60.6228 117.623 60.5157 117.717 60.5157 117.754C60.5157 117.809 60.5885 117.827 60.7354 117.827C60.8984 117.827 61.3925 117.772 62.415 117.772C63.2906 117.772 63.8569 117.827 64.0206 117.827C64.1313 117.827 64.2216 117.809 64.2216 117.772C64.2216 117.717 64.1602 117.677 64.0206 117.608C63.5066 117.352 63.0565 117.412 63.0499 116.027V111.7H69.7767V115.982C69.7683 117.368 69.3338 117.352 68.8199 117.608C68.6803 117.677 68.6189 117.718 68.6189 117.772C68.6189 117.809 68.7104 117.827 68.8199 117.827C68.983 117.827 69.5499 117.772 70.4267 117.772C71.4479 117.772 71.942 117.827 72.1063 117.827C72.2519 117.827 72.3248 117.809 72.3248 117.754C72.3248 117.717 72.2062 117.648 72.0696 117.572C71.4052 117.202 71.0742 116.946 71.061 115.982V106.943C71.061 106.358 71.6381 106.189 72.2766 105.952C72.3494 105.915 72.4048 105.897 72.4048 105.824C72.4054 105.715 72.3506 105.715 72.1141 105.715ZM90.8216 109.674L90.6007 107.78H83.1956L82.9736 109.674C82.9639 109.82 83.1312 109.902 83.2275 109.763C83.6554 108.949 83.6602 108.558 84.7777 108.558L86.3009 108.553V115.672C86.3009 117.22 86.0626 117.495 85.4662 117.644C85.258 117.688 85.0949 117.688 85.0949 117.763C85.0949 117.807 85.1087 117.852 85.2291 117.852C85.3771 117.852 85.7791 117.807 86.9557 117.807C87.9992 117.807 88.3566 117.852 88.4601 117.852C88.5649 117.852 88.6244 117.837 88.6244 117.792C88.6244 117.762 88.669 117.732 88.4764 117.688C87.939 117.566 87.4834 117.206 87.4774 115.698V108.553L89.0186 108.558C90.1361 108.558 90.141 108.949 90.5688 109.763C90.6651 109.902 90.8324 109.82 90.8216 109.674ZM98.2333 116.023C98.1888 116.023 98.1455 116.053 98.0991 116.097C96.9647 117.327 93.2565 117.567 92.9652 116.781V113.103H95.385C96.1999 113.109 96.2998 113.425 96.6145 114.206C96.6452 114.25 96.7343 114.28 96.7649 114.28C96.8239 114.28 96.8239 114.131 96.8239 114.041V111.507C96.8239 111.358 96.8239 111.268 96.7499 111.268C96.7054 111.268 96.6747 111.298 96.6452 111.343C96.4454 111.755 96.3347 112.387 95.385 112.385H92.9652V108.453H95.6757C97.2199 108.513 97.0249 109.639 96.9954 109.805C96.9647 109.97 97.2199 110.015 97.2506 109.835L97.5527 107.78H91.3265C91.1923 107.78 91.0136 107.78 91.0136 107.869C91.0136 107.914 91.0581 107.928 91.1171 107.958C91.6545 108.226 91.7881 108.733 91.7881 109.299V116.193C91.7881 116.893 91.6388 117.42 90.9395 117.613C90.7458 117.658 90.6705 117.732 90.6705 117.792C90.6705 117.837 90.7307 117.837 90.88 117.837H97.262L98.2779 116.275C98.3085 116.2 98.3085 116.14 98.3085 116.096C98.3085 116.051 98.2785 116.023 98.2333 116.023ZM105.209 116.307C102.453 117.702 101.103 117.237 100.885 116.961L100.888 109.3C100.888 108.719 101.159 108.138 101.665 107.989C101.739 107.974 101.769 107.93 101.769 107.87C101.769 107.795 101.576 107.795 101.516 107.795C101.174 107.795 100.636 107.855 100.294 107.855C99.7426 107.855 99.2642 107.795 99.0855 107.795C98.8929 107.795 98.8478 107.795 98.8478 107.884C98.8478 107.944 98.8923 107.959 98.9513 107.989C99.473 108.182 99.6975 108.823 99.6975 109.299L99.7095 115.953C99.7095 116.653 99.6048 117.42 98.9043 117.613C98.7105 117.658 98.6365 117.732 98.6365 117.792C98.6365 117.837 98.6967 117.837 98.8447 117.837H104.506L105.388 116.485C105.5 116.305 105.351 116.186 105.209 116.307ZM109.693 112.042C108.632 111.653 106.46 111.141 106.51 109.91C106.572 108.469 107.682 108.108 108.793 108.138C109.904 108.168 111.165 109.61 111.375 110.21C111.466 110.405 111.601 110.36 111.615 110.21C111.615 109.399 111.466 108.634 111.375 108.258C111.346 108.048 111.165 108.033 111.09 108.093C111.015 108.153 110.715 108.123 110.52 107.973C110.325 107.822 109.379 107.567 108.808 107.567C108.237 107.567 105.67 108.198 105.61 110.03C105.542 112.101 106.721 112.492 107.592 112.852C108.463 113.212 111.285 113.723 111.285 115.404C111.285 117.297 109.815 117.476 108.913 117.476C108.013 117.476 106.631 117.356 105.821 115.194C105.67 114.714 105.371 114.924 105.46 115.284C105.579 115.704 105.88 117.115 106.18 117.596C106.751 117.957 107.651 118.167 109.003 118.107C110.354 118.046 112.096 116.936 112.096 115.044C112.096 113.152 110.595 112.372 109.693 112.042Z" fill="black"/>
<path fill-rule="evenodd" clip-rule="evenodd" d="M77.9517 107.571C75.0685 107.571 72.417 109.605 72.417 112.857C72.417 116.17 74.9169 118.103 77.8013 118.103C80.6845 118.103 83.537 116.17 83.537 112.857C83.537 109.605 80.8361 107.571 77.9517 107.571ZM79.4598 117.432C77.0713 118.3 74.909 116.902 73.9955 114.393C73.0092 111.683 74.1411 109.21 76.1548 108.351C78.3832 107.4 80.8572 108.68 81.8435 111.39C82.7571 113.899 82.1986 116.437 79.4598 117.432Z" fill="black"/>
<path fill-rule="evenodd" clip-rule="evenodd" d="M30.1423 50.846C30.1423 51.4488 29.9816 52.1488 29.5125 52.7668H30.836V43.1016H26.6025V47.0513C28.891 47.7222 30.1423 49.1089 30.1423 50.846Z" fill="#2F489A"/>
<path fill-rule="evenodd" clip-rule="evenodd" d="M22.8249 46.7056C23.7807 46.7056 24.6695 46.9166 25.3496 47.0883C23.9077 46.8485 21.6745 47.1938 20.5226 48.0553V52.7667H24.756V47.405C25.4787 47.5281 26.1699 47.7926 26.7901 48.1835V52.767H27.7091C26.8433 53.6915 25.2246 54.2546 23.8267 54.0474V54.2408C27.854 54.5412 29.5592 52.7368 29.5592 50.7062C29.5592 48.3151 27.1848 46.9152 24.7563 46.6315V43.1015H20.5223V46.6703C17.7794 47.1906 15.0968 48.7322 15.0968 51.282C15.0968 55.2073 20.8986 57.638 25.9547 57.638C33.6296 57.638 39.5372 54.1322 39.5372 49.2106C39.5372 43.2507 31.006 39 24.3076 39C16.6333 39 10.9818 43.6088 10.9818 48.5325C10.9818 51.0808 12.4959 53.2175 14.4063 54.7054L14.5501 54.6157C13.038 53.4285 11.6746 51.5778 11.6746 49.0346C12.0733 43.6462 19.0991 40.6124 25.3514 40.6124C29.7722 40.6124 37.719 41.5765 37.719 48.5632C37.719 52.2096 33.5986 56.9516 24.9409 56.9516C20.5088 56.9516 17.0668 54.7056 17.0668 51.4818C17.0668 48.6911 19.3791 46.7056 22.8249 46.7056ZM6.42587 71.6603V71.1098H7.90974V66.3535H3.94538V71.1098H5.46748V71.6603H0V71.1098H1.39073V61.417H0V60.8659H5.46748V61.417H3.94538V65.7142H7.90974V61.417H6.42587V60.8659H11.837V61.417H10.4477V71.1098H11.837V71.6603H6.42587ZM13.9349 60.8659H16.4131V62.146H13.9349V60.8659ZM12.7135 71.6603V71.1101H14.0473V64.4686H12.7135V63.9216H16.5094V71.1101H17.7489V71.6603H12.7135ZM18.2836 71.6603V71.1098H19.6548V59.9955H18.2836V59.4464H22.1353V71.1098H23.4317V71.6603H18.2836ZM27.2923 71.6603C25.9381 71.6603 25.2068 71.0052 25.2068 69.9916V64.4686H23.8732V63.9216H25.2068V60.8478C25.9579 60.8478 26.7473 60.8659 27.5182 60.8478V63.9216H29.4339V64.4686H27.5182V71.1101H29.4715V71.6603H27.2923ZM38.77 69.3356C38.4891 70.0612 37.3238 71.8552 34.4868 71.8552C31.3308 71.8552 29.7144 69.8131 29.7144 67.7368C29.7144 64.8604 32.4194 63.6712 34.4311 63.6712C36.2153 63.6712 38.8082 64.6819 39.014 67.6123C39.0517 68.1815 38.9933 68.8024 38.77 69.3356ZM36.084 65.1611C35.7646 64.4888 35.1799 64.1832 34.4115 64.1832C32.4763 64.1832 32.4393 66.0689 32.4393 67.702C32.4393 69.9008 32.6454 70.2946 32.794 70.5599C33.0403 71.0049 33.5661 71.4119 34.4311 71.4119C36.3657 71.4119 36.3657 69.4397 36.3473 67.6304C36.3266 65.6579 36.1975 65.4095 36.084 65.1611ZM45.636 71.6603V71.1101H46.7246V66.5464C46.7246 65.5176 46.7246 64.506 45.5218 64.506C44.8463 64.506 43.7376 65.1453 43.4748 66.1908C43.3817 66.5099 43.3995 66.8479 43.3995 67.702V71.1098H44.639V71.66H39.6045V71.1098H40.938V64.4686H39.6045V63.9216H43.3992V65.0907C43.812 64.5937 44.1527 64.2384 44.959 63.9374C45.4306 63.749 45.9338 63.6521 46.4417 63.652C46.5932 63.652 47.0442 63.652 47.5697 63.7963C49.1496 64.2384 49.2232 65.375 49.2232 66.1908V71.1098H50.5202V71.66L45.636 71.6603ZM37.3821 55.8578H36.9817V55.7161H37.9749V55.8578H37.5718V57.2278H37.3821V55.8578ZM39.104 56.9516H39.1118L39.6048 55.7161H39.8586V57.2278H39.6666V56.0915H39.6571L39.1882 57.2278H39.0126L38.5291 56.0915H38.5213V57.2278H38.3287V55.7161H38.5978L39.104 56.9516Z" fill="#2F489A"/>
<path fill-rule="evenodd" clip-rule="evenodd" d="M260.183 64.8519C259.273 64.3763 259.132 63.0319 259.153 59.7642L259.174 54.7554L257.448 54.753L257.835 53.8248H259.174V51.4528L262.379 50.2667L262.379 53.7456L263.848 53.7483L263.46 54.7759L262.379 54.7744L262.374 63.4426C262.445 64.141 262.68 64.5518 263.014 64.8515L260.183 64.8519ZM228.682 43.4321C228.927 44.1029 229.481 44.7955 229.087 45.5728C228.895 46.3608 228.149 47.0002 227.361 47.1276C226.541 47.2021 225.753 47.0639 225.145 46.5631C224.708 44.2839 225.635 42.1746 227.435 40.918L228.682 43.4321Z" fill="#B01842"/>
<path fill-rule="evenodd" clip-rule="evenodd" d="M231.861 50.3768C231.451 51.7562 227.377 50.8508 226.099 48.5875C227.777 48.7738 229.667 47.2881 229.699 45.5947L231.861 50.3768ZM233.528 50.1982C233.714 50.1155 234.091 49.9292 234.183 49.5297L229.8 40.0233C229.508 39.986 229.294 39.9593 228.921 40.2256L233.528 50.1982ZM235.499 48.1344C237.363 45.3117 235.792 40.6782 231.776 40.0288L235.499 48.1344ZM235.088 54.2124C235.675 53.7194 236.709 53.7078 237.377 54.0245C237.66 54.1655 237.929 54.3538 238.105 54.5999L236.814 56.6086C236.649 56.4789 236.532 56.4207 236.321 56.3151C235.681 56.039 235.006 56.2005 234.617 56.5495V62.4101C234.609 63.423 234.785 64.3474 235.31 64.8288H232.375C231.764 64.3594 231.612 63.6078 231.553 62.9498L231.529 55.1582C231.556 54.5273 231.394 54.2482 231.142 53.8957L234.183 53.9077C234.43 54.0836 234.442 54.3891 234.571 54.6243L235.088 54.2124ZM238.799 56.1384C238.775 55.3985 238.939 54.5122 238.455 53.872H241.277C241.464 54.0129 241.57 54.2482 241.629 54.471C241.782 54.6705 241.77 54.9524 241.84 55.1877L241.864 63.4906C241.981 63.9836 242.169 64.4825 242.533 64.8699L239.516 64.8761C238.529 63.9223 238.852 62.3511 238.776 60.7307L238.799 56.1384ZM243.262 56.2207C243.566 55.3744 244.518 54.952 245.211 54.4943C246.267 54.1068 247.43 53.1437 248.616 53.931C249.602 54.5762 250.471 55.3049 251.094 56.3026C251.247 56.6901 251.317 57.1245 251.423 57.5356C251.423 58.0877 251.54 58.4984 251.528 59.0505C251.563 59.6495 251.563 60.1903 251.528 60.7769C251.493 61.7746 251.023 62.6671 250.236 63.3601C249.062 64.4056 247.582 65.5916 245.986 64.781C244.553 64.1113 242.862 62.7844 242.967 60.9648C242.909 59.6728 242.85 58.5574 243.026 57.3004C243.097 56.9366 243.061 56.5379 243.262 56.2207ZM246.197 62.0926C246.337 62.6089 246.608 63.2429 247.23 63.3135C247.594 63.3256 247.865 63.02 248.076 62.7615C248.734 61.4703 248.64 60.0606 248.64 58.5928C248.428 57.5011 248.687 56.0095 247.512 55.3398C247.101 55.1873 246.784 55.4695 246.526 55.7273C246.068 56.4203 246.015 57.2126 245.986 58.0939C245.833 59.5035 245.997 60.6717 246.197 62.0926ZM253.619 64.8521C252.708 64.3765 252.568 63.0321 252.589 59.7644L252.609 54.7556L250.883 54.7532L251.27 53.825H252.609V51.453L255.815 50.2669L255.814 53.7458L257.283 53.7485L256.896 54.7761L255.815 54.7746L255.809 63.4428C255.88 64.1412 256.114 64.552 256.449 64.8517L253.619 64.8521ZM224.307 55.1578C224.288 54.5254 224.172 54.2478 223.92 53.8953L226.961 53.9073C227.208 54.0832 227.219 54.3887 227.349 54.624L227.865 54.2121C228.452 53.719 229.486 53.7074 230.155 54.0242C230.437 54.1651 230.707 54.3534 230.883 54.5995L229.592 56.6082C229.427 56.4785 229.31 56.4203 229.098 56.3147C228.459 56.0386 227.783 56.2001 227.395 56.5492V62.4098C227.387 63.4226 227.563 64.347 228.089 64.8284H225.153C224.542 64.359 224.368 63.6591 224.331 62.9494L224.307 55.1578ZM201.301 58.241L200.19 60.5141C199.435 61.8554 198.376 63.5014 196.752 63.9102C196.123 64.13 195.568 63.9308 194.96 63.8889L193 67.0964C193.147 67.2532 193.354 67.386 193.556 67.4632C197.004 68.7782 198.392 67.3631 201.789 59.691L204.996 66.5253H209.267L207.249 61.9128L208.391 59.5288L211.546 66.4197L215.634 66.4461L208.481 50.7247L205.186 52.3622L207.768 58.2294L206.636 60.535L201.903 50.3186L198.432 52.0873L201.301 58.241ZM214.431 61.0122C214.513 59.8723 215.135 58.8039 216.192 58.2286C217.237 57.5826 218.459 57.324 219.539 56.7607C219.727 56.6082 219.962 56.4203 219.974 56.1737C219.985 55.8682 219.833 55.633 219.563 55.5277C217.918 55.1752 216.556 56.2087 215.358 57.2309C215.511 56.4785 215.628 55.6566 215.981 54.9524C216.157 54.7645 216.263 54.5059 216.498 54.3654C217.66 53.7897 219.116 53.6255 220.42 53.719C221.489 53.7893 222.475 54.5525 222.839 55.5277C223.027 55.9858 223.015 56.5022 223.05 56.9723L223.062 63.3372C223.074 63.8893 223.332 64.4064 223.661 64.8521H220.619C220.255 64.5229 220.076 64.1121 219.974 63.5958C219.122 64.3474 217.346 65.4635 216.286 64.7232C215.188 64.2294 214.184 62.5736 214.431 61.0122ZM219.821 58.7981C219.797 58.3575 219.48 58.3113 219.257 58.3113C218.529 58.4165 217.902 59.0264 217.554 59.6495C217.243 60.2078 217.17 60.6767 217.143 61.1643C217.14 61.69 217.108 62.0802 217.319 62.48C217.437 62.7378 217.695 62.8554 217.942 62.9257C218.411 63.0197 218.847 62.8908 219.21 62.6442C220.068 62.1621 219.915 61.1989 219.927 60.3421L219.821 58.7981ZM265.234 63.3725C265.386 63.5286 265.463 63.7122 265.463 63.9246C265.463 64.1428 265.386 64.3303 265.232 64.4864C265.079 64.6416 264.894 64.7193 264.677 64.7193C264.46 64.7193 264.274 64.642 264.121 64.4879C264.046 64.4149 263.987 64.3272 263.947 64.2303C263.907 64.1334 263.887 64.0294 263.889 63.9246C263.889 63.7115 263.965 63.5282 264.117 63.3725C264.271 63.2134 264.458 63.1346 264.677 63.1346C264.894 63.1346 265.079 63.2134 265.234 63.3725ZM265.351 63.2506C265.264 63.1606 265.159 63.0894 265.043 63.0414C264.927 62.9934 264.803 62.9696 264.677 62.9715C264.427 62.9715 264.208 63.0581 264.022 63.2301C263.824 63.4153 263.724 63.6462 263.724 63.9246C263.724 64.1929 263.816 64.4188 264 64.6024C264.184 64.7868 264.41 64.8785 264.677 64.8785C264.938 64.8785 265.16 64.7884 265.346 64.6094C265.438 64.5214 265.511 64.415 265.561 64.2971C265.61 64.1792 265.634 64.0523 265.631 63.9246C265.631 63.6614 265.538 63.437 265.351 63.2506ZM264.796 63.8528C264.75 63.8809 264.697 63.8945 264.644 63.8916H264.537V63.5853H264.604C264.673 63.5853 264.726 63.5923 264.765 63.6074C264.821 63.6296 264.85 63.6695 264.85 63.7274C264.849 63.7852 264.831 63.8268 264.796 63.8528ZM264.537 64.0818H264.595L264.655 64.0857C264.688 64.0862 264.72 64.0919 264.75 64.1024C264.768 64.1087 264.784 64.1189 264.797 64.1323C264.811 64.1457 264.821 64.1618 264.827 64.1797C264.836 64.2026 264.842 64.2457 264.844 64.3093C264.847 64.373 264.852 64.4215 264.861 64.4557H265.125L265.117 64.4262C265.109 64.4063 265.106 64.3852 265.107 64.3641V64.2693C265.107 64.1618 265.076 64.083 265.014 64.0329C264.969 64.0015 264.918 63.9808 264.864 63.9724C264.93 63.9669 264.994 63.9421 265.047 63.9009C265.097 63.8613 265.121 63.7969 265.121 63.7084C265.121 63.5915 265.075 63.5073 264.981 63.456C264.916 63.4232 264.845 63.4045 264.772 63.4013C264.699 63.3998 264.627 63.3993 264.554 63.3997C264.424 63.3989 264.326 63.3989 264.26 63.3989V64.4561H264.537V64.0818Z" fill="#B01842"/>
<defs>
<clipPath id="clip0_1742_233">
<rect width="76" height="35" fill="white" transform="translate(147 85.7471)"/>
</clipPath>
<clipPath id="clip1_1742_233">
<rect width="67.6561" height="21.7466" fill="white" transform="translate(291.371 46.6025)"/>
</clipPath>
</defs>
</svg>
