<svg width="18" height="18" viewBox="0 0 18 18" fill="none" xmlns="http://www.w3.org/2000/svg">
<g clip-path="url(#clip0_1_224)">
<path d="M12.3743 0C11.4146 0.066375 10.293 0.680625 9.63939 1.4805C9.04314 2.20612 8.55264 3.28387 8.74389 4.33125C9.79239 4.36387 10.8758 3.735 11.5035 2.92162C12.0908 2.1645 12.5351 1.0935 12.3743 0Z" fill="white"/>
<path d="M16.1665 6.039C15.2451 4.88363 13.9503 4.21313 12.7274 4.21313C11.113 4.21313 10.4301 4.98601 9.30853 4.98601C8.15204 4.98601 7.27342 4.21538 5.8773 4.21538C4.50593 4.21538 3.04569 5.0535 2.11982 6.48675C0.818206 8.50498 1.04095 12.2996 3.15032 15.5317C3.90519 16.6882 4.91318 17.9887 6.23167 17.9999C7.40504 18.0112 7.73579 17.2473 9.32541 17.2394C10.915 17.2304 11.2165 18.0101 12.3876 17.9977C13.7073 17.9876 14.7704 16.5464 15.5252 15.3899C16.0664 14.5608 16.2677 14.1435 16.6874 13.2075C13.6353 12.0453 13.1459 7.70511 16.1665 6.039Z" fill="white"/>
</g>
<defs>
<clipPath id="clip0_1_224">
<rect width="18" height="18" fill="white"/>
</clipPath>
</defs>
</svg>
