<svg width="18" height="18" viewBox="0 0 18 18" fill="none" xmlns="http://www.w3.org/2000/svg">
<path d="M7.27898 9.92992C7.22246 9.92992 6.0368 9.93028 5.48996 9.92974C5.20844 9.92956 5.108 9.8284 5.108 9.54508C5.10755 8.81734 5.10755 8.0896 5.108 7.36186C5.10818 7.08214 5.21438 6.9754 5.4923 6.97522C6.03914 6.97486 7.21832 6.97504 7.27898 6.97504V5.39068C7.27934 4.67536 7.40696 3.99064 7.77038 3.3637C8.14244 2.722 8.68388 2.28244 9.37778 2.02828C9.8222 1.86538 10.2835 1.8004 10.7551 1.80004C11.3452 1.79968 11.9352 1.80022 12.5254 1.8013C12.7791 1.80166 12.8916 1.9138 12.8921 2.16922C12.8932 2.85376 12.8932 3.5383 12.8921 4.22266C12.8917 4.48078 12.7839 4.58446 12.5245 4.58734C12.0409 4.59256 11.5569 4.58932 11.0737 4.60876C10.5858 4.60876 10.3291 4.84708 10.3291 5.35216C10.3174 5.8864 10.3242 6.42118 10.3242 6.97486C10.3699 6.97486 11.7586 6.97468 12.4077 6.97486C12.7026 6.97486 12.8034 7.0762 12.8034 7.37266C12.8034 8.09644 12.8032 8.8204 12.8026 9.54418C12.8025 9.83632 12.7078 9.92956 12.4111 9.92974C11.7621 9.9301 10.3788 9.92992 10.3183 9.92992V15.788C10.3183 16.1003 10.22 16.1999 9.91184 16.1999H7.6577C7.38536 16.1999 7.27916 16.094 7.27916 15.8217L7.27898 9.92992Z" fill="#3D6AD6"/>
</svg>
