<?xml version="1.0" encoding="utf-8"?>
<!-- Generator: Adobe Illustrator 21.1.0, SVG Export Plug-In . SVG Version: 6.00 Build 0)  -->
<svg version="1.1" id="Layer_1" xmlns="http://www.w3.org/2000/svg" xmlns:xlink="http://www.w3.org/1999/xlink" x="0px" y="0px"
	 viewBox="0 0 687 577" style="enable-background:new 0 0 687 577;" xml:space="preserve">
<style type="text/css">
	.st0{clip-path:url(#SVGID_2_);}
	.st1{fill:#EFEFEF;}
</style>
<g>
	<defs>
		<rect id="SVGID_1_" x="0" width="687" height="577"/>
	</defs>
	<clipPath id="SVGID_2_">
		<use xlink:href="#SVGID_1_"  style="overflow:visible;"/>
	</clipPath>
	<g class="st0">
		<g>
			<g>
				<g>
					<path class="st1" d="M532.3,101.9c0.1-0.2,0.1-0.3,0.1-0.5v-2c0-0.2,0-0.3-0.1-0.5c0,0,0,0,0-0.1c-0.1-0.1-0.1-0.3-0.3-0.4
						c0,0,0,0-0.1-0.1c0,0-0.1-0.1-0.1-0.1l-29.5-23c-0.1,0-0.1-0.1-0.2-0.1c-0.1,0-0.1-0.1-0.2-0.1c-0.2-0.1-0.3-0.1-0.5-0.1h-63.8
						L280,20.5l0-0.2c-0.2-0.8-0.8-1.3-1.6-1.3h-8.2c-0.8,0-1.5,0.6-1.6,1.4l-0.1,0.7l-104.7,73h-2.1c-4.4,0-8,3.6-8,8
						c0,0.4,0.3,0.7,0.7,0.7H204c0.1,0,0.1,0,0.2,0h50.9v8.6h-2c-0.9,0-1.6,0.7-1.6,1.6v5.9v285.4H251c-0.5,0-0.8,0.4-0.8,0.8v18.3
						c0,0.5,0.4,0.8,0.8,0.8h45.5c0.5,0,0.8-0.4,0.8-0.8v-18.3c0-0.5-0.4-0.8-0.8-0.8h0.2V118.9V113c0-0.9-0.7-1.6-1.6-1.6h-2v-8.6
						h142.3c0.5,1,1.5,1.6,2.6,1.7c-0.5,0.2-0.8,0.7-0.8,1.2v4.5c0,0.8,0.6,1.4,1.4,1.4h6.7v65.6h-2.4c-0.8,0-1.6,0.4-2.1,1
						c-0.5,0.6-0.8,1.5-0.6,2.3l2.8,16.8c0.2,1.4,1.4,2.4,2.8,2.4h2.8v2.5c0,0.5,0.4,0.9,0.9,0.9c1.8,0,3.2,1.4,3.2,3.2
						c0,1.8-1.4,3.2-3.2,3.2c-1.8,0-3.2-1.4-3.2-3.2c0-0.5-0.4-0.9-0.9-0.9s-0.9,0.4-0.9,0.9c0,2.8,2.3,5.1,5.1,5.1
						c2.8,0,5.1-2.3,5.1-5.1c0-2.5-1.8-4.5-4.1-5v-1.6h2.5c1.4,0,2.5-1,2.8-2.3l3.1-16.8c0.2-0.8-0.1-1.7-0.6-2.3
						c-0.5-0.6-1.3-1-2.2-1h-2.4v-65.6h7.2c0.8,0,1.4-0.6,1.4-1.4v-4.5c0-0.6-0.3-1.1-0.8-1.3c0.9-0.2,1.7-0.8,2.1-1.7H531
						c0.2,0,0.3,0,0.5-0.1c0,0,0,0,0.1,0c0,0,0,0,0,0c0.1-0.1,0.2-0.2,0.4-0.3c0,0,0-0.1,0.1-0.1c0.1-0.1,0.2-0.2,0.2-0.3
						C532.2,102,532.3,102,532.3,101.9z M257.2,358h31.5l-31.5,19.3V358z M257.2,354.7v-18.6l30.3,18.6H257.2z M257.2,309.7h31.3
						l-31.3,19.2V309.7z M257.2,306.4v-18.7l30.5,18.7H257.2z M257.2,261.4h31.1l-31.1,19.1V261.4z M257.2,258.1v-18.8l30.7,18.8
						H257.2z M257.2,213.2h30.9l-30.9,18.9V213.2z M257.2,209.8v-18.9l30.9,18.9H257.2z M257.2,164.9H288l-30.7,18.8V164.9z
						 M257.2,161.5v-19.1l31.1,19.1H257.2z M259.5,379.6l31.5-19.3v19.3H259.5z M291,383v18.6L260.7,383H291z M291,353.1l-30.5-18.7
						H291V353.1z M259.7,331.1l31.3-19.2v19.2H259.7z M291,304.7l-30.3-18.6H291V304.7z M259.5,282.8l31.5-19.3v19.3H259.5z
						 M291,256.3l-31.2-19.1H291V256.3z M260.4,233.8l30.6-18.8v18.8H260.4z M291,207.9l-31-19h31V207.9z M260.2,185.5l30.8-18.9
						v18.9H260.2z M291,159.5l-30.4-18.6H291V159.5z M257.2,384.5l30.1,18.4h-30.1V384.5z M291,137.5h-31.4l27.7-16.9h3.8V137.5z
						 M257.2,135.3v-14.7h24.1L257.2,135.3z M452.2,177.2h-5.7v-65.6h5.7V177.2z M422.7,98.1l19.8-17.8l19.7,17.8H422.7z M269,37.5
						l3.6,3.2l-5,4.5L269,37.5z M267,49.5l7.7-7l7.9,7l5.2,25.5h-25.1L267,49.5z M281.7,45.2l-5.1-4.5l3.5-3.2L281.7,45.2z
						 M467.9,97.7l-20.3-18.3h40.6L467.9,97.7z M285,79.4l-20.3,18.3l-20.3-18.3H285z M236.9,82.1v16H221L236.9,82.1z M241,81.8
						L259,98.1H241V81.8z M270.3,98.1l19.8-17.8l19.7,17.8H270.3z M295.2,79.4h40.6l-20.3,18.3L295.2,79.4z M340.9,80.3l19.7,17.8
						h-39.5L340.9,80.3z M346,79.4h40.6l-20.3,18.3L346,79.4z M391.7,80.3l19.7,17.8h-39.5L391.7,80.3z M396.8,79.4h40.6l-20.3,18.3
						L396.8,79.4z M494.2,79.4h5.3v18.6h-26L494.2,79.4z M503.5,81.4l21,16.6h-21V81.4z M433.8,75H291.1l-10.8-53L433.8,75z
						 M277.1,22.3l2.5,12.2l-4.9,4.5l-5.1-4.5l2.1-12.2H277.1z M166,94.1l102.2-71.3L259.4,75h-20.4c-0.2,0-0.4,0-0.5,0.1
						c-0.1,0.1-0.3,0.1-0.4,0.2c0,0-0.1,0-0.1,0.1l0,0l0,0l-0.2,0.2c-0.2,0.1-0.3,0.3-0.5,0.5l-22.1,22h-6.4c-1.4-2.4-4-4-6.9-4H166
						z"/>
				</g>
			</g>
			<g>
				<g>
					<path class="st1" d="M557.9,564L556,373.3l-51.8-38.8l0.1-37.9l-51.2-37.3l-0.2,0.1l0.2-0.8l-51.3,26.2V149h-5.7v-29.7h-11.8
						l-12-94.8l-12,94.8h-10.1V149H343v66.5L291.9,183l-51.2,46.6l0.1,40.9l-50.7,43.8l1.8,251c-129.4,13.6-207.4,37-207.4,37
						s200-21.8,375.7-24.3c233.3-3.3,401.7,23.7,401.7,23.7C720.3,586.6,642.4,572.6,557.9,564z M295.8,199.8l47.2,29.7v326.4
						c-7.3,0.1-14.6,0.3-21.7,0.5V235.6l-4.8-4.4v325.4c-6.8,0.2-13.6,0.5-20.2,0.8L295.8,199.8z M401.8,555.2v-53.9l0.1,0.1
						l0.1-204.7l47.3-23.8v283.5c-8.2-0.3-16.4-0.6-24.5-0.8V296.9l-4.8,4.2v254.2C413.9,555.3,407.8,555.2,401.8,555.2z"/>
				</g>
			</g>
		</g>
	</g>
</g>
</svg>
