<svg width="95" height="67" viewBox="0 0 95 67" fill="none" xmlns="http://www.w3.org/2000/svg">
<path fill-rule="evenodd" clip-rule="evenodd" d="M53.3123 3.87273C53.0419 4.14545 52.1227 5.61818 52.1227 7.41818C52.1227 7.85455 52.1227 18.1091 52.1227 18.4909C52.1227 19.2545 51.6361 20.4 51.2576 20.7818C50.9873 21.0545 49.3111 22.5818 49.1489 22.7455H50.1222C50.4466 22.4182 53.6908 19.5273 54.0152 19.1455C54.4477 18.6545 55.5291 17.3455 55.5291 15.3273C55.5291 14.8364 55.5291 5.12727 55.5291 4.69091C55.5291 3.10909 56.2861 2.23636 56.6646 1.8C57.0431 1.36364 58.3407 0.272727 58.557 0.0545455L57.5297 0C57.2593 0.272727 53.6908 3.54545 53.3123 3.87273Z" fill="#E03A3E"/>
<path fill-rule="evenodd" clip-rule="evenodd" d="M45.3101 44.1271L49.3112 47.618H51.9065C54.61 47.618 57.0972 46.4725 58.7193 44.7816C60.3414 43.1452 60.9361 40.9089 60.9361 38.8362C60.9361 37.3089 60.9361 33.3816 60.9361 33.1089C60.9361 31.1998 59.7466 30.0543 59.4222 29.7271C59.26 29.5634 58.0704 28.418 58.0704 28.418V32.8362C58.0704 32.8362 59.3681 34.1452 59.5844 34.418C60.7739 35.6725 60.7739 37.9634 56.9891 41.6725C56.3402 42.3271 54.4478 44.0725 51.9065 44.0725C51.6362 44.1271 45.3101 44.1271 45.3101 44.1271Z" fill="#E03A3E"/>
<path fill-rule="evenodd" clip-rule="evenodd" d="M56.3402 20.5092C55.9077 21.0001 55.4751 22.1455 55.4751 23.1819C55.4751 23.7274 55.4751 25.3637 55.4751 25.3637C55.4751 25.3637 57.2594 25.3637 57.6379 25.3637C58.503 25.3637 59.6384 24.6001 59.8547 24.1637C59.8547 24.1092 59.8547 21.9819 59.8547 21.9819C59.8547 21.9819 60.3954 22.8001 61.0442 23.2365C61.2605 22.9637 63.2611 20.5092 64.9372 20.5092C67.7489 20.5092 67.1 24.0546 65.9646 25.1455C65.5861 25.5274 63.964 27.0546 63.4233 27.5455C62.1256 28.8001 59.8547 28.2001 59.8547 24.9274C59.8547 24.9274 57.4216 27.2183 57.0972 27.5455C56.7187 27.8728 55.4751 29.1819 55.4751 29.1819C55.4751 29.1819 55.4751 34.3637 55.4751 34.9092C55.4751 37.6365 54.5559 38.5637 53.853 39.4365C53.5827 39.7637 50.5007 42.6001 50.0682 42.8728H49.0408C49.0408 42.8728 50.8251 41.2365 51.2036 40.8546C51.6362 40.4183 52.0687 39.5455 52.0687 38.1274C52.0687 37.7455 52.0147 29.1274 52.0147 29.1274C52.0147 29.1274 38.6595 29.1274 38.0647 29.1274C33.1985 29.1274 32.1712 23.6728 32.1171 22.2546C32.1171 21.8183 32.1171 17.4546 32.1171 16.8001C32.1171 15.9274 31.5764 14.4001 30.6572 13.9092H32.009C32.1712 13.9637 33.0363 14.3455 33.0363 17.6728C33.0363 17.6728 32.9822 21.5455 32.9822 21.7637C32.9822 23.4546 34.3339 25.4183 36.2264 25.4183C36.6049 25.4183 52.0147 25.4183 52.0147 25.4183C52.0147 24.9819 52.4472 23.3455 53.2042 22.5274C53.6367 22.0365 57.0431 18.9274 57.4216 18.6001H58.4489C58.3408 18.6546 56.7187 20.1274 56.3402 20.5092ZM61.5309 23.7819C61.5309 23.7819 62.4501 24.9819 62.8826 25.3637C64.5588 26.7274 65.3698 25.2546 64.2343 23.6728C63.8018 23.0728 62.0716 23.2365 61.5309 23.7819Z" fill="#E03A3E"/>
<path fill-rule="evenodd" clip-rule="evenodd" d="M44.6072 34.0909C44.6072 34.8546 42.174 36.9273 42.0118 37.0364C41.8496 36.2182 41.2008 35.2909 39.4165 33.4364L42.0659 30.7637C43.8502 32.5637 44.6072 32.9455 44.6072 34.0909Z" fill="#E03A3E"/>
<path fill-rule="evenodd" clip-rule="evenodd" d="M49.2032 3.21818C49.7439 3.76364 50.8793 5.23636 50.1764 5.94545C49.6357 6.54545 48.6625 7.52727 48.6625 7.52727C48.6084 7.2 47.7433 6.32727 47.7433 6.32727C47.7433 6.32727 47.7433 8.94545 47.7433 9.27273C47.6892 10.4727 47.2567 10.8 47.2567 10.8C47.2567 10.8 49.4195 12.9273 49.4195 15.7091C49.4195 17.0727 49.4195 18.2727 49.4195 18.5455C49.4195 19.0909 49.2572 19.5273 48.8788 19.9636C48.6625 20.1818 46.716 22.2 46.3916 22.4727C45.7968 23.0182 45.202 23.0727 44.7695 23.0727C44.4451 23.0727 37.5782 23.0727 37.362 23.0727C36.1724 23.0727 34.9829 22.1455 34.9829 21.2182C34.9829 21 34.9829 18.4364 34.9829 18.4364C35.3614 18.8727 35.7399 19.4182 36.6591 19.3636C37.362 19.3636 38.173 18.7636 38.3352 18.5455C38.5515 18.3273 43.9584 12.6545 43.9584 12.6545C43.9584 12.6545 41.4172 10.3091 39.741 9.16364C38.93 8.61818 37.8486 9.32727 37.6864 10.0364C37.1998 12.2727 37.6864 15.7091 37.6864 15.7091C37.6864 15.7091 36.0102 14.0727 35.6317 13.6364C34.8207 12.8182 34.8207 10.9091 35.794 9.92727C35.9562 9.76364 37.4701 8.07273 39.3625 8.07273C39.687 8.07273 42.0119 8.07273 42.3364 8.07273C44.3369 8.07273 46.4997 10.0909 46.4997 10.0909C46.4997 10.0909 46.8241 9.76364 46.8241 9.38182C46.8241 8.34546 46.77 5.56364 46.77 5.56364C45.2561 4.03636 45.0939 2.50909 45.7968 1.8C47.2026 0.490909 47.6892 0 47.6892 0C47.6892 0 47.6892 1.63636 49.2032 3.21818ZM39.9032 18.2182C39.1463 18.9818 39.0381 19.2 38.3893 19.5818C38.4434 19.5818 46.4997 19.5818 46.716 19.5818C48.9869 19.5818 48.5543 18.1636 48.1218 17.4545C47.3107 15.9818 44.6613 13.2545 44.6613 13.2545C44.6613 13.2545 40.0654 18.0545 39.9032 18.2182Z" fill="#E03A3E"/>
<path fill-rule="evenodd" clip-rule="evenodd" d="M30.3869 25.9092H29.0352C29.0352 25.9092 30.495 26.7274 30.495 28.8546C30.495 29.4001 30.495 35.1274 30.495 35.5637C30.495 39.9274 34.0636 43.9637 38.4432 43.9637C39.2002 43.9637 41.5793 43.9637 42.0659 43.9637C44.2287 43.9637 44.9856 43.4183 46.3374 42.2728C46.824 41.8365 47.4728 41.1274 47.6891 40.8546C48.4461 39.9819 49.2571 39.3274 49.2571 37.0365C49.2571 36.491 49.2571 35.1274 49.2571 34.8546C49.2571 32.9455 48.1757 32.1819 47.635 31.6365C47.3106 31.3092 46.3914 30.3819 46.3914 30.3819V34.9092C46.3914 34.9092 47.3106 35.891 47.6891 36.2183C49.5815 37.7455 48.0676 40.3092 46.3374 40.3092C46.013 40.3092 38.8758 40.3092 38.3892 40.3092C35.4153 40.3637 31.4142 37.7455 31.4142 33.2728C31.4142 32.6728 31.4142 30.0001 31.4142 29.6183C31.4142 25.9092 30.3869 25.9092 30.3869 25.9092Z" fill="#E03A3E"/>
<path fill-rule="evenodd" clip-rule="evenodd" d="M39.1462 34.0909C39.1462 34.8546 36.7131 36.9273 36.5509 37.0364C36.3887 36.2182 35.7399 35.2909 33.9556 33.4364L36.605 30.7637C38.3893 32.5637 39.1462 32.9455 39.1462 34.0909Z" fill="#E03A3E"/>
<path fill-rule="evenodd" clip-rule="evenodd" d="M11.2464 63.9818C10.8139 63.9818 7.46158 63.9818 6.97496 63.9818C5.62322 63.9818 5.73136 62.8363 5.62322 61.9091V55.7454C5.62322 55.7454 6.5424 55.7454 7.62379 55.7454C8.81332 55.7454 10.2732 55.5818 11.7331 56.4C11.7331 56.4 10.7057 53.8909 7.62379 53.8909H5.62322C5.62322 53.8909 5.62322 53.5091 5.62322 52.6909V51.8182C5.62322 51.8182 5.62322 50.0727 5.19067 49.5818C5.19067 49.5818 7.84007 49.5818 8.00228 49.5818C10.4354 49.5818 12.3278 49.5273 14.2743 50.8909C14.2743 50.8909 13.8958 47.6182 9.1918 47.6182C6.48833 47.6182 0.378486 47.6182 0 47.6182C0 47.6182 1.62208 48.9818 1.56801 51.8182L1.62208 63.0545C1.62208 65.8909 2.70347 66 2.70347 66C2.81161 66 3.35231 66 5.8395 66C6.27205 66 6.75868 66 7.29937 66C8.65111 66 10.3813 66 11.7871 66C13.8418 66 14.5447 64.5273 14.5447 63.7091L14.5987 62.6182C14.5987 62.6182 13.9499 63.9818 11.2464 63.9818Z" fill="#E03A3E"/>
<path fill-rule="evenodd" clip-rule="evenodd" d="M35.4153 63.0002V55.1457C35.4153 52.0911 32.9281 51.2729 31.0898 51.2729C28.6566 51.2729 27.8997 53.3457 27.6293 54.0548C27.0886 52.1457 25.1962 51.2729 23.6282 51.2729C20.6544 51.2729 19.9515 54.1093 19.9515 54.1093C19.9515 54.1093 19.8974 51.382 17.5183 51.382H15.1934C15.1934 51.382 16.5451 51.9275 16.5451 54.3275V63.0548C16.5451 65.9457 17.6806 66.0002 17.6806 66.0002H21.5195C21.4113 65.9457 20.0596 64.9093 20.0596 63.0548V55.3093C20.1137 54.982 20.7084 53.782 22.3305 53.782C23.2497 53.782 24.277 54.7639 24.277 55.8548V63.0548C24.277 66.0002 25.4125 66.0002 25.4125 66.0002H29.1973C29.1973 66.0002 27.7375 64.9639 27.7375 63.0548V55.3093C27.8997 54.873 28.3863 53.8366 29.8462 53.8366C30.9816 53.8366 31.9549 54.8184 31.9549 55.9093C31.9549 55.9093 31.9549 62.5093 31.9549 63.1093C31.9549 66.0548 33.0903 66.0548 33.0903 66.0548C35.0909 66.0548 36.9293 66.0548 36.9293 66.0548C36.9293 66.0548 35.4153 64.9093 35.4153 63.0002Z" fill="#E03A3E"/>
<path fill-rule="evenodd" clip-rule="evenodd" d="M42.12 63C42.12 64.9637 43.5799 65.9455 43.5799 65.9455C43.5799 65.9455 41.7415 65.9455 39.741 65.9455C39.741 65.9455 38.5514 65.9455 38.5514 63.0546V54.2727C38.5514 51.9818 37.1997 51.3818 37.1997 51.3818H39.5247C40.3357 51.3818 42.066 51.3818 42.066 54.6546L42.12 63Z" fill="#E03A3E"/>
<path fill-rule="evenodd" clip-rule="evenodd" d="M53.9073 52.4727C53.9073 52.4727 53.5288 51.4364 51.9608 51.4364C49.5817 51.4364 48.987 54.3273 48.987 54.3273C48.7707 52.0364 48.1759 51.3818 46.4998 51.3818H44.1748C44.1748 51.3818 45.5265 51.9273 45.5265 54.2727V63.0546C45.5265 65.9455 46.662 66 46.662 66H50.5009C50.3928 65.9455 49.0411 64.9091 49.0411 63.0546V55.9091C49.1492 55.2546 49.4736 54.7637 49.9602 54.4364C51.2038 53.6182 52.9341 53.7818 53.9073 55.0364C53.9073 54.9273 53.9073 53.4 53.9073 52.4727Z" fill="#E03A3E"/>
<path fill-rule="evenodd" clip-rule="evenodd" d="M71.7501 52.9636C73.0478 52.9636 74.021 53.5091 74.021 53.5091V51.3273H70.8309V48C70.8309 48 69.9658 49.4727 68.2356 50.8909C67.1542 51.8182 64.8833 52.9091 64.8833 52.9091L67.3164 52.9636V63.1091C67.3164 65.9455 68.506 65.9455 68.506 65.9455C70.6147 65.9455 72.3449 65.9455 72.3449 65.9455C72.3449 65.9455 70.885 64.9636 70.885 63.1091V52.9636C71.8042 52.9636 71.1013 52.9636 71.7501 52.9636Z" fill="#E03A3E"/>
<path fill-rule="evenodd" clip-rule="evenodd" d="M83.3753 57.3819C81.2125 59.6183 79.5363 59.291 78.1846 60.9274C78.1846 60.9274 78.4009 63.1637 80.077 63.9819C80.6718 64.2546 82.9968 65.1274 84.5648 62.4546V64.8001C84.5648 64.8001 83.5915 65.9455 80.4555 65.9455C76.7247 65.9455 74.1294 62.9455 74.1294 58.9092C74.1294 54.9274 76.2381 51.2728 80.1852 51.2183C84.0782 51.2728 86.1869 54.4364 83.3753 57.3819ZM80.9962 56.4546C81.645 55.2546 82.1317 52.2546 79.9689 52.4183C77.4817 52.5819 77.9143 59.3455 77.9143 59.3455C78.7794 58.4728 80.023 58.2546 80.9962 56.4546Z" fill="#E03A3E"/>
<path fill-rule="evenodd" clip-rule="evenodd" d="M40.3356 50.1818C41.3088 50.1818 42.1199 49.4182 42.1199 48.4364C42.1199 47.4546 41.3088 46.6909 40.3356 46.6909C39.3623 46.6909 38.5513 47.4546 38.5513 48.4364C38.5513 49.4182 39.3623 50.1818 40.3356 50.1818Z" fill="#E03A3E"/>
<path fill-rule="evenodd" clip-rule="evenodd" d="M57.8542 64.3091C56.9891 64.3091 56.3402 63.3818 56.3402 62.4546C56.3402 58.8 59.3141 58.3091 60.071 57.3273V63.4909C59.8007 63.7637 59.4222 64.3091 57.8542 64.3091ZM60.1251 55.9091C59.26 57.4909 52.3391 57.8182 53.3664 63.2182C53.799 65.3455 55.2048 66 56.9891 66C58.7193 66 59.7466 65.0727 60.1792 64.2546C60.4495 65.8909 61.2606 66 61.2606 66C63.2611 66 65.0995 66 65.0995 66C65.0995 66 63.5856 65.0182 63.5856 63.0546V54.8727C63.5856 52.9091 61.4228 51.3818 59.1519 51.3818C56.935 51.3818 55.5833 52.4727 55.5833 52.4727C55.5833 53.1273 55.5833 55.0364 55.5833 55.0364C55.5833 55.0364 56.3943 53.0182 58.3408 53.0182C60.2873 53.0182 60.4495 54 60.3955 54.4909C60.3955 54.3818 60.6117 55.0364 60.1251 55.9091Z" fill="#E03A3E"/>
<path fill-rule="evenodd" clip-rule="evenodd" d="M91.81 61.9637C91.81 63.0001 90.8908 64.3637 88.9443 64.3637C86.9438 64.3637 86.1327 62.291 86.1327 62.291V64.9092C86.1327 64.9092 87.5926 65.9455 89.7554 65.9455C92.3507 65.9455 95.0001 63.9274 94.946 61.1455C94.946 60.1637 94.5676 59.3455 94.0269 58.5819C93.1617 57.3819 91.5397 56.5637 90.2961 55.8001C89.5932 55.3637 89.2147 54.5455 89.2147 54.2728C89.2147 53.7819 89.431 52.8001 91.3775 52.8001C93.2699 52.8001 94.0809 54.8183 94.0809 54.8183V52.3637C94.0809 52.3637 92.6211 51.2183 90.4042 51.2183C88.1333 51.2183 86.0246 52.7455 86.0787 54.7092C86.1327 56.4546 86.8356 57.5455 88.2414 58.5819C88.7821 59.0183 89.431 59.4001 90.242 59.8364C91.3775 60.491 91.81 61.2546 91.81 61.9637Z" fill="#E03A3E"/>
</svg>
