<svg width="143" height="32" viewBox="0 0 143 32" fill="none" xmlns="http://www.w3.org/2000/svg">
<path fill-rule="evenodd" clip-rule="evenodd" d="M129.308 31.9997C122.544 26.7705 114.36 22.8487 105.493 20.1772V23.4739C113.677 25.5201 121.635 28.3052 129.308 31.9997Z" fill="#B11E43"/>
<path fill-rule="evenodd" clip-rule="evenodd" d="M43.2545 19.3818C32.7393 22.1669 23.1904 26.373 15.6309 32C24.3272 27.9645 33.5919 24.8384 43.2545 22.7353V19.3818Z" fill="#B11E43"/>
<path fill-rule="evenodd" clip-rule="evenodd" d="M77.528 15.6307C74.7429 15.517 71.901 15.517 69.1159 15.6307L67.5244 19.6094C71.4463 19.4389 75.425 19.4957 79.3469 19.6662L77.528 15.6307Z" fill="#B11E43"/>
<path fill-rule="evenodd" clip-rule="evenodd" d="M65.7626 15.8013C59.7377 16.1423 53.8265 16.938 48.1426 18.1885V21.7125C53.3717 20.7462 58.7146 20.121 64.0574 19.78L65.7626 15.8013Z" fill="#B11E43"/>
<path fill-rule="evenodd" clip-rule="evenodd" d="M100.604 18.8136C94.8636 17.3926 88.8955 16.4264 82.8706 15.9717L84.8031 20.0641C90.0891 20.5188 95.3751 21.3145 100.604 22.3945V18.8136Z" fill="#B11E43"/>
<path fill-rule="evenodd" clip-rule="evenodd" d="M34.2734 0.0566406H38.4795L45.8117 11.8791L46.0391 12.277L46.2664 11.8791L53.5986 0.0566406H56.8384L47.6305 13.6411L47.5737 13.7548V13.8116V24.6678H43.7655V14.0958V13.9821V13.9253L34.2734 0.0566406Z" fill="#1E3E74"/>
<path fill-rule="evenodd" clip-rule="evenodd" d="M17.4495 12.5612H4.03556H3.8082V12.8454V24.6678H0V0.0566406H3.8082V10.2876V10.5718H4.03556H17.4495H17.7337V10.2876V0.0566406H21.5419V24.6678H17.7337V12.8454V12.5612H17.4495Z" fill="#1E3E74"/>
<path fill-rule="evenodd" clip-rule="evenodd" d="M73.2651 5.00181L72.9809 4.43343L72.7536 5.00181L62.1816 31.716H59.3965L73.2651 0L74.8566 0.0568422L89.6915 31.716H85.4855L73.2651 5.00181Z" fill="#1E3E74"/>
<path fill-rule="evenodd" clip-rule="evenodd" d="M104.981 2.15967V24.6678H101.173V2.15967V1.87548H100.889H92.7607V0.0566406H113.28V1.87548H105.265H104.981V2.15967Z" fill="#1E3E74"/>
<path fill-rule="evenodd" clip-rule="evenodd" d="M134.594 2.15967V24.6678H130.786V2.15967V1.87548H130.501H122.374V0.0566406H142.892V1.87548H134.821H134.594V2.15967Z" fill="#1E3E74"/>
</svg>
