<svg width="222" height="39" viewBox="0 0 222 39" fill="none" xmlns="http://www.w3.org/2000/svg">
<path d="M128.118 6.37793C129.89 6.37793 131.662 6.37793 133.484 6.37793C133.484 9.26325 133.484 12.0979 133.484 15.2364C134.547 13.9709 135.711 13.2116 137.128 13.0091C138.698 12.8066 140.216 12.8572 141.684 13.3634C144.013 14.1733 145.025 16.0463 145.379 18.3242C145.531 19.2859 145.582 20.2477 145.582 21.2095C145.582 24.3985 145.582 27.5875 145.582 30.8272C145.582 31.1309 145.582 31.384 145.531 31.7384C143.76 31.7384 142.039 31.7384 140.166 31.7384C140.166 31.4346 140.166 31.1309 140.166 30.8272C140.166 27.7394 140.166 24.6516 140.166 21.5638C140.166 21.007 140.115 20.4502 140.014 19.944C139.811 18.881 139.153 18.1723 138.04 17.9698C135.357 17.4636 133.484 18.4254 133.484 21.3613C133.484 24.4998 133.484 27.6382 133.484 30.7766C133.484 31.0803 133.484 31.384 133.484 31.789C131.662 31.789 129.94 31.789 128.118 31.789C128.118 23.3355 128.118 14.9326 128.118 6.37793Z" fill="#0A1D3D"/>
<path d="M153.276 18.8305C151.808 18.8305 150.138 18.8305 148.366 18.8305C148.417 16.907 149.075 15.2871 150.745 14.3254C151.859 13.7179 153.226 13.2117 154.491 13.1105C156.364 12.9586 158.338 13.0093 160.211 13.3636C162.995 13.8698 164.615 15.6415 164.716 18.5774C164.919 22.9307 164.767 27.284 164.767 31.6879C163.147 31.6879 161.578 31.6879 159.908 31.6879C159.857 31.0298 159.857 30.3718 159.806 29.6631C159.654 29.7644 159.553 29.815 159.452 29.8656C157.174 32.346 154.289 32.7003 151.201 31.941C148.872 31.3336 147.506 29.5113 147.354 27.1321C147.151 24.2468 148.113 22.222 150.543 21.3615C152.163 20.7541 153.934 20.6022 155.605 20.2985C156.516 20.1466 157.427 20.096 158.389 19.9441C158.996 19.8429 159.452 19.5392 159.503 18.8811C159.553 18.2231 159.3 17.7169 158.693 17.4638C157.377 16.907 155.959 16.8564 154.643 17.4132C154.086 17.6663 153.783 18.2737 153.276 18.8305ZM159.503 23.5888C159.047 23.6394 158.591 23.7406 158.186 23.7912C156.769 24.0443 155.301 24.1962 153.884 24.5505C152.871 24.8036 152.416 25.6135 152.568 26.6259C152.669 27.4865 153.327 28.1445 154.339 28.1445C155.251 28.1445 156.162 28.0939 156.972 27.8408C158.996 27.1828 159.806 25.816 159.503 23.5888Z" fill="#0A1D3D"/>
<path d="M210.578 18.8302C209.11 18.8302 207.439 18.8302 205.667 18.8302C205.718 16.9573 206.376 15.4387 207.895 14.3757C209.11 13.5151 210.476 13.0596 211.894 13.0596C213.817 13.0596 215.791 13.0596 217.664 13.4139C220.246 13.9201 221.815 15.7424 221.916 18.3746C222.068 22.7785 221.967 27.2331 221.967 31.6876C220.398 31.6876 218.829 31.6876 217.107 31.6876C217.107 31.0295 217.107 30.3715 217.107 29.5616C216.854 29.764 216.703 29.8147 216.601 29.9159C214.273 32.6494 210.122 32.6494 207.844 31.7382C205.718 30.8777 204.706 29.2072 204.554 26.9293C204.402 24.5502 205.161 22.6267 207.389 21.4624C209.11 20.5513 210.983 20.45 212.855 20.2476C213.767 20.1463 214.678 20.0451 215.64 19.8932C216.247 19.792 216.804 19.4883 216.703 18.8302C216.652 18.324 216.298 17.666 215.893 17.4635C214.577 16.8054 213.159 16.8054 211.843 17.4129C211.387 17.6659 211.084 18.2734 210.578 18.8302ZM216.753 23.5884C215.285 23.7909 213.817 23.9934 212.4 24.2465C211.995 24.2971 211.59 24.3984 211.236 24.4996C210.223 24.8539 209.717 25.6132 209.869 26.5244C210.021 27.4355 210.679 28.1442 211.742 28.0936C212.754 28.043 213.817 27.9417 214.779 27.5874C216.449 26.9293 217.107 25.512 216.753 23.5884Z" fill="#0A1D3D"/>
<path d="M167.095 13.5156C168.766 13.5156 170.386 13.5156 172.107 13.5156C172.157 14.123 172.157 14.6798 172.208 15.4391C173.22 14.0218 174.435 13.2625 175.954 13.06C177.573 12.8069 179.143 12.8575 180.712 13.4143C183.293 14.3255 184.357 16.4009 184.458 18.8813C184.61 23.1333 184.508 27.3854 184.508 31.688C182.889 31.688 181.117 31.688 179.244 31.688C179.244 31.3843 179.193 31.03 179.193 30.6756C179.193 27.8409 179.193 25.0062 179.193 22.2222C179.193 21.8678 179.193 21.4629 179.193 21.1085C179.143 18.1726 177.27 17.4133 174.638 17.9195C173.473 18.1726 172.866 18.9825 172.663 20.0961C172.562 20.6529 172.512 21.2098 172.512 21.7666C172.512 24.7531 172.512 27.7397 172.512 30.7769C172.512 31.0806 172.512 31.3843 172.512 31.7386C170.689 31.7386 168.918 31.7386 167.146 31.7386C167.095 25.6643 167.095 19.6406 167.095 13.5156Z" fill="#0A1D3D"/>
<path d="M98.8093 31.7387C97.1388 31.7387 95.519 31.7387 93.798 31.7387C93.798 31.1313 93.798 30.5238 93.798 29.7139C91.925 32.3461 89.3941 32.5486 86.7112 32.1943C84.1802 31.8399 82.5098 30.4226 81.9024 27.9422C81.6493 26.9804 81.548 26.0187 81.4974 25.0063C81.4468 21.4123 81.4468 17.7677 81.4468 14.1737C81.4468 13.9712 81.4974 13.7687 81.4974 13.5662C83.2691 13.5662 84.9901 13.5662 86.8631 13.5662C86.8631 13.87 86.8631 14.1737 86.8631 14.4774C86.8631 17.7171 86.8631 20.9567 86.8631 24.1457C86.8631 26.6767 88.5841 27.9422 91.0645 27.3854C92.5325 27.0311 93.3424 26.0187 93.3424 24.2976C93.393 21.0579 93.3424 17.7677 93.3424 14.528C93.3424 14.2243 93.3424 13.9206 93.3424 13.5156C95.1647 13.5156 96.8858 13.5156 98.7081 13.5156C98.8093 19.59 98.8093 25.6137 98.8093 31.7387Z" fill="#0A1D3D"/>
<path d="M186.128 26.1701C187.748 26.1701 189.419 26.1701 191.089 26.1701C191.241 26.1701 191.443 26.4738 191.595 26.6257C191.848 26.9294 192 27.385 192.304 27.5368C193.822 28.3468 195.442 28.2962 197.011 27.6381C197.315 27.4862 197.67 26.8788 197.619 26.5245C197.568 26.1195 197.214 25.5121 196.86 25.4108C195.948 25.0565 194.936 24.9553 193.974 24.7528C192.759 24.4997 191.494 24.3478 190.33 23.9429C188.204 23.2342 186.938 21.7156 186.786 19.4377C186.634 17.1598 187.343 15.1857 189.419 14.1227C192.861 12.3004 196.404 12.3004 199.897 13.9708C201.77 14.882 202.478 16.603 202.63 18.7797C200.96 18.7797 199.289 18.7797 197.67 18.7797C197.568 18.7797 197.366 18.6278 197.315 18.4759C196.91 17.2611 195.948 17.1092 194.885 17.0586C194.379 17.0586 193.822 17.1092 193.316 17.2611C192.658 17.4129 192.253 17.8179 192.253 18.5772C192.253 19.2859 192.709 19.6402 193.316 19.7921C194.582 20.0452 195.847 20.197 197.113 20.3995C198.024 20.602 198.935 20.8045 199.796 21.1082C201.82 21.8168 202.985 23.2848 203.086 25.4614C203.238 27.6381 202.63 29.5616 200.707 30.8271C199.391 31.6877 197.872 31.9914 196.353 32.1432C194.177 32.3457 192.051 32.2445 189.975 31.5358C187.495 30.7765 186.078 28.8023 186.128 26.1701Z" fill="#0A1D3D"/>
<path d="M63.4771 31.7385C63.4771 23.285 63.4771 14.8822 63.4771 6.42871C65.4006 6.42871 67.3241 6.42871 69.2983 6.42871C69.2983 13.1611 69.2983 19.8429 69.2983 26.6766C72.9429 26.6766 76.4863 26.6766 80.1309 26.6766C80.1309 28.3976 80.1309 30.0681 80.1309 31.7385C74.6134 31.7385 69.0958 31.7385 63.4771 31.7385Z" fill="#0A1D3D"/>
<path d="M112.527 17.9191C111.211 17.9191 109.946 17.9191 108.579 17.9191C108.579 22.5761 108.579 27.1319 108.579 31.7383C106.756 31.7383 104.985 31.7383 103.112 31.7383C103.112 27.1319 103.112 22.6267 103.112 17.9191C102.15 17.9191 101.29 17.9191 100.378 17.9191C100.378 16.4005 100.378 14.9832 100.378 13.4646C101.29 13.4646 102.099 13.4646 103.061 13.4646C103.061 10.9336 103.466 8.65572 105.693 7.18775C107.769 5.82102 110.047 5.7704 112.476 6.17536C112.476 7.59271 112.476 9.01006 112.476 10.478C111.262 10.6299 109.794 10.1237 108.883 11.3892C108.528 11.8954 108.528 12.6547 108.376 13.4646C109.844 13.4646 111.11 13.4646 112.476 13.4646C112.527 14.9326 112.527 16.3499 112.527 17.9191Z" fill="#0A1D3D"/>
<path d="M126.347 31.7894C123.866 32.245 121.437 32.2956 119.209 30.9289C117.488 29.8153 116.881 28.0942 116.83 26.12C116.78 23.7409 116.83 21.3618 116.83 18.9827C116.83 18.6789 116.83 18.3752 116.83 17.9196C115.919 17.9196 115.058 17.9196 114.097 17.9196C114.097 16.4011 114.097 14.9837 114.097 13.5157C114.957 13.5157 115.818 13.5157 116.78 13.5157C116.78 11.6934 116.78 9.97237 116.78 8.20068C118.602 8.20068 120.323 8.20068 122.196 8.20068C122.196 9.92175 122.196 11.6428 122.196 13.4651C123.613 13.4651 124.929 13.4651 126.347 13.4651C126.347 14.9837 126.347 16.3504 126.347 17.9196C125.031 17.9196 123.664 17.9196 122.246 17.9196C122.246 19.5395 122.246 21.0074 122.246 22.4754C122.246 23.4878 122.196 24.4496 122.297 25.462C122.398 26.8793 123.006 27.4361 124.372 27.5374C125.031 27.588 125.638 27.5374 126.347 27.5374C126.347 28.9041 126.347 30.3214 126.347 31.7894Z" fill="#0A1D3D"/>
<path d="M0 19.033C0 8.45348 8.45347 0 18.9823 0C29.5618 0 38.0659 8.55471 38.0153 19.0836C37.9647 29.6125 29.4606 38.1165 18.9823 38.1165C8.45347 38.1165 0 29.6125 0 19.033ZM36.9017 19.1342C36.9523 9.21277 28.9544 1.16425 19.0836 1.11363C9.21277 1.06301 1.11363 9.11153 1.06301 18.9823C1.01239 28.9038 9.06091 37.0536 18.9317 37.0536C28.8025 37.0536 36.8511 29.005 36.9017 19.1342Z" fill="#0A1D3D"/>
<path d="M34.8265 15.2363C34.4722 16.0463 33.8648 15.945 33.308 15.8438C31.1313 15.5907 28.904 15.3882 26.7274 15.2363C26.4237 15.2363 26.0693 15.4388 25.7656 15.5401C25.8162 15.5907 25.8163 15.6919 25.8669 15.7425C28.3979 15.9956 30.9288 16.1981 33.5104 16.4512C33.2067 17.2105 32.7511 17.2611 32.1943 17.2105C30.0683 17.008 27.8917 16.8562 25.7656 16.7043C25.4619 16.7043 25.1582 16.9068 24.8545 17.008C24.8545 17.0587 24.9051 17.1599 24.9051 17.2105C27.2842 17.3624 29.714 17.5648 32.1943 17.7167C31.84 18.6785 31.1819 18.476 30.5745 18.4254C28.6003 18.3241 26.6262 18.2229 24.652 18.1723C24.247 18.1723 23.8927 18.4254 23.4877 18.5772C23.4877 18.7291 23.5384 18.8303 23.5384 18.9822C25.9175 18.9822 28.2966 18.9822 30.777 18.9822C30.4733 19.7921 30.0177 19.8427 29.4609 19.7921C26.3224 19.4884 23.2347 19.5896 20.3493 21.0576C19.995 21.2601 19.6407 21.4626 19.1345 21.7157C21.8173 24.3985 25.057 25.5627 28.8028 25.7146C28.246 26.5245 27.7904 26.9295 26.778 26.6764C22.0704 25.5628 17.6665 23.7404 13.6169 21.1082C10.3773 19.0328 7.23886 16.8056 3.69549 15.287C3.44239 15.1857 3.34115 14.7808 3.13867 14.5277C3.18929 14.4771 3.29053 14.3758 3.34115 14.3252C3.79673 14.5277 4.2523 14.6795 4.70788 14.882C5.21407 15.0845 5.66965 15.3376 6.12523 14.8314C6.22647 14.7302 6.53018 14.7301 6.68204 14.7808C9.06116 15.8438 11.4403 16.9574 13.7688 18.0204C13.7688 18.1217 13.7182 18.2229 13.7182 18.3241C13.4651 18.2735 13.1614 18.3241 12.9083 18.2229C11.9465 17.8686 11.0353 17.413 10.1242 17.008C9.87108 16.9068 9.61798 16.9068 9.36488 16.8562C9.31426 16.9068 9.31426 17.008 9.26364 17.0587C9.4155 17.1599 9.51674 17.3117 9.6686 17.413C10.8328 18.0204 11.9465 18.6785 13.1614 19.1847C15.4899 20.1464 17.6665 19.6402 19.4382 17.9192C20.2987 17.1093 20.9061 15.9956 21.6654 15.0339C21.8679 14.7808 22.121 14.4771 22.4247 14.4771C26.5755 14.1227 30.6757 14.4771 34.8265 15.2363Z" fill="#0A1D3D"/>
</svg>
