<svg width="177" height="41" viewBox="0 0 177 41" fill="none" xmlns="http://www.w3.org/2000/svg">
<path fill-rule="evenodd" clip-rule="evenodd" d="M45.707 0.119629H51.2557V32.893H45.707V0.119629Z" fill="#ABABAB"/>
<path fill-rule="evenodd" clip-rule="evenodd" d="M24.1112 11.9757C24.1112 11.2173 23.5923 10.7781 22.9536 10.7781C22.3548 10.7781 21.7959 11.1773 21.7959 11.9757V27.7836C21.7959 28.5819 22.3548 28.9811 22.9536 28.9811C23.5523 28.9811 24.1112 28.542 24.1112 27.7836V22.5941H29.6599V27.3445C29.6599 31.2166 26.6261 33.2125 22.9536 33.2125C19.4407 33.2125 16.2871 31.2565 16.2871 27.3445V12.3749C16.2871 8.46286 19.4407 6.50684 22.9536 6.50684C26.5462 6.50684 29.6599 8.54269 29.6599 12.3749V16.6462H24.1112V11.9757Z" fill="#ABABAB"/>
<path fill-rule="evenodd" clip-rule="evenodd" d="M36.5254 12.6541C36.5254 11.8558 37.0843 11.4566 37.683 11.4566C38.2818 11.4566 38.8407 11.8957 38.8407 12.6541V32.893H44.3894V11.2171C44.3894 7.66429 42.114 6.46672 40.3576 6.46672C38.4016 6.46672 37.0443 7.86388 36.6452 8.58242H36.5653V0.119629H31.0166V32.893H36.5653V12.6541H36.5254Z" fill="#ABABAB"/>
<path fill-rule="evenodd" clip-rule="evenodd" d="M60.4368 27.2645C60.4368 28.023 59.9178 28.4621 59.2791 28.4621C58.6803 28.4621 58.1215 28.0629 58.1215 27.2645V6.78613H52.5728V28.5419C52.5728 31.4161 54.5687 33.2124 56.6844 33.2124C58.84 33.2124 60.0376 31.6556 60.3569 31.0568H60.4767L60.5565 32.893H65.9056V6.78613H60.4368V27.2645Z" fill="#ABABAB"/>
<path fill-rule="evenodd" clip-rule="evenodd" d="M72.892 32.8932H67.3433V6.78627H72.8121L72.8521 8.62254H72.9718C73.371 7.82416 74.6883 6.50684 76.6843 6.50684C78.76 6.50684 80.0774 8.10359 80.3568 9.02172H80.4366C80.8358 8.06367 82.3128 6.50684 84.3886 6.50684C86.5043 6.50684 88.5402 7.94391 88.5402 11.4967V32.9331H82.9914V12.4547C82.9914 11.6564 82.4326 11.2572 81.8338 11.2572C81.235 11.2572 80.6761 11.6963 80.6761 12.4547V32.9331H75.1274V12.4547C75.1274 11.6564 74.5686 11.2572 73.9698 11.2572C73.371 11.2572 72.8521 11.6963 72.8521 12.4547V32.8932H72.892Z" fill="#ABABAB"/>
<path fill-rule="evenodd" clip-rule="evenodd" d="M99.1187 6.46672C97.2824 6.46672 95.9252 8.02356 95.5659 8.62234H95.4462V0.119629H89.8975V32.893H95.3663L95.4462 31.0567H95.5659C95.8454 31.7753 97.0429 33.1724 99.0788 33.1724C101.434 33.1724 103.35 31.1366 103.35 28.1027V11.1771C103.35 8.30299 101.354 6.46672 99.1187 6.46672ZM97.8014 27.3044C97.8014 28.0628 97.2824 28.5019 96.6437 28.5019C96.045 28.5019 95.4861 28.1027 95.4861 27.3044V12.4545C95.4861 11.6562 96.045 11.257 96.6437 11.257C97.2425 11.257 97.8014 11.6961 97.8014 12.4545V27.3044Z" fill="#ABABAB"/>
<path fill-rule="evenodd" clip-rule="evenodd" d="M110.216 27.7439C110.216 28.5423 110.775 28.9415 111.373 28.9415C111.972 28.9415 112.531 28.5024 112.531 27.7439V22.5545H118.08V27.3048C118.08 31.2568 114.846 33.2128 111.373 33.2128C107.861 33.2128 104.707 31.2568 104.707 27.3048V12.3352C104.707 8.42319 107.861 6.42725 111.373 6.42725C114.966 6.42725 118.08 8.42319 118.08 12.3352V20.7581H110.256V27.7439H110.216ZM112.531 16.8461V11.976C112.531 11.2175 112.012 10.7784 111.373 10.7784C110.775 10.7784 110.216 11.1776 110.216 11.976V16.8461H112.531Z" fill="#ABABAB"/>
<path fill-rule="evenodd" clip-rule="evenodd" d="M126.144 11.2173C125.545 11.2173 124.986 11.6164 124.986 12.4148V32.8932H119.438V6.78627H124.866L124.986 8.62254H125.106C125.625 7.904 126.982 6.50684 128.818 6.50684C130.974 6.50684 132.85 8.26327 132.85 11.0177V20.8377H127.302V12.2951C127.262 11.6164 126.663 11.2173 126.144 11.2173Z" fill="#ABABAB"/>
<path fill-rule="evenodd" clip-rule="evenodd" d="M154.446 27.7439C154.446 28.5423 155.005 28.9415 155.604 28.9415C156.203 28.9415 156.762 28.5024 156.762 27.7439V22.5545H162.31V27.3048C162.31 31.2568 159.077 33.2128 155.604 33.2128C152.091 33.2128 148.938 31.2568 148.938 27.3048V12.3352C148.938 8.42319 152.091 6.42725 155.604 6.42725C159.197 6.42725 162.31 8.42319 162.31 12.3352V20.7581H154.486V27.7439H154.446ZM156.722 16.8461V11.976C156.722 11.2175 156.203 10.7784 155.564 10.7784C154.965 10.7784 154.406 11.1776 154.406 11.976V16.8461H156.722Z" fill="#ABABAB"/>
<path fill-rule="evenodd" clip-rule="evenodd" d="M170.293 11.2173C169.695 11.2173 169.136 11.6164 169.136 12.4148V32.8932H163.587V6.78627H169.016L169.136 8.62254H169.255C169.774 7.904 171.132 6.50684 172.968 6.50684C175.123 6.50684 177 8.26327 177 11.0177V20.8377H171.451V12.2951C171.451 11.6164 170.852 11.2173 170.293 11.2173Z" fill="#ABABAB"/>
<path fill-rule="evenodd" clip-rule="evenodd" d="M141.991 25.6678C141.991 26.4262 141.473 26.8653 140.834 26.8653C140.235 26.8653 139.676 26.4661 139.676 25.6678V12.4546C139.676 11.6562 140.235 11.2571 140.834 11.2571C141.433 11.2571 141.991 11.6962 141.991 12.4546V25.6678ZM141.991 34.8092C141.991 35.5676 141.473 36.0067 140.834 36.0067C140.235 36.0067 139.676 35.6075 139.676 34.8092V32.6935H134.127V34.1306C134.127 38.2023 136.962 40.0385 140.794 40.0385C144.626 40.0385 147.5 38.2023 147.5 34.1306V6.78615H142.031L141.952 8.62242H141.872C141.592 8.02363 140.275 6.4668 138.239 6.4668C136.243 6.4668 134.207 7.98371 134.207 10.8579V26.4661C134.207 29.46 136.123 31.2165 138.279 31.2165C140.315 31.2165 141.512 29.8592 141.872 29.3004H142.031V34.8092H141.991Z" fill="#ABABAB"/>
<path fill-rule="evenodd" clip-rule="evenodd" d="M6.30718 27.3444C6.30718 28.1428 6.86604 28.542 7.46482 28.542C8.0636 28.542 8.62247 28.1029 8.62247 27.3444V24.2307C8.62247 21.7558 8.10352 20.8775 6.26726 19.1211C4.71042 17.6441 3.91205 16.8857 2.91408 15.9276C1.63667 14.6901 0.119756 13.0135 0.119756 9.82003V5.90799C0.119756 1.59675 3.71245 0 7.46482 0C11.2172 0 14.8099 1.63667 14.8099 5.86807V10.9378H8.58255V6.02775C8.58255 5.26929 8.0636 4.83018 7.4249 4.83018C6.82612 4.83018 6.26726 5.22937 6.26726 6.02775V8.38295C6.26726 10.4188 6.90596 11.3369 8.58255 12.9337C9.26117 13.5724 10.818 15.0893 11.9756 16.247C14.0913 18.3227 14.8498 20.1989 14.8498 22.7936V27.1847C14.8498 31.7355 11.1773 33.3322 7.38498 33.3322C3.55278 33.3322 0 31.7355 0 27.3843V21.1171H6.22734V27.3444H6.30718Z" fill="#ABABAB"/>
</svg>
