<svg width="248" height="52" viewBox="0 0 248 52" fill="none" xmlns="http://www.w3.org/2000/svg">
<path d="M28.2502 2.25593C28.1866 1.74755 28.5997 1.46159 28.5361 1.11208C28.2184 1.01676 28.6315 0.571923 28.3455 0.413054C27.8371 0.826113 28.2819 0.0317737 27.996 0C27.2334 0.762569 26.5026 1.62046 25.8671 2.5419C23.4841 6.25942 21.6095 10.0405 20.1161 14.1393C19.7984 14.6795 19.5759 15.2514 19.4171 15.8869C19.1629 16.1728 19.1311 16.7765 18.9722 17.0943C19.1629 17.4438 18.8134 17.6662 18.8452 18.0157C18.6227 18.0475 18.7816 18.5241 18.5592 18.2699C18.4003 18.2699 18.7498 18.81 18.4956 19.1278C18.4639 19.382 18.2415 19.2549 18.2097 19.382C18.5274 19.5091 17.8602 19.4773 18.2097 19.6997C18.3368 19.8268 18.1461 20.0492 18.0826 20.2081C17.9555 19.9857 17.9237 20.4623 17.7966 20.5894C17.7331 20.6211 17.9873 20.5894 17.8919 20.7165C17.6695 21.0342 17.8919 21.0024 17.8602 21.2884C17.7966 21.3202 17.7966 21.3837 17.7331 21.3519C17.6695 21.2884 17.7648 21.2248 17.6695 21.2248C17.7648 21.3837 17.4153 22.2416 17.4153 22.2416H17.6378C17.6378 22.2416 18.0826 21.9874 17.2565 23.0995C17.2247 22.9724 17.1294 22.8771 17.1611 23.0995C17.32 23.5125 16.8116 23.6079 17.0023 23.8621C16.8752 24.1798 17.0658 24.6564 16.6528 24.7835C16.7163 24.9106 16.8116 24.7835 16.7799 24.9741C16.4303 26.7217 16.2715 26.7217 16.2715 26.7217C16.2715 26.7217 16.5574 26.9759 16.335 27.103C16.1762 26.9123 16.1762 27.4843 16.2715 27.2936C16.3668 27.516 16.1762 27.8655 16.2397 28.1515C16.1126 28.2786 15.7313 28.7234 16.1126 28.3422C15.8902 28.6917 16.0491 29.3271 15.7313 29.5496C15.922 29.8037 15.6678 30.185 15.7631 30.3757C15.4454 30.6934 15.6042 31.1382 15.4136 31.5195C15.4771 31.6466 15.4771 31.8055 15.35 31.869C15.1912 32.5998 15.1594 33.2353 15.0323 34.0296C15.0323 34.2203 14.9052 34.5063 14.8099 34.4745C14.651 35.0782 14.651 36.1903 14.3968 36.9846C14.5875 37.5248 14.3333 38.1285 14.3015 38.6051C14.3651 38.6051 14.3968 38.6368 14.4604 38.6368C14.4922 38.6686 14.5239 38.7004 14.5239 38.7322C14.1426 38.6686 14.5875 39.0181 14.3015 39.0499C14.2697 39.0817 14.2697 39.1134 14.2697 39.1134C14.3015 39.0817 14.3968 39.0499 14.3968 39.1452C14.0473 39.3676 14.5239 39.7807 14.238 40.0031C14.0791 40.5115 13.9838 41.0516 14.0155 41.4647C14.2062 41.5918 13.8249 41.7824 14.0155 41.7824C14.1426 41.846 13.9838 41.8778 13.952 41.9413C13.8885 42.1637 13.666 42.6085 13.952 42.7992C14.238 42.6403 13.8885 42.7356 13.8885 42.5768C14.0155 42.5132 14.0473 42.3861 14.1426 42.3226C13.7931 41.9731 14.8417 41.8142 14.1426 41.5282C14.3333 41.3694 14.3015 41.6236 14.4286 41.6553C14.5875 41.3694 14.2697 41.2105 14.238 40.9563C14.7463 40.7339 14.6192 40.4162 14.8099 39.876C14.4922 39.6218 15.0959 39.5265 15.0959 39.3041C14.3968 39.0499 15.5725 38.7957 15.1594 38.3509C15.2229 38.2555 15.4136 37.8743 15.1594 38.1602C15.2547 38.0331 15.0323 37.7789 15.3183 37.8107C15.2547 37.5565 15.4771 37.2706 15.5089 37.0164C15.7631 36.8257 15.3818 36.4445 15.7313 36.3491C15.5725 36.1903 15.5089 35.8725 15.6996 35.8725C15.8902 35.8725 15.8902 35.523 15.7313 35.3959C16.1126 34.538 16.0808 33.7119 16.2715 33.0764C16.335 32.854 16.335 32.5363 16.4621 32.4092C16.4621 31.17 17.1294 30.0579 17.3518 28.9141C17.5742 28.6917 17.32 28.1833 17.7013 28.2786C17.2882 29.1683 17.3518 30.0897 16.9387 30.9158C17.1294 31.2018 16.8434 32.2185 16.5892 32.6316C16.4939 32.7905 16.3986 33.0764 16.5574 33.2671C16.3986 33.6484 16.2079 33.8708 16.3668 34.2838C16.1762 34.4745 16.621 35.0146 16.1444 35.2688C15.922 36.3174 15.636 37.2388 15.5725 38.2556C15.636 38.1602 15.5725 38.0967 15.6678 38.0649C15.7631 38.1285 15.7313 38.2238 15.6996 38.3191C15.5725 38.3827 15.636 38.9864 15.4454 38.6368C15.1276 39.1452 15.35 39.6536 15.0959 40.2255C15.3818 40.6704 14.7146 40.7974 14.937 41.2423C14.937 41.4965 14.7146 41.7824 14.6828 42.0366C14.7463 42.2908 14.7781 42.0684 14.7781 42.0048C14.937 41.8778 14.9688 42.0684 14.937 42.1955C14.9688 42.0684 15.0959 42.0048 15.0641 41.846C15.0641 41.7189 14.9688 41.6236 14.9688 41.846C14.9052 41.8778 14.9052 41.9095 14.8417 41.8778C14.8099 41.846 14.7781 41.8142 14.8099 41.7507C14.8734 41.5918 15.0323 41.1152 15.0641 41.5282C15.2547 41.0516 15.4454 40.2255 15.4771 39.6854C15.5089 39.6854 15.5407 39.6218 15.6042 39.6218C15.5089 39.2088 15.9855 38.9228 15.922 38.5415C15.922 38.478 15.9855 38.2873 16.0173 38.1602C15.8902 38.3191 15.8902 38.0967 15.8266 38.0014C16.2715 37.8425 15.9537 37.4612 16.2397 37.2388C16.3986 38.0014 15.8902 38.8593 16.0173 39.5583C16.0808 39.177 16.1126 38.9228 16.1444 38.6368C16.2715 38.478 16.335 38.2873 16.3033 38.0331C16.5257 37.7472 16.4303 37.4294 16.5892 37.1752C16.7799 37.0164 16.6528 36.794 16.8116 36.794C16.7799 36.7304 16.6845 36.7622 16.6845 36.6986C16.8434 36.6351 16.621 36.1585 16.8752 36.4762C17.0341 36.3809 16.6528 35.8407 17.0341 35.7772C16.8434 35.237 17.5424 34.7922 17.32 34.2521C17.2882 33.9661 17.4153 33.6166 17.5107 33.1718C17.7331 33.0764 17.5424 32.5998 17.8284 32.854C17.5424 34.3156 17.3518 35.6183 17.0341 37.0799C17.2565 36.8893 17.1294 36.7304 17.3518 36.6986C17.1611 36.1585 17.5107 36.1267 17.5107 35.8725C17.5742 35.7772 17.32 35.6819 17.5107 35.5548C17.6695 35.5866 17.5742 35.523 17.5107 35.4595C17.7648 35.11 17.6695 35.5866 17.7331 35.6501C17.7648 35.5548 17.7331 35.523 17.7331 35.4595C17.7966 35.3959 17.8284 35.2053 17.9237 35.3959C17.606 36.1903 18.0826 35.1735 17.9873 35.237C17.7013 35.4277 17.5424 35.3006 17.606 35.0146C17.5424 34.6651 17.7966 34.5698 17.9873 34.2838C18.0826 34.4109 18.0508 34.6016 18.019 34.7287C18.1461 34.4109 18.0826 34.0614 18.4003 33.9343C18.0826 33.8708 18.3685 33.4577 18.0508 33.5848C17.8919 33.5213 17.9555 33.3624 18.0826 33.2671C18.4003 33.1082 18.1144 33.4259 18.2414 33.553C18.4003 33.1718 18.305 33.2989 18.5592 32.9176C18.4003 32.7587 18.5592 32.5998 18.5592 32.5363C18.6227 32.2821 18.8134 31.9644 18.9405 31.6466C18.9405 31.3924 18.5592 31.5195 18.4321 31.6466C18.3685 31.5831 18.4321 31.456 18.4321 31.3924C18.5592 31.2018 18.9722 31.3924 18.7498 31.2653C18.9087 31.17 19.1311 31.1382 19.1311 30.9158C18.8134 30.5663 19.3218 30.4392 19.1311 30.1215C19.1629 30.0579 19.2264 30.0897 19.29 30.0897C19.3218 30.1215 19.3535 30.1533 19.3535 30.2168C19.4489 30.0897 19.4806 29.8673 19.4489 29.7402C19.0358 29.4542 19.6713 29.5496 19.6713 29.2954C19.6713 29.1047 19.5124 29.2636 19.6077 29.3589C19.5442 29.3907 19.5124 29.486 19.4489 29.4542C19.4806 29.0094 19.5759 28.4375 19.8301 28.088C19.8937 28.3739 20.3067 27.5478 19.8301 27.9926C19.8301 27.8655 19.8301 27.7702 19.8301 27.6749C19.8937 27.1983 20.0208 27.8973 19.7984 27.3572C19.8937 27.3889 19.989 27.3572 20.0526 27.3572C19.8619 27.0394 20.5292 26.7217 20.0526 26.817C19.7984 26.4993 20.1479 26.7217 20.2432 26.5311C20.3385 26.2769 20.4021 26.0227 20.4338 25.8956C20.275 25.832 20.4656 25.8003 20.4974 25.7685C20.5927 25.2919 20.6563 25.4507 20.3067 25.5778C20.2114 25.5143 20.3703 25.419 20.3385 25.3237C21.1011 25.1966 20.7198 24.3387 21.0375 24.0527C20.9422 23.8621 21.26 24.0845 21.1964 23.7985C21.1329 23.7032 21.4188 23.5761 21.1646 23.6079C21.0375 23.4808 21.2282 23.3855 21.26 23.2901C21.3235 23.3537 21.2917 23.4172 21.2917 23.4808C21.4188 23.2584 21.4506 23.0042 21.5459 22.7818C21.4506 22.9088 21.4188 22.9724 21.3553 23.1313C21.1329 22.6229 22.1496 22.7182 21.4824 22.5276C21.5141 22.3687 21.7048 22.2416 21.5777 22.051C21.6412 22.0192 21.7366 21.8285 21.8001 21.9874C21.7366 22.0827 21.5777 22.6864 21.7683 22.2734C21.9908 22.0192 21.8954 21.5744 22.1496 21.4155C21.9272 21.2248 21.9907 21.7014 21.8001 21.765C21.8637 21.5744 21.5141 21.5108 21.8319 21.479C21.8319 21.4155 21.8954 21.2884 21.8001 21.2884C21.8319 21.2884 21.9907 20.8753 22.1814 21.1613C22.5944 20.7165 22.1496 21.2248 21.9907 20.9071C21.8319 20.5894 22.2449 20.5576 22.4038 20.3987C22.3403 20.3987 22.2767 20.367 22.2767 20.3034C22.372 20.2081 22.4991 20.1763 22.5945 20.1445C22.7215 19.9221 22.658 19.795 22.7851 19.6362C23.357 18.4923 23.7701 17.1578 24.2467 15.9186C24.056 16.014 24.0878 16.3317 23.8654 16.427C23.7701 16.2046 24.056 16.0775 23.9925 15.8233C24.5326 14.743 24.8186 13.4403 25.4859 12.4871C26.1849 10.9619 26.6615 9.40502 27.3605 7.84811C27.3923 7.72101 27.5829 7.43505 27.6465 7.3715C27.7418 7.27618 27.6465 7.3715 27.3923 7.49859C27.5829 6.92667 28.1866 5.87813 27.996 5.90991C27.9007 6.10055 27.8371 6.1641 27.71 6.29119C27.71 5.97345 28.1231 5.46508 27.996 5.05202C28.3455 4.54364 28.0278 3.90817 28.409 3.33624C28.2184 3.36801 28.1866 3.17737 28.1866 2.98673C28.1548 2.66899 28.5679 2.00174 28.2502 2.25593ZM14.7781 34.5063C14.7781 34.538 14.8734 34.7287 14.8734 34.7604C14.7146 34.7604 14.7781 34.538 14.7781 34.5063ZM16.9705 23.6079C17.0023 23.6079 17.0976 23.6396 17.1294 23.6714C17.0976 23.8621 16.9387 23.6714 16.9705 23.6079ZM15.0005 41.0516H15.0323C15.0323 41.0834 15.0005 41.147 15.0005 41.0516ZM15.1276 40.1302C15.1276 40.2255 15.1912 40.2891 15.1912 40.3844C15.1594 40.4162 15.1276 40.4162 15.1276 40.1302ZM16.2715 36.8257C16.2715 36.8893 16.2715 36.9528 16.2715 37.0164C16.2715 37.0164 16.2079 37.0164 16.2715 36.8257ZM16.4621 35.7137C16.4939 35.7772 16.4939 35.8407 16.4939 35.8725C16.4621 35.8407 16.4303 35.8407 16.4621 35.7137ZM20.974 20.1128C21.0058 20.0174 21.1329 19.9539 21.1964 19.8586C21.1964 19.9539 21.1329 20.0174 21.1329 20.1128C21.1011 20.1763 21.0693 20.2399 21.0375 20.3034C20.974 20.2399 20.974 20.1763 20.974 20.1128ZM20.3385 21.6697C20.3703 21.7014 20.3703 21.7332 20.2114 21.7968C20.2432 21.7968 20.3067 21.7332 20.3385 21.6697ZM20.1796 22.0192C20.2114 22.0192 20.2432 22.0192 20.2432 22.0827C20.1161 22.1781 20.1479 22.1145 20.1796 22.0192ZM19.7666 22.4005C19.7666 22.464 19.7348 22.5276 19.7348 22.5911C19.7348 22.5911 19.703 22.5593 19.7666 22.4005ZM19.1629 23.1948C19.1629 23.2266 19.2582 23.2901 19.1311 23.3537C19.1629 23.2901 19.1629 23.2266 19.1629 23.1948ZM18.9405 22.7182C18.9405 22.75 18.9405 22.7818 18.9722 22.7818C18.8134 22.8771 18.9405 22.75 18.9405 22.7182ZM18.9087 25.3554C18.9087 25.3236 18.9087 25.2601 18.9405 25.1966C18.9087 25.2601 19.004 25.2919 18.9087 25.3554ZM18.8134 29.5178C18.9087 29.6131 18.8134 29.6449 18.8134 29.7084C18.8134 29.6767 18.8452 29.6131 18.8134 29.5178ZM18.591 28.7234C18.6863 28.7234 18.591 28.8188 18.6227 28.8505C18.5274 28.9459 18.5274 28.7552 18.591 28.7234ZM18.5592 27.516C18.5592 27.5796 18.5274 27.6749 18.5274 27.7385C18.4639 27.6114 18.5592 27.5796 18.5592 27.516ZM18.3368 24.3387C18.4321 24.434 18.2732 24.847 18.1779 24.5929C18.3368 24.5929 18.305 24.434 18.3368 24.3387ZM17.8284 25.5778C18.019 25.419 18.2732 25.2919 18.0508 25.6414C17.9873 25.6414 17.9873 25.7049 17.9237 25.7049C17.9237 25.9274 17.9237 25.5461 17.8284 25.5778L17.7966 25.6096C17.7966 25.6096 17.7966 25.5778 17.8284 25.5778ZM17.9555 27.9291C17.9555 27.9926 17.9237 28.088 17.9237 28.1515C17.9237 28.1833 17.8284 28.1833 17.9555 27.9291ZM17.7966 28.5646C17.7966 28.5328 17.7648 28.5328 17.7648 28.501C17.7966 28.501 17.8284 28.501 17.8602 28.501C17.8284 28.5328 17.8284 28.5646 17.7966 28.5646C17.7648 28.6281 17.8602 28.6917 17.7966 28.5646ZM17.7966 26.8806C17.7966 27.0712 17.7331 27.1983 17.6695 27.3254C17.6378 27.4207 17.6378 27.4843 17.6378 27.5796C17.606 27.4843 17.606 27.3889 17.6378 27.2936C17.6695 27.1665 17.7648 27.0394 17.7966 26.8806ZM17.6378 26.2133C17.6378 26.2451 17.606 26.2769 17.5742 26.2769C17.4471 26.0227 17.7013 25.9274 17.6378 26.2133ZM17.606 28.9459C17.7966 28.9459 17.8602 29.0412 17.6695 29.073C17.5742 29.1683 17.4789 28.9459 17.606 28.9459ZM16.5892 34.9829C16.621 34.9829 16.621 34.9829 16.6528 34.9829C16.621 35.0464 16.621 35.0782 16.5892 34.9829ZM16.6528 34.5698C16.6845 34.6016 16.6845 34.6334 16.7163 34.6334C16.6528 34.6334 16.621 34.6333 16.6528 34.5698ZM16.9705 33.4259C16.907 33.6166 16.6528 33.8708 16.7799 34.1885C16.7163 34.1885 16.7163 34.2521 16.6528 34.2203C16.335 34.0296 16.907 33.9343 16.5892 33.8072C16.9387 33.6801 16.5574 33.5848 16.907 33.4259C16.8752 33.3624 16.8116 33.3624 16.7799 33.3624C16.8116 33.2353 16.9705 33.2671 16.9705 33.4259ZM17.0341 32.6634C17.0658 32.2821 17.0658 32.5681 17.1611 32.155C17.0976 32.3456 17.1294 32.5681 17.0341 32.6634ZM17.1294 31.869C17.1294 31.8373 17.1929 31.7102 17.1929 31.6784C17.1929 31.7102 17.2882 31.8373 17.1294 31.869ZM17.4471 29.5178C17.4789 29.3907 17.606 29.4225 17.6695 29.3589C17.6695 29.3271 17.7013 29.2636 17.7331 29.2318C17.7331 29.2954 17.7013 29.3271 17.6695 29.3589C17.606 29.5813 17.7331 29.8673 17.3836 29.8037C17.32 29.6449 17.6695 29.6131 17.4471 29.5178ZM17.9555 33.6801C17.9555 33.839 17.9237 34.125 17.7013 34.0296C17.5742 33.7755 17.8602 33.4259 17.9555 33.6801ZM18.0508 32.5363C18.0508 32.5045 18.1144 32.4092 18.1144 32.3774C18.1144 32.4092 18.1461 32.5045 18.0508 32.5363ZM18.1779 32.7905C18.2097 32.7905 18.2097 32.7905 18.2414 32.7905C18.2414 32.854 18.2415 32.8858 18.1779 32.7905ZM18.2097 32.5363C18.2415 32.5681 18.2415 32.5681 18.2732 32.5681C18.2415 32.5998 18.2415 32.6316 18.2097 32.5363ZM17.7331 32.5045C17.5424 32.5363 17.8919 32.155 17.5107 32.2185C17.5107 32.4727 17.4153 32.4092 17.4153 32.155C17.4471 31.9644 17.5742 32.1868 17.6378 32.0915C17.5107 31.869 18.0508 31.7102 17.7648 31.4877C18.0826 31.456 17.9237 30.9158 18.0826 30.6934C18.1144 30.5345 18.1779 30.1533 18.305 29.8991C18.1461 30.6299 17.9873 31.7419 17.7331 32.5045ZM18.3685 25.8638C18.3685 25.8956 18.305 25.9273 18.305 25.9273C18.305 25.832 18.3685 25.8638 18.3685 25.8638ZM18.4321 29.3271C18.4321 29.4225 18.4003 29.486 18.4003 29.5813C18.3368 29.486 18.4321 29.3907 18.4321 29.3271ZM18.8134 30.1533C18.591 30.2168 18.7498 30.5028 18.5274 30.5981C18.2732 30.4392 18.6545 30.4074 18.5592 30.185C18.6227 30.1215 18.7181 30.1533 18.7816 30.0579C18.7181 29.8673 18.7181 29.9308 18.8452 30.0262C18.9087 29.8991 18.8769 30.185 18.8134 30.1533ZM19.1947 28.8505C19.0993 28.9141 19.0993 29.1365 18.9722 29.073C18.9087 28.9141 19.1629 28.8505 19.0358 28.7234C18.9405 28.8188 18.8452 28.9141 18.8769 29.073C18.8452 28.8823 19.0358 28.7234 18.9405 28.6599C19.3218 28.7552 18.9087 28.3422 19.1947 28.3739C19.2582 28.5328 19.0993 28.7234 19.1947 28.8505ZM19.29 26.0227C18.9087 26.0227 19.4489 25.6732 19.3218 25.4507C19.6395 25.6414 19.29 25.832 19.29 26.0227ZM19.4489 21.3837C19.4489 21.3202 19.3853 21.2884 19.4171 21.2248C19.4171 21.2884 19.5124 21.2566 19.4489 21.3837ZM19.7348 25.5778C19.989 25.5778 19.6713 25.7367 19.7348 25.8956C19.6395 25.8956 19.7348 25.7367 19.7348 25.5778ZM19.8619 26.7852C19.8619 26.8488 19.8619 26.8806 19.8301 26.9123C19.8301 26.9441 19.8301 26.9759 19.7984 27.0394C19.7666 26.9759 19.7666 26.9441 19.7984 26.9123C19.8301 26.8806 19.8619 26.8488 19.8619 26.7852ZM19.9255 25.1966C19.9572 25.133 19.989 25.0695 19.989 24.9741C19.989 25.0695 20.0843 25.133 19.9255 25.1966ZM20.2114 24.1162C20.2432 24.1162 20.2432 24.148 20.2432 24.1798C20.2114 24.2116 20.1479 24.2433 20.2114 24.1162ZM20.4974 24.5293C20.4338 24.5611 20.4338 24.4975 20.4338 24.4975C20.4656 24.4975 20.4974 24.5293 20.4974 24.5293ZM20.4656 23.6396C20.4974 23.8303 20.0843 23.9256 20.1796 23.8621C20.0843 23.7032 20.0843 23.9892 19.9572 23.9892C20.1161 24.0209 20.0208 24.2433 19.9572 24.3069C19.8937 24.3387 19.8937 24.4022 19.8937 24.4658C19.9255 24.6564 20.1161 24.3069 20.0843 24.5611C19.9572 24.6564 19.7666 24.5611 19.6077 24.6564C19.7666 24.3704 19.4171 24.1162 19.703 23.9256C19.9572 23.8303 20.2114 23.7667 20.4338 23.5761C20.3385 23.4808 20.4338 23.2584 20.5609 23.449C20.3067 23.3537 20.5927 23.6079 20.4656 23.6396ZM20.5609 23.0359C20.5609 23.0677 20.5609 23.0677 20.5609 23.0677C20.5292 23.0995 20.4656 23.1313 20.5609 23.0359ZM20.5927 22.2734C20.4021 22.1781 20.5927 21.7332 20.8151 21.5744C20.8151 21.6379 20.7833 21.7014 20.8469 21.765C20.974 21.6379 21.1011 21.5108 21.2282 21.3837C21.26 22.0192 20.6245 21.6061 20.5927 22.2734ZM20.6245 24.0209C20.6563 23.9892 20.688 23.9574 20.688 23.8621C20.7516 24.0209 20.6563 23.9892 20.6245 24.0209ZM20.7198 22.5593C20.688 22.5911 20.688 22.5911 20.7833 22.1463C20.7516 22.3051 20.8151 22.4005 20.7198 22.5593ZM20.974 23.0995C21.0693 23.0995 20.974 23.2266 21.0058 23.2901C20.9422 23.2901 20.7516 23.4808 20.8469 23.2584C20.9104 23.2901 20.9422 23.1948 20.974 23.1948C20.9104 23.0677 20.7833 22.8453 21.0058 22.7818C21.2282 23.0677 20.9422 22.8771 20.974 23.0995ZM21.1011 22.2734C21.1329 22.2734 21.1964 22.2734 21.26 22.2734C21.1964 22.2734 21.2282 22.3369 21.1011 22.2734ZM21.1646 19.9221C21.1646 19.8903 21.2282 19.795 21.2282 19.7315C21.3235 19.8903 21.1646 19.8903 21.1646 19.9221ZM22.6898 17.7615C22.6898 17.7933 22.6898 17.8568 22.6262 17.7615C22.658 17.7615 22.658 17.7615 22.6898 17.7615ZM22.0861 19.7315C22.1496 19.5408 22.4038 19.382 22.4356 19.5726C22.3085 19.6679 22.1814 19.6997 22.0861 19.7315ZM22.4991 19.1595C22.5944 18.9689 22.6262 18.6829 22.7851 18.5241C22.6898 18.7147 22.658 18.9689 22.4991 19.1595ZM22.8804 18.1746C22.8169 18.1746 22.7215 18.0792 22.8169 18.0475C22.8804 18.0792 22.9122 18.111 22.8804 18.1746ZM23.0393 17.9204C23.0075 17.8886 22.9757 17.8568 23.0711 17.7297C23.0393 17.7933 23.0393 17.8568 23.0393 17.9204ZM23.5477 16.1093C23.4523 16.2364 23.357 16.0775 23.4841 16.0457C23.5477 16.0457 23.5794 16.0775 23.5477 16.1093Z" fill="#ABABAB"/>
<path d="M22.1817 20.3351C22.0541 20.6861 22.1498 20.3032 22.3093 20.4628C22.3731 20.4947 22.2455 20.3032 22.1817 20.3351Z" fill="#ABABAB"/>
<path d="M19.8305 24.4338C19.7987 24.2749 19.9894 24.2114 19.9576 24.0525C19.8941 24.0207 19.7352 24.3385 19.8305 24.4338Z" fill="#ABABAB"/>
<path d="M16.5889 24.8154C16.5889 24.879 16.5254 25.0378 16.5254 25.1014C16.6525 25.0696 16.5572 24.879 16.5889 24.8154Z" fill="#ABABAB"/>
<path d="M15.6361 29.6763C15.6042 29.6763 15.6042 29.8358 15.5723 29.8358C15.6361 29.8996 15.6042 29.7082 15.6361 29.6763Z" fill="#ABABAB"/>
<path d="M15.3183 31.0111C15.3183 30.9157 15.3818 30.7886 15.3818 30.7251C15.2548 30.7886 15.3501 30.9157 15.3183 31.0111Z" fill="#ABABAB"/>
<path d="M14.7783 33.4898C14.9054 33.3627 14.9054 33.0767 14.9054 33.0132C14.9054 33.0767 14.8101 33.4262 14.7783 33.4898Z" fill="#ABABAB"/>
<path d="M18.1777 34.1249C18.0824 33.8389 18.0506 34.7286 18.1459 34.252C18.1142 34.252 18.1777 34.1249 18.1777 34.1249Z" fill="#ABABAB"/>
<path d="M14.7463 34.0932C14.7463 34.0296 14.8098 33.9979 14.8098 33.9343C14.8734 33.3624 14.651 34.1567 14.7463 34.0932Z" fill="#ABABAB"/>
<path d="M16.0812 34.7607C16.0812 34.8246 15.9536 34.9203 15.9536 34.9841C15.9855 34.9203 16.1451 34.9522 16.0812 34.7607Z" fill="#ABABAB"/>
<path d="M17.4473 35.8415C17.5111 35.7458 17.4792 35.7139 17.4792 35.6182C17.4792 35.7139 17.4792 35.7777 17.4473 35.8415Z" fill="#ABABAB"/>
<path d="M17.6064 35.8412C17.6384 35.7455 17.7022 35.7774 17.6703 35.6816C17.6703 35.7135 17.6384 35.7774 17.6064 35.8412Z" fill="#ABABAB"/>
<path d="M17.4471 36.5397C17.4789 36.5397 17.5742 36.4761 17.5106 36.4443C17.4153 36.5397 17.034 36.4126 17.4471 36.5397Z" fill="#ABABAB"/>
<path d="M17.1929 37.0168C17.2567 36.9849 17.3205 36.9211 17.3524 36.8892C17.3205 36.9211 17.2567 36.8573 17.1929 37.0168Z" fill="#ABABAB"/>
<path d="M17.0978 36.9531C17.0024 37.0802 17.0342 37.1438 17.0024 37.2391C17.0978 37.1438 17.0342 37.0484 17.0978 36.9531Z" fill="#ABABAB"/>
<path d="M14.8099 40.0358C14.8099 40.0039 14.778 39.8763 14.778 39.8125C14.778 39.8763 14.7461 40.0039 14.8099 40.0358Z" fill="#ABABAB"/>
<path d="M15.6045 40.2892C15.668 40.2257 15.6998 40.2257 15.6998 40.0986C15.7316 39.8762 15.6045 40.2257 15.6045 40.2892Z" fill="#ABABAB"/>
<path d="M13.7934 40.6065C13.9523 40.6382 13.8252 40.3205 13.8569 40.1616C13.6981 40.2252 13.8569 40.3205 13.7934 40.6065Z" fill="#ABABAB"/>
<path d="M14.3661 42.2277C14.3023 42.1001 14.2384 42.1639 14.2065 42.1639C14.2065 42.1639 14.3342 42.1639 14.3661 42.2277Z" fill="#ABABAB"/>
<path d="M14.5562 42.8623C14.5243 42.8623 14.4604 42.8623 14.4604 42.8623C14.4924 42.9261 14.5243 43.1176 14.5562 42.8623Z" fill="#ABABAB"/>
<path d="M14.2378 51.2516C14.2378 51.2197 14.2697 51.1559 14.3335 51.124C14.3016 51.124 14.2378 51.124 14.2378 51.124C14.2697 51.124 14.2697 51.1878 14.2378 51.2516Z" fill="#ABABAB"/>
<path d="M13.793 43.404C13.8887 43.2764 13.8249 43.2445 13.8249 43.1807C13.8249 43.2764 13.793 43.3402 13.793 43.404Z" fill="#ABABAB"/>
<path d="M15.9537 45.4045C15.8584 45.3727 15.6995 45.1821 15.6359 45.3727C15.5724 45.2456 15.3818 45.2138 15.3818 45.2138C15.3818 45.2138 15.2547 45.2456 15.0958 45.1503C14.9369 44.8961 14.6827 45.1821 14.3332 45.2138C14.3968 45.3409 14.3014 45.3091 14.2379 45.3727C14.4285 45.8493 13.6977 45.3409 13.4753 45.6269C13.2847 45.4045 12.9987 45.9128 12.9352 45.4998C12.7445 45.7222 12.5539 45.754 12.395 45.9764C12.0137 45.7857 12.395 46.2624 12.0137 46.1035C11.2194 46.5483 11.6642 47.438 10.7428 47.9464C10.7428 48.0099 10.711 48.2323 10.8381 48.2959C11.2829 48.3912 11.3465 48.836 11.3783 49.122C11.9502 49.4397 11.6642 50.1388 12.1726 50.3294C12.0773 51.092 12.5539 49.9481 12.681 50.6789C13.2529 50.9013 12.5221 51.1237 12.681 51.4733C12.7445 51.5368 13.094 51.7592 12.9987 51.505C13.5389 52.1405 13.094 50.9649 13.5706 50.9966C13.5706 50.9331 13.6024 50.8695 13.5389 50.8378C13.9837 50.7425 13.7613 50.4883 13.7295 50.2341C14.2697 50.2341 14.0473 51.092 14.2061 50.9966C14.3014 51.092 14.5239 50.4883 14.5874 50.2976C14.5874 50.3929 14.6827 50.5836 14.8416 50.4247C14.8098 50.2023 15.6995 49.7892 15.3182 49.5986C16.049 49.2491 15.1911 48.5183 15.8266 48.137C15.8901 48.2959 16.1125 47.9146 16.2714 47.9146C16.3667 47.5333 15.9537 47.4698 15.9537 47.0885C16.3667 46.5483 15.763 46.0399 15.9537 45.4045ZM13.9519 50.1705C13.8884 49.821 14.0473 49.3126 14.1743 49.9799C14.1426 50.107 14.1426 50.2658 13.9519 50.1705Z" fill="#ABABAB"/>
<path fill-rule="evenodd" clip-rule="evenodd" d="M17.3835 32.9812C17.3199 33.2036 17.2882 33.3943 17.2246 33.5531C17.3199 33.5849 17.4153 33.5849 17.5106 33.6167C17.5423 33.3625 17.6059 33.0765 17.6694 32.7906C17.6059 32.7906 17.5741 32.7588 17.5106 32.7588C17.5106 32.8541 17.4788 32.9494 17.3835 32.9812Z" fill="#ABABAB"/>
<path fill-rule="evenodd" clip-rule="evenodd" d="M16.4306 32.5679C16.367 32.5679 16.3035 32.5361 16.2399 32.5361C16.2081 32.6632 16.2081 32.7903 16.1764 32.9174C16.1446 33.0445 16.0811 33.2034 16.0811 33.3623C16.1764 33.394 16.2399 33.394 16.3352 33.4258C16.367 33.3305 16.4306 33.2352 16.4623 33.1081C16.3352 32.9492 16.367 32.7268 16.4306 32.5679Z" fill="#ABABAB"/>
<path fill-rule="evenodd" clip-rule="evenodd" d="M15.8269 38.3824C15.8587 38.6048 15.7316 38.7954 15.6045 38.9861C15.6998 39.0178 15.8269 39.0178 15.9222 39.0496C15.954 38.8272 15.9858 38.6048 16.0493 38.3824C15.9858 38.3824 15.8905 38.3506 15.8269 38.3506V38.3824Z" fill="#ABABAB"/>
<path fill-rule="evenodd" clip-rule="evenodd" d="M14.8096 38.8596C14.9367 38.8914 15.0638 38.9231 15.1909 38.9231C15.2226 38.7643 15.2544 38.6372 15.3497 38.4783C15.4768 38.7325 15.4768 38.4783 15.5086 38.2877C15.3497 38.2559 15.2226 38.2241 15.0955 38.2241C15.2862 38.4465 14.9049 38.669 14.8096 38.8596Z" fill="#ABABAB"/>
<path fill-rule="evenodd" clip-rule="evenodd" d="M16.7798 33.3307C16.8117 33.3307 16.9074 33.3307 16.9393 33.3945C16.8755 33.4264 16.8436 33.4583 16.8117 33.4902C16.8436 33.4902 16.9074 33.5221 16.9393 33.5221C16.9712 33.4902 16.9712 33.4583 16.9712 33.4264C16.9712 33.2669 16.8117 33.235 16.7798 33.3307Z" fill="#ABABAB"/>
<path fill-rule="evenodd" clip-rule="evenodd" d="M17.7646 33.6484C17.8285 33.6484 17.9242 33.6803 17.988 33.6803V33.6484C17.9242 33.5208 17.8285 33.5846 17.7646 33.6484Z" fill="#ABABAB"/>
<path fill-rule="evenodd" clip-rule="evenodd" d="M37.3693 22.0193C38.3861 18.969 35.2405 16.5542 32.9528 15.0291C33.1117 14.4254 32.9846 13.2815 32.6668 12.5825C31.2052 9.24625 27.1064 6.73613 23.1029 5.87824C22.6899 5.78292 22.1179 5.6876 21.546 5.62405C20.8788 5.5605 20.4657 5.49695 19.4807 5.5605C17.1295 5.65582 14.3969 6.48194 13.539 8.96029C10.8383 9.02384 7.34317 9.08738 5.50029 11.1527C4.35644 12.4554 4.38821 13.5675 4.83304 14.7749C3.11726 15.2833 0.861328 16.3318 0.543591 18.3971C0.44827 19.7316 1.4968 20.6212 2.32292 21.5745C2.1005 21.7015 1.84631 21.8286 1.59212 21.9875C0.797781 22.623 -0.0601093 23.3538 0.00343809 24.4341C-0.0918831 26.5312 1.81454 27.8974 3.27613 28.8824C2.79953 29.1366 2.38647 30.0263 2.32292 30.5982C2.29115 33.4896 4.86482 34.7605 6.70769 36.0315C7.94687 38.9547 11.1242 40.3845 13.9203 41.0517C13.9203 40.8611 13.9521 40.6387 13.9839 40.448C13.9521 40.448 13.8886 40.4163 13.8568 40.4163C13.8568 40.5116 13.8568 40.6069 13.7615 40.6069C13.7932 40.5434 13.7932 40.448 13.7932 40.4163C11.2196 39.7172 8.61412 38.3827 7.59736 36.4128C9.7262 37.4295 11.9821 38.2557 14.3016 38.7323C14.2698 38.6369 14.2381 38.5416 14.4287 38.6052C14.4605 38.5734 14.4287 38.5416 14.3652 38.5098C14.3334 38.5098 14.2698 38.5098 14.2063 38.4781C14.2063 38.351 14.2381 38.1921 14.2698 38.0332C11.442 37.3978 9.85329 36.6034 7.56558 35.6502C7.81977 34.3793 9.24959 34.1251 10.743 34.2204C11.4737 34.2839 13.8886 34.5699 15.9221 35.3007C17.2883 35.8091 18.7182 36.6352 18.7499 37.3342C18.7499 37.9379 18.1462 38.0015 18.1462 38.0015C18.2733 38.2557 18.5911 38.1921 19.0041 38.065C19.5125 37.9061 20.0527 37.1436 19.6714 36.4128C18.4322 34.0933 14.1745 32.8859 11.5373 32.7906C10.6159 32.7588 9.69442 32.8541 8.83653 33.1083C7.97864 33.3625 7.12075 33.9027 6.80301 34.7923L6.70769 35.2372C5.05546 34.2204 3.33968 32.9494 3.11726 31.4561C2.92662 30.1851 4.19757 29.5814 4.19757 29.5814C4.19757 29.5814 4.96014 29.9945 6.96188 30.7571C9.56733 31.742 12.3316 32.5682 15.0324 33.1719C15.0642 32.8859 15.096 32.5999 15.1595 32.314C14.9689 32.2822 14.81 32.2504 14.6193 32.1869C8.16928 30.7253 5.2461 29.2001 5.2461 29.2001C5.3732 29.2001 5.91335 29.0095 6.23109 28.9777C9.15427 28.4376 12.2999 28.9142 15.2866 29.6767C18.1462 30.4075 21.2601 31.742 23.9608 33.4896C22.3086 33.4896 20.9423 33.4578 18.3051 32.9812C18.2416 33.1083 18.2416 33.1083 18.1145 33.3943C17.9874 33.2672 18.2733 32.9494 17.9556 33.1083C17.8285 33.2354 17.7649 33.3625 17.892 33.426C18.178 33.3307 17.9874 33.6485 18.178 33.7756C20.4975 34.1568 22.7216 34.3475 24.7234 34.2839C25.5177 35.2054 26.4074 36.381 26.3438 37.7473C23.3253 38.764 20.3704 39.0818 16.1445 38.4145H16.1127C16.0809 38.4463 16.0809 38.4781 16.0492 38.5098C16.0492 38.7005 15.9856 38.8276 15.9538 39.0818C16.1127 39.1135 16.3034 39.1453 16.4622 39.1453C19.3219 39.4948 22.531 39.8126 25.8037 38.7323C23.5478 41.1471 18.877 41.2106 16.0809 40.8611C15.7632 40.8293 15.4772 40.7658 15.1595 40.734C15.096 40.9564 15.0324 41.1471 14.9689 41.3059C15.5408 41.4013 16.0809 41.4966 16.5575 41.5283C18.9723 41.7825 25.0094 41.6872 27.3288 38.065C29.5848 37.1753 32.3809 35.8091 32.5715 33.013C34.1602 32.2504 36.0666 30.7571 36.575 28.946C36.988 27.2619 36.4161 25.7368 35.59 24.4341C36.5114 23.6715 37.0198 23.0678 37.3693 22.0193ZM19.3536 7.18096C24.9776 7.33983 30.9193 10.1041 31.8725 14.2983C26.9158 11.3115 21.3871 9.50044 15.4137 8.96029C15.1277 8.96029 14.8735 8.92851 14.6511 8.92851C15.5408 7.40337 18.4322 7.21273 19.3536 7.18096ZM5.53207 12.9002C6.16754 11.3751 9.82152 10.8985 11.3149 10.8349C11.9821 10.8032 13.4755 10.8032 13.4755 10.8032C13.4755 10.8032 13.6026 11.0574 13.825 11.4386C15.1595 13.2497 17.7014 14.1394 19.7985 14.5207C19.862 14.4254 20.0527 14.3618 20.0209 14.203C18.1462 13.7581 15.5408 12.8049 14.524 10.9303C20.6881 11.4386 26.3438 13.1226 31.3959 16.3C30.8239 17.3803 29.3306 18.3971 28.2185 18.8101C27.0111 18.27 21.9273 15.8234 17.5743 15.0291C13.2213 14.2029 8.9954 13.9488 5.88158 14.5842L5.56384 14.6478C5.53206 14.616 5.08723 13.9805 5.53207 12.9002ZM1.56035 19.1596C1.4968 18.0158 2.32292 17.3485 3.21258 16.9673C4.0387 16.586 4.89659 16.3636 5.8498 16.3C5.8498 16.3 6.54882 16.999 7.50204 17.6027C9.7262 19.0961 13.9521 20.3671 17.7649 20.9072C17.7332 20.8437 17.7649 20.7801 17.8603 20.6212C17.9556 20.4941 17.7332 20.5259 17.7649 20.4941C17.8285 20.4306 17.8603 20.3035 17.892 20.1764C16.7482 20.0175 15.4137 19.7634 13.9203 19.4138C11.9821 18.969 8.96363 17.7298 6.86656 16.1729C13.2531 15.4104 19.3536 17.1261 24.8823 19.3503L25.8355 19.8269C24.9776 20.0493 23.8337 20.3988 21.9273 20.4624C21.9273 20.4941 21.9273 20.5577 21.9591 20.6212C22.1179 20.939 22.531 20.4306 22.1497 20.8754C21.9591 20.5895 21.8002 21.0343 21.7684 21.0025C21.8638 21.0025 21.832 21.0661 21.8002 21.1296C21.832 21.1296 21.8955 21.1296 21.9591 21.1296C21.9909 21.0661 22.0226 21.0343 22.1179 21.1296C24.4692 21.0025 26.185 20.5259 26.9158 20.2717C26.9793 20.24 29.3306 21.638 30.2838 22.1782C31.523 22.9089 32.6668 23.7668 33.7789 24.8471C32.3173 25.7686 30.6333 26.1816 28.9811 26.5947C24.7552 23.3856 18.7182 21.8604 15.3184 21.1296C11.9186 20.3671 6.67592 20.1764 3.11726 21.2249C2.35469 20.7483 1.75099 20.0175 1.56035 19.1596ZM26.0897 33.3943C22.7534 30.2169 17.2248 28.1834 14.111 27.6115C9.85329 26.8489 6.35818 26.9442 3.87983 28.374C2.54534 27.5479 0.670686 26.2134 1.0202 24.5294C1.71922 22.909 4.07047 22.7819 4.07047 22.7819C4.07047 22.7819 7.97864 25.3555 15.509 26.8807C15.7314 26.9124 15.9538 26.976 16.1763 27.0078C16.1763 26.9124 16.2398 26.8489 16.3034 26.9442C16.5258 26.8171 16.2398 26.5629 16.2398 26.5629C16.2398 26.5629 16.2716 26.5629 16.3669 26.3723C12.2363 25.5779 8.3917 24.1799 4.99191 22.5277C8.70944 21.7969 12.8082 22.3688 16.4304 23.1949C20.0844 24.0528 24.0244 25.6415 26.3121 27.0078C24.1515 27.1349 22.0226 27.1031 19.9573 26.8807C19.9256 26.9442 19.9256 27.0078 19.9891 27.0713C19.9256 27.0713 19.862 27.1349 19.7667 27.1031C19.7349 27.5161 19.7349 27.675 19.7349 27.5479C23.23 27.961 25.5177 27.7703 27.3924 27.5797C29.0446 28.6282 31.3005 30.344 31.5865 32.4411C30.6968 32.8859 27.9008 33.2672 26.0897 33.3943ZM31.0146 34.983C30.0614 36.2221 28.8222 36.7623 27.583 37.2707C27.8054 36.1268 27.3924 35.0465 26.7569 34.0933C28.568 33.9662 30.7286 33.5214 31.5865 33.2672C31.5547 33.998 31.3005 34.5064 31.0146 34.983ZM35.4311 29.4861C35.0181 30.4075 34.0649 31.4879 32.5715 32.1551C32.3173 30.3122 31.2052 28.4376 29.7436 27.2302C30.9193 26.9124 32.7621 26.4358 34.192 25.5462C35.1134 26.5629 36.1302 27.9927 35.4311 29.4861ZM35.1452 23.8304C33.4929 21.924 31.237 20.4941 29.1082 19.2867C30.2202 18.683 31.4276 17.8887 32.222 16.7766C33.5565 17.6345 36.0348 19.2232 36.289 21.2885C36.3208 22.2735 36.0031 23.322 35.1452 23.8304Z" fill="#ABABAB"/>
<path fill-rule="evenodd" clip-rule="evenodd" d="M14.9056 40.67C14.7468 40.6383 14.5879 40.6065 14.429 40.5747C14.3655 40.6383 14.2702 40.7336 14.1431 40.7654C14.1748 40.9242 14.3019 41.0195 14.3655 41.1784C14.5244 41.2102 14.6832 41.242 14.8421 41.2737C14.8739 41.2102 14.8739 41.1466 14.8739 41.0831C14.7785 40.9242 14.8421 40.7971 14.9056 40.67Z" fill="#ABABAB"/>
<path fill-rule="evenodd" clip-rule="evenodd" d="M14.8735 41.2746C14.9054 41.2746 14.9373 41.2746 14.9693 41.3065C14.9693 41.1789 14.9054 41.2108 14.8735 41.2746Z" fill="#ABABAB"/>
<path fill-rule="evenodd" clip-rule="evenodd" d="M15.0005 41.0518C15.0323 41.1471 15.0323 41.1153 15.0323 41.0518Z" fill="#ABABAB"/>
<path d="M68.4755 17.6345C67.0775 20.8437 62.9151 29.7721 60.5321 35.6184C60.4685 35.4596 60.1826 34.7923 60.1508 34.6335C61.2629 31.5832 66.0289 21.8287 67.1728 16.9991C67.6494 15.0609 67.2363 14.4254 64.4085 13.8852C63.9954 13.8217 64.1225 13.4404 64.4403 13.5357C65.7748 13.7264 68.1578 13.7264 68.8886 13.7264C69.9371 13.7264 72.1295 13.6946 72.9556 13.5357C73.3051 13.5039 73.3369 13.8217 73.0192 13.8852C71.1127 14.2983 69.9371 14.3301 68.4755 17.6345ZM59.134 39.7173C59.1658 40.0032 58.7528 39.9715 58.7845 39.7173C58.4668 38.637 58.022 37.8108 57.1323 35.4914C56.3062 33.3307 50.4598 18.5242 49.7926 17.0626C48.8394 14.902 47.8861 14.0441 46.2657 13.8852C45.8844 13.8535 45.9162 13.4722 46.2975 13.5357C47.6955 13.631 49.7608 13.6946 50.5551 13.6946C51.3495 13.6946 53.7007 13.5993 54.9717 13.5357C55.3847 13.5039 55.4483 13.8217 54.9717 13.8852C53.2559 14.1076 52.4298 14.8702 53.0017 16.8084C53.1924 17.4757 59.4518 32.6317 60.1508 34.6017C60.1826 34.7606 60.4685 35.4278 60.5321 35.5867C60.0237 36.8576 59.42 38.4781 59.134 39.7173Z" fill="#ABABAB"/>
<path d="M85.2842 39.177C84.2992 39.0817 82.7741 39.05 82.3292 39.05C81.8526 39.05 80.4864 39.05 79.5967 39.177C79.3743 39.2088 79.3107 38.9546 79.5332 38.9229C81.0583 38.7004 81.3125 38.4463 81.3125 33.14V27.2301C81.3125 22.2099 81.2172 22.051 79.5649 21.7968C79.2472 21.7651 79.3107 21.5109 79.5967 21.5426C80.5181 21.6697 81.8526 21.7651 82.3292 21.7651C82.7423 21.7651 84.3628 21.7015 85.2207 21.5426C85.5066 21.5109 85.5066 21.7333 85.2524 21.7968C83.5684 22.1463 83.346 22.2099 83.346 27.2301V33.2036C83.346 38.4145 83.6955 38.764 85.316 38.9546C85.5702 38.9229 85.5384 39.2088 85.2842 39.177Z" fill="#ABABAB"/>
<path d="M111.148 39.3041C108.066 39.3041 106.572 37.2388 102.728 30.4075C102.505 30.4393 102.283 30.4393 102.029 30.4393C101.711 30.4393 101.266 30.3757 101.044 30.3439V29.9944C101.171 30.0262 101.552 30.1215 102.029 30.1215C104.38 30.1215 106.382 29.2001 106.382 26.118C106.382 23.4173 105.428 21.7333 102.791 21.7333V21.4473C106.795 21.4473 108.542 23.3855 108.542 25.9909C108.542 27.9927 107.271 29.4861 104.952 30.1215C107.049 34.125 110.353 38.8593 111.942 38.8593C112.292 38.8593 112.514 38.764 112.832 38.5416C113.086 38.3509 113.245 38.5098 113.022 38.7322C112.641 38.9864 112.006 39.3041 111.148 39.3041ZM102.982 39.177C101.87 39.0817 100.726 39.0499 100.027 39.0499C99.4868 39.0499 98.057 39.1453 97.2944 39.177C97.0402 39.2088 97.0402 38.9546 97.2626 38.9546C98.8831 38.8275 99.0102 38.4462 99.0102 33.14V27.2301C99.0102 22.2099 98.7242 21.9875 97.5168 21.765C97.2627 21.7333 97.3262 21.4791 97.5486 21.5108C98.2159 21.6062 99.0102 21.6062 99.5186 21.6062C100.122 21.6062 101.902 21.4473 102.791 21.4155V21.7015C102.092 21.7015 101.234 21.7968 100.948 21.8921C101.075 22.5276 101.012 24.3705 101.012 25.6414V33.14C101.012 38.3827 101.298 38.764 102.982 38.9546C103.236 38.9546 103.236 39.177 102.982 39.177Z" fill="#ABABAB"/>
<path d="M135.265 25.8004C135.265 26.0863 135.042 26.0545 135.042 25.7686C134.915 22.8772 133.612 22.337 131.452 22.2099C130.784 22.1464 129.895 22.1464 129.196 22.1464C129.196 22.0511 129.164 21.924 129.132 21.8604C129.609 21.8922 130.848 21.8604 131.483 21.7969C132.818 21.7333 134.502 21.6062 135.328 21.4791C135.487 21.352 135.646 21.4474 135.519 21.6698C135.487 21.8604 135.328 23.4491 135.265 25.8004ZM127.162 22.1782C126.813 22.2099 125.574 22.2417 124.843 22.2417C122.841 22.3053 121.792 22.8454 121.062 25.5144C120.998 25.7686 120.744 25.7368 120.807 25.4508C121.093 24.2434 121.125 22.1146 121.125 21.6062C121.03 21.4156 121.284 21.3203 121.379 21.4791C122.015 21.7016 123.286 21.8922 124.811 21.8922C125.923 21.8922 127.067 21.924 127.226 21.924C127.194 22.0193 127.162 22.0828 127.162 22.1782ZM131.611 39.1771C130.626 39.05 128.592 39.0182 128.115 39.0182C127.702 39.0182 125.955 39.0182 124.843 39.1771C124.62 39.2089 124.589 38.9547 124.811 38.9229C126.813 38.5734 127.194 38.4463 127.194 33.1401C127.194 30.8842 127.226 22.6548 127.162 22.1782C127.162 22.0828 127.194 22.0193 127.226 21.8922C127.321 21.8922 129.037 21.8604 129.132 21.8604C129.164 21.924 129.196 22.0511 129.196 22.1464C129.069 23.3856 129.132 31.043 129.132 33.1719C129.132 38.4781 129.418 38.5734 131.611 38.9229C131.833 38.9229 131.801 39.2089 131.611 39.1771Z" fill="#ABABAB"/>
<path d="M183.592 39.1455C183.592 39.0184 183.56 38.8913 183.56 38.7642C187.024 38.0016 189.025 34.856 189.025 31.5833C189.025 26.2136 185.499 21.6064 181.527 21.6064C181.4 21.6064 181.082 21.6382 180.923 21.6382C180.891 21.5428 180.891 21.384 180.86 21.2886C181.114 21.2569 181.59 21.2251 181.845 21.2251C187.151 21.2251 191.25 25.2921 191.25 30.2171C191.281 34.7925 187.945 38.3829 183.592 39.1455ZM182.226 39.2726C176.92 39.2726 172.821 35.142 172.821 30.2488C172.821 25.5146 176.379 21.8288 180.86 21.2569C180.891 21.384 180.891 21.5428 180.923 21.6064C177.078 22.0512 175.045 25.451 175.045 28.8508C175.045 34.2205 178.349 38.796 182.512 38.796C182.798 38.796 183.274 38.7642 183.56 38.7006C183.56 38.8277 183.592 38.9548 183.592 39.0819C183.211 39.209 182.639 39.2726 182.226 39.2726Z" fill="#ABABAB"/>
<path d="M210.981 25.1014C210.536 23.6081 209.932 21.7652 207.581 21.7652C206.977 21.7652 206.278 21.8923 205.865 22.0511C205.833 21.9558 205.77 21.8605 205.738 21.7652C206.405 21.4157 207.295 21.2886 208.089 21.2886C209.042 21.2886 209.932 21.4157 210.695 21.7016C210.758 21.4792 211.012 21.5745 210.949 21.8605C210.949 21.924 211.076 24.0529 211.235 25.0696C211.33 25.2921 211.076 25.3874 210.981 25.1014ZM208.248 38.7641C208.216 38.637 208.121 38.5417 208.089 38.4146C209.233 37.9062 209.837 36.9848 209.837 35.5232C209.837 33.4897 208.788 32.3458 207.104 31.3926C206.596 31.1066 205.706 30.5983 205.198 30.2805C203.355 29.1367 202.592 27.6433 202.592 26.1499C202.592 23.7987 204.626 22.21 205.738 21.7334C205.801 21.8605 205.833 21.924 205.865 22.0194C204.721 22.5277 204.181 23.481 204.181 24.8155C204.181 26.0546 204.689 27.1985 206.151 28.1835C206.628 28.533 207.93 29.2955 208.502 29.6133C210.631 30.7889 211.648 32.3776 211.648 34.0616C211.68 35.555 210.949 37.5885 208.248 38.7641ZM205.706 39.2725C204.245 39.2725 203.196 39.2407 201.989 38.637C201.893 38.8912 201.576 38.7006 201.703 38.4782C201.703 38.4782 201.258 34.5064 201.258 34.57C201.258 34.4111 201.417 34.2522 201.512 34.5064C202.116 37.1437 203.101 38.8277 205.706 38.8277C206.596 38.8277 207.644 38.6052 208.057 38.3828C208.089 38.5099 208.184 38.6052 208.216 38.7323C207.74 38.9865 206.85 39.2725 205.706 39.2725Z" fill="#ABABAB"/>
<path d="M232.937 39.1455C232.937 39.0184 232.905 38.8913 232.905 38.7642C236.368 38.0016 238.37 34.856 238.37 31.5833C238.37 26.2136 234.843 21.6064 230.872 21.6064C230.744 21.6064 230.427 21.6382 230.268 21.6382C230.236 21.5428 230.236 21.384 230.204 21.2886C230.458 21.2569 230.935 21.2251 231.189 21.2251C236.495 21.2251 240.594 25.2921 240.594 30.2171C240.626 34.7925 237.29 38.3829 232.937 39.1455ZM231.571 39.2726C226.264 39.2726 222.166 35.142 222.166 30.2488C222.166 25.5146 225.724 21.8288 230.204 21.2569C230.236 21.384 230.268 21.5428 230.268 21.6064C226.391 22.0512 224.39 25.451 224.39 28.8508C224.39 34.2205 227.694 38.796 231.857 38.796C232.142 38.796 232.619 38.7642 232.905 38.7006C232.905 38.8277 232.937 38.9548 232.937 39.0819C232.556 39.209 231.984 39.2726 231.571 39.2726Z" fill="#ABABAB"/>
<path d="M161.509 26.2768C161.509 26.6899 161.509 27.2618 161.509 27.6749C161.509 27.6113 161.35 27.6431 161.287 27.6431C161.223 27.6431 160.905 27.5795 160.905 27.5795C160.905 27.5795 160.937 26.6899 160.905 26.2133C160.778 22.7182 160.365 22.1462 158.459 21.892C158.204 21.8603 158.236 21.6061 158.459 21.6379C159.444 21.7332 160.365 21.7967 161.223 21.7967C162.049 21.7967 162.907 21.7332 163.924 21.6379C164.114 21.6379 164.114 21.8285 163.956 21.892C162.081 22.1462 161.509 23.2583 161.509 26.2768ZM154.265 39.6218C149.276 39.6218 147.306 36.6351 147.179 33.5848C147.052 31.2971 147.052 29.6131 147.084 27.3254C147.115 22.3051 147.084 22.1145 145.559 21.892C145.273 21.8603 145.368 21.6061 145.59 21.6379C146.671 21.7649 147.529 21.8285 148.069 21.8285C148.831 21.8285 150.325 21.7967 151.246 21.6379C151.437 21.6061 151.532 21.8285 151.278 21.892C149.467 22.2733 149.181 22.3369 149.054 27.3254C148.99 29.9626 149.022 31.6784 149.085 33.0446C149.213 36.0314 150.642 39.0499 154.9 39.0499C157.664 39.0816 160.842 36.5715 160.842 32.3138C160.873 29.486 160.842 29.0411 160.842 27.516C160.842 27.3889 161.35 27.4207 161.477 27.4207V32.3774C161.509 36.921 158.49 39.6218 154.265 39.6218Z" fill="#ABABAB"/>
<path d="M247.394 37.62C247.394 36.7303 246.663 35.9678 245.742 35.9678C244.852 35.9678 244.089 36.6986 244.089 37.62C244.089 38.5097 244.82 39.2722 245.742 39.2722C246.663 39.2722 247.394 38.5097 247.394 37.62ZM245.742 39.0816C244.947 39.0816 244.28 38.4143 244.28 37.62C244.28 36.8257 244.947 36.1584 245.742 36.1584C246.536 36.1584 247.203 36.8257 247.203 37.62C247.203 38.4143 246.568 39.0816 245.742 39.0816Z" fill="#ABABAB"/>
<path d="M245.932 37.7156C246.218 37.6838 246.44 37.4614 246.409 37.2072C246.409 36.8577 246.218 36.6353 245.773 36.6353H245.106V38.5417H245.328V37.7156H245.678L246.186 38.5417H246.472L245.932 37.7156ZM245.36 37.5249V36.8577H245.773C245.996 36.8577 246.218 36.9212 246.218 37.1754C246.218 37.4614 245.964 37.5249 245.741 37.5249H245.36Z" fill="#ABABAB"/>
</svg>
