<svg width="398" height="280" viewBox="0 0 398 280" fill="none" xmlns="http://www.w3.org/2000/svg">
<rect width="398" height="280" rx="2" fill="#F6F3FC"/>
<path fill-rule="evenodd" clip-rule="evenodd" d="M223.108 156.342C211.712 164.768 195.136 169.257 180.84 169.257C160.811 169.257 142.854 161.867 129.179 149.573C128.143 148.607 129.041 147.294 130.353 148.054C145.064 156.618 163.228 161.729 182.014 161.729C194.653 161.729 208.604 159.104 221.45 153.648C223.384 152.889 224.973 154.961 223.108 156.342Z" fill="#FF9900"/>
<path fill-rule="evenodd" clip-rule="evenodd" d="M227.874 150.886C226.423 149.021 218.204 149.988 214.544 150.472C213.439 150.61 213.232 149.643 214.268 148.952C220.829 144.325 231.534 145.706 232.777 147.226C234.02 148.745 232.432 159.519 226.285 164.63C225.318 165.39 224.42 164.976 224.835 163.94C226.216 160.486 229.324 152.82 227.874 150.886Z" fill="#FF9900"/>
<path fill-rule="evenodd" clip-rule="evenodd" d="M214.751 116.492L214.751 112.003C214.751 111.312 215.234 110.898 215.856 110.898L235.885 110.898C236.506 110.898 237.059 111.381 237.059 112.003L237.059 115.801C237.059 116.423 236.506 117.252 235.539 118.633L225.18 133.413C229.047 133.344 233.122 133.897 236.575 135.83C237.335 136.245 237.542 136.935 237.611 137.557L237.611 142.323C237.611 143.013 236.921 143.773 236.161 143.359C230.014 140.113 221.795 139.767 215.027 143.428C214.336 143.773 213.577 143.082 213.577 142.392L213.577 137.833C213.577 137.143 213.577 135.9 214.336 134.794L226.354 117.597L215.925 117.597C215.303 117.597 214.751 117.114 214.751 116.492ZM141.749 144.325L135.671 144.325C135.118 144.256 134.635 143.842 134.566 143.289L134.566 112.072C134.566 111.45 135.118 110.967 135.74 110.967L141.403 110.967C142.025 110.967 142.439 111.45 142.508 112.003L142.508 116.078L142.646 116.078C144.097 112.141 146.928 110.276 150.658 110.276C154.457 110.276 156.874 112.141 158.531 116.078C159.982 112.141 163.366 110.276 166.957 110.276C169.513 110.276 172.275 111.312 174.002 113.73C175.936 116.354 175.522 120.153 175.522 123.537L175.522 143.29C175.522 143.911 174.969 144.395 174.347 144.395L168.339 144.395C167.717 144.325 167.234 143.842 167.234 143.289L167.234 126.714C167.234 125.402 167.372 122.086 167.096 120.843C166.612 118.771 165.3 118.15 163.504 118.15C162.054 118.15 160.465 119.117 159.844 120.705C159.222 122.294 159.291 124.918 159.291 126.714L159.291 143.289C159.291 143.911 158.739 144.395 158.117 144.395L152.039 144.395C151.418 144.325 150.934 143.842 150.934 143.289L150.934 126.714C150.934 123.261 151.487 118.081 147.205 118.081C142.854 118.081 142.992 123.053 142.992 126.714L142.992 143.289C142.923 143.842 142.439 144.325 141.749 144.325ZM254.325 110.276C263.373 110.276 268.276 118.012 268.276 127.888C268.276 137.419 262.889 145.016 254.325 145.016C245.485 145.016 240.65 137.281 240.65 127.612C240.581 117.873 245.485 110.276 254.325 110.276ZM254.325 116.699C249.836 116.699 249.56 122.846 249.56 126.645C249.56 130.443 249.491 138.593 254.256 138.593C258.952 138.593 259.229 132.032 259.229 128.026C259.229 125.402 259.091 122.225 258.331 119.738C257.64 117.528 256.259 116.699 254.325 116.699ZM279.948 144.325L273.871 144.325C273.249 144.256 272.766 143.773 272.766 143.22L272.766 111.934C272.835 111.381 273.318 110.898 273.94 110.898L279.603 110.898C280.156 110.898 280.57 111.312 280.708 111.796L280.708 116.561L280.846 116.561C282.573 112.279 284.921 110.276 289.134 110.276C291.828 110.276 294.521 111.243 296.248 113.937C297.836 116.423 297.836 120.636 297.836 123.675L297.836 143.359C297.767 143.911 297.284 144.325 296.662 144.325L290.584 144.325C290.032 144.256 289.548 143.842 289.479 143.359L289.479 126.368C289.479 122.915 289.894 117.943 285.681 117.943C284.23 117.943 282.849 118.909 282.158 120.429C281.33 122.363 281.192 124.227 281.192 126.368L281.192 143.22C281.122 143.842 280.57 144.325 279.948 144.325ZM198.797 129.407C198.797 131.756 198.866 133.758 197.692 135.9C196.725 137.626 195.205 138.662 193.479 138.662C191.13 138.662 189.749 136.866 189.749 134.242C189.749 129.062 194.376 128.095 198.797 128.095L198.797 129.407ZM204.943 144.256C204.529 144.602 203.976 144.671 203.493 144.395C201.49 142.737 201.076 141.908 199.971 140.32C196.656 143.704 194.238 144.74 189.956 144.74C184.845 144.74 180.84 141.563 180.84 135.278C180.84 130.305 183.533 126.99 187.332 125.333C190.647 123.882 195.274 123.606 198.797 123.191L198.797 122.432C198.797 120.981 198.935 119.255 198.037 118.012C197.277 116.907 195.896 116.423 194.653 116.423C192.304 116.423 190.232 117.597 189.749 120.084C189.611 120.636 189.266 121.189 188.713 121.189L182.842 120.567C182.359 120.429 181.806 120.084 181.945 119.324C183.326 112.141 189.749 110 195.55 110C198.52 110 202.388 110.76 204.736 113.039C207.706 115.801 207.43 119.531 207.43 123.537L207.43 132.999C207.43 135.83 208.604 137.074 209.709 138.662C210.123 139.215 210.192 139.905 209.709 140.251C208.397 141.287 206.187 143.22 204.943 144.256ZM119.026 129.407C119.026 131.756 119.095 133.758 117.921 135.9C116.954 137.626 115.435 138.662 113.708 138.662C111.36 138.662 109.978 136.866 109.978 134.242C109.978 129.062 114.606 128.095 119.026 128.095L119.026 129.407ZM125.104 144.256C124.689 144.602 124.137 144.671 123.653 144.395C121.651 142.737 121.236 141.908 120.131 140.32C116.816 143.704 114.399 144.74 110.117 144.74C105.006 144.74 101 141.563 101 135.278C101 130.305 103.694 126.99 107.492 125.332C110.807 123.882 115.435 123.606 118.957 123.191L118.957 122.432C118.957 120.981 119.095 119.255 118.197 118.012C117.438 116.907 116.056 116.423 114.813 116.423C112.465 116.423 110.393 117.597 109.909 120.084C109.771 120.636 109.426 121.189 108.873 121.189L103.003 120.567C102.519 120.429 101.967 120.084 102.105 119.324C103.486 112.141 109.909 110 115.711 110C118.681 110 122.548 110.76 124.897 113.039C127.866 115.801 127.59 119.531 127.59 123.537L127.59 132.999C127.59 135.83 128.764 137.074 129.869 138.662C130.284 139.215 130.353 139.905 129.869 140.251C128.557 141.287 126.347 143.22 125.104 144.256Z" fill="black"/>
</svg>
