<svg width="142" height="65" viewBox="0 0 142 65" fill="none" xmlns="http://www.w3.org/2000/svg">
<rect width="142" height="65" rx="2" fill="#F5F6FA"/>
<path fill-rule="evenodd" clip-rule="evenodd" d="M82.9302 42.5443C77.0182 46.9156 68.4189 49.2446 61.002 49.2446C50.6112 49.2446 41.2954 45.4107 34.201 39.0329C33.6635 38.5313 34.1293 37.8505 34.8101 38.2447C42.4419 42.6876 51.8653 45.3391 61.6111 45.3391C68.1681 45.3391 75.4058 43.9775 82.0703 41.1469C83.0735 40.7528 83.8976 41.8277 82.9302 42.5443Z" fill="#FF9900"/>
<path fill-rule="evenodd" clip-rule="evenodd" d="M85.4019 39.7133C84.6494 38.7459 80.3856 39.2476 78.4866 39.4984C77.9133 39.57 77.8059 39.0684 78.3433 38.7101C81.7472 36.3095 87.3009 37.0261 87.9458 37.8143C88.5908 38.6026 87.7667 44.1921 84.5778 46.8436C84.0762 47.2377 83.6104 47.0227 83.8253 46.4853C84.5419 44.6938 86.1543 40.7166 85.4019 39.7133Z" fill="#FF9900"/>
<path fill-rule="evenodd" clip-rule="evenodd" d="M78.5946 21.87L78.5946 19.541C78.5946 19.1827 78.8454 18.9677 79.1678 18.9677L89.5586 18.9677C89.8811 18.9677 90.1678 19.2186 90.1678 19.541L90.1678 21.5117C90.1678 21.8342 89.8811 22.2641 89.3795 22.9807L84.0049 30.6484C86.0114 30.6126 88.1254 30.8992 89.9169 31.9025C90.3111 32.1175 90.4186 32.4758 90.4544 32.7983L90.4544 35.2705C90.4544 35.6288 90.0961 36.023 89.702 35.808C86.5131 34.124 82.2493 33.9448 78.7379 35.8438C78.3796 36.023 77.9854 35.6647 77.9854 35.3064L77.9854 32.9416C77.9854 32.5833 77.9854 31.9383 78.3796 31.365L84.6141 22.4433L79.2037 22.4433C78.8812 22.4433 78.5946 22.1925 78.5946 21.87ZM40.7219 36.3096L37.5688 36.3096C37.2822 36.2738 37.0314 36.0588 36.9956 35.7722L36.9956 19.5769C36.9956 19.2544 37.2822 19.0036 37.6047 19.0036L40.5428 19.0036C40.8652 19.0036 41.0802 19.2544 41.1161 19.541L41.1161 21.655L41.1877 21.655C41.9401 19.6127 43.4092 18.6453 45.344 18.6453C47.3147 18.6453 48.5688 19.6127 49.4287 21.655C50.1811 19.6127 51.9368 18.6453 53.8 18.6453C55.1257 18.6453 56.5589 19.1827 57.4547 20.4368C58.4579 21.7983 58.2429 23.769 58.2429 25.5247L58.2429 35.7722C58.2429 36.0946 57.9563 36.3454 57.6338 36.3454L54.5166 36.3454C54.1941 36.3096 53.9433 36.0588 53.9433 35.7722L53.9433 27.1729C53.9433 26.4921 54.015 24.7723 53.8716 24.1273C53.6208 23.0524 52.9401 22.7299 52.0085 22.7299C51.256 22.7299 50.4319 23.2316 50.1095 24.0557C49.787 24.8798 49.8228 26.2413 49.8228 27.1729L49.8228 35.7722C49.8228 36.0946 49.5362 36.3454 49.2137 36.3454L46.0606 36.3454C45.7382 36.3096 45.4873 36.0588 45.4873 35.7722L45.4873 27.1729C45.4873 25.3814 45.774 22.6941 43.5525 22.6941C41.2952 22.6941 41.3669 25.2739 41.3669 27.1729L41.3669 35.7722C41.331 36.0588 41.0802 36.3096 40.7219 36.3096ZM99.1253 18.6453C103.819 18.6453 106.363 22.6583 106.363 27.782C106.363 32.7266 103.568 36.6679 99.1253 36.6679C94.5391 36.6679 92.0309 32.6549 92.0309 27.6387C91.9951 22.5866 94.5391 18.6453 99.1253 18.6453ZM99.1253 21.9775C96.7964 21.9775 96.653 25.1664 96.653 27.1371C96.653 29.1077 96.6172 33.3357 99.0895 33.3357C101.526 33.3357 101.669 29.9318 101.669 27.8537C101.669 26.4921 101.598 24.8439 101.203 23.554C100.845 22.4075 100.129 21.9775 99.1253 21.9775ZM112.418 36.3096L109.265 36.3096C108.943 36.2738 108.692 36.023 108.692 35.7363L108.692 19.5052C108.728 19.2186 108.979 18.9678 109.301 18.9678L112.239 18.9678C112.526 18.9678 112.741 19.1827 112.813 19.4336L112.813 21.9058L112.884 21.9058C113.78 19.6844 114.998 18.6453 117.184 18.6453C118.581 18.6453 119.979 19.1469 120.874 20.5443C121.698 21.8342 121.698 24.0198 121.698 25.5964L121.698 35.808C121.663 36.0946 121.412 36.3096 121.089 36.3096L117.936 36.3096C117.65 36.2738 117.399 36.0588 117.363 35.808L117.363 26.9937C117.363 25.2022 117.578 22.6224 115.392 22.6224C114.64 22.6224 113.923 23.1241 113.565 23.9123C113.135 24.9156 113.063 25.883 113.063 26.9937L113.063 35.7363C113.027 36.0588 112.741 36.3096 112.418 36.3096ZM70.3178 28.5703C70.3178 29.7885 70.3536 30.8276 69.7445 31.9383C69.2428 32.8341 68.4546 33.3715 67.5588 33.3715C66.3406 33.3715 65.624 32.44 65.624 31.0784C65.624 28.3911 68.0246 27.8895 70.3178 27.8895L70.3178 28.5703ZM73.5067 36.2738C73.2917 36.4529 73.005 36.4888 72.7542 36.3454C71.7151 35.4855 71.5002 35.0556 70.9269 34.2315C69.207 35.9871 67.953 36.5246 65.7315 36.5246C63.08 36.5246 61.0019 34.8764 61.0019 31.6159C61.0019 29.0361 62.3993 27.3162 64.3699 26.4563C66.0898 25.7038 68.4904 25.5605 70.3178 25.3455L70.3178 24.9514C70.3178 24.199 70.3894 23.3032 69.9236 22.6583C69.5295 22.085 68.8129 21.8342 68.1679 21.8342C66.9497 21.8342 65.8748 22.4433 65.624 23.7332C65.5523 24.0198 65.3732 24.3065 65.0865 24.3065L62.041 23.984C61.7901 23.9123 61.5035 23.7332 61.5752 23.339C62.2918 19.6127 65.624 18.502 68.6337 18.502C70.1744 18.502 72.1809 18.8961 73.3992 20.0785C74.9399 21.5117 74.7966 23.4465 74.7966 25.5247L74.7965 30.4334C74.7965 31.9025 75.4057 32.5474 75.9789 33.3715C76.1939 33.6582 76.2298 34.0165 75.9789 34.1956C75.2982 34.7331 74.1516 35.7363 73.5067 36.2738ZM28.9337 28.5703C28.9337 29.7885 28.9696 30.8276 28.3605 31.9383C27.8588 32.8341 27.0706 33.3715 26.1748 33.3715C24.9566 33.3715 24.24 32.4399 24.24 31.0784C24.24 28.3911 26.6406 27.8895 28.9337 27.8895L28.9337 28.5703ZM32.0868 36.2738C31.8718 36.4529 31.5852 36.4888 31.3344 36.3454C30.2953 35.4855 30.0803 35.0556 29.507 34.2315C27.7872 35.9871 26.5331 36.5246 24.3116 36.5246C21.6602 36.5246 19.582 34.8764 19.582 31.6158C19.582 29.0361 20.9794 27.3162 22.9501 26.4563C24.6699 25.7038 27.0706 25.5605 28.8979 25.3455L28.8979 24.9514C28.8979 24.199 28.9696 23.3032 28.5038 22.6583C28.1096 22.085 27.393 21.8342 26.7481 21.8342C25.5299 21.8342 24.455 22.4433 24.2041 23.7332C24.1325 24.0198 23.9533 24.3065 23.6667 24.3065L20.6211 23.984C20.3703 23.9123 20.0837 23.7332 20.1553 23.339C20.8719 19.6127 24.2041 18.502 27.2139 18.502C28.7546 18.502 30.7611 18.8961 31.9793 20.0785C33.52 21.5117 33.3767 23.4465 33.3767 25.5247L33.3767 30.4334C33.3767 31.9025 33.9858 32.5474 34.5591 33.3715C34.7741 33.6582 34.8099 34.0165 34.5591 34.1956C33.8783 34.7331 32.7318 35.7363 32.0868 36.2738Z" fill="black"/>
</svg>
