<svg width="22" height="22" viewBox="0 0 22 22" fill="none" xmlns="http://www.w3.org/2000/svg">
<path d="M11 21.5C16.796 21.5 21.5 16.796 21.5 11C21.5 5.204 16.796 0.5 11 0.5C5.204 0.5 0.5 5.204 0.5 11C0.5 16.796 5.204 21.5 11 21.5ZM14.7472 10.2506H16.25V8.74775H17.7528V10.2506H19.2438V11.7534H17.7528V13.2562H16.25V11.7534H14.7472V10.2506ZM8.00619 5.75C9.33181 5.75 10.5511 6.21594 11.5211 7.11762L10.0983 8.49837C9.53919 7.95237 8.77269 7.68987 8.00619 7.68987C6.18969 7.68987 4.73806 9.19269 4.73806 10.9961C4.73806 12.7994 6.18575 14.3023 8.00619 14.3023C9.38694 14.3023 10.7532 13.4938 10.9737 12.0461H8.00619V10.2427H12.9556C13.0107 10.5314 13.0357 10.8176 13.0357 11.1194C13.0357 14.1172 11.0236 16.2513 8.00619 16.2513V16.25C5.09375 16.25 2.75619 13.8993 2.75619 11C2.75619 8.10069 5.09375 5.75 8.00619 5.75Z" fill="white"/>
</svg>
