<svg width="211" height="104" viewBox="0 0 211 104" fill="none" xmlns="http://www.w3.org/2000/svg">
<path d="M70 38H105V88H70V38Z" fill="#E59E38"/>
<path d="M175 57H210V88H175V57Z" fill="#FFCCD4"/>
<rect x="1" y="49" width="35" height="39" fill="#FD768A"/>
<rect x="105" y="49" width="36" height="39" fill="#76EEAD"/>
<rect x="36" y="20" width="34" height="68" fill="#FFF6C1"/>
<rect x="141" width="34" height="88" fill="#C2C2C2"/>
<line y1="7.75" x2="211" y2="7.75" stroke="#EEEEEE" stroke-width="0.5"/>
<line y1="27.75" x2="211" y2="27.75" stroke="#EEEEEE" stroke-width="0.5"/>
<line y1="47.75" x2="211" y2="47.75" stroke="#EEEEEE" stroke-width="0.5"/>
<line y1="67.75" x2="211" y2="67.75" stroke="#EEEEEE" stroke-width="0.5"/>
<line y1="87.75" x2="211" y2="87.75" stroke="#EEEEEE" stroke-width="0.5"/>
<path d="M81.3451 97.1V102H80.9181L77.7681 98.024V102H77.2501V97.1H77.6771L80.8341 101.076V97.1H81.3451ZM86.0455 100.313H82.9655C82.9935 100.696 83.1405 101.006 83.4065 101.244C83.6725 101.477 84.0085 101.594 84.4145 101.594C84.6432 101.594 84.8532 101.554 85.0445 101.475C85.2358 101.391 85.4015 101.27 85.5415 101.111L85.8215 101.433C85.6582 101.629 85.4528 101.778 85.2055 101.881C84.9628 101.984 84.6945 102.035 84.4005 102.035C84.0225 102.035 83.6865 101.956 83.3925 101.797C83.1032 101.634 82.8768 101.41 82.7135 101.125C82.5502 100.84 82.4685 100.518 82.4685 100.159C82.4685 99.7997 82.5455 99.4777 82.6995 99.193C82.8582 98.9083 83.0728 98.6867 83.3435 98.528C83.6188 98.3693 83.9268 98.29 84.2675 98.29C84.6082 98.29 84.9138 98.3693 85.1845 98.528C85.4552 98.6867 85.6675 98.9083 85.8215 99.193C85.9755 99.473 86.0525 99.795 86.0525 100.159L86.0455 100.313ZM84.2675 98.717C83.9128 98.717 83.6142 98.8313 83.3715 99.06C83.1335 99.284 82.9982 99.578 82.9655 99.942H85.5765C85.5438 99.578 85.4062 99.284 85.1635 99.06C84.9255 98.8313 84.6268 98.717 84.2675 98.717ZM89.3066 102L88.1376 100.46L86.9616 102H86.4016L87.8576 100.11L86.4716 98.318H87.0316L88.1376 99.76L89.2436 98.318H89.7896L88.4036 100.11L89.8736 102H89.3066ZM92.6398 101.776C92.5465 101.86 92.4298 101.925 92.2898 101.972C92.1545 102.014 92.0121 102.035 91.8628 102.035C91.5175 102.035 91.2515 101.942 91.0648 101.755C90.8781 101.568 90.7848 101.305 90.7848 100.964V98.738H90.1268V98.318H90.7848V97.513H91.2818V98.318H92.4018V98.738H91.2818V100.936C91.2818 101.155 91.3355 101.323 91.4428 101.44C91.5548 101.552 91.7135 101.608 91.9188 101.608C92.0215 101.608 92.1195 101.592 92.2128 101.559C92.3108 101.526 92.3948 101.48 92.4648 101.419L92.6398 101.776ZM97.0776 99.067C97.3996 99.067 97.6843 99.1277 97.9316 99.249C98.1836 99.3703 98.3796 99.543 98.5196 99.767C98.6596 99.9863 98.7296 100.243 98.7296 100.537C98.7296 100.836 98.6573 101.099 98.5126 101.328C98.3679 101.557 98.1673 101.734 97.9106 101.86C97.6586 101.981 97.3739 102.042 97.0566 102.042C96.4079 102.042 95.9109 101.83 95.5656 101.405C95.2203 100.976 95.0476 100.371 95.0476 99.592C95.0476 99.046 95.1409 98.584 95.3276 98.206C95.5143 97.828 95.7756 97.5433 96.1116 97.352C96.4476 97.156 96.8396 97.058 97.2876 97.058C97.7729 97.058 98.1603 97.1467 98.4496 97.324L98.2466 97.73C98.0133 97.576 97.6959 97.499 97.2946 97.499C96.7533 97.499 96.3286 97.6717 96.0206 98.017C95.7126 98.3577 95.5586 98.8547 95.5586 99.508C95.5586 99.6247 95.5656 99.7577 95.5796 99.907C95.7009 99.641 95.8946 99.4357 96.1606 99.291C96.4266 99.1417 96.7323 99.067 97.0776 99.067ZM97.0356 101.615C97.3903 101.615 97.6773 101.519 97.8966 101.328C98.1206 101.132 98.2326 100.873 98.2326 100.551C98.2326 100.229 98.1206 99.9723 97.8966 99.781C97.6773 99.5897 97.3786 99.494 97.0006 99.494C96.7533 99.494 96.5339 99.5407 96.3426 99.634C96.1559 99.7273 96.0089 99.8557 95.9016 100.019C95.7943 100.182 95.7406 100.364 95.7406 100.565C95.7406 100.752 95.7896 100.924 95.8876 101.083C95.9903 101.242 96.1396 101.37 96.3356 101.468C96.5316 101.566 96.7649 101.615 97.0356 101.615ZM105.674 97.1V102H105.163V99.739H102.097V102H101.579V97.1H102.097V99.284H105.163V97.1H105.674ZM108.674 102.035C108.319 102.035 107.999 101.956 107.715 101.797C107.43 101.634 107.206 101.41 107.043 101.125C106.879 100.84 106.798 100.518 106.798 100.159C106.798 99.7997 106.879 99.4777 107.043 99.193C107.206 98.9083 107.43 98.6867 107.715 98.528C107.999 98.3693 108.319 98.29 108.674 98.29C109.028 98.29 109.348 98.3693 109.633 98.528C109.917 98.6867 110.139 98.9083 110.298 99.193C110.461 99.4777 110.543 99.7997 110.543 100.159C110.543 100.518 110.461 100.84 110.298 101.125C110.139 101.41 109.917 101.634 109.633 101.797C109.348 101.956 109.028 102.035 108.674 102.035ZM108.674 101.594C108.935 101.594 109.168 101.536 109.374 101.419C109.584 101.298 109.747 101.127 109.864 100.908C109.98 100.689 110.039 100.439 110.039 100.159C110.039 99.879 109.98 99.6293 109.864 99.41C109.747 99.1907 109.584 99.0227 109.374 98.906C109.168 98.7847 108.935 98.724 108.674 98.724C108.412 98.724 108.177 98.7847 107.967 98.906C107.761 99.0227 107.598 99.1907 107.477 99.41C107.36 99.6293 107.302 99.879 107.302 100.159C107.302 100.439 107.36 100.689 107.477 100.908C107.598 101.127 107.761 101.298 107.967 101.419C108.177 101.536 108.412 101.594 108.674 101.594ZM114.875 98.318V102H114.399V101.328C114.269 101.552 114.089 101.727 113.86 101.853C113.632 101.974 113.37 102.035 113.076 102.035C112.596 102.035 112.215 101.902 111.935 101.636C111.66 101.365 111.522 100.971 111.522 100.453V98.318H112.019V100.404C112.019 100.791 112.115 101.085 112.306 101.286C112.498 101.487 112.771 101.587 113.125 101.587C113.513 101.587 113.818 101.47 114.042 101.237C114.266 100.999 114.378 100.67 114.378 100.25V98.318H114.875ZM116.743 99.039C116.86 98.7917 117.033 98.605 117.261 98.479C117.495 98.353 117.782 98.29 118.122 98.29V98.773L118.003 98.766C117.616 98.766 117.313 98.885 117.093 99.123C116.874 99.361 116.764 99.6947 116.764 100.124V102H116.267V98.318H116.743V99.039ZM124.36 102L123.24 100.425C123.114 100.439 122.983 100.446 122.848 100.446H121.532V102H121.014V97.1H122.848C123.473 97.1 123.963 97.2493 124.318 97.548C124.672 97.8467 124.85 98.2573 124.85 98.78C124.85 99.1627 124.752 99.487 124.556 99.753C124.364 100.014 124.089 100.203 123.73 100.32L124.927 102H124.36ZM122.834 100.005C123.319 100.005 123.69 99.8977 123.947 99.683C124.203 99.4683 124.332 99.1673 124.332 98.78C124.332 98.3833 124.203 98.08 123.947 97.87C123.69 97.6553 123.319 97.548 122.834 97.548H121.532V100.005H122.834ZM125.967 98.318H126.464V102H125.967V98.318ZM126.219 97.513C126.117 97.513 126.03 97.478 125.96 97.408C125.89 97.338 125.855 97.254 125.855 97.156C125.855 97.0627 125.89 96.981 125.96 96.911C126.03 96.841 126.117 96.806 126.219 96.806C126.322 96.806 126.408 96.841 126.478 96.911C126.548 96.9763 126.583 97.0557 126.583 97.149C126.583 97.2517 126.548 97.338 126.478 97.408C126.408 97.478 126.322 97.513 126.219 97.513ZM131.207 96.806V102H130.731V101.272C130.582 101.519 130.384 101.708 130.136 101.839C129.894 101.97 129.618 102.035 129.31 102.035C128.965 102.035 128.652 101.956 128.372 101.797C128.092 101.638 127.873 101.417 127.714 101.132C127.556 100.847 127.476 100.523 127.476 100.159C127.476 99.795 127.556 99.4707 127.714 99.186C127.873 98.9013 128.092 98.682 128.372 98.528C128.652 98.3693 128.965 98.29 129.31 98.29C129.609 98.29 129.877 98.353 130.115 98.479C130.358 98.6003 130.556 98.78 130.71 99.018V96.806H131.207ZM129.352 101.594C129.609 101.594 129.84 101.536 130.045 101.419C130.255 101.298 130.419 101.127 130.535 100.908C130.657 100.689 130.717 100.439 130.717 100.159C130.717 99.879 130.657 99.6293 130.535 99.41C130.419 99.1907 130.255 99.0227 130.045 98.906C129.84 98.7847 129.609 98.724 129.352 98.724C129.091 98.724 128.855 98.7847 128.645 98.906C128.44 99.0227 128.277 99.1907 128.155 99.41C128.039 99.6293 127.98 99.879 127.98 100.159C127.98 100.439 128.039 100.689 128.155 100.908C128.277 101.127 128.44 101.298 128.645 101.419C128.855 101.536 129.091 101.594 129.352 101.594ZM135.797 100.313H132.717C132.745 100.696 132.892 101.006 133.158 101.244C133.424 101.477 133.76 101.594 134.166 101.594C134.395 101.594 134.605 101.554 134.796 101.475C134.988 101.391 135.153 101.27 135.293 101.111L135.573 101.433C135.41 101.629 135.205 101.778 134.957 101.881C134.715 101.984 134.446 102.035 134.152 102.035C133.774 102.035 133.438 101.956 133.144 101.797C132.855 101.634 132.629 101.41 132.465 101.125C132.302 100.84 132.22 100.518 132.22 100.159C132.22 99.7997 132.297 99.4777 132.451 99.193C132.61 98.9083 132.825 98.6867 133.095 98.528C133.371 98.3693 133.679 98.29 134.019 98.29C134.36 98.29 134.666 98.3693 134.936 98.528C135.207 98.6867 135.419 98.9083 135.573 99.193C135.727 99.473 135.804 99.795 135.804 100.159L135.797 100.313ZM134.019 98.717C133.665 98.717 133.366 98.8313 133.123 99.06C132.885 99.284 132.75 99.578 132.717 99.942H135.328C135.296 99.578 135.158 99.284 134.915 99.06C134.677 98.8313 134.379 98.717 134.019 98.717ZM137.803 102.035C137.504 102.035 137.217 101.993 136.942 101.909C136.671 101.82 136.459 101.711 136.305 101.58L136.529 101.188C136.683 101.309 136.877 101.41 137.11 101.489C137.343 101.564 137.586 101.601 137.838 101.601C138.174 101.601 138.421 101.55 138.58 101.447C138.743 101.34 138.825 101.19 138.825 100.999C138.825 100.864 138.781 100.759 138.692 100.684C138.603 100.605 138.491 100.546 138.356 100.509C138.221 100.467 138.041 100.427 137.817 100.39C137.518 100.334 137.278 100.278 137.096 100.222C136.914 100.161 136.758 100.061 136.627 99.921C136.501 99.781 136.438 99.5873 136.438 99.34C136.438 99.032 136.566 98.78 136.823 98.584C137.08 98.388 137.437 98.29 137.894 98.29C138.132 98.29 138.37 98.3227 138.608 98.388C138.846 98.4487 139.042 98.5303 139.196 98.633L138.979 99.032C138.676 98.822 138.314 98.717 137.894 98.717C137.577 98.717 137.336 98.773 137.173 98.885C137.014 98.997 136.935 99.144 136.935 99.326C136.935 99.466 136.979 99.578 137.068 99.662C137.161 99.746 137.276 99.809 137.411 99.851C137.546 99.8883 137.733 99.928 137.971 99.97C138.265 100.026 138.501 100.082 138.678 100.138C138.855 100.194 139.007 100.29 139.133 100.425C139.259 100.56 139.322 100.747 139.322 100.985C139.322 101.307 139.187 101.564 138.916 101.755C138.65 101.942 138.279 102.035 137.803 102.035Z" fill="black"/>
</svg>
