<svg width="342" height="66" viewBox="0 0 342 66" fill="none" xmlns="http://www.w3.org/2000/svg">
<path d="M7.43781 10.08C6.90448 10.08 6.41115 9.99333 5.95781 9.82C5.51115 9.64 5.12115 9.39 4.78781 9.07C4.46115 8.74333 4.20448 8.36333 4.01781 7.93C3.83115 7.49667 3.73781 7.02 3.73781 6.5C3.73781 5.98 3.83115 5.50333 4.01781 5.07C4.20448 4.63667 4.46448 4.26 4.79781 3.94C5.13115 3.61333 5.52115 3.36333 5.96781 3.19C6.42115 3.01 6.91448 2.92 7.44781 2.92C7.98781 2.92 8.48448 3.01333 8.93781 3.2C9.39781 3.38 9.78781 3.65 10.1078 4.01L9.45781 4.64C9.19115 4.36 8.89115 4.15333 8.55781 4.02C8.22448 3.88 7.86781 3.81 7.48781 3.81C7.09448 3.81 6.72781 3.87667 6.38781 4.01C6.05448 4.14333 5.76448 4.33 5.51781 4.57C5.27115 4.81 5.07781 5.09667 4.93781 5.43C4.80448 5.75667 4.73781 6.11333 4.73781 6.5C4.73781 6.88667 4.80448 7.24667 4.93781 7.58C5.07781 7.90667 5.27115 8.19 5.51781 8.43C5.76448 8.67 6.05448 8.85667 6.38781 8.99C6.72781 9.12333 7.09448 9.19 7.48781 9.19C7.86781 9.19 8.22448 9.12333 8.55781 8.99C8.89115 8.85 9.19115 8.63667 9.45781 8.35L10.1078 8.98C9.78781 9.34 9.39781 9.61333 8.93781 9.8C8.48448 9.98667 7.98448 10.08 7.43781 10.08ZM13.4398 10.06C12.9064 10.06 12.4331 9.94333 12.0198 9.71C11.6064 9.47667 11.2798 9.15667 11.0398 8.75C10.7998 8.33667 10.6798 7.87 10.6798 7.35C10.6798 6.82333 10.7998 6.35667 11.0398 5.95C11.2798 5.54333 11.6064 5.22667 12.0198 5C12.4331 4.76667 12.9064 4.65 13.4398 4.65C13.9664 4.65 14.4364 4.76667 14.8498 5C15.2698 5.22667 15.5964 5.54333 15.8298 5.95C16.0698 6.35 16.1898 6.81667 16.1898 7.35C16.1898 7.87667 16.0698 8.34333 15.8298 8.75C15.5964 9.15667 15.2698 9.47667 14.8498 9.71C14.4364 9.94333 13.9664 10.06 13.4398 10.06ZM13.4398 9.22C13.7798 9.22 14.0831 9.14333 14.3498 8.99C14.6231 8.83667 14.8364 8.62 14.9898 8.34C15.1431 8.05333 15.2198 7.72333 15.2198 7.35C15.2198 6.97 15.1431 6.64333 14.9898 6.37C14.8364 6.09 14.6231 5.87333 14.3498 5.72C14.0831 5.56667 13.7798 5.49 13.4398 5.49C13.0998 5.49 12.7964 5.56667 12.5298 5.72C12.2631 5.87333 12.0498 6.09 11.8898 6.37C11.7298 6.64333 11.6498 6.97 11.6498 7.35C11.6498 7.72333 11.7298 8.05333 11.8898 8.34C12.0498 8.62 12.2631 8.83667 12.5298 8.99C12.7964 9.14333 13.0998 9.22 13.4398 9.22ZM19.0374 10.06C18.5974 10.06 18.1774 10 17.7774 9.88C17.3841 9.76 17.0741 9.61333 16.8474 9.44L17.2474 8.68C17.4741 8.83333 17.7541 8.96333 18.0874 9.07C18.4208 9.17667 18.7608 9.23 19.1074 9.23C19.5541 9.23 19.8741 9.16667 20.0674 9.04C20.2674 8.91333 20.3674 8.73667 20.3674 8.51C20.3674 8.34333 20.3074 8.21333 20.1874 8.12C20.0674 8.02667 19.9074 7.95667 19.7074 7.91C19.5141 7.86333 19.2974 7.82333 19.0574 7.79C18.8174 7.75 18.5774 7.70333 18.3374 7.65C18.0974 7.59 17.8774 7.51 17.6774 7.41C17.4774 7.30333 17.3174 7.16 17.1974 6.98C17.0774 6.79333 17.0174 6.54667 17.0174 6.24C17.0174 5.92 17.1074 5.64 17.2874 5.4C17.4674 5.16 17.7208 4.97667 18.0474 4.85C18.3808 4.71667 18.7741 4.65 19.2274 4.65C19.5741 4.65 19.9241 4.69333 20.2774 4.78C20.6374 4.86 20.9308 4.97667 21.1574 5.13L20.7474 5.89C20.5074 5.73 20.2574 5.62 19.9974 5.56C19.7374 5.5 19.4774 5.47 19.2174 5.47C18.7974 5.47 18.4841 5.54 18.2774 5.68C18.0708 5.81333 17.9674 5.98667 17.9674 6.2C17.9674 6.38 18.0274 6.52 18.1474 6.62C18.2741 6.71333 18.4341 6.78667 18.6274 6.84C18.8274 6.89333 19.0474 6.94 19.2874 6.98C19.5274 7.01333 19.7674 7.06 20.0074 7.12C20.2474 7.17333 20.4641 7.25 20.6574 7.35C20.8574 7.45 21.0174 7.59 21.1374 7.77C21.2641 7.95 21.3274 8.19 21.3274 8.49C21.3274 8.81 21.2341 9.08667 21.0474 9.32C20.8608 9.55333 20.5974 9.73667 20.2574 9.87C19.9174 9.99667 19.5108 10.06 19.0374 10.06ZM24.3472 10.06C23.8139 10.06 23.4005 9.91667 23.1072 9.63C22.8139 9.34333 22.6672 8.93333 22.6672 8.4V3.54H23.6272V8.36C23.6272 8.64667 23.6972 8.86667 23.8372 9.02C23.9839 9.17333 24.1905 9.25 24.4572 9.25C24.7572 9.25 25.0072 9.16667 25.2072 9L25.5072 9.69C25.3605 9.81667 25.1839 9.91 24.9772 9.97C24.7772 10.03 24.5672 10.06 24.3472 10.06ZM21.7672 5.49V4.7H25.1472V5.49H21.7672ZM31.6234 10.06C31.09 10.06 30.6167 9.94333 30.2034 9.71C29.79 9.47667 29.4634 9.15667 29.2234 8.75C28.9834 8.33667 28.8634 7.87 28.8634 7.35C28.8634 6.82333 28.9834 6.35667 29.2234 5.95C29.4634 5.54333 29.79 5.22667 30.2034 5C30.6167 4.76667 31.09 4.65 31.6234 4.65C32.15 4.65 32.62 4.76667 33.0334 5C33.4534 5.22667 33.78 5.54333 34.0134 5.95C34.2534 6.35 34.3734 6.81667 34.3734 7.35C34.3734 7.87667 34.2534 8.34333 34.0134 8.75C33.78 9.15667 33.4534 9.47667 33.0334 9.71C32.62 9.94333 32.15 10.06 31.6234 10.06ZM31.6234 9.22C31.9634 9.22 32.2667 9.14333 32.5334 8.99C32.8067 8.83667 33.02 8.62 33.1734 8.34C33.3267 8.05333 33.4034 7.72333 33.4034 7.35C33.4034 6.97 33.3267 6.64333 33.1734 6.37C33.02 6.09 32.8067 5.87333 32.5334 5.72C32.2667 5.56667 31.9634 5.49 31.6234 5.49C31.2834 5.49 30.98 5.56667 30.7134 5.72C30.4467 5.87333 30.2334 6.09 30.0734 6.37C29.9134 6.64333 29.8334 6.97 29.8334 7.35C29.8334 7.72333 29.9134 8.05333 30.0734 8.34C30.2334 8.62 30.4467 8.83667 30.7134 8.99C30.98 9.14333 31.2834 9.22 31.6234 9.22ZM35.841 10V4.23C35.841 3.71 35.991 3.29667 36.291 2.99C36.5977 2.67667 37.031 2.52 37.591 2.52C37.7977 2.52 37.9943 2.54667 38.181 2.6C38.3743 2.64667 38.5377 2.72333 38.671 2.83L38.381 3.56C38.281 3.48 38.1677 3.42 38.041 3.38C37.9143 3.33333 37.781 3.31 37.641 3.31C37.361 3.31 37.1477 3.39 37.001 3.55C36.8543 3.70333 36.781 3.93333 36.781 4.24V4.95L36.801 5.39V10H35.841ZM34.941 5.49V4.7H38.321V5.49H34.941ZM42.052 10V3H44.782C45.3953 3 45.9186 3.09667 46.352 3.29C46.7853 3.48333 47.1186 3.76333 47.352 4.13C47.5853 4.49667 47.702 4.93333 47.702 5.44C47.702 5.94667 47.5853 6.38333 47.352 6.75C47.1186 7.11 46.7853 7.38667 46.352 7.58C45.9186 7.77333 45.3953 7.87 44.782 7.87H42.602L43.052 7.41V10H42.052ZM46.732 10L44.952 7.46H46.022L47.822 10H46.732ZM43.052 7.51L42.602 7.02H44.752C45.392 7.02 45.8753 6.88333 46.202 6.61C46.5353 6.33 46.702 5.94 46.702 5.44C46.702 4.94 46.5353 4.55333 46.202 4.28C45.8753 4.00667 45.392 3.87 44.752 3.87H42.602L43.052 3.37V7.51ZM49.1776 10V4.7H50.1376V10H49.1776ZM49.6576 3.68C49.4709 3.68 49.3142 3.62 49.1876 3.5C49.0676 3.38 49.0076 3.23333 49.0076 3.06C49.0076 2.88 49.0676 2.73 49.1876 2.61C49.3142 2.49 49.4709 2.43 49.6576 2.43C49.8442 2.43 49.9976 2.49 50.1176 2.61C50.2442 2.72333 50.3076 2.86667 50.3076 3.04C50.3076 3.22 50.2476 3.37333 50.1276 3.5C50.0076 3.62 49.8509 3.68 49.6576 3.68ZM54.1605 10.06C53.6472 10.06 53.1872 9.94667 52.7805 9.72C52.3805 9.49333 52.0639 9.17667 51.8305 8.77C51.5972 8.36333 51.4805 7.89 51.4805 7.35C51.4805 6.81 51.5972 6.34 51.8305 5.94C52.0639 5.53333 52.3805 5.21667 52.7805 4.99C53.1872 4.76333 53.6472 4.65 54.1605 4.65C54.6072 4.65 55.0105 4.75 55.3705 4.95C55.7305 5.15 56.0172 5.45 56.2305 5.85C56.4505 6.25 56.5605 6.75 56.5605 7.35C56.5605 7.95 56.4539 8.45 56.2405 8.85C56.0339 9.25 55.7505 9.55333 55.3905 9.76C55.0305 9.96 54.6205 10.06 54.1605 10.06ZM54.2405 9.22C54.5739 9.22 54.8739 9.14333 55.1405 8.99C55.4139 8.83667 55.6272 8.62 55.7805 8.34C55.9405 8.05333 56.0205 7.72333 56.0205 7.35C56.0205 6.97 55.9405 6.64333 55.7805 6.37C55.6272 6.09 55.4139 5.87333 55.1405 5.72C54.8739 5.56667 54.5739 5.49 54.2405 5.49C53.9005 5.49 53.5972 5.56667 53.3305 5.72C53.0639 5.87333 52.8505 6.09 52.6905 6.37C52.5305 6.64333 52.4505 6.97 52.4505 7.35C52.4505 7.72333 52.5305 8.05333 52.6905 8.34C52.8505 8.62 53.0639 8.83667 53.3305 8.99C53.5972 9.14333 53.9005 9.22 54.2405 9.22ZM56.0505 10V8.57L56.1105 7.34L56.0105 6.11V2.58H56.9705V10H56.0505ZM61.147 10.06C60.5803 10.06 60.0803 9.94333 59.647 9.71C59.2203 9.47667 58.887 9.15667 58.647 8.75C58.4136 8.34333 58.297 7.87667 58.297 7.35C58.297 6.82333 58.4103 6.35667 58.637 5.95C58.8703 5.54333 59.187 5.22667 59.587 5C59.9936 4.76667 60.4503 4.65 60.957 4.65C61.4703 4.65 61.9236 4.76333 62.317 4.99C62.7103 5.21667 63.017 5.53667 63.237 5.95C63.4636 6.35667 63.577 6.83333 63.577 7.38C63.577 7.42 63.5736 7.46667 63.567 7.52C63.567 7.57333 63.5636 7.62333 63.557 7.67H59.047V6.98H63.057L62.667 7.22C62.6736 6.88 62.6036 6.57667 62.457 6.31C62.3103 6.04333 62.107 5.83667 61.847 5.69C61.5936 5.53667 61.297 5.46 60.957 5.46C60.6236 5.46 60.327 5.53667 60.067 5.69C59.807 5.83667 59.6036 6.04667 59.457 6.32C59.3103 6.58667 59.237 6.89333 59.237 7.24V7.4C59.237 7.75333 59.317 8.07 59.477 8.35C59.6436 8.62333 59.8736 8.83667 60.167 8.99C60.4603 9.14333 60.797 9.22 61.177 9.22C61.4903 9.22 61.7736 9.16667 62.027 9.06C62.287 8.95333 62.5136 8.79333 62.707 8.58L63.237 9.2C62.997 9.48 62.697 9.69333 62.337 9.84C61.9836 9.98667 61.587 10.06 61.147 10.06Z" fill="#3A494E"/>
<path d="M4.93781 30.08C4.40448 30.08 3.91115 29.9933 3.45781 29.82C3.01115 29.64 2.62115 29.39 2.28781 29.07C1.96115 28.7433 1.70448 28.3633 1.51781 27.93C1.33115 27.4967 1.23781 27.02 1.23781 26.5C1.23781 25.98 1.33115 25.5033 1.51781 25.07C1.70448 24.6367 1.96448 24.26 2.29781 23.94C2.63115 23.6133 3.02115 23.3633 3.46781 23.19C3.92115 23.01 4.41448 22.92 4.94781 22.92C5.48781 22.92 5.98448 23.0133 6.43781 23.2C6.89781 23.38 7.28781 23.65 7.60781 24.01L6.95781 24.64C6.69115 24.36 6.39115 24.1533 6.05781 24.02C5.72448 23.88 5.36781 23.81 4.98781 23.81C4.59448 23.81 4.22781 23.8767 3.88781 24.01C3.55448 24.1433 3.26448 24.33 3.01781 24.57C2.77115 24.81 2.57781 25.0967 2.43781 25.43C2.30448 25.7567 2.23781 26.1133 2.23781 26.5C2.23781 26.8867 2.30448 27.2467 2.43781 27.58C2.57781 27.9067 2.77115 28.19 3.01781 28.43C3.26448 28.67 3.55448 28.8567 3.88781 28.99C4.22781 29.1233 4.59448 29.19 4.98781 29.19C5.36781 29.19 5.72448 29.1233 6.05781 28.99C6.39115 28.85 6.69115 28.6367 6.95781 28.35L7.60781 28.98C7.28781 29.34 6.89781 29.6133 6.43781 29.8C5.98448 29.9867 5.48448 30.08 4.93781 30.08ZM10.9398 30.06C10.4064 30.06 9.9331 29.9433 9.51977 29.71C9.10643 29.4767 8.77977 29.1567 8.53977 28.75C8.29977 28.3367 8.17977 27.87 8.17977 27.35C8.17977 26.8233 8.29977 26.3567 8.53977 25.95C8.77977 25.5433 9.10643 25.2267 9.51977 25C9.9331 24.7667 10.4064 24.65 10.9398 24.65C11.4664 24.65 11.9364 24.7667 12.3498 25C12.7698 25.2267 13.0964 25.5433 13.3298 25.95C13.5698 26.35 13.6898 26.8167 13.6898 27.35C13.6898 27.8767 13.5698 28.3433 13.3298 28.75C13.0964 29.1567 12.7698 29.4767 12.3498 29.71C11.9364 29.9433 11.4664 30.06 10.9398 30.06ZM10.9398 29.22C11.2798 29.22 11.5831 29.1433 11.8498 28.99C12.1231 28.8367 12.3364 28.62 12.4898 28.34C12.6431 28.0533 12.7198 27.7233 12.7198 27.35C12.7198 26.97 12.6431 26.6433 12.4898 26.37C12.3364 26.09 12.1231 25.8733 11.8498 25.72C11.5831 25.5667 11.2798 25.49 10.9398 25.49C10.5998 25.49 10.2964 25.5667 10.0298 25.72C9.7631 25.8733 9.54977 26.09 9.38977 26.37C9.22977 26.6433 9.14977 26.97 9.14977 27.35C9.14977 27.7233 9.22977 28.0533 9.38977 28.34C9.54977 28.62 9.7631 28.8367 10.0298 28.99C10.2964 29.1433 10.5998 29.22 10.9398 29.22ZM21.6474 24.65C22.0741 24.65 22.4508 24.7333 22.7774 24.9C23.1041 25.0667 23.3574 25.32 23.5374 25.66C23.7241 26 23.8174 26.43 23.8174 26.95V30H22.8574V27.06C22.8574 26.5467 22.7374 26.16 22.4974 25.9C22.2574 25.64 21.9208 25.51 21.4874 25.51C21.1674 25.51 20.8874 25.5767 20.6474 25.71C20.4074 25.8433 20.2208 26.04 20.0874 26.3C19.9608 26.56 19.8974 26.8833 19.8974 27.27V30H18.9374V27.06C18.9374 26.5467 18.8174 26.16 18.5774 25.9C18.3441 25.64 18.0074 25.51 17.5674 25.51C17.2541 25.51 16.9774 25.5767 16.7374 25.71C16.4974 25.8433 16.3108 26.04 16.1774 26.3C16.0441 26.56 15.9774 26.8833 15.9774 27.27V30H15.0174V24.7H15.9374V26.11L15.7874 25.75C15.9541 25.4033 16.2108 25.1333 16.5574 24.94C16.9041 24.7467 17.3074 24.65 17.7674 24.65C18.2741 24.65 18.7108 24.7767 19.0774 25.03C19.4441 25.2767 19.6841 25.6533 19.7974 26.16L19.4074 26C19.5674 25.5933 19.8474 25.2667 20.2474 25.02C20.6474 24.7733 21.1141 24.65 21.6474 24.65ZM32.2138 24.65C32.6405 24.65 33.0172 24.7333 33.3438 24.9C33.6705 25.0667 33.9238 25.32 34.1038 25.66C34.2905 26 34.3838 26.43 34.3838 26.95V30H33.4238V27.06C33.4238 26.5467 33.3038 26.16 33.0638 25.9C32.8238 25.64 32.4872 25.51 32.0538 25.51C31.7338 25.51 31.4538 25.5767 31.2138 25.71C30.9738 25.8433 30.7872 26.04 30.6538 26.3C30.5272 26.56 30.4638 26.8833 30.4638 27.27V30H29.5038V27.06C29.5038 26.5467 29.3838 26.16 29.1438 25.9C28.9105 25.64 28.5738 25.51 28.1338 25.51C27.8205 25.51 27.5438 25.5767 27.3038 25.71C27.0638 25.8433 26.8772 26.04 26.7438 26.3C26.6105 26.56 26.5438 26.8833 26.5438 27.27V30H25.5838V24.7H26.5038V26.11L26.3538 25.75C26.5205 25.4033 26.7772 25.1333 27.1238 24.94C27.4705 24.7467 27.8738 24.65 28.3338 24.65C28.8405 24.65 29.2772 24.7767 29.6438 25.03C30.0105 25.2767 30.2505 25.6533 30.3638 26.16L29.9738 26C30.1338 25.5933 30.4138 25.2667 30.8138 25.02C31.2138 24.7733 31.6805 24.65 32.2138 24.65ZM36.1502 30V24.7H37.1102V30H36.1502ZM36.6302 23.68C36.4436 23.68 36.2869 23.62 36.1602 23.5C36.0402 23.38 35.9802 23.2333 35.9802 23.06C35.9802 22.88 36.0402 22.73 36.1602 22.61C36.2869 22.49 36.4436 22.43 36.6302 22.43C36.8169 22.43 36.9702 22.49 37.0902 22.61C37.2169 22.7233 37.2802 22.8667 37.2802 23.04C37.2802 23.22 37.2202 23.3733 37.1002 23.5C36.9802 23.62 36.8236 23.68 36.6302 23.68ZM40.4632 30.06C40.0232 30.06 39.6032 30 39.2032 29.88C38.8099 29.76 38.4999 29.6133 38.2732 29.44L38.6732 28.68C38.8999 28.8333 39.1799 28.9633 39.5132 29.07C39.8465 29.1767 40.1865 29.23 40.5332 29.23C40.9799 29.23 41.2999 29.1667 41.4932 29.04C41.6932 28.9133 41.7932 28.7367 41.7932 28.51C41.7932 28.3433 41.7332 28.2133 41.6132 28.12C41.4932 28.0267 41.3332 27.9567 41.1332 27.91C40.9399 27.8633 40.7232 27.8233 40.4832 27.79C40.2432 27.75 40.0032 27.7033 39.7632 27.65C39.5232 27.59 39.3032 27.51 39.1032 27.41C38.9032 27.3033 38.7432 27.16 38.6232 26.98C38.5032 26.7933 38.4432 26.5467 38.4432 26.24C38.4432 25.92 38.5332 25.64 38.7132 25.4C38.8932 25.16 39.1465 24.9767 39.4732 24.85C39.8065 24.7167 40.1999 24.65 40.6532 24.65C40.9999 24.65 41.3499 24.6933 41.7032 24.78C42.0632 24.86 42.3565 24.9767 42.5832 25.13L42.1732 25.89C41.9332 25.73 41.6832 25.62 41.4232 25.56C41.1632 25.5 40.9032 25.47 40.6432 25.47C40.2232 25.47 39.9099 25.54 39.7032 25.68C39.4965 25.8133 39.3932 25.9867 39.3932 26.2C39.3932 26.38 39.4532 26.52 39.5732 26.62C39.6999 26.7133 39.8599 26.7867 40.0532 26.84C40.2532 26.8933 40.4732 26.94 40.7132 26.98C40.9532 27.0133 41.1932 27.06 41.4332 27.12C41.6732 27.1733 41.8899 27.25 42.0832 27.35C42.2832 27.45 42.4432 27.59 42.5632 27.77C42.6899 27.95 42.7532 28.19 42.7532 28.49C42.7532 28.81 42.6599 29.0867 42.4732 29.32C42.2865 29.5533 42.0232 29.7367 41.6832 29.87C41.3432 29.9967 40.9365 30.06 40.4632 30.06ZM45.473 30.06C45.033 30.06 44.613 30 44.213 29.88C43.8196 29.76 43.5096 29.6133 43.283 29.44L43.683 28.68C43.9096 28.8333 44.1896 28.9633 44.523 29.07C44.8563 29.1767 45.1963 29.23 45.543 29.23C45.9896 29.23 46.3096 29.1667 46.503 29.04C46.703 28.9133 46.803 28.7367 46.803 28.51C46.803 28.3433 46.743 28.2133 46.623 28.12C46.503 28.0267 46.343 27.9567 46.143 27.91C45.9496 27.8633 45.733 27.8233 45.493 27.79C45.253 27.75 45.013 27.7033 44.773 27.65C44.533 27.59 44.313 27.51 44.113 27.41C43.913 27.3033 43.753 27.16 43.633 26.98C43.513 26.7933 43.453 26.5467 43.453 26.24C43.453 25.92 43.543 25.64 43.723 25.4C43.903 25.16 44.1563 24.9767 44.483 24.85C44.8163 24.7167 45.2096 24.65 45.663 24.65C46.0096 24.65 46.3596 24.6933 46.713 24.78C47.073 24.86 47.3663 24.9767 47.593 25.13L47.183 25.89C46.943 25.73 46.693 25.62 46.433 25.56C46.173 25.5 45.913 25.47 45.653 25.47C45.233 25.47 44.9196 25.54 44.713 25.68C44.5063 25.8133 44.403 25.9867 44.403 26.2C44.403 26.38 44.463 26.52 44.583 26.62C44.7096 26.7133 44.8696 26.7867 45.063 26.84C45.263 26.8933 45.483 26.94 45.723 26.98C45.963 27.0133 46.203 27.06 46.443 27.12C46.683 27.1733 46.8996 27.25 47.093 27.35C47.293 27.45 47.453 27.59 47.573 27.77C47.6996 27.95 47.763 28.19 47.763 28.49C47.763 28.81 47.6696 29.0867 47.483 29.32C47.2963 29.5533 47.033 29.7367 46.693 29.87C46.353 29.9967 45.9463 30.06 45.473 30.06ZM48.9627 30V24.7H49.9227V30H48.9627ZM49.4427 23.68C49.2561 23.68 49.0994 23.62 48.9727 23.5C48.8527 23.38 48.7927 23.2333 48.7927 23.06C48.7927 22.88 48.8527 22.73 48.9727 22.61C49.0994 22.49 49.2561 22.43 49.4427 22.43C49.6294 22.43 49.7827 22.49 49.9027 22.61C50.0294 22.7233 50.0927 22.8667 50.0927 23.04C50.0927 23.22 50.0327 23.3733 49.9127 23.5C49.7927 23.62 49.6361 23.68 49.4427 23.68ZM54.0257 30.06C53.4924 30.06 53.019 29.9433 52.6057 29.71C52.1924 29.4767 51.8657 29.1567 51.6257 28.75C51.3857 28.3367 51.2657 27.87 51.2657 27.35C51.2657 26.8233 51.3857 26.3567 51.6257 25.95C51.8657 25.5433 52.1924 25.2267 52.6057 25C53.019 24.7667 53.4924 24.65 54.0257 24.65C54.5524 24.65 55.0224 24.7667 55.4357 25C55.8557 25.2267 56.1824 25.5433 56.4157 25.95C56.6557 26.35 56.7757 26.8167 56.7757 27.35C56.7757 27.8767 56.6557 28.3433 56.4157 28.75C56.1824 29.1567 55.8557 29.4767 55.4357 29.71C55.0224 29.9433 54.5524 30.06 54.0257 30.06ZM54.0257 29.22C54.3657 29.22 54.669 29.1433 54.9357 28.99C55.209 28.8367 55.4224 28.62 55.5757 28.34C55.729 28.0533 55.8057 27.7233 55.8057 27.35C55.8057 26.97 55.729 26.6433 55.5757 26.37C55.4224 26.09 55.209 25.8733 54.9357 25.72C54.669 25.5667 54.3657 25.49 54.0257 25.49C53.6857 25.49 53.3824 25.5667 53.1157 25.72C52.849 25.8733 52.6357 26.09 52.4757 26.37C52.3157 26.6433 52.2357 26.97 52.2357 27.35C52.2357 27.7233 52.3157 28.0533 52.4757 28.34C52.6357 28.62 52.849 28.8367 53.1157 28.99C53.3824 29.1433 53.6857 29.22 54.0257 29.22ZM60.9334 24.65C61.3667 24.65 61.7467 24.7333 62.0734 24.9C62.4067 25.0667 62.6667 25.32 62.8534 25.66C63.04 26 63.1334 26.43 63.1334 26.95V30H62.1734V27.06C62.1734 26.5467 62.0467 26.16 61.7934 25.9C61.5467 25.64 61.1967 25.51 60.7434 25.51C60.4034 25.51 60.1067 25.5767 59.8534 25.71C59.6 25.8433 59.4034 26.04 59.2634 26.3C59.13 26.56 59.0634 26.8833 59.0634 27.27V30H58.1034V24.7H59.0234V26.13L58.8734 25.75C59.0467 25.4033 59.3134 25.1333 59.6734 24.94C60.0334 24.7467 60.4534 24.65 60.9334 24.65Z" fill="#3A494E"/>
<path d="M9.63578 49.08C9.09578 49.08 8.59911 48.9933 8.14578 48.82C7.69245 48.64 7.29911 48.39 6.96578 48.07C6.63245 47.7433 6.37245 47.3633 6.18578 46.93C5.99911 46.4967 5.90578 46.02 5.90578 45.5C5.90578 44.98 5.99911 44.5033 6.18578 44.07C6.37245 43.6367 6.63245 43.26 6.96578 42.94C7.30578 42.6133 7.70245 42.3633 8.15578 42.19C8.60911 42.01 9.10911 41.92 9.65578 41.92C10.2091 41.92 10.7158 42.01 11.1758 42.19C11.6358 42.37 12.0258 42.64 12.3458 43L11.7258 43.62C11.4391 43.34 11.1258 43.1367 10.7858 43.01C10.4524 42.8767 10.0891 42.81 9.69578 42.81C9.29578 42.81 8.92245 42.8767 8.57578 43.01C8.23578 43.1433 7.93911 43.33 7.68578 43.57C7.43911 43.81 7.24578 44.0967 7.10578 44.43C6.97245 44.7567 6.90578 45.1133 6.90578 45.5C6.90578 45.88 6.97245 46.2367 7.10578 46.57C7.24578 46.8967 7.43911 47.1833 7.68578 47.43C7.93911 47.67 8.23578 47.8567 8.57578 47.99C8.91578 48.1233 9.28578 48.19 9.68578 48.19C10.0591 48.19 10.4158 48.1333 10.7558 48.02C11.1024 47.9 11.4224 47.7033 11.7158 47.43L12.2858 48.19C11.9391 48.4833 11.5324 48.7067 11.0658 48.86C10.6058 49.0067 10.1291 49.08 9.63578 49.08ZM11.3258 48.06V45.46H12.2858V48.19L11.3258 48.06ZM14.0604 49V43.7H14.9804V45.14L14.8904 44.78C15.0371 44.4133 15.2837 44.1333 15.6304 43.94C15.9771 43.7467 16.4037 43.65 16.9104 43.65V44.58C16.8704 44.5733 16.8304 44.57 16.7904 44.57C16.7571 44.57 16.7237 44.57 16.6904 44.57C16.1771 44.57 15.7704 44.7233 15.4704 45.03C15.1704 45.3367 15.0204 45.78 15.0204 46.36V49H14.0604ZM20.3148 49.06C19.7814 49.06 19.3081 48.9433 18.8948 48.71C18.4814 48.4767 18.1548 48.1567 17.9148 47.75C17.6748 47.3367 17.5548 46.87 17.5548 46.35C17.5548 45.8233 17.6748 45.3567 17.9148 44.95C18.1548 44.5433 18.4814 44.2267 18.8948 44C19.3081 43.7667 19.7814 43.65 20.3148 43.65C20.8414 43.65 21.3114 43.7667 21.7248 44C22.1448 44.2267 22.4714 44.5433 22.7048 44.95C22.9448 45.35 23.0648 45.8167 23.0648 46.35C23.0648 46.8767 22.9448 47.3433 22.7048 47.75C22.4714 48.1567 22.1448 48.4767 21.7248 48.71C21.3114 48.9433 20.8414 49.06 20.3148 49.06ZM20.3148 48.22C20.6548 48.22 20.9581 48.1433 21.2248 47.99C21.4981 47.8367 21.7114 47.62 21.8648 47.34C22.0181 47.0533 22.0948 46.7233 22.0948 46.35C22.0948 45.97 22.0181 45.6433 21.8648 45.37C21.7114 45.09 21.4981 44.8733 21.2248 44.72C20.9581 44.5667 20.6548 44.49 20.3148 44.49C19.9748 44.49 19.6714 44.5667 19.4048 44.72C19.1381 44.8733 18.9248 45.09 18.7648 45.37C18.6048 45.6433 18.5248 45.97 18.5248 46.35C18.5248 46.7233 18.6048 47.0533 18.7648 47.34C18.9248 47.62 19.1381 47.8367 19.4048 47.99C19.6714 48.1433 19.9748 48.22 20.3148 48.22ZM25.9124 49.06C25.4724 49.06 25.0524 49 24.6524 48.88C24.2591 48.76 23.9491 48.6133 23.7224 48.44L24.1224 47.68C24.3491 47.8333 24.6291 47.9633 24.9624 48.07C25.2958 48.1767 25.6358 48.23 25.9824 48.23C26.4291 48.23 26.7491 48.1667 26.9424 48.04C27.1424 47.9133 27.2424 47.7367 27.2424 47.51C27.2424 47.3433 27.1824 47.2133 27.0624 47.12C26.9424 47.0267 26.7824 46.9567 26.5824 46.91C26.3891 46.8633 26.1724 46.8233 25.9324 46.79C25.6924 46.75 25.4524 46.7033 25.2124 46.65C24.9724 46.59 24.7524 46.51 24.5524 46.41C24.3524 46.3033 24.1924 46.16 24.0724 45.98C23.9524 45.7933 23.8924 45.5467 23.8924 45.24C23.8924 44.92 23.9824 44.64 24.1624 44.4C24.3424 44.16 24.5958 43.9767 24.9224 43.85C25.2558 43.7167 25.6491 43.65 26.1024 43.65C26.4491 43.65 26.7991 43.6933 27.1524 43.78C27.5124 43.86 27.8058 43.9767 28.0324 44.13L27.6224 44.89C27.3824 44.73 27.1324 44.62 26.8724 44.56C26.6124 44.5 26.3524 44.47 26.0924 44.47C25.6724 44.47 25.3591 44.54 25.1524 44.68C24.9458 44.8133 24.8424 44.9867 24.8424 45.2C24.8424 45.38 24.9024 45.52 25.0224 45.62C25.1491 45.7133 25.3091 45.7867 25.5024 45.84C25.7024 45.8933 25.9224 45.94 26.1624 45.98C26.4024 46.0133 26.6424 46.06 26.8824 46.12C27.1224 46.1733 27.3391 46.25 27.5324 46.35C27.7324 46.45 27.8924 46.59 28.0124 46.77C28.1391 46.95 28.2024 47.19 28.2024 47.49C28.2024 47.81 28.1091 48.0867 27.9224 48.32C27.7358 48.5533 27.4724 48.7367 27.1324 48.87C26.7924 48.9967 26.3858 49.06 25.9124 49.06ZM30.9222 49.06C30.4822 49.06 30.0622 49 29.6622 48.88C29.2689 48.76 28.9589 48.6133 28.7322 48.44L29.1322 47.68C29.3589 47.8333 29.6389 47.9633 29.9722 48.07C30.3055 48.1767 30.6455 48.23 30.9922 48.23C31.4389 48.23 31.7589 48.1667 31.9522 48.04C32.1522 47.9133 32.2522 47.7367 32.2522 47.51C32.2522 47.3433 32.1922 47.2133 32.0722 47.12C31.9522 47.0267 31.7922 46.9567 31.5922 46.91C31.3989 46.8633 31.1822 46.8233 30.9422 46.79C30.7022 46.75 30.4622 46.7033 30.2222 46.65C29.9822 46.59 29.7622 46.51 29.5622 46.41C29.3622 46.3033 29.2022 46.16 29.0822 45.98C28.9622 45.7933 28.9022 45.5467 28.9022 45.24C28.9022 44.92 28.9922 44.64 29.1722 44.4C29.3522 44.16 29.6055 43.9767 29.9322 43.85C30.2655 43.7167 30.6589 43.65 31.1122 43.65C31.4589 43.65 31.8089 43.6933 32.1622 43.78C32.5222 43.86 32.8155 43.9767 33.0422 44.13L32.6322 44.89C32.3922 44.73 32.1422 44.62 31.8822 44.56C31.6222 44.5 31.3622 44.47 31.1022 44.47C30.6822 44.47 30.3689 44.54 30.1622 44.68C29.9555 44.8133 29.8522 44.9867 29.8522 45.2C29.8522 45.38 29.9122 45.52 30.0322 45.62C30.1589 45.7133 30.3189 45.7867 30.5122 45.84C30.7122 45.8933 30.9322 45.94 31.1722 45.98C31.4122 46.0133 31.6522 46.06 31.8922 46.12C32.1322 46.1733 32.3489 46.25 32.5422 46.35C32.7422 46.45 32.9022 46.59 33.0222 46.77C33.1489 46.95 33.2122 47.19 33.2122 47.49C33.2122 47.81 33.1189 48.0867 32.9322 48.32C32.7455 48.5533 32.4822 48.7367 32.1422 48.87C31.8022 48.9967 31.3955 49.06 30.9222 49.06ZM37.2375 49V42H39.9675C40.5808 42 41.1042 42.0967 41.5375 42.29C41.9708 42.4833 42.3042 42.7633 42.5375 43.13C42.7708 43.4967 42.8875 43.9333 42.8875 44.44C42.8875 44.9467 42.7708 45.3833 42.5375 45.75C42.3042 46.11 41.9708 46.39 41.5375 46.59C41.1042 46.7833 40.5808 46.88 39.9675 46.88H37.7875L38.2375 46.41V49H37.2375ZM38.2375 46.51L37.7875 46.01H39.9375C40.5775 46.01 41.0608 45.8733 41.3875 45.6C41.7208 45.3267 41.8875 44.94 41.8875 44.44C41.8875 43.94 41.7208 43.5533 41.3875 43.28C41.0608 43.0067 40.5775 42.87 39.9375 42.87H37.7875L38.2375 42.37V46.51ZM44.119 49V43.7H45.039V45.14L44.949 44.78C45.0957 44.4133 45.3423 44.1333 45.689 43.94C46.0357 43.7467 46.4623 43.65 46.969 43.65V44.58C46.929 44.5733 46.889 44.57 46.849 44.57C46.8157 44.57 46.7823 44.57 46.749 44.57C46.2357 44.57 45.829 44.7233 45.529 45.03C45.229 45.3367 45.079 45.78 45.079 46.36V49H44.119ZM50.3734 49.06C49.84 49.06 49.3667 48.9433 48.9534 48.71C48.54 48.4767 48.2134 48.1567 47.9734 47.75C47.7334 47.3367 47.6134 46.87 47.6134 46.35C47.6134 45.8233 47.7334 45.3567 47.9734 44.95C48.2134 44.5433 48.54 44.2267 48.9534 44C49.3667 43.7667 49.84 43.65 50.3734 43.65C50.9 43.65 51.37 43.7667 51.7834 44C52.2034 44.2267 52.53 44.5433 52.7634 44.95C53.0034 45.35 53.1234 45.8167 53.1234 46.35C53.1234 46.8767 53.0034 47.3433 52.7634 47.75C52.53 48.1567 52.2034 48.4767 51.7834 48.71C51.37 48.9433 50.9 49.06 50.3734 49.06ZM50.3734 48.22C50.7134 48.22 51.0167 48.1433 51.2834 47.99C51.5567 47.8367 51.77 47.62 51.9234 47.34C52.0767 47.0533 52.1534 46.7233 52.1534 46.35C52.1534 45.97 52.0767 45.6433 51.9234 45.37C51.77 45.09 51.5567 44.8733 51.2834 44.72C51.0167 44.5667 50.7134 44.49 50.3734 44.49C50.0334 44.49 49.73 44.5667 49.4634 44.72C49.1967 44.8733 48.9834 45.09 48.8234 45.37C48.6634 45.6433 48.5834 45.97 48.5834 46.35C48.5834 46.7233 48.6634 47.0533 48.8234 47.34C48.9834 47.62 49.1967 47.8367 49.4634 47.99C49.73 48.1433 50.0334 48.22 50.3734 48.22ZM54.591 49V43.23C54.591 42.71 54.741 42.2967 55.041 41.99C55.3477 41.6767 55.781 41.52 56.341 41.52C56.5477 41.52 56.7443 41.5467 56.931 41.6C57.1243 41.6467 57.2877 41.7233 57.421 41.83L57.131 42.56C57.031 42.48 56.9177 42.42 56.791 42.38C56.6643 42.3333 56.531 42.31 56.391 42.31C56.111 42.31 55.8977 42.39 55.751 42.55C55.6043 42.7033 55.531 42.9333 55.531 43.24V43.95L55.551 44.39V49H54.591ZM53.691 44.49V43.7H57.071V44.49H53.691ZM57.981 49V43.7H58.941V49H57.981ZM58.461 42.68C58.2743 42.68 58.1177 42.62 57.991 42.5C57.871 42.38 57.811 42.2333 57.811 42.06C57.811 41.88 57.871 41.73 57.991 41.61C58.1177 41.49 58.2743 41.43 58.461 41.43C58.6477 41.43 58.801 41.49 58.921 41.61C59.0477 41.7233 59.111 41.8667 59.111 42.04C59.111 42.22 59.051 42.3733 58.931 42.5C58.811 42.62 58.6543 42.68 58.461 42.68ZM62.5894 49.06C62.056 49.06 61.6427 48.9167 61.3494 48.63C61.056 48.3433 60.9094 47.9333 60.9094 47.4V42.54H61.8694V47.36C61.8694 47.6467 61.9394 47.8667 62.0794 48.02C62.226 48.1733 62.4327 48.25 62.6994 48.25C62.9994 48.25 63.2494 48.1667 63.4494 48L63.7494 48.69C63.6027 48.8167 63.426 48.91 63.2194 48.97C63.0194 49.03 62.8094 49.06 62.5894 49.06ZM60.0094 44.49V43.7H63.3894V44.49H60.0094Z" fill="#3A494E"/>
<path d="M71.9996 64.048C71.5676 64.048 71.1836 63.936 70.8476 63.712C70.5116 63.4827 70.2476 63.1573 70.0556 62.736C69.8636 62.3093 69.7676 61.7973 69.7676 61.2C69.7676 60.6027 69.8636 60.0933 70.0556 59.672C70.2476 59.2453 70.5116 58.92 70.8476 58.696C71.1836 58.4667 71.5676 58.352 71.9996 58.352C72.4316 58.352 72.8156 58.4667 73.1516 58.696C73.4876 58.92 73.7516 59.2453 73.9436 59.672C74.1409 60.0933 74.2396 60.6027 74.2396 61.2C74.2396 61.7973 74.1409 62.3093 73.9436 62.736C73.7516 63.1573 73.4876 63.4827 73.1516 63.712C72.8156 63.936 72.4316 64.048 71.9996 64.048ZM71.9996 63.52C72.3302 63.52 72.6182 63.432 72.8636 63.256C73.1089 63.0747 73.3009 62.8133 73.4396 62.472C73.5782 62.1253 73.6476 61.7013 73.6476 61.2C73.6476 60.6987 73.5782 60.2773 73.4396 59.936C73.3009 59.5893 73.1089 59.328 72.8636 59.152C72.6182 58.9707 72.3302 58.88 71.9996 58.88C71.6796 58.88 71.3942 58.9707 71.1436 59.152C70.8929 59.328 70.6982 59.5893 70.5596 59.936C70.4209 60.2773 70.3516 60.6987 70.3516 61.2C70.3516 61.7013 70.4209 62.1253 70.5596 62.472C70.6982 62.8133 70.8929 63.0747 71.1436 63.256C71.3942 63.432 71.6796 63.52 71.9996 63.52Z" fill="#3A494E"/>
<path d="M153.65 64V58.64L153.906 58.912H152.33V58.4H154.226V64H153.65ZM157.796 64.048C157.364 64.048 156.98 63.936 156.644 63.712C156.308 63.4827 156.044 63.1573 155.852 62.736C155.66 62.3093 155.564 61.7973 155.564 61.2C155.564 60.6027 155.66 60.0933 155.852 59.672C156.044 59.2453 156.308 58.92 156.644 58.696C156.98 58.4667 157.364 58.352 157.796 58.352C158.228 58.352 158.612 58.4667 158.948 58.696C159.284 58.92 159.548 59.2453 159.74 59.672C159.938 60.0933 160.036 60.6027 160.036 61.2C160.036 61.7973 159.938 62.3093 159.74 62.736C159.548 63.1573 159.284 63.4827 158.948 63.712C158.612 63.936 158.228 64.048 157.796 64.048ZM157.796 63.52C158.127 63.52 158.415 63.432 158.66 63.256C158.906 63.0747 159.098 62.8133 159.236 62.472C159.375 62.1253 159.444 61.7013 159.444 61.2C159.444 60.6987 159.375 60.2773 159.236 59.936C159.098 59.5893 158.906 59.328 158.66 59.152C158.415 58.9707 158.127 58.88 157.796 58.88C157.476 58.88 157.191 58.9707 156.94 59.152C156.69 59.328 156.495 59.5893 156.356 59.936C156.218 60.2773 156.148 60.6987 156.148 61.2C156.148 61.7013 156.218 62.1253 156.356 62.472C156.495 62.8133 156.69 63.0747 156.94 63.256C157.191 63.432 157.476 63.52 157.796 63.52ZM163.093 64.048C162.661 64.048 162.277 63.936 161.941 63.712C161.605 63.4827 161.341 63.1573 161.149 62.736C160.957 62.3093 160.861 61.7973 160.861 61.2C160.861 60.6027 160.957 60.0933 161.149 59.672C161.341 59.2453 161.605 58.92 161.941 58.696C162.277 58.4667 162.661 58.352 163.093 58.352C163.525 58.352 163.909 58.4667 164.245 58.696C164.581 58.92 164.845 59.2453 165.037 59.672C165.235 60.0933 165.333 60.6027 165.333 61.2C165.333 61.7973 165.235 62.3093 165.037 62.736C164.845 63.1573 164.581 63.4827 164.245 63.712C163.909 63.936 163.525 64.048 163.093 64.048ZM163.093 63.52C163.424 63.52 163.712 63.432 163.957 63.256C164.203 63.0747 164.395 62.8133 164.533 62.472C164.672 62.1253 164.741 61.7013 164.741 61.2C164.741 60.6987 164.672 60.2773 164.533 59.936C164.395 59.5893 164.203 59.328 163.957 59.152C163.712 58.9707 163.424 58.88 163.093 58.88C162.773 58.88 162.488 58.9707 162.237 59.152C161.987 59.328 161.792 59.5893 161.653 59.936C161.515 60.2773 161.445 60.6987 161.445 61.2C161.445 61.7013 161.515 62.1253 161.653 62.472C161.792 62.8133 161.987 63.0747 162.237 63.256C162.488 63.432 162.773 63.52 163.093 63.52Z" fill="#3A494E"/>
<path d="M239.75 64V63.592L242.078 61.312C242.291 61.104 242.451 60.9227 242.558 60.768C242.664 60.608 242.736 60.4587 242.774 60.32C242.811 60.1813 242.83 60.0507 242.83 59.928C242.83 59.6027 242.718 59.3467 242.494 59.16C242.275 58.9733 241.95 58.88 241.518 58.88C241.187 58.88 240.894 58.9307 240.638 59.032C240.387 59.1333 240.171 59.2907 239.99 59.504L239.582 59.152C239.8 58.896 240.08 58.6987 240.422 58.56C240.763 58.4213 241.144 58.352 241.566 58.352C241.944 58.352 242.272 58.4133 242.55 58.536C242.827 58.6533 243.04 58.8267 243.19 59.056C243.344 59.2853 243.422 59.5547 243.422 59.864C243.422 60.0453 243.395 60.224 243.342 60.4C243.294 60.576 243.203 60.7627 243.07 60.96C242.942 61.152 242.752 61.3707 242.502 61.616L240.366 63.712L240.206 63.488H243.678V64H239.75ZM246.617 64.048C246.185 64.048 245.801 63.936 245.465 63.712C245.129 63.4827 244.865 63.1573 244.673 62.736C244.481 62.3093 244.385 61.7973 244.385 61.2C244.385 60.6027 244.481 60.0933 244.673 59.672C244.865 59.2453 245.129 58.92 245.465 58.696C245.801 58.4667 246.185 58.352 246.617 58.352C247.049 58.352 247.433 58.4667 247.769 58.696C248.105 58.92 248.369 59.2453 248.561 59.672C248.758 60.0933 248.857 60.6027 248.857 61.2C248.857 61.7973 248.758 62.3093 248.561 62.736C248.369 63.1573 248.105 63.4827 247.769 63.712C247.433 63.936 247.049 64.048 246.617 64.048ZM246.617 63.52C246.947 63.52 247.235 63.432 247.481 63.256C247.726 63.0747 247.918 62.8133 248.057 62.472C248.195 62.1253 248.265 61.7013 248.265 61.2C248.265 60.6987 248.195 60.2773 248.057 59.936C247.918 59.5893 247.726 59.328 247.481 59.152C247.235 58.9707 246.947 58.88 246.617 58.88C246.297 58.88 246.011 58.9707 245.761 59.152C245.51 59.328 245.315 59.5893 245.177 59.936C245.038 60.2773 244.969 60.6987 244.969 61.2C244.969 61.7013 245.038 62.1253 245.177 62.472C245.315 62.8133 245.51 63.0747 245.761 63.256C246.011 63.432 246.297 63.52 246.617 63.52ZM251.914 64.048C251.482 64.048 251.098 63.936 250.762 63.712C250.426 63.4827 250.162 63.1573 249.97 62.736C249.778 62.3093 249.682 61.7973 249.682 61.2C249.682 60.6027 249.778 60.0933 249.97 59.672C250.162 59.2453 250.426 58.92 250.762 58.696C251.098 58.4667 251.482 58.352 251.914 58.352C252.346 58.352 252.73 58.4667 253.066 58.696C253.402 58.92 253.666 59.2453 253.858 59.672C254.055 60.0933 254.154 60.6027 254.154 61.2C254.154 61.7973 254.055 62.3093 253.858 62.736C253.666 63.1573 253.402 63.4827 253.066 63.712C252.73 63.936 252.346 64.048 251.914 64.048ZM251.914 63.52C252.244 63.52 252.532 63.432 252.778 63.256C253.023 63.0747 253.215 62.8133 253.354 62.472C253.492 62.1253 253.562 61.7013 253.562 61.2C253.562 60.6987 253.492 60.2773 253.354 59.936C253.215 59.5893 253.023 59.328 252.778 59.152C252.532 58.9707 252.244 58.88 251.914 58.88C251.594 58.88 251.308 58.9707 251.058 59.152C250.807 59.328 250.612 59.5893 250.474 59.936C250.335 60.2773 250.266 60.6987 250.266 61.2C250.266 61.7013 250.335 62.1253 250.474 62.472C250.612 62.8133 250.807 63.0747 251.058 63.256C251.308 63.432 251.594 63.52 251.914 63.52Z" fill="#3A494E"/>
<path d="M328.533 64.048C328.128 64.048 327.744 63.984 327.381 63.856C327.024 63.7227 326.736 63.5467 326.517 63.328L326.797 62.872C326.979 63.0587 327.221 63.2133 327.525 63.336C327.835 63.4587 328.171 63.52 328.533 63.52C328.997 63.52 329.352 63.4187 329.597 63.216C329.848 63.0133 329.973 62.7413 329.973 62.4C329.973 62.0587 329.851 61.7867 329.605 61.584C329.365 61.3813 328.984 61.28 328.461 61.28H328.061V60.856L329.789 58.688L329.869 58.912H326.749V58.4H330.349V58.808L328.621 60.976L328.341 60.792H328.557C329.229 60.792 329.731 60.9413 330.061 61.24C330.397 61.5387 330.565 61.9227 330.565 62.392C330.565 62.7067 330.491 62.9893 330.341 63.24C330.192 63.4907 329.965 63.688 329.661 63.832C329.363 63.976 328.987 64.048 328.533 64.048ZM333.609 64.048C333.177 64.048 332.793 63.936 332.457 63.712C332.121 63.4827 331.857 63.1573 331.665 62.736C331.473 62.3093 331.377 61.7973 331.377 61.2C331.377 60.6027 331.473 60.0933 331.665 59.672C331.857 59.2453 332.121 58.92 332.457 58.696C332.793 58.4667 333.177 58.352 333.609 58.352C334.041 58.352 334.425 58.4667 334.761 58.696C335.097 58.92 335.361 59.2453 335.553 59.672C335.75 60.0933 335.849 60.6027 335.849 61.2C335.849 61.7973 335.75 62.3093 335.553 62.736C335.361 63.1573 335.097 63.4827 334.761 63.712C334.425 63.936 334.041 64.048 333.609 64.048ZM333.609 63.52C333.94 63.52 334.228 63.432 334.473 63.256C334.718 63.0747 334.91 62.8133 335.049 62.472C335.188 62.1253 335.257 61.7013 335.257 61.2C335.257 60.6987 335.188 60.2773 335.049 59.936C334.91 59.5893 334.718 59.328 334.473 59.152C334.228 58.9707 333.94 58.88 333.609 58.88C333.289 58.88 333.004 58.9707 332.753 59.152C332.502 59.328 332.308 59.5893 332.169 59.936C332.03 60.2773 331.961 60.6987 331.961 61.2C331.961 61.7013 332.03 62.1253 332.169 62.472C332.308 62.8133 332.502 63.0747 332.753 63.256C333.004 63.432 333.289 63.52 333.609 63.52ZM338.906 64.048C338.474 64.048 338.09 63.936 337.754 63.712C337.418 63.4827 337.154 63.1573 336.962 62.736C336.77 62.3093 336.674 61.7973 336.674 61.2C336.674 60.6027 336.77 60.0933 336.962 59.672C337.154 59.2453 337.418 58.92 337.754 58.696C338.09 58.4667 338.474 58.352 338.906 58.352C339.338 58.352 339.722 58.4667 340.058 58.696C340.394 58.92 340.658 59.2453 340.85 59.672C341.047 60.0933 341.146 60.6027 341.146 61.2C341.146 61.7973 341.047 62.3093 340.85 62.736C340.658 63.1573 340.394 63.4827 340.058 63.712C339.722 63.936 339.338 64.048 338.906 64.048ZM338.906 63.52C339.236 63.52 339.524 63.432 339.77 63.256C340.015 63.0747 340.207 62.8133 340.346 62.472C340.484 62.1253 340.554 61.7013 340.554 61.2C340.554 60.6987 340.484 60.2773 340.346 59.936C340.207 59.5893 340.015 59.328 339.77 59.152C339.524 58.9707 339.236 58.88 338.906 58.88C338.586 58.88 338.3 58.9707 338.05 59.152C337.799 59.328 337.604 59.5893 337.466 59.936C337.327 60.2773 337.258 60.6987 337.258 61.2C337.258 61.7013 337.327 62.1253 337.466 62.472C337.604 62.8133 337.799 63.0747 338.05 63.256C338.3 63.432 338.586 63.52 338.906 63.52Z" fill="#3A494E"/>
<line x1="71.25" y1="1" x2="71.25" y2="55" stroke="#C5C5C5" stroke-width="0.5"/>
<line x1="116.25" y1="1" x2="116.25" y2="55" stroke="#C5C5C5" stroke-width="0.5"/>
<line x1="202.25" y1="1" x2="202.25" y2="55" stroke="#C5C5C5" stroke-width="0.5"/>
<line x1="290.25" y1="1" x2="290.25" y2="55" stroke="#C5C5C5" stroke-width="0.5"/>
<line x1="159.25" y1="1" x2="159.25" y2="55" stroke="#C5C5C5" stroke-width="0.5"/>
<line x1="245.25" y1="1" x2="245.25" y2="55" stroke="#C5C5C5" stroke-width="0.5"/>
<line x1="333.25" y1="1" x2="333.25" y2="55" stroke="#C5C5C5" stroke-width="0.5"/>
<rect x="71" y="41" width="224" height="10" fill="#0CBC88"/>
<rect x="71" y="23" width="6" height="10" fill="#357EE8"/>
</svg>
