<svg width="22" height="22" viewBox="0 0 22 22" fill="none" xmlns="http://www.w3.org/2000/svg">
<path d="M21.4947 21.5001L21.5 21.4988V13.7971C21.5 10.0289 20.6888 7.12695 16.2841 7.12695C14.167 7.12695 12.7456 8.28852 12.1655 9.39102H12.1051V7.4787H7.92871V21.4988H12.2783V14.557C12.2783 12.7287 12.6248 10.9621 14.8889 10.9621C17.1188 10.9621 17.153 13.0476 17.153 14.6751V21.5001H21.4947Z" fill="white"/>
<path d="M0.84668 7.47949H5.20024V21.4996H0.84668V7.47949Z" fill="white"/>
<path d="M3.02131 0.5C1.63006 0.5 0.5 1.63006 0.5 3.02131C0.5 4.41387 1.63006 5.56625 3.02131 5.56625C4.41256 5.56625 5.54262 4.41387 5.54262 3.02131C5.54262 1.63006 4.41256 0.5 3.02131 0.5Z" fill="white"/>
</svg>
