<svg width="161" height="30" viewBox="0 0 161 30" fill="none" xmlns="http://www.w3.org/2000/svg">
<path fill-rule="evenodd" clip-rule="evenodd" d="M0 0.228025C0.215406 0.196715 0.431104 0.138935 0.64651 0.13854C3.88111 0.132515 7.1162 0.0989339 10.3499 0.154837C11.4095 0.172912 12.4949 0.317411 13.5163 0.597816C15.6792 1.19122 16.9386 2.8932 17.2108 5.13664C17.5411 7.86207 16.5079 9.94293 14.4151 11.5521C13.6405 12.1476 12.7926 12.6456 11.9429 13.2115C14.2799 16.4375 16.6297 19.6809 19.0583 23.0331H17.7277C16.545 23.0331 15.3613 23.0513 14.1793 23.0177C13.9489 23.011 13.6386 22.8651 13.5099 22.6803C11.3476 19.5865 9.20739 16.4766 7.06692 13.3673C6.97579 13.2346 6.87743 13.0727 6.87186 12.9208C6.84898 12.3278 6.86237 11.7331 6.86237 11.2702C8.1416 10.812 9.37038 10.4617 10.5196 9.93503C11.7283 9.38103 12.5682 8.43325 12.8122 7.03893C13.1362 5.18998 12.2222 3.96751 10.3741 3.92534C8.38204 3.8801 6.38834 3.91507 4.34507 3.91507V22.9763H0V0.228025Z" fill="#0FC500"/>
<path fill-rule="evenodd" clip-rule="evenodd" d="M76.8774 0C77.8699 0.1845 78.8692 0.340555 79.8539 0.562983C80.4428 0.695827 81.1915 0.773064 81.5304 1.16972C81.8197 1.5079 81.6362 2.26615 81.6448 2.83931C81.6552 3.52397 81.6474 4.20953 81.6474 4.87938C80.5449 4.5726 79.4963 4.21921 78.4205 3.99451C76.5612 3.60576 74.6815 3.56842 72.8041 3.90809C69.6114 4.48608 67.8108 6.32387 67.3039 9.55441C67.0588 11.1193 67.1276 12.6828 67.5037 14.2192C68.2096 17.104 70.0789 18.7554 72.9359 19.2664C75.7094 19.7625 78.4145 19.4233 81.0473 18.4351C81.2166 18.3713 81.3871 18.3113 81.6076 18.2314V22.0667C79.8805 22.7495 78.0672 23.0564 76.2162 23.1537C73.9715 23.2724 71.7517 23.1228 69.5946 22.419C66.3514 21.3601 64.2647 19.1564 63.3711 15.8529C62.6082 13.0337 62.5495 10.1696 63.2603 7.33063C64.2259 3.47301 66.8115 1.31037 70.5638 0.450287C71.3664 0.266281 72.1837 0.148548 72.9944 0H76.8774Z" fill="#0FC500"/>
<path fill-rule="evenodd" clip-rule="evenodd" d="M160.75 22.5229C158.03 23.155 155.301 23.3018 152.602 22.4722C150.211 21.7374 148.684 20.0859 148.032 17.6502C147.522 15.7496 147.476 13.8175 147.863 11.8889C148.379 9.30634 149.893 7.5767 152.386 6.80136C155.156 5.9398 157.956 6.06583 160.75 6.72186V10.0837C159.178 9.70784 157.585 9.53203 155.969 9.63801C153.658 9.78991 152.22 11.0482 151.917 13.2473C151.821 13.9431 151.833 14.6675 151.897 15.3691C152.136 18.0192 153.725 19.5872 156.356 19.5947C157.821 19.5987 159.286 19.3148 160.75 19.1606V22.5229Z" fill="#0FC500"/>
<path fill-rule="evenodd" clip-rule="evenodd" d="M38.2978 6.93493V0.166992H42.4775C42.4875 0.366308 42.5056 0.563253 42.5056 0.760395C42.5066 7.64952 42.5052 14.5385 42.5103 21.4278C42.5107 21.7812 42.5211 22.042 42.0603 22.1491C39.3655 22.7736 36.6517 23.1442 33.8789 22.9738C30.6144 22.7734 28.3587 21.0498 27.478 17.9723C27.2294 17.1028 27.0698 16.179 27.0561 15.277C27.0369 14.0355 27.0661 12.766 27.3032 11.5543C27.8758 8.62803 29.7955 6.86787 32.7089 6.3921C34.5276 6.0947 36.3149 6.12937 38.0371 6.88871C38.1003 6.91656 38.1759 6.91448 38.2978 6.93493ZM38.2909 14.7761C38.2909 13.5257 38.2787 12.2756 38.2989 11.0259C38.3041 10.6941 38.1834 10.521 37.9008 10.3837C36.7335 9.81681 35.508 9.633 34.2354 9.82728C32.5427 10.0863 31.5719 11.0719 31.2859 12.7731C31.0791 14.003 31.1272 15.2281 31.4131 16.4375C31.8346 18.2196 33.0278 19.329 34.7234 19.3688C35.7278 19.3922 36.7374 19.2071 37.7445 19.113C38.1656 19.0739 38.3141 18.8594 38.3023 18.414C38.2693 17.2023 38.2909 15.9889 38.2909 14.7761Z" fill="#0FC500"/>
<path fill-rule="evenodd" clip-rule="evenodd" d="M49.3761 16.1163C49.4145 17.5264 49.9616 18.5922 51.2273 19.0323C52.1874 19.3659 53.2351 19.5881 54.2457 19.5944C55.9917 19.6053 57.7393 19.4101 59.5506 19.2977C59.5506 20.2423 59.5579 21.2805 59.5385 22.3182C59.537 22.4159 59.3792 22.5813 59.2757 22.5976C56.2492 23.0683 53.2114 23.3769 50.2162 22.4682C47.1785 21.5468 45.6712 19.3138 45.2708 16.2334C45.0451 14.4967 45.1089 12.7683 45.5788 11.0716C46.2506 8.64642 47.8091 7.12093 50.2236 6.52753C52.0471 6.07952 53.8933 6.07685 55.7139 6.53464C58.3732 7.20341 59.8908 9.00949 60.3093 11.6802C60.5145 12.9916 60.4095 14.352 60.4493 15.69C60.4627 16.1432 60.1678 16.1192 59.8554 16.1189C56.5834 16.1143 53.3108 16.1162 50.0389 16.1162H49.3761V16.1163ZM49.4002 13.0781H56.4266C56.3658 10.781 55.3504 9.66621 53.2856 9.58127C50.8963 9.48279 49.6402 10.597 49.4002 13.0781Z" fill="#0FC500"/>
<path fill-rule="evenodd" clip-rule="evenodd" d="M99.1329 16.1122H88.1656C88.1351 17.3505 88.6072 18.2491 89.6016 18.8599C90.445 19.3777 91.3949 19.6069 92.3554 19.5904C94.3227 19.5572 96.2882 19.4271 98.3071 19.3344C98.3071 20.2257 98.3182 21.2485 98.2922 22.2708C98.2893 22.3895 98.0947 22.5858 97.9662 22.607C95.2741 23.0519 92.5667 23.2779 89.872 22.7122C86.3125 21.9656 84.2612 19.5269 83.982 15.8364C83.8614 14.2472 83.8926 12.6654 84.3218 11.1181C84.9791 8.75208 86.4582 7.19894 88.8291 6.57393C90.7224 6.07426 92.6374 6.05816 94.5275 6.55329C97.2085 7.25563 98.8004 9.20276 99.1698 12.1139C99.3363 13.4306 99.3567 14.745 99.1329 16.1122ZM88.1999 13.0934H95.1378C95.3628 11.0431 94.138 9.69088 92.0435 9.57601C89.9191 9.45916 88.2838 10.4801 88.1999 13.0934Z" fill="#0FC500"/>
<path fill-rule="evenodd" clip-rule="evenodd" d="M106.166 22.9962H101.972V6.22234C102.981 6.22234 103.975 6.21118 104.968 6.23794C105.08 6.24091 105.25 6.44249 105.285 6.58018C105.452 7.22869 105.581 7.88699 105.737 8.60573C106.092 8.30725 106.401 8.02773 106.729 7.77469C108.904 6.09878 111.327 5.79062 113.859 6.659C116.075 7.41833 116.94 9.2739 117.015 11.4652C117.115 14.4307 117.051 17.4015 117.056 20.3699C117.058 21.227 117.056 22.0839 117.056 22.9851H112.841V22.3626C112.841 19.1881 112.76 16.0117 112.865 12.841C112.959 9.99936 111.232 9.37948 109.159 9.76626C108.12 9.96015 107.206 10.4536 106.41 11.1432C106.252 11.2797 106.177 11.5916 106.176 11.8227C106.162 15.333 106.166 18.8433 106.166 22.3532V22.9962H106.166Z" fill="#0FC500"/>
<path fill-rule="evenodd" clip-rule="evenodd" d="M128.195 6.2169V9.60023H124.542C124.522 9.7876 124.494 9.92864 124.494 10.0697C124.491 12.4959 124.488 14.9222 124.496 17.3485C124.496 17.6259 124.535 17.9075 124.591 18.1799C124.775 19.0673 125.358 19.5685 126.255 19.6185C126.568 19.6363 126.883 19.6266 127.197 19.6273C127.509 19.6285 127.822 19.6277 128.18 19.6277V22.9627C128.112 22.98 128.026 23.0218 127.941 23.021C126.574 23.0131 125.205 23.0467 123.841 22.9762C121.907 22.8762 120.703 21.7448 120.384 19.8211C120.323 19.4547 120.281 19.0796 120.28 18.708C120.274 13.7808 120.276 8.85354 120.277 3.92636C120.277 3.81524 120.289 3.70393 120.301 3.49503C121.272 3.49503 122.241 3.48525 123.21 3.51044C123.303 3.51321 123.439 3.71864 123.474 3.85179C123.64 4.48134 123.798 5.11484 123.919 5.75457C123.988 6.12011 124.155 6.23281 124.516 6.22441C125.532 6.2015 126.549 6.21651 127.565 6.21651C127.764 6.2169 127.963 6.2169 128.195 6.2169Z" fill="#0FC500"/>
<path fill-rule="evenodd" clip-rule="evenodd" d="M134.789 22.9934H130.597V6.22148C131.615 6.22148 132.624 6.2121 133.633 6.23669C133.731 6.23897 133.873 6.43453 133.911 6.56579C134.072 7.11821 134.201 7.6801 134.337 8.21731C135.052 7.74213 135.73 7.2392 136.457 6.82368C137.203 6.3969 138.033 6.21892 138.943 6.2279V9.61913C138.662 9.65943 138.361 9.65943 138.089 9.75069C137.447 9.96719 136.79 10.17 136.192 10.4822C135.225 10.9863 134.698 11.6756 134.749 12.9499C134.873 16.0795 134.789 19.2172 134.789 22.352V22.9934Z" fill="#0FC500"/>
<path d="M24.2985 6.26758H20.1729V23.0057H24.2985V6.26758Z" fill="#0FC500"/>
<path d="M145.005 6.26758H140.879V23.0057H145.005V6.26758Z" fill="#0FC500"/>
<path d="M24.3048 0.150391H20.1709V3.48443H24.3048V0.150391Z" fill="#0FC500"/>
<path d="M145.021 0.158203H140.877V3.49195H145.021V0.158203Z" fill="#0FC500"/>
<path d="M155.607 29.1292H155.234V26.2138H154.214V25.8779H156.627V26.2138H155.607V29.1292Z" fill="#0FC500"/>
<path d="M158.537 29.1283L157.445 26.2464H157.427C157.448 26.4748 157.458 26.7461 157.458 27.0602V29.1282H157.112V25.877H157.676L158.695 28.5588H158.712L159.741 25.877H160.3V29.1282H159.926V27.0333C159.926 26.7934 159.936 26.5323 159.957 26.2507H159.939L158.838 29.1282H158.537V29.1283Z" fill="#0FC500"/>
</svg>
