<svg width="169" height="165" viewBox="0 0 169 165" fill="none" xmlns="http://www.w3.org/2000/svg">
<g clip-path="url(#clip0_4065_1834)">
<path d="M107.289 37.108H61.7504C60.7127 37.1092 59.7178 37.5221 58.984 38.2561C58.2502 38.99 57.8374 39.9851 57.8362 41.023V142.253L57.3143 142.413L46.143 145.834C45.6136 145.996 45.0418 145.941 44.553 145.681C44.0643 145.421 43.6986 144.978 43.5362 144.449L10.3069 35.8839C10.1452 35.3543 10.2003 34.7822 10.4601 34.2933C10.72 33.8043 11.1633 33.4386 11.6926 33.2764L28.9074 28.0041L78.8139 12.725L96.0286 7.45267C96.2906 7.37202 96.5659 7.34384 96.8388 7.36974C97.1117 7.39563 97.3768 7.4751 97.6189 7.60359C97.8611 7.73207 98.0755 7.90706 98.25 8.11853C98.4244 8.33 98.5554 8.5738 98.6356 8.83599L107.129 36.586L107.289 37.108Z" fill="#F2F2F2"/>
<path d="M117.226 36.5867L106.988 3.14162C106.818 2.58437 106.54 2.06614 106.169 1.61655C105.798 1.16697 105.343 0.794835 104.828 0.521422C104.314 0.24801 103.751 0.0786713 103.171 0.0230908C102.591 -0.0324898 102.006 0.0267766 101.449 0.197497L77.2455 7.6074L27.3417 22.8892L3.13872 30.3017C2.01438 30.647 1.07295 31.4245 0.521081 32.4633C-0.0307898 33.5022 -0.148015 34.7176 0.195141 35.8428L35.1832 150.144C35.462 151.053 36.0244 151.848 36.7881 152.413C37.5517 152.978 38.4764 153.283 39.4263 153.284C39.8659 153.284 40.3031 153.218 40.7231 153.089L57.3143 148.009L57.8362 147.848V147.302L57.3143 147.461L40.5692 152.59C39.5768 152.893 38.5049 152.789 37.5886 152.302C36.6723 151.815 35.9865 150.985 35.6816 149.993L0.69627 35.6889C0.545204 35.1974 0.492554 34.6809 0.541332 34.169C0.59011 33.6571 0.739354 33.1599 0.980528 32.7058C1.2217 32.2517 1.55007 31.8497 1.94682 31.5227C2.34356 31.1957 2.8009 30.9502 3.29264 30.8002L27.4956 23.3877L77.3996 8.10854L101.603 0.69602C101.976 0.58217 102.363 0.52412 102.753 0.523756C103.59 0.525636 104.404 0.795503 105.077 1.29383C105.749 1.79216 106.245 2.49276 106.49 3.29301L116.68 36.5867L116.842 37.1087H117.385L117.226 36.5867Z" fill="#3F3D56"/>
<path d="M32.0129 33.3617C31.51 33.3613 31.0204 33.1998 30.616 32.9007C30.2116 32.6017 29.9136 32.1808 29.7658 31.7L26.4047 20.7191C26.3144 20.4241 26.283 20.1142 26.3125 19.8071C26.3419 19.5001 26.4315 19.2018 26.5762 18.9294C26.7209 18.6569 26.9179 18.4157 27.1558 18.2194C27.3937 18.0231 27.668 17.8756 27.9629 17.7853L73.874 3.72665C74.4696 3.54487 75.1129 3.60686 75.6628 3.89903C76.2128 4.1912 76.6244 4.68966 76.8072 5.28503L80.1684 16.2661C80.35 16.8618 80.2879 17.5052 79.9958 18.0552C79.7038 18.6053 79.2055 19.0169 78.6103 19.1999L32.6991 33.2586C32.4768 33.3269 32.2455 33.3616 32.0129 33.3617Z" fill="#429FDD"/>
<path d="M49.6203 11.7334C52.5027 11.7334 54.8393 9.39627 54.8393 6.5133C54.8393 3.63032 52.5027 1.29321 49.6203 1.29321C46.738 1.29321 44.4014 3.63032 44.4014 6.5133C44.4014 9.39627 46.738 11.7334 49.6203 11.7334Z" fill="#429FDD"/>
<path d="M49.6202 9.8188C51.4454 9.8188 52.9251 8.33887 52.9251 6.51328C52.9251 4.6877 51.4454 3.20776 49.6202 3.20776C47.795 3.20776 46.3154 4.6877 46.3154 6.51328C46.3154 8.33887 47.795 9.8188 49.6202 9.8188Z" fill="white"/>
<path d="M157.258 151.95H69.0569C68.4689 151.949 67.9051 151.715 67.4893 151.299C67.0734 150.883 66.8395 150.319 66.8389 149.731V44.0246C66.8395 43.4364 67.0734 42.8725 67.4892 42.4565C67.9051 42.0406 68.4689 41.8067 69.0569 41.806H157.258C157.846 41.8067 158.41 42.0407 158.825 42.4566C159.241 42.8725 159.475 43.4364 159.476 44.0246V149.731C159.475 150.319 159.241 150.883 158.825 151.299C158.41 151.715 157.846 151.949 157.258 151.95Z" fill="#E6E6E6"/>
<path d="M116.679 36.5859H61.7496C60.5736 36.5876 59.4462 37.0556 58.6146 37.8874C57.7831 38.7191 57.3151 39.8467 57.3135 41.023V147.46L57.8354 147.301V41.023C57.8366 39.9851 58.2494 38.99 58.9832 38.256C59.717 37.5221 60.7119 37.1092 61.7496 37.1079H116.841L116.679 36.5859ZM164.563 36.5859H61.7496C60.5736 36.5876 59.4462 37.0556 58.6146 37.8874C57.7831 38.7191 57.3151 39.8467 57.3135 41.023V160.563C57.3151 161.739 57.7831 162.867 58.6146 163.699C59.4462 164.53 60.5736 164.998 61.7496 165H164.563C165.74 164.998 166.867 164.53 167.698 163.699C168.53 162.867 168.998 161.739 169 160.563V41.023C168.998 39.8467 168.53 38.7191 167.698 37.8874C166.867 37.0556 165.74 36.5876 164.563 36.5859ZM168.478 160.563C168.476 161.601 168.064 162.596 167.33 163.33C166.596 164.064 165.601 164.477 164.563 164.478H61.7496C60.7119 164.477 59.717 164.064 58.9832 163.33C58.2494 162.596 57.8366 161.601 57.8354 160.563V41.023C57.8366 39.9851 58.2494 38.99 58.9832 38.256C59.717 37.5221 60.7119 37.1092 61.7496 37.1079H164.563C165.601 37.1092 166.596 37.5221 167.33 38.256C168.064 38.99 168.476 39.9851 168.478 41.023V160.563Z" fill="#3F3D56"/>
<path d="M137.164 48.0701H89.1493C88.5267 48.0694 87.9297 47.8217 87.4894 47.3813C87.0491 46.9409 86.8015 46.3438 86.8008 45.721V34.2369C86.8015 33.6141 87.0492 33.017 87.4894 32.5766C87.9297 32.1362 88.5267 31.8885 89.1493 31.8878H137.164C137.787 31.8885 138.384 32.1362 138.824 32.5766C139.264 33.017 139.512 33.6141 139.512 34.2369V45.721C139.512 46.3438 139.264 46.9409 138.824 47.3813C138.384 47.8217 137.787 48.0694 137.164 48.0701Z" fill="#429FDD"/>
<path d="M113.156 32.6709C116.039 32.6709 118.375 30.3338 118.375 27.4508C118.375 24.5678 116.039 22.2307 113.156 22.2307C110.274 22.2307 107.938 24.5678 107.938 27.4508C107.938 30.3338 110.274 32.6709 113.156 32.6709Z" fill="#429FDD"/>
<path d="M113.156 30.6303C114.912 30.6303 116.335 29.2068 116.335 27.4508C116.335 25.6948 114.912 24.2713 113.156 24.2713C111.401 24.2713 109.978 25.6948 109.978 27.4508C109.978 29.2068 111.401 30.6303 113.156 30.6303Z" fill="white"/>
</g>
<defs>
<clipPath id="clip0_4065_1834">
<rect width="169" height="165" fill="white"/>
</clipPath>
</defs>
</svg>
