<svg width="22" height="18" viewBox="0 0 22 18" fill="none" xmlns="http://www.w3.org/2000/svg">
<path d="M19.3423 4.72387C20.1967 4.1175 20.9146 3.36019 21.5 2.48869V2.48738C20.7191 2.82994 19.8869 3.057 19.0194 3.16725C19.9119 2.63437 20.5931 1.797 20.9133 0.787688C20.0812 1.28381 19.1624 1.63425 18.1833 1.82981C17.3932 0.989812 16.2671 0.46875 15.0386 0.46875C12.6551 0.46875 10.7362 2.40338 10.7362 4.77506C10.7362 5.11631 10.7651 5.44444 10.8359 5.75681C7.25675 5.58225 4.08969 3.86681 1.96213 1.25362C1.59069 1.89806 1.37281 2.63569 1.37281 3.42975C1.37281 4.92075 2.14062 6.24244 3.28512 7.00763C2.59344 6.9945 1.91488 6.79369 1.34 6.47738V6.52463C1.34 8.61675 2.83231 10.3545 4.78925 10.7548C4.43881 10.8506 4.05687 10.8966 3.6605 10.8966C3.38488 10.8966 3.10662 10.8808 2.84544 10.8231C3.40325 12.528 4.98613 13.7814 6.86825 13.8221C5.4035 14.9679 3.54369 15.6583 1.53031 15.6583C1.17725 15.6583 0.838625 15.6426 0.5 15.5992C2.40706 16.8291 4.66719 17.5312 7.1045 17.5312C14.7013 17.5312 19.6533 11.1932 19.3423 4.72387Z" fill="white"/>
</svg>
