<svg width="398" height="280" viewBox="0 0 398 280" fill="none" xmlns="http://www.w3.org/2000/svg">
<rect width="398" height="280" rx="2" fill="#693AD2"/>
<path d="M110.009 108.291L91.2216 108.118L91.2216 120.583H122.358L90 162.059V172.607H110.009V184.756H122.015V172.607H142.425C142.596 172.121 142.656 170.811 141.57 169.61C139.769 167.609 138.337 165.518 137.022 162.888C136.422 161.716 135.966 160.313 135.794 160.198C131.775 160.014 108.653 160.062 108.666 159.916L141.053 118.185V108.291H122.015V95.9998H110.009V108.291Z" fill="white"/>
<path d="M196.708 102.489C196.422 102.603 196.336 108.921 196.336 132.846C196.336 165.176 196.307 164.633 197.737 167.405C199.023 169.892 202.167 172.122 205.683 173.036C207.627 173.551 213.344 173.608 215.545 173.151C218.375 172.551 218.918 171.693 217.803 169.492C217.089 168.12 216.145 165.118 215.917 163.461C215.602 161.488 215.202 161.174 212.801 161.231C211.657 161.26 210.571 161.174 210.371 161.059C209.199 160.316 209.199 160.116 209.199 131.16C209.199 112.551 209.113 103.204 208.913 102.832C208.627 102.317 208.256 102.289 202.825 102.317C199.652 102.317 196.879 102.403 196.708 102.489Z" fill="white"/>
<path d="M222.92 102.574C222.548 102.803 222.491 106.462 222.491 132.646C222.491 160.859 222.52 162.574 223.034 164.546C224.006 168.434 226.207 170.806 230.381 172.55C231.981 173.208 232.696 173.322 235.926 173.408C240.242 173.522 242.443 173.208 244.644 172.093C246.817 171.035 246.874 170.292 245.016 167.576C244.273 166.49 243.129 164.632 242.501 163.46L241.357 161.316L239.271 161.288C236.669 161.23 236.412 161.116 235.926 159.887C235.555 159.058 235.497 154.799 235.497 131.159C235.497 112.55 235.412 103.203 235.211 102.832C234.926 102.317 234.554 102.288 229.123 102.288C225.95 102.288 223.149 102.431 222.92 102.574Z" fill="white"/>
<path d="M298.955 108.72C296.64 109.778 295.439 111.607 295.411 114.151C295.382 116.324 296.268 117.982 298.069 119.154C300.299 120.669 303.872 120.24 305.73 118.239C308.103 115.695 307.617 111.293 304.701 109.32C303.186 108.291 300.528 108.034 298.955 108.72ZM303.529 109.778C306.759 111.407 307.245 115.58 304.501 118.01C303.329 119.039 302.5 119.268 300.699 119.096C295.725 118.61 294.753 111.636 299.384 109.549C300.642 108.977 302.1 109.063 303.529 109.778Z" fill="white"/>
<path d="M299.155 111.063C298.955 111.406 298.927 116.723 299.127 117.266C299.213 117.524 299.47 117.724 299.698 117.724C299.984 117.724 300.099 117.323 300.099 116.294C300.099 115.008 300.156 114.865 300.756 114.865C301.213 114.865 301.614 115.265 302.243 116.294C302.757 117.152 303.272 117.724 303.586 117.724C304.272 117.724 304.243 117.609 303.186 116.066C302.557 115.151 302.385 114.722 302.643 114.636C303.386 114.379 304.101 113.436 304.101 112.721C304.101 111.435 303.186 110.863 301.128 110.863C300.099 110.863 299.213 110.949 299.155 111.063ZM302.614 111.978C302.843 112.092 302.957 112.521 302.9 112.893C302.814 113.493 302.643 113.579 301.471 113.665L300.099 113.75V112.75C300.099 111.749 300.127 111.721 301.185 111.721C301.757 111.721 302.414 111.835 302.614 111.978Z" fill="white"/>
<path d="M160.747 120.439C160.605 120.496 159.49 120.754 158.318 121.011C150.971 122.697 144.483 128.329 141.739 135.475C140.224 139.42 139.68 142.478 139.652 147.023C139.623 153.398 140.91 158.086 143.854 162.545C147.17 167.547 152.029 170.949 158.318 172.664C160.462 173.236 161.405 173.321 166.322 173.321C171.181 173.321 172.181 173.236 174.211 172.692C179.242 171.292 183.53 168.976 186.988 165.689C189.189 163.631 189.161 163.059 186.931 161.344C186.017 160.63 184.359 159.086 183.272 157.885C181.9 156.428 181.071 155.742 180.643 155.742C180.242 155.742 179.328 156.313 178.442 157.171C175.383 159.944 171.524 161.258 166.464 161.23C161.834 161.201 158.461 160.001 156.317 157.542C155.231 156.313 153.859 153.512 153.573 151.94L153.401 150.882H171.21C181.014 150.882 189.218 150.768 189.418 150.625C190.361 150.025 190.59 145.88 189.904 141.363C188.275 130.558 181.815 123.298 171.667 120.868C169.866 120.439 168.38 120.296 165.178 120.325C162.891 120.325 160.919 120.382 160.747 120.439ZM168.38 131.473C170.466 131.902 173.039 133.331 174.24 134.703C175.354 135.961 176.498 138.219 176.784 139.677L176.984 140.592H165.321H153.687L153.887 139.677C154.745 135.818 158.06 132.588 162.177 131.559C164.006 131.101 166.464 131.073 168.38 131.473Z" fill="white"/>
<path d="M264.654 120.697C254.506 122.955 247.646 130.101 245.502 140.649C244.216 146.881 244.93 154.141 247.36 159.344C250.676 166.547 256.707 171.206 264.94 172.893C267.541 173.436 268.57 173.493 272.658 173.379C276.116 173.264 277.975 173.064 279.575 172.636C284.463 171.349 288.751 169.005 292.038 165.861C294.554 163.431 294.554 163.317 291.838 161.059C290.58 160.03 288.894 158.4 288.094 157.457C286.236 155.313 285.75 155.285 283.663 157.171C280.547 160.001 276.831 161.259 271.657 161.23C264.397 161.202 260.166 158.086 258.794 151.797L258.594 151.055H294.811C296.04 150.169 295.583 140.792 294.096 136.447C293.811 135.59 293.039 133.875 292.41 132.674C289.065 126.271 283.72 122.298 276.288 120.725C273.915 120.211 266.912 120.211 264.654 120.697ZM273.572 131.473C275.516 131.902 277.517 132.903 278.946 134.189C280.147 135.304 282.091 138.82 282.091 139.906V140.592H258.88L259.08 139.792C260.566 133.674 266.855 130.044 273.572 131.473Z" fill="white"/>
</svg>
