<svg width="117" height="65" viewBox="0 0 117 65" fill="none" xmlns="http://www.w3.org/2000/svg">
<rect width="117" height="65" rx="2" fill="#F5F6FA"/>
<path d="M31.3097 21.7324L25.1193 21.6754L25.1193 25.7823H35.3785L24.7168 39.4485V42.9239H31.3097V46.9268H35.2655V42.9239H41.9902C42.0467 42.7638 42.0666 42.332 41.7087 41.9364C41.1153 41.2771 40.6434 40.5881 40.2101 39.7216C40.0124 39.3355 39.8622 38.873 39.8056 38.8353C38.4814 38.7746 30.8629 38.7903 30.867 38.7421L41.5382 24.9921V21.7324H35.2655V17.6824H31.3097V21.7324Z" fill="#693AD2"/>
<path d="M59.8764 19.8205C59.7822 19.8581 59.7539 21.9396 59.7539 29.8229C59.7539 40.4751 59.7445 40.2962 60.2154 41.2098C60.6393 42.0292 61.6753 42.7638 62.8338 43.0652C63.4742 43.2348 65.3579 43.2536 66.0831 43.1029C67.0156 42.9051 67.1945 42.6226 66.8272 41.8973C66.5917 41.4452 66.2809 40.4563 66.2056 39.91C66.102 39.2602 65.9701 39.1566 65.179 39.1754C64.8022 39.1848 64.4443 39.1566 64.3784 39.1189C63.9922 38.874 63.9922 38.8081 63.9922 29.2672C63.9922 23.1358 63.964 20.0559 63.898 19.9335C63.8039 19.7639 63.6814 19.7545 61.8919 19.7639C60.8465 19.7639 59.9329 19.7922 59.8764 19.8205Z" fill="#693AD2"/>
<path d="M68.5124 19.8491C68.3899 19.9244 68.3711 21.13 68.3711 29.7573C68.3711 39.0533 68.3805 39.6184 68.55 40.2683C68.8703 41.5492 69.5955 42.331 70.9706 42.9055C71.498 43.1221 71.7335 43.1598 72.7978 43.188C74.22 43.2257 74.9452 43.1221 75.6704 42.7548C76.3862 42.4063 76.405 42.1614 75.7928 41.2667C75.548 40.9088 75.1712 40.2966 74.964 39.9104L74.5873 39.204L73.8997 39.1946C73.0427 39.1758 72.9579 39.1381 72.7978 38.7331C72.6753 38.46 72.6565 37.0566 72.6565 29.2676C72.6565 23.1361 72.6282 20.0563 72.5623 19.9339C72.4681 19.7643 72.3457 19.7549 70.5562 19.7549C69.5107 19.7549 68.5877 19.802 68.5124 19.8491Z" fill="#693AD2"/>
<path d="M93.5656 21.8741C92.8027 22.2226 92.4071 22.8254 92.3977 23.6636C92.3883 24.3794 92.6802 24.9257 93.2736 25.3118C94.0082 25.811 95.1855 25.6697 95.7977 25.0105C96.5795 24.1722 96.4194 22.7218 95.4587 22.0719C94.9595 21.7328 94.0836 21.6481 93.5656 21.8741ZM95.0725 22.2226C96.1368 22.7594 96.2969 24.1345 95.3928 24.9351C95.0066 25.2742 94.7335 25.3495 94.1401 25.293C92.5013 25.1329 92.1811 22.8348 93.7068 22.1472C94.1213 21.9589 94.6016 21.9871 95.0725 22.2226Z" fill="#693AD2"/>
<path d="M93.6316 22.6463C93.5656 22.7593 93.5562 24.5112 93.6221 24.6901C93.6504 24.7749 93.7352 24.8408 93.8105 24.8408C93.9047 24.8408 93.9424 24.709 93.9424 24.3699C93.9424 23.9461 93.9612 23.899 94.159 23.899C94.3097 23.899 94.4415 24.0308 94.6488 24.3699C94.8183 24.6525 94.9878 24.8408 95.0914 24.8408C95.3175 24.8408 95.308 24.8031 94.9596 24.2945C94.7524 23.9932 94.6958 23.8519 94.7806 23.8236C95.0255 23.7389 95.261 23.4281 95.261 23.1926C95.261 22.7688 94.9596 22.5804 94.2814 22.5804C93.9424 22.5804 93.6504 22.6086 93.6316 22.6463ZM94.7712 22.9477C94.8465 22.9854 94.8842 23.1267 94.8654 23.2491C94.8371 23.4469 94.7806 23.4751 94.3945 23.5034L93.9424 23.5317V23.202C93.9424 22.8724 93.9518 22.8629 94.3003 22.8629C94.4886 22.8629 94.7053 22.9006 94.7712 22.9477Z" fill="#693AD2"/>
<path d="M48.0272 25.735C47.9801 25.7539 47.6127 25.8386 47.2266 25.9234C44.806 26.4791 42.668 28.3345 41.7639 30.6891C41.2647 31.9889 41.0857 32.9967 41.0763 34.4942C41.0669 36.5945 41.4907 38.1391 42.4608 39.6084C43.5534 41.2566 45.1545 42.3774 47.2266 42.9426C47.933 43.1309 48.2438 43.1592 49.8638 43.1592C51.4649 43.1592 51.7945 43.1309 52.4632 42.952C54.1209 42.4905 55.5337 41.7276 56.6733 40.6444C57.3985 39.9663 57.3891 39.778 56.6545 39.2128C56.3531 38.9774 55.8068 38.4688 55.4489 38.0732C54.9968 37.5929 54.7237 37.3668 54.5824 37.3668C54.4505 37.3668 54.1492 37.5552 53.8572 37.8377C52.8494 38.7513 51.5779 39.1846 49.9108 39.1752C48.3851 39.1658 47.2737 38.7702 46.5673 37.9602C46.2094 37.5552 45.7573 36.6322 45.6631 36.1142L45.6066 35.7657H51.4743C54.7048 35.7657 57.4079 35.728 57.4739 35.6809C57.7847 35.4831 57.86 34.1175 57.634 32.6293C57.0971 29.0692 54.9686 26.6769 51.625 25.8763C51.0316 25.735 50.5419 25.6879 49.487 25.6973C48.7335 25.6973 48.0837 25.7162 48.0272 25.735ZM50.5419 29.3705C51.2294 29.5118 52.0771 29.9827 52.4727 30.4348C52.84 30.8492 53.2167 31.5933 53.3109 32.0736L53.3768 32.375H49.5341H45.7008L45.7667 32.0736C46.0493 30.8022 47.1418 29.7379 48.4981 29.3988C49.1009 29.2481 49.9108 29.2387 50.5419 29.3705Z" fill="#693AD2"/>
<path d="M82.2641 25.82C78.9205 26.564 76.6601 28.9187 75.9537 32.3941C75.5299 34.4473 75.7653 36.8396 76.5659 38.5538C77.6584 40.9272 79.6457 42.4624 82.3582 43.0181C83.2153 43.1971 83.5544 43.2159 84.9012 43.1782C86.0409 43.1405 86.6531 43.0746 87.1805 42.9333C88.791 42.5095 90.2038 41.7372 91.2869 40.7012C92.1158 39.9006 92.1158 39.8629 91.221 39.1189C90.8066 38.7798 90.2509 38.2429 89.9872 37.9321C89.375 37.2257 89.2149 37.2163 88.5273 37.8379C87.5007 38.7704 86.2763 39.1848 84.5716 39.1754C82.1793 39.166 80.7854 38.1393 80.3333 36.0673L80.2673 35.8229H92.2005C92.6055 35.5309 92.4548 32.4412 91.9651 31.0096C91.8709 30.727 91.6166 30.1619 91.4094 29.7663C90.3074 27.6566 88.5462 26.3474 86.0974 25.8294C85.3156 25.6599 83.0081 25.6599 82.2641 25.82ZM85.2026 29.3707C85.8431 29.512 86.5024 29.8417 86.9733 30.2655C87.3689 30.6328 88.0093 31.7913 88.0093 32.1492V32.3752H80.3615L80.4275 32.1115C80.9172 30.096 82.9893 28.8998 85.2026 29.3707Z" fill="#693AD2"/>
</svg>
