<svg width="191" height="35" viewBox="0 0 191 35" fill="none" xmlns="http://www.w3.org/2000/svg">
<path d="M53.985 33.8458H53.1991V27.8351H51.085V27.1479H56.0899V27.8351H53.985V33.8458Z" fill="white"/>
<path d="M61.7447 27.1479C62.2962 27.1479 62.7512 27.2166 63.1097 27.354C63.4713 27.4884 63.7409 27.6946 63.9186 27.9725C64.0963 28.2504 64.1852 28.6047 64.1852 29.0354C64.1852 29.3897 64.1208 29.6859 63.9921 29.9242C63.8634 30.1594 63.6949 30.3502 63.4866 30.4968C63.2782 30.6435 63.0561 30.7565 62.8202 30.8359L64.6631 33.8458H63.7531L62.1078 31.0512H60.7107V33.8458H59.9294V27.1479H61.7447ZM61.6988 27.8213H60.7107V30.3915H61.7769C62.3253 30.3915 62.7283 30.28 62.9856 30.057C63.2461 29.8341 63.3763 29.5057 63.3763 29.072C63.3763 28.617 63.2384 28.2947 62.9626 28.1054C62.69 27.916 62.2687 27.8213 61.6988 27.8213Z" fill="white"/>
<path d="M72.7767 33.8458L71.9494 31.7201H69.2563L68.4336 33.8458H67.6431L70.2719 27.1204H70.9751L73.5856 33.8458H72.7767ZM71.7151 31.0283L70.9292 28.9163C70.9108 28.8613 70.8801 28.7712 70.8372 28.646C70.7974 28.5207 70.7561 28.3909 70.7132 28.2565C70.6703 28.1222 70.635 28.0137 70.6074 27.9313C70.5768 28.0565 70.5431 28.1817 70.5063 28.3069C70.4726 28.4291 70.4389 28.5436 70.4052 28.6505C70.3715 28.7544 70.3424 28.843 70.3179 28.9163L69.5182 31.0283H71.7151Z" fill="white"/>
<path d="M82.5954 33.8458H81.6946L78.0317 28.2199H77.9949C78.0041 28.3696 78.0148 28.5406 78.0271 28.733C78.0393 28.9224 78.0485 29.1255 78.0546 29.3423C78.0638 29.5561 78.0684 29.7745 78.0684 29.9975V33.8458H77.3423V27.1479H78.2385L81.8876 32.7555H81.9198C81.9136 32.6486 81.906 32.4974 81.8968 32.3019C81.8876 32.1034 81.8784 31.8911 81.8692 31.6651C81.8631 31.436 81.86 31.2238 81.86 31.0283V27.1479H82.5954V33.8458Z" fill="white"/>
<path d="M91.0445 32.0637C91.0445 32.4607 90.9449 32.7998 90.7457 33.0807C90.5496 33.3587 90.2739 33.571 89.9185 33.7176C89.563 33.8642 89.1448 33.9375 88.6638 33.9375C88.4095 33.9375 88.169 33.9253 87.9422 33.9008C87.7155 33.8764 87.5072 33.8413 87.3172 33.7954C87.1272 33.7496 86.9602 33.6931 86.8162 33.6259V32.8792C87.046 32.9739 87.3264 33.0624 87.6573 33.1449C87.9882 33.2243 88.3344 33.264 88.696 33.264C89.033 33.264 89.3179 33.2197 89.5508 33.1311C89.7837 33.0395 89.9598 32.9097 90.0793 32.7417C90.2019 32.5707 90.2632 32.3661 90.2632 32.1278C90.2632 31.8988 90.2126 31.7079 90.1115 31.5551C90.0104 31.3994 89.8419 31.2589 89.6059 31.1337C89.3731 31.0054 89.0544 30.8695 88.65 30.7259C88.3651 30.6251 88.1138 30.5152 87.8963 30.3961C87.6787 30.2739 87.4964 30.1364 87.3494 29.9837C87.2023 29.831 87.0905 29.6539 87.0139 29.4523C86.9403 29.2507 86.9036 29.0201 86.9036 28.7605C86.9036 28.4032 86.9939 28.0977 87.1747 27.8442C87.3586 27.5877 87.6113 27.3922 87.933 27.2578C88.2578 27.1204 88.6301 27.0516 89.0498 27.0516C89.4083 27.0516 89.7392 27.0852 90.0426 27.1524C90.3489 27.2196 90.6293 27.3097 90.8836 27.4227L90.64 28.0916C90.398 27.9908 90.1406 27.9068 89.8679 27.8396C89.5983 27.7724 89.3195 27.7389 89.0315 27.7389C88.7434 27.7389 88.4999 27.7816 88.3007 27.8671C88.1046 27.9496 87.9545 28.0672 87.8503 28.2199C87.7461 28.3726 87.6941 28.5543 87.6941 28.7651C87.6941 29.0003 87.7431 29.1957 87.8411 29.3515C87.9422 29.5073 88.1016 29.6462 88.3191 29.7684C88.5397 29.8875 88.8308 30.0127 89.1923 30.1441C89.5876 30.2876 89.9231 30.4403 90.1988 30.6022C90.4746 30.761 90.6844 30.9565 90.8284 31.1886C90.9725 31.4177 91.0445 31.7094 91.0445 32.0637Z" fill="white"/>
<path d="M96.998 27.1479C97.8651 27.1479 98.4978 27.3174 98.8961 27.6564C99.2975 27.9924 99.4981 28.4749 99.4981 29.1041C99.4981 29.3882 99.4506 29.6585 99.3557 29.915C99.2637 30.1685 99.1136 30.393 98.9053 30.5885C98.6969 30.7809 98.4227 30.9336 98.0826 31.0466C97.7456 31.1566 97.3319 31.2115 96.8417 31.2115H96.0236V33.8458H95.2423V27.1479H96.998ZM96.9244 27.8122H96.0236V30.5427H96.7544C97.1833 30.5427 97.5403 30.4968 97.8252 30.4052C98.1132 30.3136 98.3293 30.1655 98.4733 29.9608C98.6173 29.7531 98.6893 29.4783 98.6893 29.1362C98.6893 28.6903 98.5468 28.3589 98.2618 28.142C97.9769 27.9221 97.5311 27.8122 96.9244 27.8122Z" fill="white"/>
<path d="M109.556 30.4877C109.556 31.0039 109.49 31.4742 109.358 31.8988C109.226 32.3202 109.03 32.6837 108.77 32.9891C108.513 33.2915 108.192 33.5251 107.809 33.6901C107.426 33.855 106.982 33.9375 106.477 33.9375C105.956 33.9375 105.501 33.855 105.112 33.6901C104.726 33.5251 104.404 33.29 104.146 32.9845C103.892 32.6791 103.701 32.3141 103.572 31.8896C103.446 31.465 103.384 30.9947 103.384 30.4785C103.384 29.7944 103.497 29.1942 103.724 28.678C103.95 28.1619 104.293 27.7602 104.753 27.4731C105.216 27.186 105.795 27.0425 106.49 27.0425C107.155 27.0425 107.714 27.1845 108.168 27.4685C108.624 27.7526 108.969 28.1527 109.202 28.6689C109.438 29.182 109.556 29.7883 109.556 30.4877ZM104.206 30.4877C104.206 31.0558 104.287 31.5475 104.45 31.9629C104.612 32.3783 104.86 32.699 105.194 32.925C105.531 33.151 105.959 33.264 106.477 33.264C106.997 33.264 107.423 33.151 107.754 32.925C108.088 32.699 108.335 32.3783 108.494 31.9629C108.653 31.5475 108.733 31.0558 108.733 30.4877C108.733 29.6233 108.551 28.9483 108.186 28.4627C107.825 27.974 107.259 27.7297 106.49 27.7297C105.969 27.7297 105.541 27.8412 105.203 28.0641C104.866 28.2871 104.615 28.6047 104.45 29.0171C104.287 29.4263 104.206 29.9165 104.206 30.4877Z" fill="white"/>
<path d="M115.693 27.1479C116.245 27.1479 116.7 27.2166 117.058 27.354C117.42 27.4884 117.689 27.6946 117.867 27.9725C118.045 28.2504 118.134 28.6047 118.134 29.0354C118.134 29.3897 118.069 29.6859 117.941 29.9242C117.812 30.1594 117.643 30.3502 117.435 30.4968C117.227 30.6435 117.005 30.7565 116.769 30.8359L118.612 33.8458H117.702L116.056 31.0512H114.659V33.8458H113.878V27.1479H115.693ZM115.647 27.8213H114.659V30.3915H115.725C116.274 30.3915 116.677 30.28 116.934 30.057C117.194 29.8341 117.325 29.5057 117.325 29.072C117.325 28.617 117.187 28.2947 116.911 28.1054C116.638 27.916 116.217 27.8213 115.647 27.8213Z" fill="white"/>
<path d="M124.574 33.8458H123.788V27.8351H121.674V27.1479H126.679V27.8351H124.574V33.8458Z" fill="white"/>
<path d="M139.579 32.0637C139.579 32.4607 139.479 32.7998 139.28 33.0807C139.084 33.3587 138.808 33.571 138.453 33.7176C138.097 33.8642 137.679 33.9375 137.198 33.9375C136.944 33.9375 136.703 33.9253 136.477 33.9008C136.25 33.8764 136.042 33.8413 135.852 33.7954C135.662 33.7496 135.495 33.6931 135.351 33.6259V32.8792C135.58 32.9739 135.861 33.0624 136.192 33.1449C136.523 33.2243 136.869 33.264 137.23 33.264C137.567 33.264 137.852 33.2197 138.085 33.1311C138.318 33.0395 138.494 32.9097 138.614 32.7417C138.736 32.5707 138.798 32.3661 138.798 32.1278C138.798 31.8988 138.747 31.7079 138.646 31.5551C138.545 31.3994 138.376 31.2589 138.14 31.1337C137.908 31.0054 137.589 30.8695 137.184 30.7259C136.9 30.6251 136.648 30.5152 136.431 30.3961C136.213 30.2739 136.031 30.1364 135.884 29.9837C135.737 29.831 135.625 29.6539 135.548 29.4523C135.475 29.2507 135.438 29.0201 135.438 28.7605C135.438 28.4032 135.528 28.0977 135.709 27.8442C135.893 27.5877 136.146 27.3922 136.467 27.2578C136.792 27.1204 137.165 27.0516 137.584 27.0516C137.943 27.0516 138.274 27.0852 138.577 27.1524C138.883 27.2196 139.164 27.3097 139.418 27.4227L139.174 28.0916C138.932 27.9908 138.675 27.9068 138.402 27.8396C138.133 27.7724 137.854 27.7389 137.566 27.7389C137.278 27.7389 137.034 27.7816 136.835 27.8671C136.639 27.9496 136.489 28.0672 136.385 28.2199C136.281 28.3726 136.229 28.5543 136.229 28.7651C136.229 29.0003 136.278 29.1957 136.376 29.3515C136.477 29.5073 136.636 29.6462 136.854 29.7684C137.074 29.8875 137.365 30.0127 137.727 30.1441C138.122 30.2876 138.458 30.4403 138.733 30.6022C139.009 30.761 139.219 30.9565 139.363 31.1886C139.507 31.4177 139.579 31.7094 139.579 32.0637Z" fill="white"/>
<path d="M145.491 30.506L147.279 27.1479H148.12L145.882 31.2482V33.8458H145.1V31.2848L142.858 27.1479H143.712L145.491 30.506Z" fill="white"/>
<path d="M155.659 32.0637C155.659 32.4607 155.559 32.7998 155.36 33.0807C155.164 33.3587 154.888 33.571 154.533 33.7176C154.178 33.8642 153.759 33.9375 153.278 33.9375C153.024 33.9375 152.784 33.9253 152.557 33.9008C152.33 33.8764 152.122 33.8413 151.932 33.7954C151.742 33.7496 151.575 33.6931 151.431 33.6259V32.8792C151.661 32.9739 151.941 33.0624 152.272 33.1449C152.603 33.2243 152.949 33.264 153.311 33.264C153.648 33.264 153.932 33.2197 154.165 33.1311C154.398 33.0395 154.574 32.9097 154.694 32.7417C154.816 32.5707 154.878 32.3661 154.878 32.1278C154.878 31.8988 154.827 31.7079 154.726 31.5551C154.625 31.3994 154.456 31.2589 154.22 31.1337C153.988 31.0054 153.669 30.8695 153.265 30.7259C152.98 30.6251 152.728 30.5152 152.511 30.3961C152.293 30.2739 152.111 30.1364 151.964 29.9837C151.817 29.831 151.705 29.6539 151.628 29.4523C151.555 29.2507 151.518 29.0201 151.518 28.7605C151.518 28.4032 151.608 28.0977 151.789 27.8442C151.973 27.5877 152.226 27.3922 152.548 27.2578C152.872 27.1204 153.245 27.0516 153.664 27.0516C154.023 27.0516 154.354 27.0852 154.657 27.1524C154.964 27.2196 155.244 27.3097 155.498 27.4227L155.255 28.0916C155.013 27.9908 154.755 27.9068 154.482 27.8396C154.213 27.7724 153.934 27.7389 153.646 27.7389C153.358 27.7389 153.114 27.7816 152.915 27.8671C152.719 27.9496 152.569 28.0672 152.465 28.2199C152.361 28.3726 152.309 28.5543 152.309 28.7651C152.309 29.0003 152.358 29.1957 152.456 29.3515C152.557 29.5073 152.716 29.6462 152.934 29.7684C153.154 29.8875 153.445 30.0127 153.807 30.1441C154.202 30.2876 154.538 30.4403 154.813 30.6022C155.089 30.761 155.299 30.9565 155.443 31.1886C155.587 31.4177 155.659 31.7094 155.659 32.0637Z" fill="white"/>
<path d="M161.92 33.8458H161.135V27.8351H159.02V27.1479H164.025V27.8351H161.92V33.8458Z" fill="white"/>
<path d="M171.606 33.8458H167.865V27.1479H171.606V27.8351H168.646V30.0021H171.436V30.6801H168.646V33.1586H171.606V33.8458Z" fill="white"/>
<path d="M178.874 33.8458L176.617 27.9175H176.58C176.593 28.0428 176.603 28.1955 176.613 28.3757C176.622 28.5559 176.629 28.7529 176.636 28.9667C176.642 29.1774 176.645 29.3927 176.645 29.6126V33.8458H175.919V27.1479H177.077L179.205 32.7188H179.237L181.397 27.1479H182.546V33.8458H181.774V29.5577C181.774 29.3591 181.777 29.1606 181.783 28.9621C181.789 28.7605 181.797 28.5711 181.806 28.394C181.815 28.2138 181.824 28.058 181.834 27.9267H181.797L179.513 33.8458H178.874Z" fill="white"/>
<path d="M191 32.0637C191 32.4607 190.9 32.7998 190.701 33.0807C190.505 33.3587 190.229 33.571 189.874 33.7176C189.518 33.8642 189.1 33.9375 188.619 33.9375C188.365 33.9375 188.124 33.9253 187.897 33.9008C187.671 33.8764 187.462 33.8413 187.272 33.7954C187.082 33.7496 186.915 33.6931 186.771 33.6259V32.8792C187.001 32.9739 187.281 33.0624 187.612 33.1449C187.943 33.2243 188.29 33.264 188.651 33.264C188.988 33.264 189.273 33.2197 189.506 33.1311C189.739 33.0395 189.915 32.9097 190.034 32.7417C190.157 32.5707 190.218 32.3661 190.218 32.1278C190.218 31.8988 190.168 31.7079 190.067 31.5551C189.965 31.3994 189.797 31.2589 189.561 31.1337C189.328 31.0054 189.01 30.8695 188.605 30.7259C188.32 30.6251 188.069 30.5152 187.851 30.3961C187.634 30.2739 187.452 30.1364 187.304 29.9837C187.157 29.831 187.046 29.6539 186.969 29.4523C186.895 29.2507 186.859 29.0201 186.859 28.7605C186.859 28.4032 186.949 28.0977 187.13 27.8442C187.314 27.5877 187.566 27.3922 187.888 27.2578C188.213 27.1204 188.585 27.0516 189.005 27.0516C189.363 27.0516 189.694 27.0852 189.998 27.1524C190.304 27.2196 190.584 27.3097 190.839 27.4227L190.595 28.0916C190.353 27.9908 190.096 27.9068 189.823 27.8396C189.553 27.7724 189.275 27.7389 188.987 27.7389C188.699 27.7389 188.455 27.7816 188.256 27.8671C188.06 27.9496 187.91 28.0672 187.805 28.2199C187.701 28.3726 187.649 28.5543 187.649 28.7651C187.649 29.0003 187.698 29.1957 187.796 29.3515C187.897 29.5073 188.057 29.6462 188.274 29.7684C188.495 29.8875 188.786 30.0127 189.147 30.1441C189.543 30.2876 189.878 30.4403 190.154 30.6022C190.43 30.761 190.64 30.9565 190.784 31.1886C190.928 31.4177 191 31.7094 191 32.0637Z" fill="white"/>
<path d="M66.7755 2.3098L60.8331 19.7303H56.7919L50.8615 2.3098H54.6039L57.8919 12.6763C57.9477 12.8511 58.0393 13.1807 58.1669 13.6653C58.2944 14.1419 58.4219 14.6503 58.5495 15.1905C58.685 15.7227 58.7766 16.1636 58.8245 16.5131C58.8723 16.1636 58.956 15.7227 59.0755 15.1905C59.2031 14.6583 59.3266 14.1538 59.4462 13.6772C59.5737 13.1927 59.6654 12.859 59.7212 12.6763L63.0331 2.3098H66.7755Z" fill="white"/>
<path d="M82.7277 19.7303H72.6604V2.3098H82.7277V5.33634H76.3669V9.16123H82.2853V12.1878H76.3669V16.6799H82.7277V19.7303Z" fill="white"/>
<path d="M95.1527 2.3098C96.7389 2.3098 98.0462 2.50045 99.0744 2.88174C100.111 3.26304 100.88 3.83896 101.382 4.6095C101.884 5.38004 102.135 6.35314 102.135 7.52881C102.135 8.32317 101.984 9.01825 101.681 9.61403C101.378 10.2098 100.979 10.7142 100.485 11.1273C99.9911 11.5404 99.457 11.878 98.8831 12.1401L104.024 19.7303H99.9114L95.7386 13.0457H93.7658V19.7303H90.0593V2.3098H95.1527ZM94.8897 5.33634H93.7658V10.043H94.9614C96.189 10.043 97.0658 9.84042 97.5918 9.43529C98.1259 9.02222 98.3929 8.4185 98.3929 7.62413C98.3929 6.79799 98.106 6.21015 97.5321 5.86063C96.9661 5.51111 96.0853 5.33634 94.8897 5.33634Z" fill="white"/>
<path d="M116.641 19.7303H112.934V5.38401H108.188V2.3098H121.387V5.38401H116.641V19.7303Z" fill="white"/>
<path d="M127.751 19.7303V2.3098H131.457V19.7303H127.751Z" fill="white"/>
<path d="M146.955 5.13378C146.246 5.13378 145.616 5.2728 145.066 5.55082C144.524 5.82091 144.066 6.21412 143.691 6.73046C143.324 7.2468 143.045 7.87038 142.854 8.6012C142.663 9.33202 142.567 10.1542 142.567 11.0677C142.567 12.299 142.718 13.3515 143.021 14.2253C143.332 15.0912 143.81 15.7545 144.456 16.2152C145.102 16.668 145.935 16.8944 146.955 16.8944C147.664 16.8944 148.374 16.815 149.083 16.6561C149.801 16.4972 150.578 16.2708 151.415 15.9769V19.075C150.642 19.3927 149.88 19.6191 149.131 19.7542C148.382 19.8971 147.541 19.9686 146.608 19.9686C144.807 19.9686 143.324 19.5993 142.16 18.8605C141.005 18.1138 140.148 17.0732 139.59 15.7386C139.032 14.3961 138.753 12.8312 138.753 11.0439C138.753 9.72524 138.932 8.5178 139.291 7.42157C139.65 6.32534 140.176 5.37606 140.869 4.57375C141.563 3.77144 142.42 3.15183 143.44 2.71493C144.46 2.27802 145.632 2.05957 146.955 2.05957C147.824 2.05957 148.693 2.17078 149.561 2.39321C150.438 2.60769 151.275 2.90557 152.072 3.28687L150.877 6.28959C150.223 5.97978 149.565 5.7097 148.904 5.47933C148.242 5.24896 147.593 5.13378 146.955 5.13378Z" fill="white"/>
<path d="M169.519 19.7303L168.252 15.5837H161.879L160.612 19.7303H156.618L162.788 2.2383H167.319L173.512 19.7303H169.519ZM167.367 12.4857L166.1 8.43439C166.02 8.1643 165.912 7.81875 165.777 7.39773C165.649 6.96877 165.518 6.53584 165.382 6.09894C165.255 5.65409 165.151 5.26882 165.071 4.94313C164.992 5.26882 164.88 5.67395 164.736 6.15852C164.601 6.63514 164.469 7.08793 164.342 7.51689C164.214 7.94585 164.123 8.25168 164.067 8.43439L162.812 12.4857H167.367Z" fill="white"/>
<path d="M179.397 19.7303V2.3098H183.104V16.6799H190.194V19.7303H179.397Z" fill="white"/>
<path d="M18.9783 13.8131L17.2967 11.6511L24.8639 0L26.7857 1.92182L18.9783 13.8131Z" fill="white"/>
<path d="M13.3331 34.4725L11.6516 32.3105L14.0538 28.5869L15.6153 30.9892L13.3331 34.4725Z" fill="white"/>
<path d="M19.5784 25.1038L17.8969 22.5814L33.1513 0L35.0732 1.92182L19.5784 25.1038Z" fill="white"/>
<path d="M17.6568 7.327L15.9752 9.72928L13.2125 5.40517H4.80456L20.4194 29.6682L39.3974 1.56152L41.4394 3.60346L20.4194 34.8331L0 3.00289H14.8941L17.6568 7.327Z" fill="white"/>
</svg>
