<svg width="155" height="40" viewBox="0 0 155 40" fill="none" xmlns="http://www.w3.org/2000/svg">
<path d="M79.9269 21.4545V9.30908H89.1633V12.1818H83.3815V13.8727H88.6178V16.5273H83.3815V21.4545H79.9269Z" fill="#2E85E4"/>
<path d="M90.7579 21.4545V9.30908H94.2124V21.4545H90.7579Z" fill="#2E85E4"/>
<path d="M106.608 13.2363C106.608 14.2182 106.378 15.006 105.917 15.6C105.456 16.1818 104.796 16.6121 103.935 16.8909L107.226 21.4545H103.19L100.372 17.1636H99.6989V21.4545H96.2444V9.30908H101.808C103.36 9.30908 104.547 9.64241 105.372 10.3091C106.196 10.9757 106.608 11.9515 106.608 13.2363ZM103.117 13.2545C103.117 12.8424 102.978 12.5333 102.699 12.3273C102.432 12.1091 101.953 12 101.263 12H99.6989V14.5091H101.263C101.953 14.5091 102.432 14.406 102.699 14.2C102.978 13.9818 103.117 13.6666 103.117 13.2545Z" fill="#2E85E4"/>
<path d="M108.105 21.4545V9.30908H117.342V12.1818H111.56V13.8727H116.796V16.5273H111.56V18.5818H117.342V21.4545H108.105Z" fill="#2E85E4"/>
<path d="M130.217 20.6182C129.745 20.9697 129.211 21.2303 128.617 21.4C128.036 21.5576 127.351 21.6363 126.563 21.6363C125.933 21.6363 125.369 21.5515 124.872 21.3818C124.375 21.2 123.957 20.9576 123.617 20.6545C123.278 20.3515 123.017 20 122.836 19.6C122.666 19.1879 122.581 18.7515 122.581 18.2909C122.581 17.4666 122.775 16.7697 123.163 16.2C123.551 15.6303 124.133 15.206 124.908 14.9273L125.126 14.8545C124.739 14.3818 124.478 13.9333 124.345 13.5091C124.211 13.0727 124.145 12.6788 124.145 12.3273C124.145 11.9151 124.223 11.5151 124.381 11.1273C124.539 10.7394 124.775 10.4 125.09 10.1091C125.417 9.80605 125.811 9.56968 126.272 9.39999C126.745 9.21817 127.29 9.12726 127.908 9.12726C128.526 9.12726 129.066 9.21817 129.526 9.39999C129.999 9.56968 130.393 9.80605 130.708 10.1091C131.036 10.4 131.278 10.7394 131.436 11.1273C131.593 11.5151 131.672 11.9151 131.672 12.3273C131.672 12.8848 131.496 13.4363 131.145 13.9818C130.793 14.5151 130.169 14.9879 129.272 15.4L129.163 15.4545L130.272 16.6545L130.999 15.5636H134.072L132.017 18.5818L134.654 21.4545H130.963L130.217 20.6182ZM127.236 19.1273C127.696 19.1273 128.133 18.9939 128.545 18.7273L126.708 16.6545L126.581 16.7091C126.375 16.806 126.205 16.9636 126.072 17.1818C125.951 17.4 125.89 17.6485 125.89 17.9273C125.89 18.2545 126.005 18.5394 126.236 18.7818C126.478 19.0121 126.811 19.1273 127.236 19.1273ZM127.126 12.4545C127.126 12.903 127.339 13.3818 127.763 13.8909L127.908 13.8363C128.163 13.7394 128.357 13.5576 128.49 13.2909C128.623 13.0242 128.69 12.7454 128.69 12.4545C128.69 12.2121 128.611 12.0182 128.454 11.8727C128.296 11.7151 128.114 11.6363 127.908 11.6363C127.702 11.6363 127.52 11.7151 127.363 11.8727C127.205 12.0182 127.126 12.2121 127.126 12.4545Z" fill="#2E85E4"/>
<path d="M84.036 39.8181C83.1633 39.8181 82.3512 39.703 81.5996 39.4727C80.8603 39.2303 80.1209 38.8363 79.3815 38.2909L80.5269 35.7091C81.2178 36.1333 81.8663 36.4606 82.4724 36.6909C83.0906 36.9091 83.6118 37.0182 84.036 37.0182C84.5815 37.0182 84.9936 36.9272 85.2724 36.7454C85.5633 36.5636 85.7087 36.3151 85.7087 36C85.7087 35.7575 85.6118 35.5515 85.4178 35.3818C85.2239 35.2 84.9451 35.0788 84.5815 35.0182L83.2178 34.7636C81.9815 34.5333 81.0906 34.1575 80.5451 33.6363C80.0118 33.103 79.7451 32.406 79.7451 31.5454C79.7451 30.9636 79.836 30.4182 80.0178 29.9091C80.1997 29.4 80.4845 28.9515 80.8724 28.5636C81.2603 28.1757 81.7512 27.8727 82.3451 27.6545C82.9512 27.4242 83.6784 27.3091 84.5269 27.3091C85.1936 27.3091 85.8845 27.3939 86.5996 27.5636C87.3269 27.7333 88.0724 28.0727 88.836 28.5818L87.6906 31.1636C87.0724 30.8485 86.4966 30.5939 85.9633 30.4C85.43 30.206 84.9815 30.1091 84.6178 30.1091C84.1209 30.1091 83.7633 30.1879 83.5451 30.3454C83.339 30.4909 83.236 30.703 83.236 30.9818C83.236 31.2242 83.333 31.4121 83.5269 31.5454C83.7209 31.6666 83.9996 31.7575 84.3633 31.8182L85.7269 32.0727C86.3451 32.1818 86.8724 32.3515 87.3087 32.5818C87.7451 32.8 88.1027 33.0606 88.3815 33.3636C88.6603 33.6666 88.8663 34.006 88.9996 34.3818C89.133 34.7575 89.1996 35.1575 89.1996 35.5818C89.1996 36.903 88.7633 37.9394 87.8906 38.6909C87.0178 39.4424 85.733 39.8181 84.036 39.8181Z" fill="#2E85E4"/>
<path d="M98.4772 39.6363L97.9136 37.8727H93.659L93.0954 39.6363H89.3499L93.8772 27.4909H97.6954L102.223 39.6363H98.4772ZM95.7863 31.0727L94.5317 35.0727H97.0408L95.7863 31.0727Z" fill="#2E85E4"/>
<path d="M103.276 39.6363V27.4909H112.512V30.3636H106.73V32.0545H111.967V34.7091H106.73V39.6363H103.276Z" fill="#2E85E4"/>
<path d="M114.107 39.6363V27.4909H123.343V30.3636H117.561V32.0545H122.797V34.7091H117.561V36.7636H123.343V39.6363H114.107Z" fill="#2E85E4"/>
<path d="M128.042 39.6363V30.4727H124.696V27.4909H134.842V30.4727H131.496V39.6363H128.042Z" fill="#2E85E4"/>
<path d="M139.989 39.6363V35.1454L135.461 27.4909H139.498L141.716 31.8727L143.934 27.4909H147.97L143.443 35.1454V39.6363H139.989Z" fill="#2E85E4"/>
<circle cx="151.776" cy="37.1609" r="2.15656" stroke="#2E85E4" stroke-width="0.777778"/>
<path d="M152.939 36.6035C152.939 36.8266 152.883 37.0026 152.77 37.1315C152.66 37.2578 152.502 37.3438 152.295 37.3895L153.076 38.4616H152.412L151.703 37.4338H151.336V38.4616H150.769V35.7693H151.916C152.247 35.7693 152.499 35.8391 152.674 35.9788C152.851 36.1186 152.939 36.3268 152.939 36.6035ZM152.367 36.6076C152.367 36.4705 152.324 36.3725 152.239 36.3134C152.155 36.2542 152.016 36.2247 151.82 36.2247H151.336V36.9864H151.82C152.01 36.9864 152.149 36.9569 152.235 36.8978C152.323 36.836 152.367 36.7392 152.367 36.6076Z" fill="#2E85E4"/>
<path d="M39.5241 36.4854C38.647 38.1809 37.2181 39.3635 35.2659 40H39.5241V36.4854Z" fill="url(#paint0_linear_32_10)"/>
<path d="M38.8591 31.1232V28.701H34.6622C31.5405 28.701 30.4135 29.8361 30.4135 31.5364C30.4135 33.1893 31.7433 34.3719 34.0492 34.3719C36.1948 34.3719 38.0904 33.3412 38.8591 31.1232Z" fill="url(#paint1_linear_32_10)"/>
<path d="M20.987 31.9449C20.987 26.787 24.7265 23.5906 33.3277 23.5906H38.8591C38.7035 20.7551 36.8126 19.1546 32.9693 19.1546C31.4415 19.1546 29.8099 19.4633 28.3386 20.0047C26.5797 20.6554 24.6133 19.9002 23.7834 18.2094C22.8261 16.2669 23.7315 13.8874 25.7545 13.1513C28.4188 12.1824 31.4934 11.6742 34.4029 11.6742C35.1621 11.6742 35.893 11.7074 36.5956 11.7644L29.277 1.31085C28.051 -0.436951 25.481 -0.436951 24.2549 1.31085L0.568467 35.1223C-0.86979 37.174 0.587329 40 3.07717 40H27.2635C23.1939 38.7841 20.987 35.6922 20.987 31.9449Z" fill="url(#paint2_linear_32_10)"/>
<path d="M50.0446 39.9999H42.1602V27.4994C42.1602 25.3051 43.9238 23.5288 46.1024 23.5288C48.281 23.5288 50.0446 25.3051 50.0446 27.4994V39.9999Z" fill="#2E85E4"/>
<mask id="mask0_32_10" style="mask-type:luminance" maskUnits="userSpaceOnUse" x="54" y="6" width="15" height="34">
<path d="M56.1922 17.203L64.9639 12.1798L64.7397 38.1829H56.209L56.1922 17.203ZM67.793 7.37779L54.8211 15.3985L54.5477 15.5676V15.883V39.4259V40H55.1313H68.1031H68.6869V39.4259V7.86232V6.82529L67.793 7.37779Z" fill="white"/>
</mask>
<g mask="url(#mask0_32_10)">
<path d="M62.6869 6.82532H60.5477C57.234 6.82532 54.5477 9.51161 54.5477 12.8253V34C54.5477 37.3137 57.234 40 60.5477 40H62.6869C66.0006 40 68.6869 37.3137 68.6869 34V12.8253C68.6869 9.51161 66.0007 6.82532 62.6869 6.82532Z" fill="#F01313"/>
</g>
<path d="M51.1546 12.7114C50.9455 12.4326 50.691 12.1909 50.4547 11.9493C49.8457 11.3917 49.155 10.9921 48.5732 10.4066C47.219 9.04984 46.919 6.81018 47.7825 5.09094C46.919 5.30469 46.1646 5.78793 45.5193 6.31764C43.1652 8.25063 42.238 11.6612 43.3469 14.5886C43.3833 14.6815 43.4196 14.7744 43.4196 14.8953C43.4196 15.0997 43.2833 15.2856 43.1015 15.3599C42.8925 15.4528 42.6743 15.3971 42.5016 15.2484C42.4497 15.2045 42.4065 15.1509 42.3744 15.0904C41.3473 13.7615 41.1837 11.8564 41.8745 10.3323C40.3566 11.5962 39.5295 13.7336 39.6476 15.7502C39.7022 16.2149 39.7567 16.6795 39.9112 17.1442C40.0385 17.7018 40.2839 18.2594 40.5565 18.7519C41.5382 20.3596 43.2379 21.512 45.0648 21.7443C47.0099 21.9953 49.0913 21.6328 50.582 20.2574C52.2453 18.7148 52.827 16.2428 51.9726 14.1239L51.8545 13.8823C51.6636 13.4548 51.1546 12.7114 51.1546 12.7114ZM48.2824 18.5661C48.0279 18.7891 47.6098 19.0307 47.2826 19.1237C46.2646 19.4954 45.2466 18.975 44.6467 18.3616C45.7283 18.1014 46.3737 17.2836 46.5645 16.4565C46.719 15.7131 46.4282 15.0997 46.31 14.3841C46.201 13.6964 46.2191 13.111 46.4645 12.4697C46.6372 12.8229 46.819 13.176 47.0372 13.4548C47.737 14.3841 48.8368 14.793 49.0732 16.0569C49.1095 16.187 49.1277 16.3171 49.1277 16.4565C49.155 17.2186 48.8277 18.0549 48.2824 18.5661Z" fill="#F01313"/>
<defs>
<linearGradient id="paint0_linear_32_10" x1="35.7631" y1="40.4731" x2="38.0181" y2="36.6212" gradientUnits="userSpaceOnUse">
<stop stop-color="#F01313"/>
<stop offset="1" stop-color="#F42C2C"/>
</linearGradient>
<linearGradient id="paint1_linear_32_10" x1="31.3997" y1="35.1353" x2="34.6392" y2="28.3331" gradientUnits="userSpaceOnUse">
<stop stop-color="#F01313"/>
<stop offset="1" stop-color="#F42C2C"/>
</linearGradient>
<linearGradient id="paint2_linear_32_10" x1="4.53774" y1="45.3846" x2="32.5704" y2="6.98908" gradientUnits="userSpaceOnUse">
<stop stop-color="#F01313"/>
<stop offset="1" stop-color="#F42C2C"/>
</linearGradient>
</defs>
</svg>
